M48
; DRILL file KiCad 10.0.5 date 2026-08-13T00:42:15
; FORMAT={-:-/ absolute / metric / decimal}
; #@! TF.CreationDate,2026-08-13T00:42:15-05:00
; #@! TF.GenerationSoftware,Kicad,Pcbnew,10.0.5
; #@! TF.FileFunction,Plated,1,4,PTH
FMAT,2
METRIC
; #@! TA.AperFunction,Plated,PTH,ViaDrill
T1C0.300
; #@! TA.AperFunction,Plated,PTH,ComponentDrill
T2C0.300
; #@! TA.AperFunction,Plated,PTH,ComponentDrill
T3C0.600
; #@! TA.AperFunction,Plated,PTH,ComponentDrill
T4C0.750
; #@! TA.AperFunction,Plated,PTH,ComponentDrill
T5C1.000
%
G90
G05
T1
X102.0Y-107.2
X102.0Y-122.8
X102.0Y-125.4
X102.0Y-130.6
X102.9Y-116.03
X105.6Y-118.2
X105.6Y-120.3
X105.7Y-115.38
X106.2Y-117.33
X106.3Y-134.0
X106.5Y-114.72
X106.65Y-118.15
X107.0Y-122.6
X107.2Y-102.0
X107.2Y-109.8
X107.2Y-112.4
X107.2Y-125.4
X107.2Y-135.8
X108.2Y-131.0
X109.5Y-128.2
X109.7Y-131.0
X109.8Y-104.6
X109.9Y-124.4
X111.0Y-130.3
X111.9Y-122.8
X112.0Y-126.8
X112.3Y-104.2
X112.3Y-105.6
X112.3Y-107.0
X112.4Y-112.4
X112.6Y-123.7
X112.7Y-127.8
X113.2Y-129.9
X114.1Y-107.0
X114.3Y-126.8
X114.5Y-117.97
X114.9Y-104.2
X114.9Y-105.6
X114.9Y-108.8
X114.9Y-110.4
X115.0Y-102.0
X115.0Y-135.8
X115.1Y-126.8
X116.4Y-108.6
X116.6Y-118.9
X116.9Y-104.3
X117.1Y-102.8
X117.1Y-105.3
X117.6Y-117.6
X117.65Y-125.7
X117.65Y-127.8
X117.7Y-119.8
X118.0Y-114.8
X118.1Y-112.5
X118.5Y-102.8
X119.1Y-107.0
X119.15Y-132.95
X119.2Y-114.6
X119.2Y-126.8
X119.4Y-121.4
X119.7Y-119.8
X120.0Y-102.8
X120.0Y-115.7
X120.2Y-125.4
X120.2Y-130.6
X120.2Y-135.8
X120.4Y-127.6
X120.8Y-112.3
X122.0Y-105.7
X122.0Y-109.3
X122.0Y-117.2
X122.0Y-122.3
X122.4Y-102.8
X122.5Y-115.3
X122.5Y-118.1
X122.5Y-125.1
X122.5Y-126.0
X123.2Y-122.2
X123.6Y-126.2
X124.0Y-105.7
X124.0Y-109.3
X124.8Y-102.8
X124.8Y-112.5
X125.2Y-113.9
X125.4Y-117.6
X125.4Y-120.2
X125.4Y-125.4
X125.6Y-128.0
X126.0Y-109.3
X126.0Y-127.0
X126.0Y-129.5
X126.0Y-132.05
X126.1Y-130.6
X126.2Y-135.4
X126.3Y-113.6
X126.9Y-120.6
X126.9Y-131.0
X127.1Y-134.7
X127.3Y-105.5
X127.6Y-129.8
X128.0Y-102.8
X128.5Y-134.7
X128.9Y-106.2
X129.5Y-123.1
X129.9Y-112.6
X130.6Y-138.4
X130.9Y-106.2
X130.9Y-107.7
X132.0Y-106.9
X132.7Y-122.2
X132.8Y-107.8
X132.8Y-111.6
X132.8Y-127.0
X133.2Y-102.0
X134.4Y-132.6
X134.7Y-133.5
X135.5Y-112.8
X135.8Y-102.0
X135.8Y-107.2
X135.8Y-115.0
X135.8Y-120.2
X135.8Y-125.4
X135.8Y-135.8
X136.9Y-109.8
X136.9Y-114.2
X138.4Y-104.6
X138.4Y-122.8
X138.4Y-128.0
X138.4Y-138.4
X138.5Y-118.25
X139.6Y-110.0
X141.0Y-102.0
X141.0Y-115.0
X141.0Y-125.4
X141.3Y-127.6
X142.0Y-105.0
X142.1Y-123.2
X142.1Y-131.3
X142.3Y-117.6
X143.4Y-110.0
X143.4Y-111.3
X143.6Y-107.2
X143.6Y-130.1
X143.6Y-135.8
X143.9Y-126.7
X144.2Y-119.5
X144.3Y-116.9
X144.3Y-131.0
X144.5Y-109.4
X144.6Y-121.5
X144.7Y-123.2
X145.15Y-112.75
X145.2Y-107.9
X145.6Y-118.6
X145.85Y-109.55
X146.2Y-102.0
X146.2Y-128.0
X146.2Y-138.4
X146.6Y-123.2
X147.1Y-127.1
X147.1Y-130.9
X147.7Y-113.25
X147.9Y-112.25
X148.3Y-122.6
X148.8Y-107.2
X148.8Y-112.4
X148.8Y-128.0
X151.0Y-129.7
X151.4Y-109.8
X151.4Y-115.0
X151.4Y-118.3
X154.0Y-107.2
X154.0Y-112.4
X154.0Y-117.6
X154.0Y-120.2
X154.0Y-125.4
X154.0Y-130.6
T2
X109.4Y-114.8
X109.4Y-115.9
X109.4Y-117.0
X109.4Y-118.1
X109.4Y-119.2
X110.5Y-114.8
X110.5Y-115.9
X110.5Y-117.0
X110.5Y-118.1
X110.5Y-119.2
X111.6Y-114.8
X111.6Y-115.9
X111.6Y-117.0
X111.6Y-118.1
X111.6Y-119.2
T4
X104.5Y-109.0
X104.5Y-111.0
X137.5Y-136.2
X139.5Y-136.2
T5
X108.6Y-136.8
X111.14Y-136.8
X113.68Y-136.8
X117.6Y-136.8
X120.14Y-136.8
X124.0Y-136.8
X126.54Y-136.8
X130.6Y-136.8
X133.14Y-136.8
T3
X146.82Y-107.68G85X147.92Y-107.68
G05
X146.82Y-116.32G85X147.92Y-116.32
G05
X151.25Y-107.68G85X151.85Y-107.68
G05
X151.25Y-116.32G85X151.85Y-116.32
G05
M30
