%TF.GenerationSoftware,KiCad,Pcbnew,10.0.5*%
%TF.CreationDate,2026-08-13T21:07:55-05:00*%
%TF.ProjectId,triangle_flywheel_balancer,74726961-6e67-46c6-955f-666c79776865,rev?*%
%TF.SameCoordinates,Original*%
%TF.FileFunction,Copper,L4,Bot*%
%TF.FilePolarity,Positive*%
%FSLAX46Y46*%
G04 Gerber Fmt 4.6, Leading zero omitted, Abs format (unit mm)*
G04 Created by KiCad (PCBNEW 10.0.5) date 2026-08-13 21:07:55*
%MOMM*%
%LPD*%
G01*
G04 APERTURE LIST*
G04 Aperture macros list*
%AMRoundRect*
0 Rectangle with rounded corners*
0 $1 Rounding radius*
0 $2 $3 $4 $5 $6 $7 $8 $9 X,Y pos of 4 corners*
0 Add a 4 corners polygon primitive as box body*
4,1,4,$2,$3,$4,$5,$6,$7,$8,$9,$2,$3,0*
0 Add four circle primitives for the rounded corners*
1,1,$1+$1,$2,$3*
1,1,$1+$1,$4,$5*
1,1,$1+$1,$6,$7*
1,1,$1+$1,$8,$9*
0 Add four rect primitives between the rounded corners*
20,1,$1+$1,$2,$3,$4,$5,0*
20,1,$1+$1,$4,$5,$6,$7,0*
20,1,$1+$1,$6,$7,$8,$9,0*
20,1,$1+$1,$8,$9,$2,$3,0*%
G04 Aperture macros list end*
%TA.AperFunction,ComponentPad*%
%ADD10R,1.700000X1.700000*%
%TD*%
%TA.AperFunction,ComponentPad*%
%ADD11C,1.700000*%
%TD*%
%TA.AperFunction,WasherPad*%
%ADD12C,6.000000*%
%TD*%
%TA.AperFunction,ComponentPad*%
%ADD13RoundRect,0.250000X-0.350000X-0.625000X0.350000X-0.625000X0.350000X0.625000X-0.350000X0.625000X0*%
%TD*%
%TA.AperFunction,ComponentPad*%
%ADD14O,1.200000X1.750000*%
%TD*%
%TA.AperFunction,ComponentPad*%
%ADD15O,2.100000X1.000000*%
%TD*%
%TA.AperFunction,ComponentPad*%
%ADD16O,1.600000X1.000000*%
%TD*%
%TA.AperFunction,ComponentPad*%
%ADD17C,0.600000*%
%TD*%
%TA.AperFunction,SMDPad,CuDef*%
%ADD18R,3.400000X5.000000*%
%TD*%
%TA.AperFunction,ViaPad*%
%ADD19C,0.600000*%
%TD*%
%TA.AperFunction,Conductor*%
%ADD20C,0.250000*%
%TD*%
%TA.AperFunction,Conductor*%
%ADD21C,0.300000*%
%TD*%
G04 APERTURE END LIST*
D10*
%TO.P,J5,1*%
%TO.N,SW_LATCH_J*%
X109000000Y-103500000D03*
D11*
%TO.P,J5,2*%
%TO.N,GND*%
X111540000Y-103500000D03*
%TD*%
D12*
%TO.P,H1,*%
%TO.N,*%
X103500000Y-103500000D03*
%TD*%
D10*
%TO.P,J7,1*%
%TO.N,SW_CLOSED_J*%
X124200000Y-103500000D03*
D11*
%TO.P,J7,2*%
%TO.N,GND*%
X126740000Y-103500000D03*
%TD*%
D13*
%TO.P,J2,1*%
%TO.N,VBAT*%
X133500000Y-129240000D03*
D14*
%TO.P,J2,2*%
%TO.N,BATT_N*%
X135500000Y-129240000D03*
%TD*%
D15*
%TO.P,J1,SH*%
%TO.N,GND*%
X137870000Y-121320000D03*
D16*
X142050000Y-121320000D03*
D15*
X137870000Y-112680000D03*
D16*
X142050000Y-112680000D03*
%TD*%
D12*
%TO.P,H2,*%
%TO.N,*%
X141500000Y-103500000D03*
%TD*%
D17*
%TO.P,U2,17*%
%TO.N,GND*%
X110900000Y-121520000D03*
X110900000Y-122620000D03*
X110900000Y-123720000D03*
X110900000Y-124820000D03*
X110900000Y-125920000D03*
X112000000Y-121520000D03*
X112000000Y-122620000D03*
X112000000Y-123720000D03*
D18*
X112000000Y-123720000D03*
D17*
X112000000Y-124820000D03*
X112000000Y-125920000D03*
X113100000Y-121520000D03*
X113100000Y-122620000D03*
X113100000Y-123720000D03*
X113100000Y-124820000D03*
X113100000Y-125920000D03*
%TD*%
D12*
%TO.P,H3,*%
%TO.N,*%
X103500000Y-130500000D03*
%TD*%
D10*
%TO.P,J4,1*%
%TO.N,SERVO_PWM*%
X117750000Y-130699999D03*
D11*
%TO.P,J4,2*%
%TO.N,+5V*%
X120290000Y-130699999D03*
%TO.P,J4,3*%
%TO.N,GND*%
X122830000Y-130699999D03*
%TD*%
D10*
%TO.P,J6,1*%
%TO.N,SW_OPEN_J*%
X117500000Y-103500000D03*
D11*
%TO.P,J6,2*%
%TO.N,GND*%
X120040000Y-103500000D03*
%TD*%
D13*
%TO.P,J3,1*%
%TO.N,MOTOR_A*%
X109150000Y-129240000D03*
D14*
%TO.P,J3,2*%
%TO.N,MOTOR_B*%
X111150000Y-129240000D03*
%TD*%
D12*
%TO.P,H4,*%
%TO.N,*%
X141500000Y-130500000D03*
%TD*%
D19*
%TO.N,VBAT*%
X139900000Y-111300000D03*
X127550000Y-119750000D03*
X126200000Y-112400000D03*
X127500000Y-122600000D03*
X123950000Y-126750000D03*
X129500000Y-116600000D03*
X128699999Y-126100000D03*
%TO.N,GND*%
X107250000Y-110220000D03*
X119150000Y-113990000D03*
X119100000Y-116100000D03*
X123750000Y-120775000D03*
X123700000Y-117325000D03*
X139000000Y-122190000D03*
X113825000Y-125995000D03*
X115450000Y-116620000D03*
X137850000Y-107600000D03*
X125190000Y-128400000D03*
X137392830Y-124705330D03*
X107250000Y-108620000D03*
X137250000Y-103110000D03*
X120550000Y-111350000D03*
X107200000Y-118570000D03*
X107250000Y-116620000D03*
X140650000Y-108650000D03*
X120563172Y-113156827D03*
X107250000Y-115820000D03*
X140150000Y-126210000D03*
X134150000Y-111975000D03*
X137485330Y-120780330D03*
X107200000Y-119370000D03*
X125800000Y-117250000D03*
X137800000Y-103830000D03*
X129449999Y-114850000D03*
X106050000Y-122100000D03*
X121200000Y-126700000D03*
X105950000Y-124620000D03*
X113000000Y-112400000D03*
X113000000Y-114400000D03*
X110400000Y-114400000D03*
X116600000Y-126920000D03*
X126950000Y-128150000D03*
X129250000Y-128150000D03*
X125600000Y-104750000D03*
X110400000Y-112400000D03*
X136424669Y-113219669D03*
X107250000Y-112620000D03*
X125160000Y-127600000D03*
X122600000Y-104600000D03*
X107450000Y-113420000D03*
X107450000Y-115020000D03*
X136332169Y-124294669D03*
X129087500Y-110100000D03*
X115950000Y-119320000D03*
X127850000Y-117425000D03*
X124687500Y-114200000D03*
X116900000Y-107470000D03*
X107450000Y-111020000D03*
X113825000Y-121445000D03*
X120500000Y-118370000D03*
X128655330Y-122180330D03*
X107450000Y-109420000D03*
X137485330Y-113219669D03*
X115305330Y-121564669D03*
X141050000Y-123960000D03*
X105075000Y-125700000D03*
X119219669Y-111239669D03*
X107250000Y-114220000D03*
X107250000Y-111820000D03*
X111700000Y-113400000D03*
%TO.N,IPROPI*%
X117500000Y-114450000D03*
X117500000Y-116500000D03*
X108150000Y-125350000D03*
X118350000Y-125750000D03*
%TO.N,nFAULT_ANY*%
X121900000Y-115400000D03*
X120300000Y-121500000D03*
X107600000Y-127850000D03*
X110400000Y-118500000D03*
X107400000Y-123400000D03*
%TO.N,+3V3*%
X106150000Y-126350000D03*
X121850000Y-117600000D03*
X122900000Y-116150000D03*
X107900000Y-124045000D03*
X123850000Y-119300000D03*
X121200000Y-124500000D03*
X108800000Y-119320000D03*
X125150000Y-120050000D03*
X117500000Y-122300000D03*
X122400000Y-109500000D03*
X118850000Y-107500000D03*
X108200000Y-122750000D03*
%TO.N,PROT_OD*%
X130600000Y-125900000D03*
X133600000Y-121450000D03*
%TO.N,PROT_OC*%
X134150000Y-119750000D03*
X135750000Y-125550000D03*
%TO.N,STAT*%
X125600000Y-116200000D03*
X123400000Y-111187500D03*
%TO.N,VBUS*%
X132400000Y-111200000D03*
X129550000Y-108500000D03*
X135750000Y-119900000D03*
X135400000Y-113900000D03*
%TO.N,+5V*%
X118890000Y-128600000D03*
X126200000Y-131100000D03*
X116600000Y-124720000D03*
X102600000Y-126600000D03*
X122300000Y-123300000D03*
X116600000Y-128850000D03*
X128500000Y-131100000D03*
%TO.N,SW_LATCH_J*%
X106850000Y-120500000D03*
%TO.N,VBUS_DET*%
X112900000Y-102300000D03*
X111200000Y-106450000D03*
%TO.N,SW_CLOSED*%
X118400000Y-110610000D03*
X117500000Y-112950000D03*
%TO.N,CC1*%
X135700000Y-118700000D03*
X139000000Y-123960000D03*
%TO.N,USB_DP_C*%
X138600000Y-117250000D03*
X138600000Y-116250000D03*
%TO.N,USB_DM_C*%
X134000000Y-116550000D03*
X134000000Y-118450000D03*
X128340000Y-111050000D03*
%TO.N,CC2*%
X140300000Y-122940000D03*
X135550000Y-115300000D03*
%TO.N,USB_DP*%
X113600000Y-106850000D03*
X124900000Y-109000000D03*
%TO.N,USB_DM*%
X114550000Y-106850000D03*
X124850000Y-111000000D03*
%TO.N,MOTOR_EN*%
X108550000Y-121350000D03*
X114750000Y-112050000D03*
%TO.N,MOTOR_PH*%
X107700000Y-122050000D03*
X115150000Y-111020000D03*
%TO.N,VCP*%
X115800000Y-124000000D03*
X116600000Y-125560000D03*
%TO.N,SERVO_PWM*%
X114600000Y-117750000D03*
%TO.N,SW_OPEN*%
X118400000Y-112810000D03*
X116850000Y-113420000D03*
%TO.N,BUTTON*%
X126150000Y-108300000D03*
X117100000Y-109350000D03*
%TO.N,EN*%
X124900000Y-122110000D03*
X112800000Y-119320000D03*
X123000000Y-122375000D03*
%TO.N,BOOST_EN*%
X124400000Y-124350000D03*
X110400000Y-108600000D03*
%TO.N,STATUS_LED*%
X121400000Y-107987500D03*
X116450000Y-110220000D03*
%TD*%
%TO.N,IPROPI*%
D20*
X118350000Y-125750000D02*
X118350000Y-120700000D01*
X117500000Y-119850000D02*
X117500000Y-116500000D01*
X118350000Y-120700000D02*
X117500000Y-119850000D01*
%TO.N,nFAULT_ANY*%
X122500000Y-119000000D02*
X120800000Y-120700000D01*
X107150000Y-127400000D02*
X107600000Y-127850000D01*
X120800000Y-120700000D02*
X120300000Y-121200000D01*
X111100000Y-115100000D02*
X121600000Y-115100000D01*
X107400000Y-123400000D02*
X107150000Y-123650000D01*
X122500000Y-117100000D02*
X122500000Y-119000000D01*
X121600000Y-115100000D02*
X121900000Y-115400000D01*
X110400000Y-115800000D02*
X111100000Y-115100000D01*
X107150000Y-123650000D02*
X107150000Y-127400000D01*
X110400000Y-118500000D02*
X110400000Y-115800000D01*
X121900000Y-115400000D02*
X122500000Y-117100000D01*
X120300000Y-121200000D02*
X120300000Y-121500000D01*
%TO.N,+3V3*%
X121200000Y-121500000D02*
X123000000Y-119700000D01*
X121200000Y-124500000D02*
X121200000Y-121500000D01*
X123000000Y-119700000D02*
X123850000Y-119300000D01*
%TO.N,PROT_OD*%
X132300000Y-125900000D02*
X130900000Y-125900000D01*
X133600000Y-121450000D02*
X133600000Y-124600000D01*
X133600000Y-124600000D02*
X132300000Y-125900000D01*
X130900000Y-125900000D02*
X130600000Y-125900000D01*
%TO.N,PROT_OC*%
X134150000Y-119750000D02*
X135650000Y-121250000D01*
X135650000Y-125450000D02*
X135750000Y-125550000D01*
X135650000Y-121250000D02*
X135650000Y-125450000D01*
%TO.N,VBUS*%
X130900000Y-108500000D02*
X131900000Y-109500000D01*
D21*
X134800000Y-118900000D02*
X134800000Y-114750000D01*
X135400000Y-114150000D02*
X135400000Y-113900000D01*
D20*
X131900000Y-110700000D02*
X132400000Y-111200000D01*
X131900000Y-109500000D02*
X131900000Y-110700000D01*
D21*
X134900000Y-119050000D02*
X134800000Y-118900000D01*
X134800000Y-114750000D02*
X135400000Y-114150000D01*
D20*
X129550000Y-108500000D02*
X130900000Y-108500000D01*
D21*
X135750000Y-119900000D02*
X134900000Y-119050000D01*
%TO.N,SW_LATCH_J*%
D20*
X109000000Y-103500000D02*
X109000000Y-105500000D01*
X106550000Y-120200000D02*
X106850000Y-120500000D01*
X106550000Y-107950000D02*
X106550000Y-120200000D01*
X109000000Y-105500000D02*
X106550000Y-107950000D01*
%TO.N,VBUS_DET*%
X112900000Y-102300000D02*
X112900000Y-104600000D01*
X112900000Y-104600000D02*
X111500000Y-105400000D01*
X111500000Y-105400000D02*
X111200000Y-105700000D01*
X111200000Y-105700000D02*
X111200000Y-106450000D01*
%TO.N,CC1*%
X136450000Y-119450000D02*
X136450000Y-122950000D01*
X135700000Y-118700000D02*
X136450000Y-119450000D01*
X137450000Y-123950000D02*
X139000000Y-123960000D01*
X136450000Y-122950000D02*
X137450000Y-123950000D01*
%TO.N,USB_DP_C*%
X138600000Y-116250000D02*
X138600000Y-117250000D01*
%TO.N,USB_DM_C*%
X133199999Y-113100000D02*
X131199999Y-111100000D01*
X128400000Y-111100000D02*
X128340000Y-111050000D01*
X131199999Y-111100000D02*
X128400000Y-111100000D01*
X133199999Y-115750000D02*
X133199999Y-113100000D01*
X134000000Y-116550000D02*
X134000000Y-118450000D01*
X134000000Y-116550000D02*
X133199999Y-115750000D01*
%TO.N,CC2*%
X139700000Y-116300000D02*
X139700000Y-121900000D01*
X140300000Y-122500000D02*
X140300000Y-122940000D01*
X138300000Y-114900000D02*
X139700000Y-116300000D01*
X136100000Y-114900000D02*
X138300000Y-114900000D01*
X135550000Y-115300000D02*
X136100000Y-114900000D01*
X139700000Y-121900000D02*
X140300000Y-122500000D01*
%TO.N,USB_DP*%
X115500000Y-106550000D02*
X115200000Y-106200000D01*
X122350000Y-107750000D02*
X121550000Y-106550000D01*
X113850000Y-106200000D02*
X113600000Y-106450000D01*
X113600000Y-106450000D02*
X113600000Y-106850000D01*
X124900000Y-107750000D02*
X122350000Y-107750000D01*
X121550000Y-106550000D02*
X115500000Y-106550000D01*
X124900000Y-109000000D02*
X124900000Y-107750000D01*
X115200000Y-106200000D02*
X113850000Y-106200000D01*
%TO.N,USB_DM*%
X124850000Y-111000000D02*
X124850000Y-112100000D01*
X114550000Y-108600000D02*
X114550000Y-106850000D01*
X114950000Y-109000000D02*
X114550000Y-108600000D01*
X124850000Y-112100000D02*
X116800000Y-112100000D01*
X116800000Y-112100000D02*
X114950000Y-109000000D01*
%TO.N,MOTOR_PH*%
X107900000Y-121850000D02*
X107900000Y-115900000D01*
X107700000Y-122050000D02*
X107900000Y-121850000D01*
X107900000Y-115900000D02*
X112900000Y-110900000D01*
X114850000Y-110900000D02*
X115150000Y-111020000D01*
X112900000Y-110900000D02*
X114850000Y-110900000D01*
%TO.N,VCP*%
X116160000Y-125560000D02*
X116600000Y-125560000D01*
X115800000Y-125200000D02*
X116160000Y-125560000D01*
X115800000Y-124000000D02*
X115800000Y-125200000D01*
%TO.N,SERVO_PWM*%
X114600000Y-128350000D02*
X115600000Y-129350000D01*
X117750000Y-130500000D02*
X117750000Y-130699999D01*
X115600000Y-129350000D02*
X115950000Y-129699999D01*
X115950000Y-129699999D02*
X116950000Y-129699999D01*
X116950000Y-129699999D02*
X117750000Y-130500000D01*
X114600000Y-117750000D02*
X114600000Y-128350000D01*
%TO.N,BUTTON*%
X117500000Y-109750000D02*
X121300000Y-109750000D01*
X126150000Y-110350000D02*
X126150000Y-108600000D01*
X126150000Y-108600000D02*
X126150000Y-108300000D01*
X117100000Y-109350000D02*
X117500000Y-109750000D01*
X121300000Y-109750000D02*
X121900000Y-110350000D01*
X121900000Y-110350000D02*
X126150000Y-110350000D01*
%TO.N,BOOST_EN*%
X111900000Y-105750000D02*
X126850000Y-105750000D01*
X126850000Y-123500000D02*
X124750000Y-123850000D01*
X126850000Y-105750000D02*
X126850000Y-123500000D01*
X111900000Y-108600000D02*
X111900000Y-105750000D01*
X124750000Y-123850000D02*
X124400000Y-124200000D01*
X110400000Y-108600000D02*
X111900000Y-108600000D01*
X124400000Y-124200000D02*
X124400000Y-124350000D01*
%TD*%
%TA.AperFunction,Conductor*%
%TO.N,GND*%
G36*
X117236500Y-110089193D02*
G01*
X117238735Y-110090483D01*
X117238737Y-110090485D01*
X117326133Y-110140943D01*
X117335763Y-110146503D01*
X117443981Y-110175500D01*
X117443982Y-110175500D01*
X117742687Y-110175500D01*
X117809726Y-110195185D01*
X117855481Y-110247989D01*
X117865425Y-110317147D01*
X117850074Y-110361500D01*
X117840424Y-110378213D01*
X117840423Y-110378216D01*
X117799500Y-110530943D01*
X117799500Y-110689057D01*
X117834446Y-110819475D01*
X117840423Y-110841783D01*
X117840426Y-110841790D01*
X117919475Y-110978709D01*
X117919479Y-110978714D01*
X117919480Y-110978716D01*
X118031284Y-111090520D01*
X118031286Y-111090521D01*
X118031290Y-111090524D01*
X118132894Y-111149184D01*
X118168216Y-111169577D01*
X118320943Y-111210500D01*
X118320945Y-111210500D01*
X118479055Y-111210500D01*
X118479057Y-111210500D01*
X118631784Y-111169577D01*
X118768716Y-111090520D01*
X118880520Y-110978716D01*
X118959577Y-110841784D01*
X119000500Y-110689057D01*
X119000500Y-110530943D01*
X118959577Y-110378216D01*
X118949925Y-110361499D01*
X118933453Y-110293600D01*
X118956305Y-110227573D01*
X119011227Y-110184382D01*
X119057313Y-110175500D01*
X121072390Y-110175500D01*
X121139429Y-110195185D01*
X121160071Y-110211819D01*
X121638737Y-110690485D01*
X121735763Y-110746503D01*
X121843981Y-110775500D01*
X121843982Y-110775500D01*
X122729697Y-110775500D01*
X122796736Y-110795185D01*
X122842491Y-110847989D01*
X122852435Y-110917147D01*
X122841913Y-110947534D01*
X122843534Y-110948206D01*
X122840423Y-110955716D01*
X122799500Y-111108443D01*
X122799500Y-111266557D01*
X122837416Y-111408059D01*
X122840423Y-111419283D01*
X122840423Y-111419284D01*
X122880385Y-111488501D01*
X122896857Y-111556401D01*
X122874004Y-111622428D01*
X122819082Y-111665618D01*
X122772997Y-111674500D01*
X117111984Y-111674500D01*
X117044945Y-111654815D01*
X117005504Y-111614045D01*
X116615578Y-110960656D01*
X116598126Y-110893001D01*
X116620022Y-110826651D01*
X116674314Y-110782671D01*
X116674609Y-110782548D01*
X116681772Y-110779580D01*
X116681784Y-110779577D01*
X116818716Y-110700520D01*
X116930520Y-110588716D01*
X117009577Y-110451784D01*
X117050500Y-110299057D01*
X117050500Y-110196580D01*
X117070185Y-110129541D01*
X117122989Y-110083786D01*
X117192147Y-110073842D01*
X117236500Y-110089193D01*
G37*
%TD.AperFunction*%
%TA.AperFunction,Conductor*%
G36*
X115297245Y-106928673D02*
G01*
X115304533Y-106932078D01*
X115305829Y-106932735D01*
X115305831Y-106932735D01*
X115305836Y-106932739D01*
X115310589Y-106934412D01*
X115331398Y-106943983D01*
X115335763Y-106946503D01*
X115369497Y-106955541D01*
X115378557Y-106958345D01*
X115411512Y-106969950D01*
X115416531Y-106970335D01*
X115439120Y-106974197D01*
X115443982Y-106975500D01*
X115478895Y-106975500D01*
X115488404Y-106975865D01*
X115493485Y-106976255D01*
X115523219Y-106978543D01*
X115528168Y-106977616D01*
X115550981Y-106975500D01*
X118244648Y-106975500D01*
X118311687Y-106995185D01*
X118357442Y-107047989D01*
X118367386Y-107117147D01*
X118352035Y-107161500D01*
X118290424Y-107268213D01*
X118290423Y-107268216D01*
X118249500Y-107420943D01*
X118249500Y-107579057D01*
X118282728Y-107703063D01*
X118290423Y-107731783D01*
X118290426Y-107731790D01*
X118369475Y-107868709D01*
X118369479Y-107868714D01*
X118369480Y-107868716D01*
X118481284Y-107980520D01*
X118481286Y-107980521D01*
X118481290Y-107980524D01*
X118585040Y-108040423D01*
X118618216Y-108059577D01*
X118770943Y-108100500D01*
X118770945Y-108100500D01*
X118929055Y-108100500D01*
X118929057Y-108100500D01*
X119081784Y-108059577D01*
X119218716Y-107980520D01*
X119330520Y-107868716D01*
X119409577Y-107731784D01*
X119450500Y-107579057D01*
X119450500Y-107420943D01*
X119409577Y-107268216D01*
X119347964Y-107161499D01*
X119331492Y-107093599D01*
X119354345Y-107027573D01*
X119409266Y-106984382D01*
X119455352Y-106975500D01*
X121255916Y-106975500D01*
X121322955Y-106995185D01*
X121359090Y-107030717D01*
X121468090Y-107194217D01*
X121488898Y-107260916D01*
X121470343Y-107328277D01*
X121418315Y-107374913D01*
X121364916Y-107387000D01*
X121320943Y-107387000D01*
X121168216Y-107427923D01*
X121168209Y-107427926D01*
X121031290Y-107506975D01*
X121031282Y-107506981D01*
X120919481Y-107618782D01*
X120919475Y-107618790D01*
X120840426Y-107755709D01*
X120840423Y-107755716D01*
X120799500Y-107908443D01*
X120799500Y-108066557D01*
X120835172Y-108199685D01*
X120840423Y-108219283D01*
X120840426Y-108219290D01*
X120919475Y-108356209D01*
X120919479Y-108356214D01*
X120919480Y-108356216D01*
X121031284Y-108468020D01*
X121031286Y-108468021D01*
X121031290Y-108468024D01*
X121162855Y-108543982D01*
X121168216Y-108547077D01*
X121320943Y-108588000D01*
X121320945Y-108588000D01*
X121479055Y-108588000D01*
X121479057Y-108588000D01*
X121631784Y-108547077D01*
X121768716Y-108468020D01*
X121880520Y-108356216D01*
X121959577Y-108219284D01*
X121964829Y-108199680D01*
X122001191Y-108140024D01*
X122064037Y-108109493D01*
X122133413Y-108117786D01*
X122139549Y-108120614D01*
X122145549Y-108123581D01*
X122152573Y-108127340D01*
X122185763Y-108146503D01*
X122187301Y-108146915D01*
X122210185Y-108155540D01*
X122211622Y-108156251D01*
X122246836Y-108163294D01*
X122249196Y-108163766D01*
X122256970Y-108165583D01*
X122272210Y-108169666D01*
X122293982Y-108175500D01*
X122295584Y-108175500D01*
X122319902Y-108177908D01*
X122320296Y-108177986D01*
X122321483Y-108178224D01*
X122359733Y-108175756D01*
X122367714Y-108175500D01*
X124350500Y-108175500D01*
X124417539Y-108195185D01*
X124463294Y-108247989D01*
X124474500Y-108299500D01*
X124474500Y-108524902D01*
X124454815Y-108591941D01*
X124438181Y-108612583D01*
X124419481Y-108631282D01*
X124419475Y-108631290D01*
X124340426Y-108768209D01*
X124340423Y-108768216D01*
X124299500Y-108920943D01*
X124299500Y-109079057D01*
X124332041Y-109200500D01*
X124340423Y-109231783D01*
X124340426Y-109231790D01*
X124419475Y-109368709D01*
X124419479Y-109368714D01*
X124419480Y-109368716D01*
X124531284Y-109480520D01*
X124531286Y-109480521D01*
X124531290Y-109480524D01*
X124668209Y-109559573D01*
X124668216Y-109559577D01*
X124820943Y-109600500D01*
X124820945Y-109600500D01*
X124979055Y-109600500D01*
X124979057Y-109600500D01*
X125131784Y-109559577D01*
X125268716Y-109480520D01*
X125380520Y-109368716D01*
X125459577Y-109231784D01*
X125480725Y-109152855D01*
X125517090Y-109093196D01*
X125579937Y-109062667D01*
X125649313Y-109070962D01*
X125703190Y-109115447D01*
X125724465Y-109181999D01*
X125724500Y-109184950D01*
X125724500Y-109800500D01*
X125704815Y-109867539D01*
X125652011Y-109913294D01*
X125600500Y-109924500D01*
X123063087Y-109924500D01*
X122996048Y-109904815D01*
X122950293Y-109852011D01*
X122940349Y-109782853D01*
X122955698Y-109738503D01*
X122957535Y-109735321D01*
X122959577Y-109731784D01*
X123000500Y-109579057D01*
X123000500Y-109420943D01*
X122959577Y-109268216D01*
X122956838Y-109263472D01*
X122880524Y-109131290D01*
X122880518Y-109131282D01*
X122768717Y-109019481D01*
X122768709Y-109019475D01*
X122631790Y-108940426D01*
X122631786Y-108940424D01*
X122631784Y-108940423D01*
X122479057Y-108899500D01*
X122320943Y-108899500D01*
X122168216Y-108940423D01*
X122168209Y-108940426D01*
X122031290Y-109019475D01*
X122031282Y-109019481D01*
X121919481Y-109131282D01*
X121919475Y-109131290D01*
X121840426Y-109268209D01*
X121840423Y-109268214D01*
X121807157Y-109392366D01*
X121770791Y-109452026D01*
X121707944Y-109482555D01*
X121638569Y-109474260D01*
X121599701Y-109447953D01*
X121561265Y-109409517D01*
X121561263Y-109409515D01*
X121464237Y-109353497D01*
X121356018Y-109324500D01*
X121356017Y-109324500D01*
X117809999Y-109324500D01*
X117742960Y-109304815D01*
X117697205Y-109252011D01*
X117690224Y-109232594D01*
X117690007Y-109231783D01*
X117659577Y-109118216D01*
X117637816Y-109080524D01*
X117580524Y-108981290D01*
X117580518Y-108981282D01*
X117468717Y-108869481D01*
X117468709Y-108869475D01*
X117331790Y-108790426D01*
X117331786Y-108790424D01*
X117331784Y-108790423D01*
X117179057Y-108749500D01*
X117020943Y-108749500D01*
X116868216Y-108790423D01*
X116868209Y-108790426D01*
X116731290Y-108869475D01*
X116731282Y-108869481D01*
X116619481Y-108981282D01*
X116619475Y-108981290D01*
X116540426Y-109118209D01*
X116540423Y-109118216D01*
X116499500Y-109270943D01*
X116499500Y-109429058D01*
X116508704Y-109463408D01*
X116507041Y-109533258D01*
X116467878Y-109591120D01*
X116403649Y-109618623D01*
X116388929Y-109619500D01*
X116370943Y-109619500D01*
X116218216Y-109660423D01*
X116218209Y-109660426D01*
X116081290Y-109739475D01*
X116081281Y-109739482D01*
X116072065Y-109748698D01*
X116010741Y-109782181D01*
X115941050Y-109777194D01*
X115885117Y-109735321D01*
X115877907Y-109724559D01*
X115821480Y-109630005D01*
X115317417Y-108785360D01*
X115316537Y-108783861D01*
X115307504Y-108768216D01*
X115290484Y-108738736D01*
X115290483Y-108738735D01*
X115290329Y-108738468D01*
X115289168Y-108737000D01*
X115288059Y-108735577D01*
X115286894Y-108734059D01*
X115284552Y-108731784D01*
X115249341Y-108697575D01*
X115248066Y-108696318D01*
X115011819Y-108460071D01*
X114978334Y-108398748D01*
X114975500Y-108372390D01*
X114975500Y-107325098D01*
X114995185Y-107258059D01*
X115011819Y-107237417D01*
X115030520Y-107218716D01*
X115109577Y-107081784D01*
X115128659Y-107010566D01*
X115165022Y-106950909D01*
X115227869Y-106920379D01*
X115297245Y-106928673D01*
G37*
%TD.AperFunction*%
%TA.AperFunction,Conductor*%
G36*
X139706593Y-100520185D02*
G01*
X139752348Y-100572989D01*
X139762292Y-100642147D01*
X139733267Y-100705703D01*
X139708445Y-100727602D01*
X139531532Y-100845811D01*
X139531518Y-100845821D01*
X139280841Y-101051546D01*
X139051546Y-101280841D01*
X138845821Y-101531518D01*
X138845811Y-101531532D01*
X138665657Y-101801151D01*
X138665646Y-101801169D01*
X138512788Y-102087145D01*
X138512786Y-102087150D01*
X138388686Y-102386752D01*
X138294548Y-102697086D01*
X138294545Y-102697097D01*
X138231287Y-103015125D01*
X138231284Y-103015142D01*
X138199500Y-103337860D01*
X138199500Y-103662139D01*
X138231284Y-103984857D01*
X138231287Y-103984874D01*
X138294545Y-104302902D01*
X138294548Y-104302913D01*
X138388686Y-104613247D01*
X138407187Y-104657912D01*
X138492039Y-104862763D01*
X138512786Y-104912849D01*
X138512788Y-104912854D01*
X138665646Y-105198830D01*
X138665657Y-105198848D01*
X138845811Y-105468467D01*
X138845821Y-105468481D01*
X139051546Y-105719158D01*
X139280841Y-105948453D01*
X139280846Y-105948457D01*
X139280847Y-105948458D01*
X139531524Y-106154183D01*
X139801158Y-106334347D01*
X139801167Y-106334352D01*
X139801169Y-106334353D01*
X140087145Y-106487211D01*
X140087147Y-106487211D01*
X140087153Y-106487215D01*
X140386754Y-106611314D01*
X140697077Y-106705449D01*
X140697083Y-106705450D01*
X140697086Y-106705451D01*
X140697097Y-106705454D01*
X140896528Y-106745122D01*
X141015132Y-106768714D01*
X141337857Y-106800500D01*
X141337860Y-106800500D01*
X141662140Y-106800500D01*
X141662143Y-106800500D01*
X141984868Y-106768714D01*
X142142295Y-106737399D01*
X142302902Y-106705454D01*
X142302913Y-106705451D01*
X142302913Y-106705450D01*
X142302923Y-106705449D01*
X142613246Y-106611314D01*
X142912847Y-106487215D01*
X143198842Y-106334347D01*
X143468476Y-106154183D01*
X143719153Y-105948458D01*
X143948458Y-105719153D01*
X144154183Y-105468476D01*
X144272398Y-105291554D01*
X144326010Y-105246749D01*
X144395335Y-105238042D01*
X144458362Y-105268196D01*
X144495082Y-105327639D01*
X144499500Y-105360445D01*
X144499500Y-128639554D01*
X144479815Y-128706593D01*
X144427011Y-128752348D01*
X144357853Y-128762292D01*
X144294297Y-128733267D01*
X144272398Y-128708445D01*
X144260321Y-128690371D01*
X144154183Y-128531524D01*
X143948458Y-128280847D01*
X143948457Y-128280846D01*
X143948453Y-128280841D01*
X143719158Y-128051546D01*
X143468481Y-127845821D01*
X143468480Y-127845820D01*
X143468476Y-127845817D01*
X143198842Y-127665653D01*
X143198837Y-127665650D01*
X143198830Y-127665646D01*
X142912854Y-127512788D01*
X142912849Y-127512786D01*
X142613247Y-127388686D01*
X142302913Y-127294548D01*
X142302902Y-127294545D01*
X141984874Y-127231287D01*
X141984857Y-127231284D01*
X141726513Y-127205840D01*
X141662143Y-127199500D01*
X141337857Y-127199500D01*
X141273487Y-127205840D01*
X141015142Y-127231284D01*
X141015125Y-127231287D01*
X140697097Y-127294545D01*
X140697086Y-127294548D01*
X140386752Y-127388686D01*
X140087150Y-127512786D01*
X140087145Y-127512788D01*
X139801169Y-127665646D01*
X139801151Y-127665657D01*
X139531532Y-127845811D01*
X139531518Y-127845821D01*
X139280841Y-128051546D01*
X139051546Y-128280841D01*
X138845821Y-128531518D01*
X138845811Y-128531532D01*
X138665657Y-128801151D01*
X138665646Y-128801169D01*
X138512788Y-129087145D01*
X138512786Y-129087150D01*
X138388686Y-129386752D01*
X138294548Y-129697086D01*
X138294545Y-129697097D01*
X138231287Y-130015125D01*
X138231284Y-130015142D01*
X138211653Y-130214464D01*
X138199500Y-130337857D01*
X138199500Y-130662143D01*
X138206616Y-130734389D01*
X138231284Y-130984857D01*
X138231287Y-130984874D01*
X138294545Y-131302902D01*
X138294548Y-131302913D01*
X138388686Y-131613247D01*
X138512786Y-131912849D01*
X138512788Y-131912854D01*
X138665646Y-132198830D01*
X138665657Y-132198848D01*
X138845811Y-132468467D01*
X138845821Y-132468481D01*
X139051546Y-132719158D01*
X139280841Y-132948453D01*
X139280846Y-132948457D01*
X139280847Y-132948458D01*
X139531524Y-133154183D01*
X139692074Y-133261459D01*
X139708445Y-133272398D01*
X139753250Y-133326010D01*
X139761957Y-133395335D01*
X139731803Y-133458362D01*
X139672360Y-133495082D01*
X139639554Y-133499500D01*
X105360446Y-133499500D01*
X105293407Y-133479815D01*
X105247652Y-133427011D01*
X105237708Y-133357853D01*
X105266733Y-133294297D01*
X105291555Y-133272398D01*
X105307926Y-133261459D01*
X105468476Y-133154183D01*
X105719153Y-132948458D01*
X105948458Y-132719153D01*
X106154183Y-132468476D01*
X106334347Y-132198842D01*
X106487215Y-131912847D01*
X106611314Y-131613246D01*
X106705449Y-131302923D01*
X106705451Y-131302913D01*
X106705454Y-131302902D01*
X106737531Y-131141635D01*
X106768714Y-130984868D01*
X106800500Y-130662143D01*
X106800500Y-130337857D01*
X106768714Y-130015132D01*
X106745122Y-129896528D01*
X106705454Y-129697097D01*
X106705451Y-129697086D01*
X106705450Y-129697083D01*
X106705449Y-129697077D01*
X106611314Y-129386754D01*
X106487215Y-129087153D01*
X106484346Y-129081786D01*
X106334353Y-128801169D01*
X106334352Y-128801167D01*
X106334347Y-128801158D01*
X106181160Y-128571898D01*
X108249500Y-128571898D01*
X108249500Y-129908102D01*
X108253516Y-129941541D01*
X108260122Y-129996561D01*
X108315639Y-130137343D01*
X108407077Y-130257922D01*
X108527656Y-130349360D01*
X108527657Y-130349360D01*
X108527658Y-130349361D01*
X108668436Y-130404877D01*
X108756898Y-130415500D01*
X108756903Y-130415500D01*
X109543097Y-130415500D01*
X109543102Y-130415500D01*
X109631564Y-130404877D01*
X109772342Y-130349361D01*
X109892922Y-130257922D01*
X109984361Y-130137342D01*
X110039877Y-129996564D01*
X110050500Y-129908102D01*
X110050500Y-129837080D01*
X110070185Y-129770041D01*
X110122989Y-129724286D01*
X110192147Y-129714342D01*
X110255703Y-129743367D01*
X110289061Y-129789628D01*
X110351983Y-129941541D01*
X110351990Y-129941553D01*
X110450535Y-130089034D01*
X110450538Y-130089038D01*
X110575961Y-130214461D01*
X110575965Y-130214464D01*
X110723446Y-130313009D01*
X110723459Y-130313016D01*
X110846363Y-130363923D01*
X110887334Y-130380894D01*
X110887336Y-130380894D01*
X110887341Y-130380896D01*
X111061304Y-130415499D01*
X111061307Y-130415500D01*
X111061309Y-130415500D01*
X111238693Y-130415500D01*
X111238694Y-130415499D01*
X111296682Y-130403964D01*
X111412658Y-130380896D01*
X111412661Y-130380894D01*
X111412666Y-130380894D01*
X111576547Y-130313013D01*
X111724035Y-130214464D01*
X111849464Y-130089035D01*
X111948013Y-129941547D01*
X112015894Y-129777666D01*
X112031923Y-129697086D01*
X112044514Y-129633786D01*
X112050500Y-129603691D01*
X112050500Y-128876309D01*
X112050500Y-128876306D01*
X112050499Y-128876304D01*
X112015896Y-128702341D01*
X112015893Y-128702332D01*
X111948016Y-128538459D01*
X111948009Y-128538446D01*
X111849464Y-128390965D01*
X111849461Y-128390961D01*
X111724038Y-128265538D01*
X111724034Y-128265535D01*
X111576553Y-128166990D01*
X111576540Y-128166983D01*
X111412667Y-128099106D01*
X111412658Y-128099103D01*
X111238694Y-128064500D01*
X111238691Y-128064500D01*
X111061309Y-128064500D01*
X111061306Y-128064500D01*
X110887341Y-128099103D01*
X110887332Y-128099106D01*
X110723459Y-128166983D01*
X110723446Y-128166990D01*
X110575965Y-128265535D01*
X110575961Y-128265538D01*
X110450538Y-128390961D01*
X110450535Y-128390965D01*
X110351990Y-128538446D01*
X110351983Y-128538459D01*
X110289061Y-128690371D01*
X110245221Y-128744775D01*
X110178927Y-128766840D01*
X110111227Y-128749561D01*
X110063616Y-128698424D01*
X110050500Y-128642919D01*
X110050500Y-128571903D01*
X110050500Y-128571898D01*
X110039877Y-128483436D01*
X109984361Y-128342658D01*
X109984360Y-128342657D01*
X109984360Y-128342656D01*
X109892922Y-128222077D01*
X109772343Y-128130639D01*
X109631561Y-128075122D01*
X109585926Y-128069642D01*
X109543102Y-128064500D01*
X108756898Y-128064500D01*
X108717853Y-128069188D01*
X108668438Y-128075122D01*
X108527656Y-128130639D01*
X108407077Y-128222077D01*
X108315639Y-128342656D01*
X108260122Y-128483438D01*
X108256424Y-128514236D01*
X108249500Y-128571898D01*
X106181160Y-128571898D01*
X106154183Y-128531524D01*
X105948458Y-128280847D01*
X105948457Y-128280846D01*
X105948453Y-128280841D01*
X105719158Y-128051546D01*
X105468481Y-127845821D01*
X105468480Y-127845820D01*
X105468476Y-127845817D01*
X105198842Y-127665653D01*
X105198837Y-127665650D01*
X105198830Y-127665646D01*
X104912854Y-127512788D01*
X104912849Y-127512786D01*
X104613247Y-127388686D01*
X104302913Y-127294548D01*
X104302902Y-127294545D01*
X103984874Y-127231287D01*
X103984857Y-127231284D01*
X103726513Y-127205840D01*
X103662143Y-127199500D01*
X103337857Y-127199500D01*
X103288768Y-127204334D01*
X103141295Y-127218859D01*
X103072649Y-127205840D01*
X103021938Y-127157775D01*
X103005264Y-127089924D01*
X103027920Y-127023829D01*
X103041455Y-127007780D01*
X103080520Y-126968716D01*
X103159577Y-126831784D01*
X103200500Y-126679057D01*
X103200500Y-126520943D01*
X103159577Y-126368216D01*
X103103417Y-126270943D01*
X105549500Y-126270943D01*
X105549500Y-126429057D01*
X105590086Y-126580524D01*
X105590423Y-126581783D01*
X105590426Y-126581790D01*
X105669475Y-126718709D01*
X105669479Y-126718714D01*
X105669480Y-126718716D01*
X105781284Y-126830520D01*
X105781286Y-126830521D01*
X105781290Y-126830524D01*
X105909571Y-126904586D01*
X105918216Y-126909577D01*
X106070943Y-126950500D01*
X106070945Y-126950500D01*
X106229055Y-126950500D01*
X106229057Y-126950500D01*
X106381784Y-126909577D01*
X106461866Y-126863342D01*
X106518710Y-126830524D01*
X106518712Y-126830521D01*
X106518716Y-126830520D01*
X106518718Y-126830517D01*
X106525010Y-126825690D01*
X106590179Y-126800493D01*
X106658624Y-126814529D01*
X106708615Y-126863342D01*
X106724500Y-126924063D01*
X106724500Y-127343982D01*
X106724500Y-127456018D01*
X106753497Y-127564237D01*
X106809515Y-127661263D01*
X106809517Y-127661265D01*
X106963181Y-127814929D01*
X106996666Y-127876252D01*
X106999500Y-127902610D01*
X106999500Y-127929057D01*
X107029341Y-128040423D01*
X107040423Y-128081783D01*
X107040426Y-128081790D01*
X107119475Y-128218709D01*
X107119479Y-128218714D01*
X107119480Y-128218716D01*
X107231284Y-128330520D01*
X107231286Y-128330521D01*
X107231290Y-128330524D01*
X107368209Y-128409573D01*
X107368216Y-128409577D01*
X107520943Y-128450500D01*
X107520945Y-128450500D01*
X107679054Y-128450500D01*
X107679057Y-128450500D01*
X107831784Y-128409577D01*
X107968716Y-128330520D01*
X108080520Y-128218716D01*
X108159577Y-128081784D01*
X108200500Y-127929057D01*
X108200500Y-127770943D01*
X108159577Y-127618216D01*
X108128414Y-127564239D01*
X108080524Y-127481290D01*
X108080518Y-127481282D01*
X107968717Y-127369481D01*
X107968709Y-127369475D01*
X107831790Y-127290426D01*
X107831786Y-127290424D01*
X107831784Y-127290423D01*
X107679057Y-127249500D01*
X107679056Y-127249500D01*
X107671207Y-127247397D01*
X107671851Y-127244993D01*
X107619401Y-127221779D01*
X107580940Y-127163447D01*
X107575500Y-127127121D01*
X107575500Y-125924063D01*
X107595185Y-125857024D01*
X107647989Y-125811269D01*
X107717147Y-125801325D01*
X107774990Y-125825690D01*
X107781289Y-125830524D01*
X107918209Y-125909573D01*
X107918216Y-125909577D01*
X108070943Y-125950500D01*
X108070945Y-125950500D01*
X108229055Y-125950500D01*
X108229057Y-125950500D01*
X108381784Y-125909577D01*
X108518716Y-125830520D01*
X108630520Y-125718716D01*
X108709577Y-125581784D01*
X108750500Y-125429057D01*
X108750500Y-125270943D01*
X108709577Y-125118216D01*
X108692545Y-125088716D01*
X108630524Y-124981290D01*
X108630518Y-124981282D01*
X108518717Y-124869481D01*
X108518709Y-124869475D01*
X108381790Y-124790426D01*
X108381785Y-124790423D01*
X108340773Y-124779434D01*
X108280332Y-124763239D01*
X108220674Y-124726875D01*
X108190145Y-124664028D01*
X108198440Y-124594652D01*
X108242925Y-124540774D01*
X108250415Y-124536085D01*
X108268716Y-124525520D01*
X108380520Y-124413716D01*
X108459577Y-124276784D01*
X108500500Y-124124057D01*
X108500500Y-123965943D01*
X108459577Y-123813216D01*
X108442899Y-123784329D01*
X108380524Y-123676290D01*
X108380518Y-123676282D01*
X108268714Y-123564478D01*
X108264188Y-123561005D01*
X108222986Y-123504577D01*
X108218833Y-123434830D01*
X108253046Y-123373911D01*
X108307581Y-123342856D01*
X108431784Y-123309577D01*
X108568716Y-123230520D01*
X108680520Y-123118716D01*
X108759577Y-122981784D01*
X108800500Y-122829057D01*
X108800500Y-122670943D01*
X108759577Y-122518216D01*
X108744014Y-122491260D01*
X108680524Y-122381290D01*
X108680518Y-122381282D01*
X108568717Y-122269481D01*
X108568709Y-122269475D01*
X108431788Y-122190424D01*
X108428498Y-122189062D01*
X108426148Y-122187168D01*
X108424746Y-122186359D01*
X108424872Y-122186140D01*
X108374093Y-122145222D01*
X108352027Y-122078928D01*
X108369305Y-122011229D01*
X108420441Y-121963617D01*
X108475948Y-121950500D01*
X108629055Y-121950500D01*
X108629057Y-121950500D01*
X108781784Y-121909577D01*
X108918716Y-121830520D01*
X109030520Y-121718716D01*
X109109577Y-121581784D01*
X109150500Y-121429057D01*
X109150500Y-121270943D01*
X109109577Y-121118216D01*
X109088258Y-121081290D01*
X109030524Y-120981290D01*
X109030518Y-120981282D01*
X108918717Y-120869481D01*
X108918709Y-120869475D01*
X108781790Y-120790426D01*
X108781786Y-120790424D01*
X108781784Y-120790423D01*
X108629057Y-120749500D01*
X108470943Y-120749500D01*
X108470941Y-120749500D01*
X108465684Y-120750192D01*
X108396649Y-120739426D01*
X108344394Y-120693046D01*
X108325500Y-120627253D01*
X108325500Y-119954219D01*
X108345185Y-119887180D01*
X108397989Y-119841425D01*
X108467147Y-119831481D01*
X108511498Y-119846831D01*
X108568216Y-119879577D01*
X108720943Y-119920500D01*
X108720945Y-119920500D01*
X108879055Y-119920500D01*
X108879057Y-119920500D01*
X109031784Y-119879577D01*
X109168716Y-119800520D01*
X109280520Y-119688716D01*
X109359577Y-119551784D01*
X109400500Y-119399057D01*
X109400500Y-119240943D01*
X112199500Y-119240943D01*
X112199500Y-119399057D01*
X112231429Y-119518216D01*
X112240423Y-119551783D01*
X112240426Y-119551790D01*
X112319475Y-119688709D01*
X112319479Y-119688714D01*
X112319480Y-119688716D01*
X112431284Y-119800520D01*
X112431286Y-119800521D01*
X112431290Y-119800524D01*
X112568209Y-119879573D01*
X112568216Y-119879577D01*
X112720943Y-119920500D01*
X112720945Y-119920500D01*
X112879055Y-119920500D01*
X112879057Y-119920500D01*
X113031784Y-119879577D01*
X113168716Y-119800520D01*
X113280520Y-119688716D01*
X113359577Y-119551784D01*
X113400500Y-119399057D01*
X113400500Y-119240943D01*
X113359577Y-119088216D01*
X113345680Y-119064145D01*
X113280524Y-118951290D01*
X113280518Y-118951282D01*
X113168717Y-118839481D01*
X113168709Y-118839475D01*
X113031790Y-118760426D01*
X113031786Y-118760424D01*
X113031784Y-118760423D01*
X112879057Y-118719500D01*
X112720943Y-118719500D01*
X112568216Y-118760423D01*
X112568209Y-118760426D01*
X112431290Y-118839475D01*
X112431282Y-118839481D01*
X112319481Y-118951282D01*
X112319475Y-118951290D01*
X112240426Y-119088209D01*
X112240423Y-119088216D01*
X112199500Y-119240943D01*
X109400500Y-119240943D01*
X109359577Y-119088216D01*
X109345680Y-119064145D01*
X109280524Y-118951290D01*
X109280518Y-118951282D01*
X109168717Y-118839481D01*
X109168709Y-118839475D01*
X109031790Y-118760426D01*
X109031786Y-118760424D01*
X109031784Y-118760423D01*
X108879057Y-118719500D01*
X108720943Y-118719500D01*
X108568216Y-118760423D01*
X108568215Y-118760423D01*
X108511499Y-118793168D01*
X108443598Y-118809639D01*
X108377572Y-118786787D01*
X108334382Y-118731865D01*
X108325500Y-118685780D01*
X108325500Y-116127610D01*
X108345185Y-116060571D01*
X108361819Y-116039929D01*
X113039929Y-111361819D01*
X113101252Y-111328334D01*
X113127610Y-111325500D01*
X114341095Y-111325500D01*
X114408134Y-111345185D01*
X114453889Y-111397989D01*
X114463833Y-111467147D01*
X114434808Y-111530703D01*
X114403095Y-111556887D01*
X114381287Y-111569477D01*
X114381282Y-111569481D01*
X114269481Y-111681282D01*
X114269475Y-111681290D01*
X114190426Y-111818209D01*
X114190423Y-111818216D01*
X114149500Y-111970943D01*
X114149500Y-112129057D01*
X114185722Y-112264237D01*
X114190423Y-112281783D01*
X114190426Y-112281790D01*
X114269475Y-112418709D01*
X114269479Y-112418714D01*
X114269480Y-112418716D01*
X114381284Y-112530520D01*
X114381286Y-112530521D01*
X114381290Y-112530524D01*
X114498145Y-112597989D01*
X114518216Y-112609577D01*
X114670943Y-112650500D01*
X114670945Y-112650500D01*
X114829055Y-112650500D01*
X114829057Y-112650500D01*
X114981784Y-112609577D01*
X115118716Y-112530520D01*
X115230520Y-112418716D01*
X115309577Y-112281784D01*
X115350500Y-112129057D01*
X115350500Y-111970943D01*
X115309577Y-111818216D01*
X115280730Y-111768252D01*
X115264258Y-111700353D01*
X115287111Y-111634326D01*
X115342032Y-111591135D01*
X115356018Y-111586480D01*
X115381784Y-111579577D01*
X115518716Y-111500520D01*
X115630520Y-111388716D01*
X115647585Y-111359157D01*
X115698149Y-111310943D01*
X115766756Y-111297718D01*
X115831621Y-111323684D01*
X115861452Y-111357612D01*
X116432594Y-112314661D01*
X116433484Y-112316176D01*
X116459515Y-112361263D01*
X116459516Y-112361264D01*
X116459675Y-112361539D01*
X116460885Y-112363070D01*
X116461976Y-112364470D01*
X116463105Y-112365941D01*
X116500676Y-112402442D01*
X116501952Y-112403700D01*
X116538952Y-112440700D01*
X116540475Y-112441834D01*
X116541915Y-112442923D01*
X116543417Y-112444076D01*
X116589155Y-112469608D01*
X116590625Y-112470442D01*
X116635763Y-112496503D01*
X116637146Y-112496873D01*
X116639632Y-112497787D01*
X116641507Y-112498834D01*
X116644613Y-112499618D01*
X116644615Y-112499619D01*
X116665199Y-112504816D01*
X116691983Y-112511580D01*
X116693629Y-112512007D01*
X116743982Y-112525500D01*
X116743986Y-112525500D01*
X116744285Y-112525580D01*
X116746175Y-112525802D01*
X116747951Y-112526022D01*
X116749832Y-112526269D01*
X116750132Y-112526264D01*
X116750134Y-112526265D01*
X116802167Y-112525512D01*
X116803960Y-112525500D01*
X116836913Y-112525500D01*
X116903952Y-112545185D01*
X116949707Y-112597989D01*
X116959651Y-112667147D01*
X116944302Y-112711497D01*
X116940424Y-112718213D01*
X116940422Y-112718217D01*
X116937911Y-112727592D01*
X116930295Y-112740086D01*
X116927253Y-112754403D01*
X116912475Y-112769322D01*
X116901547Y-112787253D01*
X116888382Y-112793647D01*
X116878085Y-112804045D01*
X116857589Y-112808606D01*
X116838700Y-112817783D01*
X116818136Y-112819500D01*
X116770943Y-112819500D01*
X116618216Y-112860423D01*
X116618209Y-112860426D01*
X116481290Y-112939475D01*
X116481282Y-112939481D01*
X116369481Y-113051282D01*
X116369475Y-113051290D01*
X116290426Y-113188209D01*
X116290423Y-113188216D01*
X116249500Y-113340943D01*
X116249500Y-113499057D01*
X116290423Y-113651782D01*
X116290423Y-113651783D01*
X116290426Y-113651790D01*
X116369475Y-113788709D01*
X116369479Y-113788714D01*
X116369480Y-113788716D01*
X116481284Y-113900520D01*
X116481286Y-113900521D01*
X116481290Y-113900524D01*
X116600727Y-113969480D01*
X116618216Y-113979577D01*
X116770943Y-114020500D01*
X116770945Y-114020500D01*
X116839800Y-114020500D01*
X116906839Y-114040185D01*
X116952594Y-114092989D01*
X116962538Y-114162147D01*
X116947188Y-114206499D01*
X116940423Y-114218215D01*
X116940423Y-114218216D01*
X116899500Y-114370943D01*
X116899500Y-114529059D01*
X116900192Y-114534316D01*
X116889426Y-114603351D01*
X116843046Y-114655606D01*
X116777253Y-114674500D01*
X111043979Y-114674500D01*
X111002928Y-114685499D01*
X111002929Y-114685500D01*
X110935761Y-114703497D01*
X110935760Y-114703498D01*
X110838740Y-114759513D01*
X110838734Y-114759517D01*
X110059517Y-115538734D01*
X110059513Y-115538740D01*
X110003498Y-115635760D01*
X110003497Y-115635763D01*
X109974500Y-115743982D01*
X109974500Y-118024902D01*
X109954815Y-118091941D01*
X109938181Y-118112583D01*
X109919481Y-118131282D01*
X109919475Y-118131290D01*
X109840426Y-118268209D01*
X109840423Y-118268216D01*
X109799500Y-118420943D01*
X109799500Y-118579057D01*
X109828097Y-118685780D01*
X109840423Y-118731783D01*
X109840426Y-118731790D01*
X109919475Y-118868709D01*
X109919479Y-118868714D01*
X109919480Y-118868716D01*
X110031284Y-118980520D01*
X110031286Y-118980521D01*
X110031290Y-118980524D01*
X110168209Y-119059573D01*
X110168216Y-119059577D01*
X110320943Y-119100500D01*
X110320945Y-119100500D01*
X110479055Y-119100500D01*
X110479057Y-119100500D01*
X110631784Y-119059577D01*
X110768716Y-118980520D01*
X110880520Y-118868716D01*
X110959577Y-118731784D01*
X111000500Y-118579057D01*
X111000500Y-118420943D01*
X110959577Y-118268216D01*
X110920082Y-118199808D01*
X110880524Y-118131290D01*
X110880518Y-118131282D01*
X110861819Y-118112583D01*
X110828334Y-118051260D01*
X110825500Y-118024902D01*
X110825500Y-117670943D01*
X113999500Y-117670943D01*
X113999500Y-117829057D01*
X114036922Y-117968716D01*
X114040423Y-117981783D01*
X114040426Y-117981790D01*
X114119475Y-118118709D01*
X114119481Y-118118717D01*
X114138181Y-118137417D01*
X114171666Y-118198740D01*
X114174500Y-118225098D01*
X114174500Y-128293982D01*
X114174500Y-128406018D01*
X114203497Y-128514237D01*
X114259515Y-128611263D01*
X115259516Y-129611264D01*
X115609515Y-129961262D01*
X115688737Y-130040484D01*
X115785763Y-130096502D01*
X115893982Y-130125499D01*
X116475500Y-130125499D01*
X116542539Y-130145184D01*
X116588294Y-130197988D01*
X116599500Y-130249499D01*
X116599500Y-131594855D01*
X116599502Y-131594881D01*
X116602413Y-131619986D01*
X116602415Y-131619990D01*
X116647793Y-131722763D01*
X116647794Y-131722764D01*
X116727235Y-131802205D01*
X116830009Y-131847584D01*
X116855135Y-131850499D01*
X118644864Y-131850498D01*
X118644879Y-131850496D01*
X118644882Y-131850496D01*
X118669987Y-131847585D01*
X118669988Y-131847584D01*
X118669991Y-131847584D01*
X118772765Y-131802205D01*
X118852206Y-131722764D01*
X118897585Y-131619990D01*
X118900500Y-131594864D01*
X118900499Y-130857124D01*
X118920183Y-130790088D01*
X118972987Y-130744333D01*
X119042146Y-130734389D01*
X119105702Y-130763414D01*
X119143476Y-130822192D01*
X119146972Y-130837728D01*
X119167829Y-130969409D01*
X119223787Y-131141635D01*
X119223788Y-131141638D01*
X119279664Y-131251299D01*
X119305968Y-131302923D01*
X119306006Y-131302996D01*
X119412441Y-131449493D01*
X119412445Y-131449498D01*
X119540500Y-131577553D01*
X119540505Y-131577557D01*
X119653392Y-131659573D01*
X119687006Y-131683995D01*
X119763094Y-131722764D01*
X119848360Y-131766210D01*
X119848363Y-131766211D01*
X119934476Y-131794190D01*
X120020591Y-131822170D01*
X120103429Y-131835290D01*
X120199449Y-131850499D01*
X120199454Y-131850499D01*
X120380551Y-131850499D01*
X120467259Y-131836764D01*
X120559409Y-131822170D01*
X120731639Y-131766210D01*
X120892994Y-131683995D01*
X121039501Y-131577552D01*
X121167553Y-131449500D01*
X121273996Y-131302993D01*
X121356211Y-131141638D01*
X121395427Y-131020943D01*
X125599500Y-131020943D01*
X125599500Y-131179057D01*
X125632710Y-131302996D01*
X125640423Y-131331783D01*
X125640426Y-131331790D01*
X125719475Y-131468709D01*
X125719479Y-131468714D01*
X125719480Y-131468716D01*
X125831284Y-131580520D01*
X125831286Y-131580521D01*
X125831290Y-131580524D01*
X125899652Y-131619992D01*
X125968216Y-131659577D01*
X126120943Y-131700500D01*
X126120945Y-131700500D01*
X126279055Y-131700500D01*
X126279057Y-131700500D01*
X126431784Y-131659577D01*
X126568716Y-131580520D01*
X126680520Y-131468716D01*
X126759577Y-131331784D01*
X126800500Y-131179057D01*
X126800500Y-131020943D01*
X127899500Y-131020943D01*
X127899500Y-131179057D01*
X127932710Y-131302996D01*
X127940423Y-131331783D01*
X127940426Y-131331790D01*
X128019475Y-131468709D01*
X128019479Y-131468714D01*
X128019480Y-131468716D01*
X128131284Y-131580520D01*
X128131286Y-131580521D01*
X128131290Y-131580524D01*
X128199652Y-131619992D01*
X128268216Y-131659577D01*
X128420943Y-131700500D01*
X128420945Y-131700500D01*
X128579055Y-131700500D01*
X128579057Y-131700500D01*
X128731784Y-131659577D01*
X128868716Y-131580520D01*
X128980520Y-131468716D01*
X129059577Y-131331784D01*
X129100500Y-131179057D01*
X129100500Y-131020943D01*
X129059577Y-130868216D01*
X129014734Y-130790545D01*
X128980524Y-130731290D01*
X128980518Y-130731282D01*
X128868717Y-130619481D01*
X128868709Y-130619475D01*
X128731790Y-130540426D01*
X128731786Y-130540424D01*
X128731784Y-130540423D01*
X128579057Y-130499500D01*
X128420943Y-130499500D01*
X128268216Y-130540423D01*
X128268209Y-130540426D01*
X128131290Y-130619475D01*
X128131282Y-130619481D01*
X128019481Y-130731282D01*
X128019475Y-130731290D01*
X127940426Y-130868209D01*
X127940423Y-130868216D01*
X127899500Y-131020943D01*
X126800500Y-131020943D01*
X126759577Y-130868216D01*
X126714734Y-130790545D01*
X126680524Y-130731290D01*
X126680518Y-130731282D01*
X126568717Y-130619481D01*
X126568709Y-130619475D01*
X126431790Y-130540426D01*
X126431786Y-130540424D01*
X126431784Y-130540423D01*
X126279057Y-130499500D01*
X126120943Y-130499500D01*
X125968216Y-130540423D01*
X125968209Y-130540426D01*
X125831290Y-130619475D01*
X125831282Y-130619481D01*
X125719481Y-130731282D01*
X125719475Y-130731290D01*
X125640426Y-130868209D01*
X125640423Y-130868216D01*
X125599500Y-131020943D01*
X121395427Y-131020943D01*
X121410518Y-130974498D01*
X121412170Y-130969410D01*
X121412171Y-130969408D01*
X121428199Y-130868209D01*
X121440500Y-130790550D01*
X121440500Y-130609447D01*
X121423085Y-130499500D01*
X121412171Y-130430590D01*
X121356211Y-130258360D01*
X121356211Y-130258359D01*
X121325450Y-130197988D01*
X121273996Y-130097005D01*
X121232929Y-130040481D01*
X121167558Y-129950504D01*
X121167554Y-129950499D01*
X121039499Y-129822444D01*
X121039494Y-129822440D01*
X120892997Y-129716005D01*
X120892996Y-129716004D01*
X120892994Y-129716003D01*
X120816906Y-129677234D01*
X120731639Y-129633787D01*
X120731636Y-129633786D01*
X120559410Y-129577828D01*
X120380551Y-129549499D01*
X120380546Y-129549499D01*
X120199454Y-129549499D01*
X120199449Y-129549499D01*
X120020589Y-129577828D01*
X119848363Y-129633786D01*
X119848360Y-129633787D01*
X119687002Y-129716005D01*
X119540505Y-129822440D01*
X119540500Y-129822444D01*
X119412445Y-129950499D01*
X119412441Y-129950504D01*
X119306006Y-130097001D01*
X119223788Y-130258359D01*
X119223787Y-130258362D01*
X119167829Y-130430588D01*
X119146972Y-130562270D01*
X119117042Y-130625404D01*
X119057731Y-130662335D01*
X118987868Y-130661337D01*
X118929636Y-130622727D01*
X118901522Y-130558763D01*
X118900499Y-130542871D01*
X118900499Y-129805142D01*
X118900499Y-129805135D01*
X118898701Y-129789628D01*
X118897586Y-129780011D01*
X118897585Y-129780009D01*
X118897585Y-129780008D01*
X118852206Y-129677234D01*
X118772765Y-129597793D01*
X118669992Y-129552414D01*
X118644868Y-129549499D01*
X118644865Y-129549499D01*
X117452609Y-129549499D01*
X117385570Y-129529814D01*
X117364928Y-129513180D01*
X117297555Y-129445807D01*
X117297553Y-129445804D01*
X117211265Y-129359516D01*
X117211263Y-129359514D01*
X117159624Y-129329700D01*
X117111409Y-129279132D01*
X117098187Y-129210525D01*
X117114237Y-129160315D01*
X117159577Y-129081784D01*
X117200500Y-128929057D01*
X117200500Y-128770943D01*
X117159577Y-128618216D01*
X117103417Y-128520943D01*
X118289500Y-128520943D01*
X118289500Y-128679057D01*
X118314122Y-128770945D01*
X118330423Y-128831783D01*
X118330426Y-128831790D01*
X118409475Y-128968709D01*
X118409479Y-128968714D01*
X118409480Y-128968716D01*
X118521284Y-129080520D01*
X118521286Y-129080521D01*
X118521290Y-129080524D01*
X118584142Y-129116811D01*
X118658216Y-129159577D01*
X118810943Y-129200500D01*
X118810945Y-129200500D01*
X118969055Y-129200500D01*
X118969057Y-129200500D01*
X119121784Y-129159577D01*
X119258716Y-129080520D01*
X119370520Y-128968716D01*
X119449577Y-128831784D01*
X119490500Y-128679057D01*
X119490500Y-128571898D01*
X132599500Y-128571898D01*
X132599500Y-129908102D01*
X132603516Y-129941541D01*
X132610122Y-129996561D01*
X132665639Y-130137343D01*
X132757077Y-130257922D01*
X132877656Y-130349360D01*
X132877657Y-130349360D01*
X132877658Y-130349361D01*
X133018436Y-130404877D01*
X133106898Y-130415500D01*
X133106903Y-130415500D01*
X133893097Y-130415500D01*
X133893102Y-130415500D01*
X133981564Y-130404877D01*
X134122342Y-130349361D01*
X134242922Y-130257922D01*
X134334361Y-130137342D01*
X134389877Y-129996564D01*
X134400500Y-129908102D01*
X134400500Y-129837080D01*
X134420185Y-129770041D01*
X134472989Y-129724286D01*
X134542147Y-129714342D01*
X134605703Y-129743367D01*
X134639061Y-129789628D01*
X134701983Y-129941541D01*
X134701990Y-129941553D01*
X134800535Y-130089034D01*
X134800538Y-130089038D01*
X134925961Y-130214461D01*
X134925965Y-130214464D01*
X135073446Y-130313009D01*
X135073459Y-130313016D01*
X135196363Y-130363923D01*
X135237334Y-130380894D01*
X135237336Y-130380894D01*
X135237341Y-130380896D01*
X135411304Y-130415499D01*
X135411307Y-130415500D01*
X135411309Y-130415500D01*
X135588693Y-130415500D01*
X135588694Y-130415499D01*
X135646682Y-130403964D01*
X135762658Y-130380896D01*
X135762661Y-130380894D01*
X135762666Y-130380894D01*
X135926547Y-130313013D01*
X136074035Y-130214464D01*
X136199464Y-130089035D01*
X136298013Y-129941547D01*
X136365894Y-129777666D01*
X136381923Y-129697086D01*
X136394514Y-129633786D01*
X136400500Y-129603691D01*
X136400500Y-128876309D01*
X136400500Y-128876306D01*
X136400499Y-128876304D01*
X136365896Y-128702341D01*
X136365893Y-128702332D01*
X136298016Y-128538459D01*
X136298009Y-128538446D01*
X136199464Y-128390965D01*
X136199461Y-128390961D01*
X136074038Y-128265538D01*
X136074034Y-128265535D01*
X135926553Y-128166990D01*
X135926540Y-128166983D01*
X135762667Y-128099106D01*
X135762658Y-128099103D01*
X135588694Y-128064500D01*
X135588691Y-128064500D01*
X135411309Y-128064500D01*
X135411306Y-128064500D01*
X135237341Y-128099103D01*
X135237332Y-128099106D01*
X135073459Y-128166983D01*
X135073446Y-128166990D01*
X134925965Y-128265535D01*
X134925961Y-128265538D01*
X134800538Y-128390961D01*
X134800535Y-128390965D01*
X134701990Y-128538446D01*
X134701983Y-128538459D01*
X134639061Y-128690371D01*
X134595221Y-128744775D01*
X134528927Y-128766840D01*
X134461227Y-128749561D01*
X134413616Y-128698424D01*
X134400500Y-128642919D01*
X134400500Y-128571903D01*
X134400500Y-128571898D01*
X134389877Y-128483436D01*
X134334361Y-128342658D01*
X134334360Y-128342657D01*
X134334360Y-128342656D01*
X134242922Y-128222077D01*
X134122343Y-128130639D01*
X133981561Y-128075122D01*
X133935926Y-128069642D01*
X133893102Y-128064500D01*
X133106898Y-128064500D01*
X133067853Y-128069188D01*
X133018438Y-128075122D01*
X132877656Y-128130639D01*
X132757077Y-128222077D01*
X132665639Y-128342656D01*
X132610122Y-128483438D01*
X132606424Y-128514236D01*
X132599500Y-128571898D01*
X119490500Y-128571898D01*
X119490500Y-128520943D01*
X119449577Y-128368216D01*
X119427816Y-128330524D01*
X119370524Y-128231290D01*
X119370518Y-128231282D01*
X119258717Y-128119481D01*
X119258709Y-128119475D01*
X119121790Y-128040426D01*
X119121786Y-128040424D01*
X119121784Y-128040423D01*
X118969057Y-127999500D01*
X118810943Y-127999500D01*
X118658216Y-128040423D01*
X118658209Y-128040426D01*
X118521290Y-128119475D01*
X118521282Y-128119481D01*
X118409481Y-128231282D01*
X118409475Y-128231290D01*
X118330426Y-128368209D01*
X118330423Y-128368216D01*
X118289500Y-128520943D01*
X117103417Y-128520943D01*
X117080520Y-128481284D01*
X116968716Y-128369480D01*
X116968714Y-128369479D01*
X116968709Y-128369475D01*
X116831790Y-128290426D01*
X116831786Y-128290424D01*
X116831784Y-128290423D01*
X116679057Y-128249500D01*
X116520943Y-128249500D01*
X116368216Y-128290423D01*
X116368209Y-128290426D01*
X116231290Y-128369475D01*
X116231282Y-128369481D01*
X116119481Y-128481282D01*
X116119475Y-128481290D01*
X116040426Y-128618209D01*
X116040423Y-128618216D01*
X115999500Y-128770943D01*
X115999500Y-128848390D01*
X115979815Y-128915429D01*
X115927011Y-128961184D01*
X115857853Y-128971128D01*
X115794297Y-128942103D01*
X115787819Y-128936071D01*
X115061819Y-128210071D01*
X115028334Y-128148748D01*
X115025500Y-128122390D01*
X115025500Y-126697273D01*
X123549500Y-126697273D01*
X123549500Y-126802727D01*
X123576793Y-126904587D01*
X123629520Y-126995913D01*
X123704087Y-127070480D01*
X123795413Y-127123207D01*
X123897273Y-127150500D01*
X123897275Y-127150500D01*
X124002725Y-127150500D01*
X124002727Y-127150500D01*
X124104587Y-127123207D01*
X124195913Y-127070480D01*
X124270480Y-126995913D01*
X124323207Y-126904587D01*
X124350500Y-126802727D01*
X124350500Y-126697273D01*
X124323207Y-126595413D01*
X124270480Y-126504087D01*
X124195913Y-126429520D01*
X124111049Y-126380524D01*
X124104589Y-126376794D01*
X124104588Y-126376793D01*
X124104587Y-126376793D01*
X124002727Y-126349500D01*
X123897273Y-126349500D01*
X123795413Y-126376793D01*
X123795410Y-126376794D01*
X123704085Y-126429521D01*
X123629521Y-126504085D01*
X123576794Y-126595410D01*
X123576793Y-126595413D01*
X123549500Y-126697273D01*
X115025500Y-126697273D01*
X115025500Y-124322300D01*
X115045185Y-124255261D01*
X115097989Y-124209506D01*
X115167147Y-124199562D01*
X115230703Y-124228587D01*
X115256885Y-124260297D01*
X115274295Y-124290452D01*
X115319479Y-124368715D01*
X115338181Y-124387417D01*
X115371666Y-124448740D01*
X115374500Y-124475098D01*
X115374500Y-125143982D01*
X115374500Y-125256018D01*
X115393846Y-125328216D01*
X115403497Y-125364236D01*
X115403498Y-125364239D01*
X115422169Y-125396579D01*
X115459515Y-125461263D01*
X115898737Y-125900485D01*
X115995763Y-125956503D01*
X116103982Y-125985500D01*
X116124902Y-125985500D01*
X116191941Y-126005185D01*
X116212583Y-126021819D01*
X116231284Y-126040520D01*
X116231286Y-126040521D01*
X116231290Y-126040524D01*
X116366725Y-126118716D01*
X116368216Y-126119577D01*
X116520943Y-126160500D01*
X116520945Y-126160500D01*
X116679055Y-126160500D01*
X116679057Y-126160500D01*
X116831784Y-126119577D01*
X116968716Y-126040520D01*
X117080520Y-125928716D01*
X117159577Y-125791784D01*
X117200500Y-125639057D01*
X117200500Y-125480943D01*
X117159577Y-125328216D01*
X117115134Y-125251239D01*
X117086707Y-125202000D01*
X117070234Y-125134099D01*
X117086707Y-125078000D01*
X117106031Y-125044529D01*
X117159577Y-124951784D01*
X117200500Y-124799057D01*
X117200500Y-124640943D01*
X117159577Y-124488216D01*
X117122350Y-124423736D01*
X117080524Y-124351290D01*
X117080518Y-124351282D01*
X116968717Y-124239481D01*
X116968709Y-124239475D01*
X116831790Y-124160426D01*
X116831786Y-124160424D01*
X116831784Y-124160423D01*
X116679057Y-124119500D01*
X116524500Y-124119500D01*
X116457461Y-124099815D01*
X116411706Y-124047011D01*
X116400500Y-123995500D01*
X116400500Y-123920945D01*
X116400500Y-123920943D01*
X116359577Y-123768216D01*
X116330733Y-123718256D01*
X116280524Y-123631290D01*
X116280518Y-123631282D01*
X116168717Y-123519481D01*
X116168709Y-123519475D01*
X116031790Y-123440426D01*
X116031786Y-123440424D01*
X116031784Y-123440423D01*
X115879057Y-123399500D01*
X115720943Y-123399500D01*
X115568216Y-123440423D01*
X115568209Y-123440426D01*
X115431290Y-123519475D01*
X115431282Y-123519481D01*
X115319481Y-123631282D01*
X115319475Y-123631290D01*
X115256887Y-123739698D01*
X115206321Y-123787914D01*
X115137714Y-123801138D01*
X115072849Y-123775170D01*
X115032320Y-123718256D01*
X115025500Y-123677699D01*
X115025500Y-118225098D01*
X115045185Y-118158059D01*
X115061819Y-118137417D01*
X115067954Y-118131282D01*
X115080520Y-118118716D01*
X115159577Y-117981784D01*
X115200500Y-117829057D01*
X115200500Y-117670943D01*
X115159577Y-117518216D01*
X115138543Y-117481783D01*
X115080524Y-117381290D01*
X115080518Y-117381282D01*
X114968717Y-117269481D01*
X114968709Y-117269475D01*
X114831790Y-117190426D01*
X114831786Y-117190424D01*
X114831784Y-117190423D01*
X114679057Y-117149500D01*
X114520943Y-117149500D01*
X114368216Y-117190423D01*
X114368209Y-117190426D01*
X114231290Y-117269475D01*
X114231282Y-117269481D01*
X114119481Y-117381282D01*
X114119475Y-117381290D01*
X114040426Y-117518209D01*
X114040423Y-117518216D01*
X113999500Y-117670943D01*
X110825500Y-117670943D01*
X110825500Y-116420943D01*
X116899500Y-116420943D01*
X116899500Y-116579057D01*
X116938632Y-116725098D01*
X116940423Y-116731783D01*
X116940426Y-116731790D01*
X117019475Y-116868709D01*
X117019481Y-116868717D01*
X117038181Y-116887417D01*
X117071666Y-116948740D01*
X117074500Y-116975098D01*
X117074500Y-119793982D01*
X117074500Y-119906018D01*
X117094802Y-119981784D01*
X117103497Y-120014236D01*
X117103498Y-120014239D01*
X117120069Y-120042941D01*
X117159515Y-120111263D01*
X117159517Y-120111265D01*
X117888181Y-120839929D01*
X117921666Y-120901252D01*
X117924500Y-120927610D01*
X117924500Y-121636913D01*
X117904815Y-121703952D01*
X117852011Y-121749707D01*
X117782853Y-121759651D01*
X117738503Y-121744302D01*
X117731786Y-121740424D01*
X117731785Y-121740423D01*
X117731784Y-121740423D01*
X117579057Y-121699500D01*
X117420943Y-121699500D01*
X117268216Y-121740423D01*
X117268209Y-121740426D01*
X117131290Y-121819475D01*
X117131282Y-121819481D01*
X117019481Y-121931282D01*
X117019475Y-121931290D01*
X116940426Y-122068209D01*
X116940423Y-122068216D01*
X116899500Y-122220943D01*
X116899500Y-122379057D01*
X116940085Y-122530520D01*
X116940423Y-122531783D01*
X116940426Y-122531790D01*
X117019475Y-122668709D01*
X117019479Y-122668714D01*
X117019480Y-122668716D01*
X117131284Y-122780520D01*
X117131286Y-122780521D01*
X117131290Y-122780524D01*
X117268209Y-122859573D01*
X117268216Y-122859577D01*
X117420943Y-122900500D01*
X117420945Y-122900500D01*
X117579055Y-122900500D01*
X117579057Y-122900500D01*
X117731784Y-122859577D01*
X117738497Y-122855700D01*
X117806396Y-122839226D01*
X117872424Y-122862076D01*
X117915616Y-122916996D01*
X117924500Y-122963086D01*
X117924500Y-125274902D01*
X117904815Y-125341941D01*
X117888181Y-125362583D01*
X117869481Y-125381282D01*
X117869475Y-125381290D01*
X117790426Y-125518209D01*
X117790423Y-125518216D01*
X117749500Y-125670943D01*
X117749500Y-125829057D01*
X117790289Y-125981282D01*
X117790423Y-125981783D01*
X117790426Y-125981790D01*
X117869475Y-126118709D01*
X117869479Y-126118714D01*
X117869480Y-126118716D01*
X117981284Y-126230520D01*
X117981286Y-126230521D01*
X117981290Y-126230524D01*
X118051299Y-126270943D01*
X118118216Y-126309577D01*
X118270943Y-126350500D01*
X118270945Y-126350500D01*
X118429055Y-126350500D01*
X118429057Y-126350500D01*
X118581784Y-126309577D01*
X118718716Y-126230520D01*
X118830520Y-126118716D01*
X118886969Y-126020943D01*
X128099499Y-126020943D01*
X128099499Y-126179057D01*
X128134472Y-126309576D01*
X128140422Y-126331783D01*
X128140425Y-126331790D01*
X128219474Y-126468709D01*
X128219478Y-126468714D01*
X128219479Y-126468716D01*
X128331283Y-126580520D01*
X128331285Y-126580521D01*
X128331289Y-126580524D01*
X128468208Y-126659573D01*
X128468215Y-126659577D01*
X128620942Y-126700500D01*
X128620944Y-126700500D01*
X128779054Y-126700500D01*
X128779056Y-126700500D01*
X128931783Y-126659577D01*
X129068715Y-126580520D01*
X129180519Y-126468716D01*
X129259576Y-126331784D01*
X129300499Y-126179057D01*
X129300499Y-126020943D01*
X129259576Y-125868216D01*
X129253114Y-125857024D01*
X129232283Y-125820943D01*
X129999500Y-125820943D01*
X129999500Y-125979057D01*
X130037127Y-126119481D01*
X130040423Y-126131783D01*
X130040426Y-126131790D01*
X130119475Y-126268709D01*
X130119479Y-126268714D01*
X130119480Y-126268716D01*
X130231284Y-126380520D01*
X130231286Y-126380521D01*
X130231290Y-126380524D01*
X130315353Y-126429057D01*
X130368216Y-126459577D01*
X130520943Y-126500500D01*
X130520945Y-126500500D01*
X130679055Y-126500500D01*
X130679057Y-126500500D01*
X130831784Y-126459577D01*
X130968716Y-126380520D01*
X130987417Y-126361819D01*
X131048740Y-126328334D01*
X131075098Y-126325500D01*
X132356016Y-126325500D01*
X132356018Y-126325500D01*
X132464237Y-126296503D01*
X132561263Y-126240485D01*
X133940485Y-124861263D01*
X133996503Y-124764237D01*
X134025500Y-124656018D01*
X134025500Y-124543981D01*
X134025500Y-121925098D01*
X134045185Y-121858059D01*
X134061819Y-121837417D01*
X134068718Y-121830518D01*
X134080520Y-121818716D01*
X134159577Y-121681784D01*
X134200500Y-121529057D01*
X134200500Y-121370943D01*
X134159577Y-121218216D01*
X134109388Y-121131285D01*
X134080524Y-121081290D01*
X134080518Y-121081282D01*
X133968717Y-120969481D01*
X133968709Y-120969475D01*
X133831790Y-120890426D01*
X133831786Y-120890424D01*
X133831784Y-120890423D01*
X133679057Y-120849500D01*
X133520943Y-120849500D01*
X133368216Y-120890423D01*
X133368209Y-120890426D01*
X133231290Y-120969475D01*
X133231282Y-120969481D01*
X133119481Y-121081282D01*
X133119475Y-121081290D01*
X133040426Y-121218209D01*
X133040423Y-121218216D01*
X132999500Y-121370943D01*
X132999500Y-121529057D01*
X133040289Y-121681282D01*
X133040423Y-121681783D01*
X133040426Y-121681790D01*
X133119475Y-121818709D01*
X133119481Y-121818717D01*
X133138181Y-121837417D01*
X133171666Y-121898740D01*
X133174500Y-121925098D01*
X133174500Y-124372390D01*
X133154815Y-124439429D01*
X133138181Y-124460071D01*
X132160071Y-125438181D01*
X132098748Y-125471666D01*
X132072390Y-125474500D01*
X131075098Y-125474500D01*
X131008059Y-125454815D01*
X130987417Y-125438181D01*
X130968717Y-125419481D01*
X130968709Y-125419475D01*
X130831790Y-125340426D01*
X130831786Y-125340424D01*
X130831784Y-125340423D01*
X130679057Y-125299500D01*
X130520943Y-125299500D01*
X130368216Y-125340423D01*
X130368209Y-125340426D01*
X130231290Y-125419475D01*
X130231282Y-125419481D01*
X130119481Y-125531282D01*
X130119475Y-125531290D01*
X130040426Y-125668209D01*
X130040423Y-125668216D01*
X129999500Y-125820943D01*
X129232283Y-125820943D01*
X129180521Y-125731287D01*
X129180517Y-125731282D01*
X129068716Y-125619481D01*
X129068708Y-125619475D01*
X128931789Y-125540426D01*
X128931785Y-125540424D01*
X128931783Y-125540423D01*
X128779056Y-125499500D01*
X128620942Y-125499500D01*
X128468215Y-125540423D01*
X128468208Y-125540426D01*
X128331289Y-125619475D01*
X128331281Y-125619481D01*
X128219480Y-125731282D01*
X128219474Y-125731290D01*
X128140425Y-125868209D01*
X128140425Y-125868210D01*
X128140422Y-125868216D01*
X128099499Y-126020943D01*
X118886969Y-126020943D01*
X118909577Y-125981784D01*
X118950500Y-125829057D01*
X118950500Y-125670943D01*
X118909577Y-125518216D01*
X118909573Y-125518209D01*
X118830524Y-125381290D01*
X118830518Y-125381282D01*
X118811819Y-125362583D01*
X118778334Y-125301260D01*
X118775500Y-125274902D01*
X118775500Y-120643984D01*
X118775500Y-120643982D01*
X118746503Y-120535763D01*
X118690485Y-120438737D01*
X118611263Y-120359515D01*
X117961819Y-119710071D01*
X117928334Y-119648748D01*
X117925500Y-119622390D01*
X117925500Y-116975098D01*
X117945185Y-116908059D01*
X117961819Y-116887417D01*
X117967954Y-116881282D01*
X117980520Y-116868716D01*
X118059577Y-116731784D01*
X118100500Y-116579057D01*
X118100500Y-116420943D01*
X118059577Y-116268216D01*
X118038258Y-116231290D01*
X117980524Y-116131290D01*
X117980518Y-116131282D01*
X117868717Y-116019481D01*
X117868709Y-116019475D01*
X117731790Y-115940426D01*
X117731786Y-115940424D01*
X117731784Y-115940423D01*
X117579057Y-115899500D01*
X117420943Y-115899500D01*
X117268216Y-115940423D01*
X117268209Y-115940426D01*
X117131290Y-116019475D01*
X117131282Y-116019481D01*
X117019481Y-116131282D01*
X117019475Y-116131290D01*
X116940426Y-116268209D01*
X116940423Y-116268216D01*
X116899500Y-116420943D01*
X110825500Y-116420943D01*
X110825500Y-116027610D01*
X110845185Y-115960571D01*
X110861819Y-115939929D01*
X111239929Y-115561819D01*
X111301252Y-115528334D01*
X111327610Y-115525500D01*
X121216796Y-115525500D01*
X121283835Y-115545185D01*
X121329590Y-115597989D01*
X121336568Y-115617399D01*
X121339250Y-115627408D01*
X121340423Y-115631785D01*
X121340426Y-115631790D01*
X121419475Y-115768709D01*
X121419479Y-115768714D01*
X121419480Y-115768716D01*
X121531284Y-115880520D01*
X121600975Y-115920755D01*
X121649191Y-115971322D01*
X121655907Y-115986873D01*
X121861264Y-116568716D01*
X121936464Y-116781784D01*
X121954975Y-116834230D01*
X121958725Y-116903999D01*
X121924159Y-116964720D01*
X121862253Y-116997114D01*
X121838044Y-116999500D01*
X121770943Y-116999500D01*
X121618216Y-117040423D01*
X121618209Y-117040426D01*
X121481290Y-117119475D01*
X121481282Y-117119481D01*
X121369481Y-117231282D01*
X121369475Y-117231290D01*
X121290426Y-117368209D01*
X121290423Y-117368216D01*
X121249500Y-117520943D01*
X121249500Y-117679057D01*
X121289693Y-117829057D01*
X121290423Y-117831783D01*
X121290426Y-117831790D01*
X121369475Y-117968709D01*
X121369479Y-117968714D01*
X121369480Y-117968716D01*
X121481284Y-118080520D01*
X121481286Y-118080521D01*
X121481290Y-118080524D01*
X121585045Y-118140426D01*
X121618216Y-118159577D01*
X121770943Y-118200500D01*
X121770945Y-118200500D01*
X121929052Y-118200500D01*
X121929057Y-118200500D01*
X121929061Y-118200498D01*
X121934305Y-118199808D01*
X122003341Y-118210569D01*
X122055601Y-118256944D01*
X122074500Y-118322746D01*
X122074500Y-118772390D01*
X122054815Y-118839429D01*
X122038181Y-118860071D01*
X119959517Y-120938734D01*
X119959513Y-120938740D01*
X119941765Y-120969481D01*
X119930648Y-120988737D01*
X119899434Y-121042801D01*
X119898396Y-121042201D01*
X119877924Y-121072839D01*
X119819477Y-121131285D01*
X119740426Y-121268209D01*
X119740423Y-121268216D01*
X119699500Y-121420943D01*
X119699500Y-121579057D01*
X119739305Y-121727609D01*
X119740423Y-121731783D01*
X119740426Y-121731790D01*
X119819475Y-121868709D01*
X119819479Y-121868714D01*
X119819480Y-121868716D01*
X119931284Y-121980520D01*
X119931286Y-121980521D01*
X119931290Y-121980524D01*
X120011499Y-122026832D01*
X120068216Y-122059577D01*
X120220943Y-122100500D01*
X120220945Y-122100500D01*
X120379055Y-122100500D01*
X120379057Y-122100500D01*
X120531784Y-122059577D01*
X120588500Y-122026831D01*
X120656400Y-122010359D01*
X120722427Y-122033212D01*
X120765618Y-122088133D01*
X120774500Y-122134219D01*
X120774500Y-124024902D01*
X120754815Y-124091941D01*
X120738181Y-124112583D01*
X120719481Y-124131282D01*
X120719475Y-124131290D01*
X120640426Y-124268209D01*
X120640423Y-124268216D01*
X120599500Y-124420943D01*
X120599500Y-124579057D01*
X120629358Y-124690486D01*
X120640423Y-124731783D01*
X120640426Y-124731790D01*
X120719475Y-124868709D01*
X120719479Y-124868714D01*
X120719480Y-124868716D01*
X120831284Y-124980520D01*
X120831286Y-124980521D01*
X120831290Y-124980524D01*
X120894608Y-125017080D01*
X120968216Y-125059577D01*
X121120943Y-125100500D01*
X121120945Y-125100500D01*
X121279055Y-125100500D01*
X121279057Y-125100500D01*
X121431784Y-125059577D01*
X121568716Y-124980520D01*
X121680520Y-124868716D01*
X121759577Y-124731784D01*
X121800500Y-124579057D01*
X121800500Y-124420943D01*
X121759577Y-124268216D01*
X121755007Y-124260301D01*
X121680524Y-124131290D01*
X121680518Y-124131282D01*
X121661819Y-124112583D01*
X121628334Y-124051260D01*
X121625500Y-124024902D01*
X121625500Y-123774098D01*
X121645185Y-123707059D01*
X121697989Y-123661304D01*
X121767147Y-123651360D01*
X121830703Y-123680385D01*
X121837181Y-123686417D01*
X121931284Y-123780520D01*
X121931286Y-123780521D01*
X121931290Y-123780524D01*
X122068109Y-123859515D01*
X122068216Y-123859577D01*
X122220943Y-123900500D01*
X122220945Y-123900500D01*
X122379055Y-123900500D01*
X122379057Y-123900500D01*
X122531784Y-123859577D01*
X122668716Y-123780520D01*
X122780520Y-123668716D01*
X122859577Y-123531784D01*
X122900500Y-123379057D01*
X122900500Y-123220943D01*
X122876558Y-123131590D01*
X122878221Y-123061744D01*
X122917383Y-123003881D01*
X122981611Y-122976377D01*
X122996333Y-122975500D01*
X123079055Y-122975500D01*
X123079057Y-122975500D01*
X123231784Y-122934577D01*
X123368716Y-122855520D01*
X123480520Y-122743716D01*
X123559577Y-122606784D01*
X123600500Y-122454057D01*
X123600500Y-122295943D01*
X123559577Y-122143216D01*
X123494757Y-122030943D01*
X124299500Y-122030943D01*
X124299500Y-122189057D01*
X124338810Y-122335762D01*
X124340423Y-122341783D01*
X124340426Y-122341790D01*
X124419475Y-122478709D01*
X124419479Y-122478714D01*
X124419480Y-122478716D01*
X124531284Y-122590520D01*
X124531286Y-122590521D01*
X124531290Y-122590524D01*
X124666725Y-122668716D01*
X124668216Y-122669577D01*
X124820943Y-122710500D01*
X124820945Y-122710500D01*
X124979055Y-122710500D01*
X124979057Y-122710500D01*
X125131784Y-122669577D01*
X125268716Y-122590520D01*
X125380520Y-122478716D01*
X125459577Y-122341784D01*
X125500500Y-122189057D01*
X125500500Y-122030943D01*
X125459577Y-121878216D01*
X125457568Y-121874736D01*
X125380524Y-121741290D01*
X125380518Y-121741282D01*
X125268717Y-121629481D01*
X125268709Y-121629475D01*
X125131790Y-121550426D01*
X125131786Y-121550424D01*
X125131784Y-121550423D01*
X124979057Y-121509500D01*
X124820943Y-121509500D01*
X124668216Y-121550423D01*
X124668209Y-121550426D01*
X124531290Y-121629475D01*
X124531282Y-121629481D01*
X124419481Y-121741282D01*
X124419475Y-121741290D01*
X124340426Y-121878209D01*
X124340423Y-121878216D01*
X124299500Y-122030943D01*
X123494757Y-122030943D01*
X123480520Y-122006284D01*
X123368716Y-121894480D01*
X123368714Y-121894479D01*
X123368709Y-121894475D01*
X123231790Y-121815426D01*
X123231786Y-121815424D01*
X123231784Y-121815423D01*
X123079057Y-121774500D01*
X122920943Y-121774500D01*
X122768216Y-121815423D01*
X122768209Y-121815426D01*
X122631290Y-121894475D01*
X122631282Y-121894481D01*
X122519481Y-122006282D01*
X122519475Y-122006290D01*
X122440426Y-122143209D01*
X122440423Y-122143216D01*
X122399500Y-122295943D01*
X122399500Y-122454057D01*
X122423441Y-122543409D01*
X122421779Y-122613256D01*
X122382617Y-122671119D01*
X122318389Y-122698623D01*
X122303667Y-122699500D01*
X122220943Y-122699500D01*
X122068216Y-122740423D01*
X122068209Y-122740426D01*
X121931290Y-122819475D01*
X121931282Y-122819481D01*
X121837181Y-122913583D01*
X121775858Y-122947068D01*
X121706166Y-122942084D01*
X121650233Y-122900212D01*
X121625816Y-122834748D01*
X121625500Y-122825902D01*
X121625500Y-121727609D01*
X121645185Y-121660570D01*
X121661814Y-121639933D01*
X123233066Y-120068680D01*
X123267941Y-120044169D01*
X123423546Y-119970943D01*
X124549500Y-119970943D01*
X124549500Y-120129057D01*
X124586788Y-120268216D01*
X124590423Y-120281783D01*
X124590426Y-120281790D01*
X124669475Y-120418709D01*
X124669479Y-120418714D01*
X124669480Y-120418716D01*
X124781284Y-120530520D01*
X124781286Y-120530521D01*
X124781290Y-120530524D01*
X124865353Y-120579057D01*
X124918216Y-120609577D01*
X125070943Y-120650500D01*
X125070945Y-120650500D01*
X125229055Y-120650500D01*
X125229057Y-120650500D01*
X125381784Y-120609577D01*
X125518716Y-120530520D01*
X125630520Y-120418716D01*
X125709577Y-120281784D01*
X125750500Y-120129057D01*
X125750500Y-119970943D01*
X125709577Y-119818216D01*
X125687816Y-119780524D01*
X125630524Y-119681290D01*
X125630518Y-119681282D01*
X125518717Y-119569481D01*
X125518709Y-119569475D01*
X125381790Y-119490426D01*
X125381786Y-119490424D01*
X125381784Y-119490423D01*
X125229057Y-119449500D01*
X125070943Y-119449500D01*
X124918216Y-119490423D01*
X124918209Y-119490426D01*
X124781290Y-119569475D01*
X124781282Y-119569481D01*
X124669481Y-119681282D01*
X124669475Y-119681290D01*
X124590426Y-119818209D01*
X124590423Y-119818216D01*
X124549500Y-119970943D01*
X123423546Y-119970943D01*
X123603909Y-119886066D01*
X123672947Y-119875332D01*
X123688788Y-119878486D01*
X123770943Y-119900500D01*
X123770946Y-119900500D01*
X123929055Y-119900500D01*
X123929057Y-119900500D01*
X124081784Y-119859577D01*
X124088970Y-119855427D01*
X124088973Y-119855427D01*
X124218709Y-119780524D01*
X124218708Y-119780524D01*
X124218716Y-119780520D01*
X124330520Y-119668716D01*
X124409577Y-119531784D01*
X124450500Y-119379057D01*
X124450500Y-119220943D01*
X124409577Y-119068216D01*
X124387865Y-119030609D01*
X124330524Y-118931290D01*
X124330518Y-118931282D01*
X124218717Y-118819481D01*
X124218709Y-118819475D01*
X124081790Y-118740426D01*
X124081786Y-118740424D01*
X124081784Y-118740423D01*
X123929057Y-118699500D01*
X123770943Y-118699500D01*
X123618216Y-118740423D01*
X123618209Y-118740426D01*
X123481290Y-118819475D01*
X123481282Y-118819481D01*
X123369481Y-118931282D01*
X123369477Y-118931287D01*
X123290149Y-119068688D01*
X123239582Y-119116904D01*
X123235561Y-119118885D01*
X123101561Y-119181944D01*
X123032521Y-119192679D01*
X122968637Y-119164383D01*
X122930192Y-119106041D01*
X122926706Y-119064145D01*
X122925500Y-119064145D01*
X122925500Y-117150783D01*
X122927600Y-117128060D01*
X122927683Y-117127613D01*
X122928560Y-117122910D01*
X122925872Y-117088293D01*
X122925500Y-117078694D01*
X122925500Y-117043983D01*
X122925500Y-117043982D01*
X122924144Y-117038924D01*
X122920291Y-117016426D01*
X122919886Y-117011209D01*
X122908333Y-116978477D01*
X122905492Y-116969311D01*
X122896503Y-116935763D01*
X122895718Y-116934403D01*
X122895404Y-116933110D01*
X122893392Y-116928252D01*
X122894149Y-116927938D01*
X122879245Y-116866503D01*
X122902098Y-116800476D01*
X122957019Y-116757285D01*
X122971456Y-116753534D01*
X122971207Y-116752603D01*
X122979055Y-116750500D01*
X122979057Y-116750500D01*
X123131784Y-116709577D01*
X123268716Y-116630520D01*
X123380520Y-116518716D01*
X123459577Y-116381784D01*
X123500500Y-116229057D01*
X123500500Y-116070943D01*
X123459577Y-115918216D01*
X123449348Y-115900499D01*
X123380524Y-115781290D01*
X123380518Y-115781282D01*
X123268717Y-115669481D01*
X123268709Y-115669475D01*
X123131790Y-115590426D01*
X123131786Y-115590424D01*
X123131784Y-115590423D01*
X122979057Y-115549500D01*
X122820943Y-115549500D01*
X122668216Y-115590423D01*
X122668214Y-115590423D01*
X122660365Y-115592527D01*
X122659739Y-115590190D01*
X122602472Y-115596342D01*
X122539996Y-115565061D01*
X122504349Y-115504969D01*
X122500500Y-115474314D01*
X122500500Y-115320945D01*
X122500500Y-115320943D01*
X122459577Y-115168216D01*
X122459573Y-115168209D01*
X122380524Y-115031290D01*
X122380518Y-115031282D01*
X122268717Y-114919481D01*
X122268709Y-114919475D01*
X122131790Y-114840426D01*
X122131786Y-114840424D01*
X122131784Y-114840423D01*
X121979057Y-114799500D01*
X121979056Y-114799500D01*
X121952610Y-114799500D01*
X121885571Y-114779815D01*
X121864929Y-114763181D01*
X121861265Y-114759517D01*
X121861263Y-114759515D01*
X121764237Y-114703497D01*
X121656018Y-114674500D01*
X121656017Y-114674500D01*
X118222747Y-114674500D01*
X118155708Y-114654815D01*
X118109953Y-114602011D01*
X118099808Y-114534316D01*
X118100500Y-114529059D01*
X118100500Y-114370945D01*
X118100500Y-114370943D01*
X118059577Y-114218216D01*
X118011896Y-114135629D01*
X117980524Y-114081290D01*
X117980518Y-114081282D01*
X117868717Y-113969481D01*
X117868709Y-113969475D01*
X117731790Y-113890426D01*
X117731786Y-113890424D01*
X117731784Y-113890423D01*
X117579057Y-113849500D01*
X117510200Y-113849500D01*
X117443161Y-113829815D01*
X117397406Y-113777011D01*
X117387462Y-113707853D01*
X117402812Y-113663501D01*
X117409577Y-113651784D01*
X117412089Y-113642407D01*
X117448453Y-113582747D01*
X117511300Y-113552217D01*
X117531864Y-113550500D01*
X117579055Y-113550500D01*
X117579057Y-113550500D01*
X117731784Y-113509577D01*
X117868716Y-113430520D01*
X117949699Y-113349536D01*
X118011018Y-113316054D01*
X118080710Y-113321038D01*
X118099375Y-113329832D01*
X118168216Y-113369577D01*
X118320943Y-113410500D01*
X118320945Y-113410500D01*
X118479055Y-113410500D01*
X118479057Y-113410500D01*
X118631784Y-113369577D01*
X118768716Y-113290520D01*
X118880520Y-113178716D01*
X118959577Y-113041784D01*
X119000500Y-112889057D01*
X119000500Y-112730943D01*
X118987276Y-112681590D01*
X118988939Y-112611744D01*
X119028101Y-112553882D01*
X119092329Y-112526377D01*
X119107051Y-112525500D01*
X124906016Y-112525500D01*
X124906018Y-112525500D01*
X125014237Y-112496503D01*
X125111263Y-112440485D01*
X125190485Y-112361263D01*
X125246503Y-112264237D01*
X125275500Y-112156018D01*
X125275500Y-111475098D01*
X125295185Y-111408059D01*
X125311819Y-111387417D01*
X125320181Y-111379055D01*
X125330520Y-111368716D01*
X125409577Y-111231784D01*
X125450500Y-111079057D01*
X125450500Y-110920943D01*
X125450500Y-110920940D01*
X125449808Y-110915684D01*
X125460574Y-110846649D01*
X125506954Y-110794394D01*
X125572747Y-110775500D01*
X126206015Y-110775500D01*
X126206018Y-110775500D01*
X126268410Y-110758782D01*
X126338256Y-110760445D01*
X126396118Y-110799607D01*
X126423623Y-110863835D01*
X126424500Y-110878557D01*
X126424500Y-111677253D01*
X126404815Y-111744292D01*
X126352011Y-111790047D01*
X126284316Y-111800192D01*
X126279059Y-111799500D01*
X126279057Y-111799500D01*
X126120943Y-111799500D01*
X125968216Y-111840423D01*
X125968209Y-111840426D01*
X125831290Y-111919475D01*
X125831282Y-111919481D01*
X125719481Y-112031282D01*
X125719475Y-112031290D01*
X125640426Y-112168209D01*
X125640423Y-112168216D01*
X125599500Y-112320943D01*
X125599500Y-112479057D01*
X125635054Y-112611744D01*
X125640423Y-112631783D01*
X125640426Y-112631790D01*
X125719475Y-112768709D01*
X125719479Y-112768714D01*
X125719480Y-112768716D01*
X125831284Y-112880520D01*
X125831286Y-112880521D01*
X125831290Y-112880524D01*
X125933408Y-112939481D01*
X125968216Y-112959577D01*
X126120943Y-113000500D01*
X126120945Y-113000500D01*
X126279052Y-113000500D01*
X126279057Y-113000500D01*
X126279061Y-113000498D01*
X126284305Y-112999808D01*
X126353341Y-113010569D01*
X126405601Y-113056944D01*
X126424500Y-113122746D01*
X126424500Y-116015049D01*
X126404815Y-116082088D01*
X126352011Y-116127843D01*
X126282853Y-116137787D01*
X126219297Y-116108762D01*
X126181523Y-116049984D01*
X126180725Y-116047143D01*
X126159577Y-115968216D01*
X126154554Y-115959515D01*
X126080524Y-115831290D01*
X126080518Y-115831282D01*
X125968717Y-115719481D01*
X125968709Y-115719475D01*
X125831790Y-115640426D01*
X125831786Y-115640424D01*
X125831784Y-115640423D01*
X125679057Y-115599500D01*
X125520943Y-115599500D01*
X125368216Y-115640423D01*
X125368209Y-115640426D01*
X125231290Y-115719475D01*
X125231282Y-115719481D01*
X125119481Y-115831282D01*
X125119475Y-115831290D01*
X125040426Y-115968209D01*
X125040424Y-115968214D01*
X125040423Y-115968216D01*
X124999500Y-116120943D01*
X124999500Y-116279057D01*
X125028365Y-116386780D01*
X125040423Y-116431783D01*
X125040426Y-116431790D01*
X125119475Y-116568709D01*
X125119479Y-116568714D01*
X125119480Y-116568716D01*
X125231284Y-116680520D01*
X125231286Y-116680521D01*
X125231290Y-116680524D01*
X125357749Y-116753534D01*
X125368216Y-116759577D01*
X125520943Y-116800500D01*
X125520945Y-116800500D01*
X125679055Y-116800500D01*
X125679057Y-116800500D01*
X125831784Y-116759577D01*
X125968716Y-116680520D01*
X126080520Y-116568716D01*
X126159577Y-116431784D01*
X126180725Y-116352855D01*
X126217090Y-116293196D01*
X126279937Y-116262667D01*
X126349313Y-116270962D01*
X126403190Y-116315447D01*
X126424465Y-116381999D01*
X126424500Y-116384950D01*
X126424500Y-123034503D01*
X126404815Y-123101542D01*
X126352011Y-123147297D01*
X126320886Y-123156816D01*
X124724908Y-123422813D01*
X124704522Y-123424500D01*
X124693982Y-123424500D01*
X124665538Y-123432121D01*
X124653836Y-123434657D01*
X124624792Y-123439498D01*
X124615187Y-123443867D01*
X124595955Y-123450765D01*
X124585764Y-123453496D01*
X124560258Y-123468221D01*
X124549616Y-123473697D01*
X124522811Y-123485892D01*
X124514663Y-123492599D01*
X124497876Y-123504237D01*
X124488738Y-123509513D01*
X124467921Y-123530330D01*
X124459059Y-123538374D01*
X124436315Y-123557099D01*
X124430180Y-123565687D01*
X124416965Y-123581285D01*
X124138737Y-123859515D01*
X124059517Y-123938734D01*
X124059513Y-123938740D01*
X124003498Y-124035760D01*
X124003497Y-124035763D01*
X123974500Y-124143982D01*
X123974500Y-124406018D01*
X124003497Y-124514237D01*
X124059515Y-124611263D01*
X124138737Y-124690485D01*
X124235763Y-124746503D01*
X124343982Y-124775500D01*
X124343984Y-124775500D01*
X124456016Y-124775500D01*
X124456018Y-124775500D01*
X124564237Y-124746503D01*
X124661263Y-124690485D01*
X124740485Y-124611263D01*
X124796503Y-124514237D01*
X124825500Y-124406018D01*
X124825500Y-124406016D01*
X124827603Y-124398168D01*
X124830901Y-124399051D01*
X124852763Y-124349597D01*
X124859767Y-124341980D01*
X124926357Y-124275389D01*
X124987678Y-124241906D01*
X124993612Y-124240766D01*
X126875092Y-123927187D01*
X126895477Y-123925500D01*
X126906018Y-123925500D01*
X126934471Y-123917875D01*
X126946152Y-123915342D01*
X126975208Y-123910501D01*
X126984799Y-123906137D01*
X127004052Y-123899231D01*
X127014237Y-123896503D01*
X127039750Y-123881772D01*
X127050367Y-123876308D01*
X127077187Y-123864108D01*
X127085326Y-123857406D01*
X127102131Y-123845756D01*
X127111263Y-123840485D01*
X127132083Y-123819663D01*
X127140932Y-123811630D01*
X127163684Y-123792901D01*
X127169808Y-123784325D01*
X127183030Y-123768716D01*
X127190485Y-123761263D01*
X127205217Y-123735743D01*
X127211681Y-123725703D01*
X127228804Y-123701733D01*
X127232504Y-123691855D01*
X127241232Y-123673364D01*
X127246503Y-123664237D01*
X127254121Y-123635803D01*
X127257774Y-123624400D01*
X127268109Y-123596818D01*
X127269125Y-123586329D01*
X127272773Y-123566191D01*
X127275500Y-123556018D01*
X127275500Y-123526574D01*
X127276079Y-123514606D01*
X127278920Y-123485305D01*
X127277949Y-123479481D01*
X127277187Y-123474906D01*
X127275500Y-123454521D01*
X127275500Y-123322746D01*
X127295185Y-123255707D01*
X127347989Y-123209952D01*
X127415695Y-123199808D01*
X127420938Y-123200498D01*
X127420943Y-123200500D01*
X127420948Y-123200500D01*
X127579055Y-123200500D01*
X127579057Y-123200500D01*
X127731784Y-123159577D01*
X127868716Y-123080520D01*
X127980520Y-122968716D01*
X128059577Y-122831784D01*
X128100500Y-122679057D01*
X128100500Y-122520943D01*
X128059577Y-122368216D01*
X128044316Y-122341783D01*
X127980524Y-122231290D01*
X127980518Y-122231282D01*
X127868717Y-122119481D01*
X127868709Y-122119475D01*
X127731790Y-122040426D01*
X127731786Y-122040424D01*
X127731784Y-122040423D01*
X127579057Y-121999500D01*
X127420943Y-121999500D01*
X127420941Y-121999500D01*
X127415684Y-122000192D01*
X127346649Y-121989426D01*
X127294394Y-121943046D01*
X127275500Y-121877253D01*
X127275500Y-120459730D01*
X127295185Y-120392691D01*
X127347989Y-120346936D01*
X127417147Y-120336992D01*
X127431582Y-120339953D01*
X127470943Y-120350500D01*
X127470945Y-120350500D01*
X127629055Y-120350500D01*
X127629057Y-120350500D01*
X127781784Y-120309577D01*
X127918716Y-120230520D01*
X128030520Y-120118716D01*
X128109577Y-119981784D01*
X128150500Y-119829057D01*
X128150500Y-119670943D01*
X128109577Y-119518216D01*
X128093531Y-119490423D01*
X128030524Y-119381290D01*
X128030518Y-119381282D01*
X127918717Y-119269481D01*
X127918709Y-119269475D01*
X127781790Y-119190426D01*
X127781786Y-119190424D01*
X127781784Y-119190423D01*
X127629057Y-119149500D01*
X127470943Y-119149500D01*
X127431592Y-119160043D01*
X127361743Y-119158381D01*
X127303881Y-119119218D01*
X127276377Y-119054990D01*
X127275500Y-119040269D01*
X127275500Y-116520943D01*
X128899500Y-116520943D01*
X128899500Y-116679057D01*
X128932041Y-116800500D01*
X128940423Y-116831783D01*
X128940426Y-116831790D01*
X129019475Y-116968709D01*
X129019479Y-116968714D01*
X129019480Y-116968716D01*
X129131284Y-117080520D01*
X129131286Y-117080521D01*
X129131290Y-117080524D01*
X129204706Y-117122910D01*
X129268216Y-117159577D01*
X129420943Y-117200500D01*
X129420945Y-117200500D01*
X129579055Y-117200500D01*
X129579057Y-117200500D01*
X129731784Y-117159577D01*
X129868716Y-117080520D01*
X129980520Y-116968716D01*
X130059577Y-116831784D01*
X130100500Y-116679057D01*
X130100500Y-116520943D01*
X130059577Y-116368216D01*
X130001843Y-116268216D01*
X129980524Y-116231290D01*
X129980518Y-116231282D01*
X129868717Y-116119481D01*
X129868709Y-116119475D01*
X129731790Y-116040426D01*
X129731786Y-116040424D01*
X129731784Y-116040423D01*
X129579057Y-115999500D01*
X129420943Y-115999500D01*
X129268216Y-116040423D01*
X129268209Y-116040426D01*
X129131290Y-116119475D01*
X129131282Y-116119481D01*
X129019481Y-116231282D01*
X129019475Y-116231290D01*
X128940426Y-116368209D01*
X128940423Y-116368216D01*
X128899500Y-116520943D01*
X127275500Y-116520943D01*
X127275500Y-110970943D01*
X127739500Y-110970943D01*
X127739500Y-111129057D01*
X127779693Y-111279057D01*
X127780423Y-111281783D01*
X127780426Y-111281790D01*
X127859475Y-111418709D01*
X127859479Y-111418714D01*
X127859480Y-111418716D01*
X127971284Y-111530520D01*
X127971286Y-111530521D01*
X127971290Y-111530524D01*
X128038760Y-111569477D01*
X128108216Y-111609577D01*
X128260943Y-111650500D01*
X128260945Y-111650500D01*
X128419055Y-111650500D01*
X128419057Y-111650500D01*
X128571784Y-111609577D01*
X128688638Y-111542112D01*
X128750637Y-111525500D01*
X130972389Y-111525500D01*
X131039428Y-111545185D01*
X131060070Y-111561819D01*
X132738180Y-113239929D01*
X132771665Y-113301252D01*
X132774499Y-113327610D01*
X132774499Y-115693982D01*
X132774499Y-115806019D01*
X132794462Y-115880520D01*
X132794461Y-115880520D01*
X132794462Y-115880522D01*
X132803494Y-115914233D01*
X132803495Y-115914235D01*
X132803496Y-115914237D01*
X132859514Y-116011263D01*
X132859516Y-116011265D01*
X132945801Y-116097550D01*
X132945807Y-116097555D01*
X133363181Y-116514929D01*
X133396666Y-116576252D01*
X133399500Y-116602610D01*
X133399500Y-116629057D01*
X133434473Y-116759576D01*
X133440423Y-116781783D01*
X133440426Y-116781790D01*
X133519475Y-116918709D01*
X133519481Y-116918717D01*
X133538181Y-116937417D01*
X133571666Y-116998740D01*
X133574500Y-117025098D01*
X133574500Y-117974902D01*
X133554815Y-118041941D01*
X133538181Y-118062583D01*
X133519481Y-118081282D01*
X133519475Y-118081290D01*
X133440426Y-118218209D01*
X133440423Y-118218216D01*
X133399500Y-118370943D01*
X133399500Y-118529057D01*
X133424122Y-118620945D01*
X133440423Y-118681783D01*
X133440426Y-118681790D01*
X133519475Y-118818709D01*
X133519479Y-118818714D01*
X133519480Y-118818716D01*
X133631284Y-118930520D01*
X133631286Y-118930521D01*
X133631290Y-118930524D01*
X133768209Y-119009573D01*
X133768216Y-119009577D01*
X133795448Y-119016873D01*
X133855108Y-119053237D01*
X133885638Y-119116084D01*
X133877344Y-119185459D01*
X133832859Y-119239338D01*
X133825355Y-119244035D01*
X133781287Y-119269477D01*
X133781282Y-119269481D01*
X133669481Y-119381282D01*
X133669475Y-119381290D01*
X133590426Y-119518209D01*
X133590423Y-119518216D01*
X133549500Y-119670943D01*
X133549500Y-119829057D01*
X133589693Y-119979057D01*
X133590423Y-119981783D01*
X133590426Y-119981790D01*
X133669475Y-120118709D01*
X133669479Y-120118714D01*
X133669480Y-120118716D01*
X133781284Y-120230520D01*
X133781286Y-120230521D01*
X133781290Y-120230524D01*
X133918209Y-120309573D01*
X133918216Y-120309577D01*
X134070943Y-120350500D01*
X134097390Y-120350500D01*
X134164429Y-120370185D01*
X134185071Y-120386819D01*
X135188181Y-121389928D01*
X135221666Y-121451251D01*
X135224500Y-121477609D01*
X135224500Y-125225966D01*
X135207888Y-125287964D01*
X135190425Y-125318211D01*
X135190423Y-125318216D01*
X135149500Y-125470943D01*
X135149500Y-125629057D01*
X135176893Y-125731287D01*
X135190423Y-125781783D01*
X135190426Y-125781790D01*
X135269475Y-125918709D01*
X135269479Y-125918714D01*
X135269480Y-125918716D01*
X135381284Y-126030520D01*
X135381286Y-126030521D01*
X135381290Y-126030524D01*
X135518209Y-126109573D01*
X135518216Y-126109577D01*
X135670943Y-126150500D01*
X135670945Y-126150500D01*
X135829055Y-126150500D01*
X135829057Y-126150500D01*
X135981784Y-126109577D01*
X136118716Y-126030520D01*
X136230520Y-125918716D01*
X136309577Y-125781784D01*
X136350500Y-125629057D01*
X136350500Y-125470943D01*
X136309577Y-125318216D01*
X136299788Y-125301260D01*
X136230524Y-125181290D01*
X136230518Y-125181282D01*
X136112969Y-125063733D01*
X136115207Y-125061494D01*
X136082798Y-125017080D01*
X136075500Y-124975169D01*
X136075500Y-123476610D01*
X136095185Y-123409571D01*
X136147989Y-123363816D01*
X136217147Y-123353872D01*
X136280703Y-123382897D01*
X136287181Y-123388929D01*
X137147859Y-124249607D01*
X137148423Y-124250174D01*
X137186590Y-124288837D01*
X137187349Y-124289419D01*
X137187979Y-124289906D01*
X137188682Y-124290452D01*
X137188734Y-124290482D01*
X137188737Y-124290485D01*
X137235681Y-124317588D01*
X137236370Y-124317989D01*
X137250079Y-124326022D01*
X137283208Y-124345435D01*
X137283212Y-124345436D01*
X137283265Y-124345467D01*
X137284257Y-124345879D01*
X137284931Y-124346160D01*
X137285717Y-124346491D01*
X137338173Y-124360546D01*
X137338925Y-124360750D01*
X137391238Y-124375130D01*
X137391241Y-124375130D01*
X137391303Y-124375147D01*
X137392248Y-124375272D01*
X137393058Y-124375381D01*
X137393919Y-124375500D01*
X137393982Y-124375500D01*
X137448252Y-124375500D01*
X137449052Y-124375503D01*
X138522629Y-124382428D01*
X138589538Y-124402544D01*
X138609508Y-124418744D01*
X138631284Y-124440520D01*
X138631286Y-124440521D01*
X138631290Y-124440524D01*
X138758965Y-124514236D01*
X138768216Y-124519577D01*
X138920943Y-124560500D01*
X138920945Y-124560500D01*
X139079055Y-124560500D01*
X139079057Y-124560500D01*
X139231784Y-124519577D01*
X139368716Y-124440520D01*
X139480520Y-124328716D01*
X139559577Y-124191784D01*
X139600500Y-124039057D01*
X139600500Y-123880943D01*
X139559577Y-123728216D01*
X139529598Y-123676290D01*
X139480524Y-123591290D01*
X139480518Y-123591282D01*
X139368717Y-123479481D01*
X139368709Y-123479475D01*
X139231790Y-123400426D01*
X139231786Y-123400424D01*
X139231784Y-123400423D01*
X139079057Y-123359500D01*
X138920943Y-123359500D01*
X138768216Y-123400423D01*
X138768209Y-123400426D01*
X138631283Y-123479479D01*
X138631282Y-123479479D01*
X138615637Y-123495125D01*
X138554313Y-123528609D01*
X138527158Y-123531439D01*
X137678276Y-123525963D01*
X137611365Y-123505847D01*
X137591395Y-123489647D01*
X136911819Y-122810071D01*
X136878334Y-122748748D01*
X136875500Y-122722390D01*
X136875500Y-119814234D01*
X137824500Y-119814234D01*
X137824500Y-119965766D01*
X137838893Y-120019481D01*
X137863719Y-120112136D01*
X137875063Y-120131784D01*
X137939485Y-120243365D01*
X138046635Y-120350515D01*
X138177865Y-120426281D01*
X138324234Y-120465500D01*
X138324236Y-120465500D01*
X138475764Y-120465500D01*
X138475766Y-120465500D01*
X138622135Y-120426281D01*
X138753365Y-120350515D01*
X138860515Y-120243365D01*
X138936281Y-120112135D01*
X138975500Y-119965766D01*
X138975500Y-119814234D01*
X138936281Y-119667865D01*
X138860515Y-119536635D01*
X138753365Y-119429485D01*
X138669879Y-119381284D01*
X138622136Y-119353719D01*
X138505962Y-119322591D01*
X138475766Y-119314500D01*
X138324234Y-119314500D01*
X138177863Y-119353719D01*
X138046635Y-119429485D01*
X138046632Y-119429487D01*
X137939487Y-119536632D01*
X137939485Y-119536635D01*
X137863719Y-119667863D01*
X137824500Y-119814234D01*
X136875500Y-119814234D01*
X136875500Y-119393982D01*
X136872097Y-119381284D01*
X136871568Y-119379309D01*
X136846503Y-119285763D01*
X136790485Y-119188737D01*
X136336819Y-118735071D01*
X136303334Y-118673748D01*
X136300500Y-118647390D01*
X136300500Y-118620945D01*
X136300500Y-118620943D01*
X136259577Y-118468216D01*
X136259573Y-118468209D01*
X136180524Y-118331290D01*
X136180518Y-118331282D01*
X136068717Y-118219481D01*
X136068709Y-118219475D01*
X135931790Y-118140426D01*
X135931786Y-118140424D01*
X135931784Y-118140423D01*
X135779057Y-118099500D01*
X135620943Y-118099500D01*
X135468216Y-118140423D01*
X135468213Y-118140424D01*
X135436497Y-118158735D01*
X135368597Y-118175205D01*
X135302571Y-118152352D01*
X135259381Y-118097429D01*
X135250500Y-118051346D01*
X135250500Y-116003032D01*
X135270185Y-115935993D01*
X135322989Y-115890238D01*
X135392147Y-115880294D01*
X135406581Y-115883254D01*
X135470943Y-115900500D01*
X135470946Y-115900500D01*
X135629055Y-115900500D01*
X135629057Y-115900500D01*
X135781784Y-115859577D01*
X135918716Y-115780520D01*
X136030520Y-115668716D01*
X136109577Y-115531784D01*
X136135701Y-115434287D01*
X136172065Y-115374628D01*
X136182538Y-115366101D01*
X136205758Y-115349215D01*
X136271554Y-115325705D01*
X136278689Y-115325500D01*
X138072390Y-115325500D01*
X138139429Y-115345185D01*
X138160071Y-115361819D01*
X138330315Y-115532063D01*
X138363800Y-115593386D01*
X138358816Y-115663078D01*
X138316944Y-115719011D01*
X138304634Y-115727131D01*
X138231287Y-115769477D01*
X138231282Y-115769481D01*
X138119481Y-115881282D01*
X138119475Y-115881290D01*
X138040426Y-116018209D01*
X138040423Y-116018216D01*
X137999500Y-116170943D01*
X137999500Y-116329057D01*
X138027026Y-116431783D01*
X138040423Y-116481783D01*
X138040426Y-116481790D01*
X138119475Y-116618709D01*
X138119481Y-116618717D01*
X138138181Y-116637417D01*
X138171666Y-116698740D01*
X138174500Y-116725098D01*
X138174500Y-116774902D01*
X138154815Y-116841941D01*
X138138181Y-116862583D01*
X138119481Y-116881282D01*
X138119475Y-116881290D01*
X138040426Y-117018209D01*
X138040423Y-117018216D01*
X137999500Y-117170943D01*
X137999500Y-117329056D01*
X138040423Y-117481783D01*
X138040426Y-117481790D01*
X138119475Y-117618709D01*
X138119479Y-117618714D01*
X138119480Y-117618716D01*
X138231284Y-117730520D01*
X138231286Y-117730521D01*
X138231290Y-117730524D01*
X138368209Y-117809573D01*
X138368216Y-117809577D01*
X138520943Y-117850500D01*
X138520945Y-117850500D01*
X138679055Y-117850500D01*
X138679057Y-117850500D01*
X138831784Y-117809577D01*
X138968716Y-117730520D01*
X139062819Y-117636417D01*
X139124142Y-117602932D01*
X139193834Y-117607916D01*
X139249767Y-117649788D01*
X139274184Y-117715252D01*
X139274500Y-117724098D01*
X139274500Y-121843982D01*
X139274500Y-121956018D01*
X139303497Y-122064237D01*
X139359515Y-122161263D01*
X139359517Y-122161265D01*
X139733919Y-122535667D01*
X139767404Y-122596990D01*
X139762420Y-122666682D01*
X139753626Y-122685346D01*
X139740425Y-122708211D01*
X139740423Y-122708216D01*
X139699500Y-122860943D01*
X139699500Y-123019057D01*
X139736413Y-123156816D01*
X139740423Y-123171783D01*
X139740426Y-123171790D01*
X139819475Y-123308709D01*
X139819479Y-123308714D01*
X139819480Y-123308716D01*
X139931284Y-123420520D01*
X139931286Y-123420521D01*
X139931290Y-123420524D01*
X140060505Y-123495125D01*
X140068216Y-123499577D01*
X140220943Y-123540500D01*
X140220945Y-123540500D01*
X140379055Y-123540500D01*
X140379057Y-123540500D01*
X140531784Y-123499577D01*
X140668716Y-123420520D01*
X140780520Y-123308716D01*
X140859577Y-123171784D01*
X140900500Y-123019057D01*
X140900500Y-122860943D01*
X140859577Y-122708216D01*
X140837269Y-122669577D01*
X140780524Y-122571290D01*
X140780518Y-122571282D01*
X140761819Y-122552583D01*
X140728334Y-122491260D01*
X140725500Y-122464902D01*
X140725500Y-122443983D01*
X140725500Y-122443982D01*
X140720712Y-122426114D01*
X140696503Y-122335763D01*
X140640485Y-122238737D01*
X140161819Y-121760071D01*
X140128334Y-121698748D01*
X140125500Y-121672390D01*
X140125500Y-116243984D01*
X140125500Y-116243982D01*
X140096503Y-116135763D01*
X140040485Y-116038737D01*
X139961263Y-115959515D01*
X138750495Y-114748747D01*
X138717010Y-114687424D01*
X138721994Y-114617732D01*
X138750495Y-114573385D01*
X138800946Y-114522934D01*
X138860515Y-114463365D01*
X138936281Y-114332135D01*
X138975500Y-114185766D01*
X138975500Y-114034234D01*
X138936281Y-113887865D01*
X138860515Y-113756635D01*
X138753365Y-113649485D01*
X138687750Y-113611602D01*
X138622136Y-113573719D01*
X138548950Y-113554109D01*
X138475766Y-113534500D01*
X138324234Y-113534500D01*
X138177863Y-113573719D01*
X138046635Y-113649485D01*
X138046632Y-113649487D01*
X137939487Y-113756632D01*
X137939485Y-113756635D01*
X137863719Y-113887863D01*
X137841850Y-113969481D01*
X137824500Y-114034234D01*
X137824500Y-114185766D01*
X137846726Y-114268717D01*
X137860041Y-114318407D01*
X137858378Y-114388257D01*
X137819215Y-114446119D01*
X137754987Y-114473623D01*
X137740266Y-114474500D01*
X136143117Y-114474500D01*
X136123780Y-114472983D01*
X136118074Y-114472082D01*
X136111030Y-114470970D01*
X136111029Y-114470970D01*
X136084084Y-114473815D01*
X136071065Y-114474500D01*
X136043979Y-114474500D01*
X136031510Y-114477841D01*
X136012448Y-114481378D01*
X135999616Y-114482733D01*
X135991717Y-114484634D01*
X135991133Y-114482207D01*
X135933988Y-114486856D01*
X135872340Y-114453972D01*
X135838257Y-114392980D01*
X135842560Y-114323243D01*
X135871482Y-114277754D01*
X135872537Y-114276697D01*
X135880520Y-114268716D01*
X135959577Y-114131784D01*
X136000500Y-113979057D01*
X136000500Y-113820943D01*
X135959577Y-113668216D01*
X135950090Y-113651784D01*
X135880524Y-113531290D01*
X135880518Y-113531282D01*
X135768717Y-113419481D01*
X135768709Y-113419475D01*
X135631790Y-113340426D01*
X135631786Y-113340424D01*
X135631784Y-113340423D01*
X135479057Y-113299500D01*
X135320943Y-113299500D01*
X135168216Y-113340423D01*
X135168209Y-113340426D01*
X135031290Y-113419475D01*
X135031282Y-113419481D01*
X134919481Y-113531282D01*
X134919475Y-113531290D01*
X134840426Y-113668209D01*
X134840423Y-113668216D01*
X134799500Y-113820943D01*
X134799500Y-113979057D01*
X134809360Y-114015855D01*
X134807697Y-114085705D01*
X134777266Y-114135629D01*
X134439513Y-114473383D01*
X134439509Y-114473389D01*
X134380201Y-114576112D01*
X134380200Y-114576117D01*
X134349500Y-114690691D01*
X134349500Y-115860365D01*
X134329815Y-115927404D01*
X134277011Y-115973159D01*
X134207853Y-115983103D01*
X134193407Y-115980140D01*
X134178882Y-115976248D01*
X134079057Y-115949500D01*
X134079056Y-115949500D01*
X134052610Y-115949500D01*
X133985571Y-115929815D01*
X133964929Y-115913181D01*
X133661818Y-115610070D01*
X133628333Y-115548747D01*
X133625499Y-115522389D01*
X133625499Y-113043983D01*
X133625498Y-113043979D01*
X133624911Y-113041790D01*
X133616208Y-113009309D01*
X133596502Y-112935763D01*
X133540484Y-112838737D01*
X132637985Y-111936238D01*
X132604500Y-111874915D01*
X132609484Y-111805223D01*
X132651356Y-111749290D01*
X132663660Y-111741173D01*
X132768716Y-111680520D01*
X132880520Y-111568716D01*
X132959577Y-111431784D01*
X133000500Y-111279057D01*
X133000500Y-111220943D01*
X139299500Y-111220943D01*
X139299500Y-111379057D01*
X139340134Y-111530703D01*
X139340423Y-111531783D01*
X139340426Y-111531790D01*
X139419475Y-111668709D01*
X139419479Y-111668714D01*
X139419480Y-111668716D01*
X139531284Y-111780520D01*
X139531286Y-111780521D01*
X139531290Y-111780524D01*
X139631659Y-111838471D01*
X139668216Y-111859577D01*
X139820943Y-111900500D01*
X139820945Y-111900500D01*
X139979055Y-111900500D01*
X139979057Y-111900500D01*
X140131784Y-111859577D01*
X140268716Y-111780520D01*
X140380520Y-111668716D01*
X140459577Y-111531784D01*
X140500500Y-111379057D01*
X140500500Y-111220943D01*
X140459577Y-111068216D01*
X140459573Y-111068209D01*
X140380524Y-110931290D01*
X140380518Y-110931282D01*
X140268717Y-110819481D01*
X140268709Y-110819475D01*
X140131790Y-110740426D01*
X140131786Y-110740424D01*
X140131784Y-110740423D01*
X139979057Y-110699500D01*
X139820943Y-110699500D01*
X139668216Y-110740423D01*
X139668209Y-110740426D01*
X139531290Y-110819475D01*
X139531282Y-110819481D01*
X139419481Y-110931282D01*
X139419475Y-110931290D01*
X139340426Y-111068209D01*
X139340423Y-111068216D01*
X139299500Y-111220943D01*
X133000500Y-111220943D01*
X133000500Y-111120943D01*
X132959577Y-110968216D01*
X132938258Y-110931290D01*
X132880524Y-110831290D01*
X132880518Y-110831282D01*
X132768717Y-110719481D01*
X132768709Y-110719475D01*
X132631790Y-110640426D01*
X132631786Y-110640424D01*
X132631784Y-110640423D01*
X132479057Y-110599500D01*
X132479056Y-110599500D01*
X132452610Y-110599500D01*
X132385571Y-110579815D01*
X132364929Y-110563181D01*
X132361819Y-110560071D01*
X132328334Y-110498748D01*
X132325500Y-110472390D01*
X132325500Y-109443984D01*
X132325500Y-109443982D01*
X132296503Y-109335763D01*
X132240485Y-109238737D01*
X132161263Y-109159515D01*
X131161263Y-108159515D01*
X131088986Y-108117786D01*
X131064239Y-108103498D01*
X131064238Y-108103497D01*
X131064237Y-108103497D01*
X130956018Y-108074500D01*
X130956017Y-108074500D01*
X130025098Y-108074500D01*
X129958059Y-108054815D01*
X129937417Y-108038181D01*
X129918717Y-108019481D01*
X129918709Y-108019475D01*
X129781790Y-107940426D01*
X129781786Y-107940424D01*
X129781784Y-107940423D01*
X129629057Y-107899500D01*
X129470943Y-107899500D01*
X129318216Y-107940423D01*
X129318209Y-107940426D01*
X129181290Y-108019475D01*
X129181282Y-108019481D01*
X129069481Y-108131282D01*
X129069475Y-108131290D01*
X128990426Y-108268209D01*
X128990423Y-108268216D01*
X128949500Y-108420943D01*
X128949500Y-108579057D01*
X128970122Y-108656017D01*
X128990423Y-108731783D01*
X128990426Y-108731790D01*
X129069475Y-108868709D01*
X129069479Y-108868714D01*
X129069480Y-108868716D01*
X129181284Y-108980520D01*
X129181286Y-108980521D01*
X129181290Y-108980524D01*
X129259192Y-109025500D01*
X129318216Y-109059577D01*
X129470943Y-109100500D01*
X129470945Y-109100500D01*
X129629055Y-109100500D01*
X129629057Y-109100500D01*
X129781784Y-109059577D01*
X129918716Y-108980520D01*
X129937417Y-108961819D01*
X129998740Y-108928334D01*
X130025098Y-108925500D01*
X130672390Y-108925500D01*
X130739429Y-108945185D01*
X130760071Y-108961819D01*
X131438181Y-109639929D01*
X131471666Y-109701252D01*
X131474500Y-109727610D01*
X131474500Y-110571442D01*
X131454815Y-110638481D01*
X131402011Y-110684236D01*
X131332853Y-110694180D01*
X131318408Y-110691217D01*
X131256018Y-110674500D01*
X131256017Y-110674500D01*
X128865098Y-110674500D01*
X128798059Y-110654815D01*
X128777417Y-110638181D01*
X128708717Y-110569481D01*
X128708709Y-110569475D01*
X128571790Y-110490426D01*
X128571786Y-110490424D01*
X128571784Y-110490423D01*
X128419057Y-110449500D01*
X128260943Y-110449500D01*
X128108216Y-110490423D01*
X128108209Y-110490426D01*
X127971290Y-110569475D01*
X127971282Y-110569481D01*
X127859481Y-110681282D01*
X127859475Y-110681290D01*
X127780426Y-110818209D01*
X127780423Y-110818216D01*
X127739500Y-110970943D01*
X127275500Y-110970943D01*
X127275500Y-105693984D01*
X127275500Y-105693982D01*
X127246503Y-105585763D01*
X127190485Y-105488737D01*
X127111263Y-105409515D01*
X127025622Y-105360070D01*
X127014239Y-105353498D01*
X127014238Y-105353497D01*
X127014237Y-105353497D01*
X126906018Y-105324500D01*
X126906017Y-105324500D01*
X112956677Y-105324500D01*
X112889638Y-105304815D01*
X112843883Y-105252011D01*
X112833939Y-105182853D01*
X112862964Y-105119297D01*
X112895156Y-105092838D01*
X112953472Y-105059515D01*
X113055620Y-105001144D01*
X113059446Y-104999268D01*
X113064233Y-104996504D01*
X113064237Y-104996503D01*
X113111861Y-104969007D01*
X113159745Y-104941645D01*
X113159749Y-104941640D01*
X113159770Y-104941629D01*
X113160240Y-104941270D01*
X113160597Y-104940996D01*
X113161247Y-104940500D01*
X113161260Y-104940486D01*
X113161263Y-104940485D01*
X113200152Y-104901595D01*
X113239319Y-104862776D01*
X113239321Y-104862771D01*
X113239330Y-104862763D01*
X113239683Y-104862305D01*
X113239979Y-104861922D01*
X113240474Y-104861281D01*
X113240483Y-104861264D01*
X113240485Y-104861263D01*
X113267985Y-104813630D01*
X113295768Y-104766001D01*
X113295768Y-104765999D01*
X113295778Y-104765983D01*
X113296034Y-104765367D01*
X113296204Y-104764958D01*
X113296496Y-104764258D01*
X113296500Y-104764241D01*
X113296503Y-104764237D01*
X113310731Y-104711135D01*
X113325247Y-104657912D01*
X113325247Y-104657911D01*
X113325254Y-104657886D01*
X113325322Y-104657366D01*
X113325392Y-104656839D01*
X113325500Y-104656045D01*
X113325500Y-104601435D01*
X113325501Y-104600883D01*
X113325770Y-104540366D01*
X113325500Y-104536093D01*
X113325500Y-102775098D01*
X113345185Y-102708059D01*
X113345581Y-102707446D01*
X113352652Y-102696583D01*
X113380520Y-102668716D01*
X113417230Y-102605131D01*
X116349500Y-102605131D01*
X116349500Y-104394856D01*
X116349502Y-104394882D01*
X116352413Y-104419987D01*
X116352415Y-104419991D01*
X116397793Y-104522764D01*
X116397794Y-104522765D01*
X116477235Y-104602206D01*
X116580009Y-104647585D01*
X116605135Y-104650500D01*
X118394864Y-104650499D01*
X118394879Y-104650497D01*
X118394882Y-104650497D01*
X118419987Y-104647586D01*
X118419988Y-104647585D01*
X118419991Y-104647585D01*
X118522765Y-104602206D01*
X118602206Y-104522765D01*
X118647585Y-104419991D01*
X118650500Y-104394865D01*
X118650499Y-102605136D01*
X118650499Y-102605135D01*
X118650499Y-102605131D01*
X123049500Y-102605131D01*
X123049500Y-104394856D01*
X123049502Y-104394882D01*
X123052413Y-104419987D01*
X123052415Y-104419991D01*
X123097793Y-104522764D01*
X123097794Y-104522765D01*
X123177235Y-104602206D01*
X123280009Y-104647585D01*
X123305135Y-104650500D01*
X125094864Y-104650499D01*
X125094879Y-104650497D01*
X125094882Y-104650497D01*
X125119987Y-104647586D01*
X125119988Y-104647585D01*
X125119991Y-104647585D01*
X125222765Y-104602206D01*
X125302206Y-104522765D01*
X125347585Y-104419991D01*
X125350500Y-104394865D01*
X125350499Y-102605136D01*
X125350497Y-102605117D01*
X125347586Y-102580012D01*
X125347585Y-102580010D01*
X125347585Y-102580009D01*
X125302206Y-102477235D01*
X125222765Y-102397794D01*
X125180330Y-102379057D01*
X125119992Y-102352415D01*
X125094865Y-102349500D01*
X123305143Y-102349500D01*
X123305117Y-102349502D01*
X123280012Y-102352413D01*
X123280008Y-102352415D01*
X123177235Y-102397793D01*
X123097794Y-102477234D01*
X123052415Y-102580006D01*
X123052415Y-102580008D01*
X123049500Y-102605131D01*
X118650499Y-102605131D01*
X118650499Y-102605130D01*
X118647586Y-102580012D01*
X118647585Y-102580010D01*
X118647585Y-102580009D01*
X118602206Y-102477235D01*
X118522765Y-102397794D01*
X118480330Y-102379057D01*
X118419992Y-102352415D01*
X118394865Y-102349500D01*
X116605143Y-102349500D01*
X116605117Y-102349502D01*
X116580012Y-102352413D01*
X116580008Y-102352415D01*
X116477235Y-102397793D01*
X116397794Y-102477234D01*
X116352415Y-102580006D01*
X116352415Y-102580008D01*
X116349500Y-102605131D01*
X113417230Y-102605131D01*
X113459577Y-102531784D01*
X113500500Y-102379057D01*
X113500500Y-102220943D01*
X113459577Y-102068216D01*
X113420193Y-102000000D01*
X113380524Y-101931290D01*
X113380518Y-101931282D01*
X113268717Y-101819481D01*
X113268709Y-101819475D01*
X113131790Y-101740426D01*
X113131786Y-101740424D01*
X113131784Y-101740423D01*
X112979057Y-101699500D01*
X112820943Y-101699500D01*
X112668216Y-101740423D01*
X112668209Y-101740426D01*
X112531290Y-101819475D01*
X112531282Y-101819481D01*
X112419481Y-101931282D01*
X112419475Y-101931290D01*
X112340426Y-102068209D01*
X112340423Y-102068216D01*
X112299500Y-102220943D01*
X112299500Y-102379057D01*
X112325807Y-102477234D01*
X112340423Y-102531783D01*
X112340426Y-102531790D01*
X112419475Y-102668709D01*
X112419481Y-102668717D01*
X112438181Y-102687417D01*
X112471666Y-102748740D01*
X112474500Y-102775098D01*
X112474500Y-104281113D01*
X112454815Y-104348152D01*
X112412021Y-104388775D01*
X111344363Y-104998864D01*
X111340525Y-105000746D01*
X111288113Y-105031006D01*
X111287772Y-105031202D01*
X111270517Y-105041062D01*
X111240221Y-105058374D01*
X111239698Y-105058777D01*
X111239189Y-105059166D01*
X111238759Y-105059492D01*
X111200067Y-105098183D01*
X111199681Y-105098568D01*
X111156777Y-105141093D01*
X111153953Y-105144297D01*
X110938737Y-105359515D01*
X110859517Y-105438734D01*
X110859513Y-105438740D01*
X110803498Y-105535760D01*
X110803497Y-105535763D01*
X110774500Y-105643982D01*
X110774500Y-105974902D01*
X110754815Y-106041941D01*
X110738181Y-106062583D01*
X110719481Y-106081282D01*
X110719475Y-106081290D01*
X110640426Y-106218209D01*
X110640423Y-106218216D01*
X110599500Y-106370943D01*
X110599500Y-106529057D01*
X110621541Y-106611313D01*
X110640423Y-106681783D01*
X110640426Y-106681790D01*
X110719475Y-106818709D01*
X110719479Y-106818714D01*
X110719480Y-106818716D01*
X110831284Y-106930520D01*
X110831286Y-106930521D01*
X110831290Y-106930524D01*
X110943288Y-106995185D01*
X110968216Y-107009577D01*
X111120943Y-107050500D01*
X111120945Y-107050500D01*
X111279055Y-107050500D01*
X111279057Y-107050500D01*
X111318407Y-107039956D01*
X111388254Y-107041617D01*
X111446118Y-107080779D01*
X111473623Y-107145007D01*
X111474500Y-107159730D01*
X111474500Y-108050500D01*
X111454815Y-108117539D01*
X111402011Y-108163294D01*
X111350500Y-108174500D01*
X110875098Y-108174500D01*
X110808059Y-108154815D01*
X110787417Y-108138181D01*
X110768717Y-108119481D01*
X110768709Y-108119475D01*
X110631790Y-108040426D01*
X110631786Y-108040424D01*
X110631784Y-108040423D01*
X110479057Y-107999500D01*
X110320943Y-107999500D01*
X110168216Y-108040423D01*
X110168209Y-108040426D01*
X110031290Y-108119475D01*
X110031282Y-108119481D01*
X109919481Y-108231282D01*
X109919475Y-108231290D01*
X109840426Y-108368209D01*
X109840423Y-108368216D01*
X109799500Y-108520943D01*
X109799500Y-108679057D01*
X109829341Y-108790423D01*
X109840423Y-108831783D01*
X109840426Y-108831790D01*
X109919475Y-108968709D01*
X109919479Y-108968714D01*
X109919480Y-108968716D01*
X110031284Y-109080520D01*
X110031286Y-109080521D01*
X110031290Y-109080524D01*
X110168109Y-109159515D01*
X110168216Y-109159577D01*
X110320943Y-109200500D01*
X110320945Y-109200500D01*
X110479055Y-109200500D01*
X110479057Y-109200500D01*
X110631784Y-109159577D01*
X110768716Y-109080520D01*
X110787417Y-109061819D01*
X110848740Y-109028334D01*
X110875098Y-109025500D01*
X111956016Y-109025500D01*
X111956018Y-109025500D01*
X112064237Y-108996503D01*
X112161263Y-108940485D01*
X112240485Y-108861263D01*
X112296503Y-108764237D01*
X112325500Y-108656018D01*
X112325500Y-106299500D01*
X112345185Y-106232461D01*
X112397989Y-106186706D01*
X112449500Y-106175500D01*
X113071442Y-106175500D01*
X113138481Y-106195185D01*
X113184236Y-106247989D01*
X113194180Y-106317147D01*
X113191217Y-106331593D01*
X113172397Y-106401832D01*
X113169912Y-106401166D01*
X113146811Y-106453348D01*
X113139843Y-106460921D01*
X113119478Y-106481286D01*
X113119475Y-106481290D01*
X113040426Y-106618209D01*
X113040423Y-106618216D01*
X112999500Y-106770943D01*
X112999500Y-106929057D01*
X113032041Y-107050500D01*
X113040423Y-107081783D01*
X113040426Y-107081790D01*
X113119475Y-107218709D01*
X113119479Y-107218714D01*
X113119480Y-107218716D01*
X113231284Y-107330520D01*
X113231286Y-107330521D01*
X113231290Y-107330524D01*
X113329111Y-107387000D01*
X113368216Y-107409577D01*
X113520943Y-107450500D01*
X113520945Y-107450500D01*
X113679055Y-107450500D01*
X113679057Y-107450500D01*
X113831784Y-107409577D01*
X113938500Y-107347964D01*
X114006401Y-107331492D01*
X114072427Y-107354345D01*
X114115618Y-107409266D01*
X114124500Y-107455352D01*
X114124500Y-108543982D01*
X114124500Y-108656018D01*
X114153497Y-108764237D01*
X114209515Y-108861263D01*
X114209517Y-108861265D01*
X114600823Y-109252571D01*
X114619622Y-109276707D01*
X115189689Y-110231955D01*
X115207141Y-110299610D01*
X115185245Y-110365961D01*
X115130953Y-110409940D01*
X115083209Y-110419500D01*
X115070943Y-110419500D01*
X114918216Y-110460423D01*
X114918215Y-110460423D01*
X114918213Y-110460424D01*
X114912169Y-110462927D01*
X114850048Y-110471489D01*
X114844771Y-110470859D01*
X114844767Y-110470859D01*
X114828297Y-110473233D01*
X114810614Y-110474500D01*
X112843982Y-110474500D01*
X112735763Y-110503497D01*
X112735760Y-110503498D01*
X112638740Y-110559513D01*
X112638734Y-110559517D01*
X107559517Y-115638734D01*
X107559513Y-115638740D01*
X107503498Y-115735760D01*
X107503497Y-115735763D01*
X107474500Y-115843982D01*
X107474500Y-119975902D01*
X107454815Y-120042941D01*
X107402011Y-120088696D01*
X107332853Y-120098640D01*
X107269297Y-120069615D01*
X107262819Y-120063583D01*
X107218717Y-120019481D01*
X107218709Y-120019475D01*
X107081790Y-119940426D01*
X107081787Y-119940424D01*
X107081784Y-119940423D01*
X107081780Y-119940422D01*
X107081778Y-119940421D01*
X107067401Y-119936568D01*
X107007742Y-119900201D01*
X106977216Y-119837353D01*
X106975500Y-119816795D01*
X106975500Y-108177608D01*
X106995185Y-108110569D01*
X107011814Y-108089932D01*
X109251053Y-105850692D01*
X109251058Y-105850689D01*
X109261261Y-105840485D01*
X109261263Y-105840485D01*
X109340485Y-105761263D01*
X109396503Y-105664237D01*
X109425500Y-105556018D01*
X109425500Y-104774499D01*
X109445185Y-104707460D01*
X109497989Y-104661705D01*
X109549500Y-104650499D01*
X109894856Y-104650499D01*
X109894864Y-104650499D01*
X109894879Y-104650497D01*
X109894882Y-104650497D01*
X109919987Y-104647586D01*
X109919988Y-104647585D01*
X109919991Y-104647585D01*
X110022765Y-104602206D01*
X110102206Y-104522765D01*
X110147585Y-104419991D01*
X110150500Y-104394865D01*
X110150499Y-102605136D01*
X110150497Y-102605117D01*
X110147586Y-102580012D01*
X110147585Y-102580010D01*
X110147585Y-102580009D01*
X110102206Y-102477235D01*
X110022765Y-102397794D01*
X109980330Y-102379057D01*
X109919992Y-102352415D01*
X109894865Y-102349500D01*
X108105143Y-102349500D01*
X108105117Y-102349502D01*
X108080012Y-102352413D01*
X108080008Y-102352415D01*
X107977235Y-102397793D01*
X107897794Y-102477234D01*
X107852415Y-102580006D01*
X107852415Y-102580008D01*
X107849500Y-102605131D01*
X107849500Y-104394856D01*
X107849502Y-104394882D01*
X107852413Y-104419987D01*
X107852415Y-104419991D01*
X107897793Y-104522764D01*
X107897794Y-104522765D01*
X107977235Y-104602206D01*
X108080009Y-104647585D01*
X108105135Y-104650500D01*
X108450500Y-104650499D01*
X108517539Y-104670183D01*
X108563294Y-104722987D01*
X108574500Y-104774499D01*
X108574500Y-105272389D01*
X108554815Y-105339428D01*
X108538181Y-105360070D01*
X106271295Y-107626955D01*
X106271296Y-107626956D01*
X106209514Y-107688738D01*
X106209513Y-107688740D01*
X106153498Y-107785760D01*
X106153497Y-107785763D01*
X106124500Y-107893982D01*
X106124500Y-120143982D01*
X106124500Y-120256018D01*
X106153497Y-120364237D01*
X106209515Y-120461263D01*
X106209517Y-120461265D01*
X106213181Y-120464929D01*
X106246666Y-120526252D01*
X106249500Y-120552610D01*
X106249500Y-120579056D01*
X106290423Y-120731783D01*
X106290426Y-120731790D01*
X106369475Y-120868709D01*
X106369479Y-120868714D01*
X106369480Y-120868716D01*
X106481284Y-120980520D01*
X106481286Y-120980521D01*
X106481290Y-120980524D01*
X106589159Y-121042801D01*
X106618216Y-121059577D01*
X106770943Y-121100500D01*
X106770945Y-121100500D01*
X106929055Y-121100500D01*
X106929057Y-121100500D01*
X107081784Y-121059577D01*
X107218716Y-120980520D01*
X107262819Y-120936417D01*
X107324142Y-120902932D01*
X107393834Y-120907916D01*
X107449767Y-120949788D01*
X107474184Y-121015252D01*
X107474500Y-121024098D01*
X107474500Y-121415202D01*
X107454815Y-121482241D01*
X107412500Y-121522589D01*
X107331287Y-121569477D01*
X107331282Y-121569481D01*
X107219481Y-121681282D01*
X107219475Y-121681290D01*
X107140426Y-121818209D01*
X107140423Y-121818216D01*
X107099500Y-121970943D01*
X107099500Y-122129057D01*
X107137127Y-122269481D01*
X107140423Y-122281783D01*
X107140426Y-122281790D01*
X107219475Y-122418709D01*
X107219479Y-122418714D01*
X107219480Y-122418716D01*
X107331284Y-122530520D01*
X107331285Y-122530521D01*
X107331287Y-122530522D01*
X107396397Y-122568113D01*
X107444612Y-122618679D01*
X107457836Y-122687286D01*
X107431868Y-122752151D01*
X107374954Y-122792680D01*
X107334397Y-122799500D01*
X107320943Y-122799500D01*
X107168216Y-122840423D01*
X107168209Y-122840426D01*
X107031290Y-122919475D01*
X107031282Y-122919481D01*
X106919481Y-123031282D01*
X106919475Y-123031290D01*
X106840426Y-123168209D01*
X106840423Y-123168216D01*
X106799500Y-123320943D01*
X106799500Y-123372857D01*
X106782888Y-123434856D01*
X106753497Y-123485762D01*
X106753497Y-123485763D01*
X106724500Y-123593982D01*
X106724500Y-125775936D01*
X106704815Y-125842975D01*
X106652011Y-125888730D01*
X106582853Y-125898674D01*
X106525015Y-125874313D01*
X106518712Y-125869476D01*
X106381790Y-125790426D01*
X106381786Y-125790424D01*
X106381784Y-125790423D01*
X106229057Y-125749500D01*
X106070943Y-125749500D01*
X105918216Y-125790423D01*
X105918209Y-125790426D01*
X105781290Y-125869475D01*
X105781282Y-125869481D01*
X105669481Y-125981282D01*
X105669475Y-125981290D01*
X105590426Y-126118209D01*
X105590423Y-126118216D01*
X105549500Y-126270943D01*
X103103417Y-126270943D01*
X103080520Y-126231284D01*
X102968716Y-126119480D01*
X102968714Y-126119479D01*
X102968709Y-126119475D01*
X102831790Y-126040426D01*
X102831786Y-126040424D01*
X102831784Y-126040423D01*
X102679057Y-125999500D01*
X102520943Y-125999500D01*
X102368216Y-126040423D01*
X102368209Y-126040426D01*
X102231290Y-126119475D01*
X102231282Y-126119481D01*
X102119481Y-126231282D01*
X102119475Y-126231290D01*
X102040426Y-126368209D01*
X102040423Y-126368216D01*
X101999500Y-126520943D01*
X101999500Y-126679057D01*
X102040086Y-126830524D01*
X102040423Y-126831783D01*
X102040426Y-126831790D01*
X102119475Y-126968709D01*
X102119479Y-126968714D01*
X102119480Y-126968716D01*
X102231284Y-127080520D01*
X102231286Y-127080521D01*
X102231290Y-127080524D01*
X102312000Y-127127121D01*
X102368216Y-127159577D01*
X102368223Y-127159579D01*
X102375723Y-127162686D01*
X102374588Y-127165426D01*
X102422116Y-127194373D01*
X102452667Y-127257210D01*
X102444396Y-127326588D01*
X102399929Y-127380481D01*
X102377844Y-127392376D01*
X102087150Y-127512786D01*
X102087145Y-127512788D01*
X101801169Y-127665646D01*
X101801151Y-127665657D01*
X101531532Y-127845811D01*
X101531518Y-127845821D01*
X101280841Y-128051546D01*
X101051546Y-128280841D01*
X100845821Y-128531518D01*
X100845811Y-128531532D01*
X100727602Y-128708445D01*
X100673990Y-128753250D01*
X100604665Y-128761957D01*
X100541638Y-128731803D01*
X100504918Y-128672360D01*
X100500500Y-128639554D01*
X100500500Y-123394000D01*
X100520185Y-123326961D01*
X100572989Y-123281206D01*
X100624500Y-123270000D01*
X105600000Y-123270000D01*
X105600000Y-106104891D01*
X105619685Y-106037852D01*
X105645333Y-106009040D01*
X105719153Y-105948458D01*
X105948458Y-105719153D01*
X106154183Y-105468476D01*
X106334347Y-105198842D01*
X106487215Y-104912847D01*
X106611314Y-104613246D01*
X106705449Y-104302923D01*
X106705451Y-104302913D01*
X106705454Y-104302902D01*
X106737399Y-104142295D01*
X106768714Y-103984868D01*
X106800500Y-103662143D01*
X106800500Y-103337857D01*
X106768714Y-103015132D01*
X106745122Y-102896528D01*
X106705454Y-102697097D01*
X106705451Y-102697086D01*
X106705450Y-102697083D01*
X106705449Y-102697077D01*
X106611314Y-102386754D01*
X106487215Y-102087153D01*
X106405410Y-101934108D01*
X106334353Y-101801169D01*
X106334352Y-101801167D01*
X106334347Y-101801158D01*
X106154183Y-101531524D01*
X105948458Y-101280847D01*
X105948457Y-101280846D01*
X105948453Y-101280841D01*
X105719158Y-101051546D01*
X105468481Y-100845821D01*
X105468480Y-100845820D01*
X105468476Y-100845817D01*
X105291554Y-100727601D01*
X105246750Y-100673990D01*
X105238043Y-100604665D01*
X105268197Y-100541638D01*
X105327640Y-100504918D01*
X105360446Y-100500500D01*
X139639554Y-100500500D01*
X139706593Y-100520185D01*
G37*
%TD.AperFunction*%
%TD*%
M02*
