M48
; DRILL file KiCad 10.0.5 date 2026-08-13T21:07:56
; FORMAT={-:-/ absolute / metric / decimal}
; #@! TF.CreationDate,2026-08-13T21:07:56-05:00
; #@! TF.GenerationSoftware,Kicad,Pcbnew,10.0.5
; #@! TF.FileFunction,Plated,1,4,PTH
FMAT,2
METRIC
; #@! TA.AperFunction,Plated,PTH,ViaDrill
T1C0.300
; #@! TA.AperFunction,Plated,PTH,ComponentDrill
T2C0.300
; #@! TA.AperFunction,Plated,PTH,ComponentDrill
T3C0.600
; #@! TA.AperFunction,Plated,PTH,ComponentDrill
T4C0.750
; #@! TA.AperFunction,Plated,PTH,ComponentDrill
T5C1.000
%
G90
G05
T1
X102.6Y-126.6
X105.075Y-125.7
X105.95Y-124.62
X106.05Y-122.1
X106.15Y-126.35
X106.85Y-120.5
X107.2Y-118.57
X107.2Y-119.37
X107.25Y-108.62
X107.25Y-110.22
X107.25Y-111.82
X107.25Y-112.62
X107.25Y-114.22
X107.25Y-115.82
X107.25Y-116.62
X107.4Y-123.4
X107.45Y-109.42
X107.45Y-111.02
X107.45Y-113.42
X107.45Y-115.02
X107.6Y-127.85
X107.7Y-122.05
X107.9Y-124.045
X108.15Y-125.35
X108.2Y-122.75
X108.55Y-121.35
X108.8Y-119.32
X110.4Y-108.6
X110.4Y-112.4
X110.4Y-114.4
X110.4Y-118.5
X111.2Y-106.45
X111.7Y-113.4
X112.8Y-119.32
X112.9Y-102.3
X113.0Y-112.4
X113.0Y-114.4
X113.6Y-106.85
X113.825Y-121.445
X113.825Y-125.995
X114.55Y-106.85
X114.6Y-117.75
X114.75Y-112.05
X115.15Y-111.02
X115.305Y-121.565
X115.45Y-116.62
X115.8Y-124.0
X115.95Y-119.32
X116.45Y-110.22
X116.6Y-124.72
X116.6Y-125.56
X116.6Y-126.92
X116.6Y-128.85
X116.85Y-113.42
X116.9Y-107.47
X117.1Y-109.35
X117.5Y-112.95
X117.5Y-114.45
X117.5Y-116.5
X117.5Y-122.3
X118.35Y-125.75
X118.4Y-110.61
X118.4Y-112.81
X118.85Y-107.5
X118.89Y-128.6
X119.1Y-116.1
X119.15Y-113.99
X119.22Y-111.24
X120.3Y-121.5
X120.5Y-118.37
X120.55Y-111.35
X120.563Y-113.157
X121.2Y-124.5
X121.2Y-126.7
X121.4Y-107.987
X121.85Y-117.6
X121.9Y-115.4
X122.3Y-123.3
X122.4Y-109.5
X122.6Y-104.6
X122.9Y-116.15
X123.0Y-122.375
X123.4Y-111.188
X123.7Y-117.325
X123.75Y-120.775
X123.85Y-119.3
X123.95Y-126.75
X124.4Y-124.35
X124.688Y-114.2
X124.85Y-111.0
X124.9Y-109.0
X124.9Y-122.11
X125.15Y-120.05
X125.16Y-127.6
X125.19Y-128.4
X125.6Y-104.75
X125.6Y-116.2
X125.8Y-117.25
X126.15Y-108.3
X126.2Y-112.4
X126.2Y-131.1
X126.95Y-128.15
X127.5Y-122.6
X127.55Y-119.75
X127.85Y-117.425
X128.34Y-111.05
X128.5Y-131.1
X128.655Y-122.18
X128.7Y-126.1
X129.088Y-110.1
X129.25Y-128.15
X129.45Y-114.85
X129.5Y-116.6
X129.55Y-108.5
X130.6Y-125.9
X132.4Y-111.2
X133.6Y-121.45
X134.0Y-116.55
X134.0Y-118.45
X134.15Y-111.975
X134.15Y-119.75
X135.4Y-113.9
X135.55Y-115.3
X135.7Y-118.7
X135.75Y-119.9
X135.75Y-125.55
X136.332Y-124.295
X136.425Y-113.22
X137.25Y-103.11
X137.393Y-124.705
X137.485Y-113.22
X137.485Y-120.78
X137.8Y-103.83
X137.85Y-107.6
X138.6Y-116.25
X138.6Y-117.25
X139.0Y-122.19
X139.0Y-123.96
X139.9Y-111.3
X140.15Y-126.21
X140.3Y-122.94
X140.65Y-108.65
X141.05Y-123.96
T2
X110.9Y-121.52
X110.9Y-122.62
X110.9Y-123.72
X110.9Y-124.82
X110.9Y-125.92
X112.0Y-121.52
X112.0Y-122.62
X112.0Y-123.72
X112.0Y-124.82
X112.0Y-125.92
X113.1Y-121.52
X113.1Y-122.62
X113.1Y-123.72
X113.1Y-124.82
X113.1Y-125.92
T4
X109.15Y-129.24
X111.15Y-129.24
X133.5Y-129.24
X135.5Y-129.24
T5
X109.0Y-103.5
X111.54Y-103.5
X117.5Y-103.5
X117.75Y-130.7
X120.04Y-103.5
X120.29Y-130.7
X122.83Y-130.7
X124.2Y-103.5
X126.74Y-103.5
T3
X137.32Y-112.68G85X138.42Y-112.68
G05
X137.32Y-121.32G85X138.42Y-121.32
G05
X141.75Y-112.68G85X142.35Y-112.68
G05
X141.75Y-121.32G85X142.35Y-121.32
G05
M30
