%TF.GenerationSoftware,KiCad,Pcbnew,10.0.5*%
%TF.CreationDate,2026-08-13T21:07:55-05:00*%
%TF.ProjectId,triangle_flywheel_balancer,74726961-6e67-46c6-955f-666c79776865,rev?*%
%TF.SameCoordinates,Original*%
%TF.FileFunction,Soldermask,Top*%
%TF.FilePolarity,Negative*%
%FSLAX46Y46*%
G04 Gerber Fmt 4.6, Leading zero omitted, Abs format (unit mm)*
G04 Created by KiCad (PCBNEW 10.0.5) date 2026-08-13 21:07:55*
%MOMM*%
%LPD*%
G01*
G04 APERTURE LIST*
G04 Aperture macros list*
%AMRoundRect*
0 Rectangle with rounded corners*
0 $1 Rounding radius*
0 $2 $3 $4 $5 $6 $7 $8 $9 X,Y pos of 4 corners*
0 Add a 4 corners polygon primitive as box body*
4,1,4,$2,$3,$4,$5,$6,$7,$8,$9,$2,$3,0*
0 Add four circle primitives for the rounded corners*
1,1,$1+$1,$2,$3*
1,1,$1+$1,$4,$5*
1,1,$1+$1,$6,$7*
1,1,$1+$1,$8,$9*
0 Add four rect primitives between the rounded corners*
20,1,$1+$1,$2,$3,$4,$5,0*
20,1,$1+$1,$4,$5,$6,$7,0*
20,1,$1+$1,$6,$7,$8,$9,0*
20,1,$1+$1,$8,$9,$2,$3,0*%
%AMFreePoly0*
4,1,6,0.725000,-0.725000,-0.725000,-0.725000,-0.725000,0.125000,-0.125000,0.725000,0.725000,0.725000,0.725000,-0.725000,0.725000,-0.725000,$1*%
G04 Aperture macros list end*
%ADD10RoundRect,0.225000X0.250000X-0.225000X0.250000X0.225000X-0.250000X0.225000X-0.250000X-0.225000X0*%
%ADD11RoundRect,0.150000X0.150000X-0.512500X0.150000X0.512500X-0.150000X0.512500X-0.150000X-0.512500X0*%
%ADD12RoundRect,0.135000X0.185000X-0.135000X0.185000X0.135000X-0.185000X0.135000X-0.185000X-0.135000X0*%
%ADD13RoundRect,0.150000X0.512500X0.150000X-0.512500X0.150000X-0.512500X-0.150000X0.512500X-0.150000X0*%
%ADD14RoundRect,0.140000X0.170000X-0.140000X0.170000X0.140000X-0.170000X0.140000X-0.170000X-0.140000X0*%
%ADD15RoundRect,0.218750X0.256250X-0.218750X0.256250X0.218750X-0.256250X0.218750X-0.256250X-0.218750X0*%
%ADD16RoundRect,0.135000X-0.185000X0.135000X-0.185000X-0.135000X0.185000X-0.135000X0.185000X0.135000X0*%
%ADD17RoundRect,0.100000X-0.637500X-0.100000X0.637500X-0.100000X0.637500X0.100000X-0.637500X0.100000X0*%
%ADD18RoundRect,0.250000X0.475000X-0.250000X0.475000X0.250000X-0.475000X0.250000X-0.475000X-0.250000X0*%
%ADD19C,2.000000*%
%ADD20RoundRect,0.135000X-0.135000X-0.185000X0.135000X-0.185000X0.135000X0.185000X-0.135000X0.185000X0*%
%ADD21R,1.700000X1.700000*%
%ADD22C,1.700000*%
%ADD23RoundRect,0.250000X-0.325000X-1.100000X0.325000X-1.100000X0.325000X1.100000X-0.325000X1.100000X0*%
%ADD24C,6.000000*%
%ADD25RoundRect,0.225000X-0.225000X-0.250000X0.225000X-0.250000X0.225000X0.250000X-0.225000X0.250000X0*%
%ADD26RoundRect,0.140000X-0.170000X0.140000X-0.170000X-0.140000X0.170000X-0.140000X0.170000X0.140000X0*%
%ADD27RoundRect,0.150000X-0.512500X-0.150000X0.512500X-0.150000X0.512500X0.150000X-0.512500X0.150000X0*%
%ADD28RoundRect,0.250000X-0.350000X-0.625000X0.350000X-0.625000X0.350000X0.625000X-0.350000X0.625000X0*%
%ADD29O,1.200000X1.750000*%
%ADD30C,0.650000*%
%ADD31RoundRect,0.150000X0.575000X-0.150000X0.575000X0.150000X-0.575000X0.150000X-0.575000X-0.150000X0*%
%ADD32RoundRect,0.075000X0.650000X-0.075000X0.650000X0.075000X-0.650000X0.075000X-0.650000X-0.075000X0*%
%ADD33O,2.100000X1.000000*%
%ADD34O,1.600000X1.000000*%
%ADD35R,3.000000X3.000000*%
%ADD36R,1.050000X0.450000*%
%ADD37RoundRect,0.500000X-0.500000X-0.500000X0.500000X-0.500000X0.500000X0.500000X-0.500000X0.500000X0*%
%ADD38RoundRect,0.087500X-0.250000X-0.087500X0.250000X-0.087500X0.250000X0.087500X-0.250000X0.087500X0*%
%ADD39R,0.400000X0.800000*%
%ADD40R,0.800000X0.400000*%
%ADD41FreePoly0,90.000000*%
%ADD42R,1.450000X1.450000*%
%ADD43R,0.700000X0.700000*%
%ADD44RoundRect,0.137500X0.137500X0.662500X-0.137500X0.662500X-0.137500X-0.662500X0.137500X-0.662500X0*%
G04 APERTURE END LIST*
D10*
%TO.C,C7*%
X127100000Y-118975000D03*
X127100000Y-117425000D03*
%TD*%
D11*
%TO.C,U3*%
X118400000Y-125237500D03*
X119350000Y-125237500D03*
X120300000Y-125237500D03*
X120300000Y-122962500D03*
X118400000Y-122962500D03*
%TD*%
D12*
%TO.C,R10*%
X118400000Y-115010000D03*
X118400000Y-113990000D03*
%TD*%
D13*
%TO.C,U5*%
X132937500Y-121400000D03*
X132937500Y-120450000D03*
X132937500Y-119500000D03*
X130662500Y-119500000D03*
X130662500Y-120450000D03*
X130662500Y-121400000D03*
%TD*%
D14*
%TO.C,C3*%
X121250000Y-110580000D03*
X121250000Y-109620000D03*
%TD*%
D15*
%TO.C,D2*%
X123400000Y-111187500D03*
X123400000Y-109612500D03*
%TD*%
D10*
%TO.C,C4*%
X134900000Y-113525000D03*
X134900000Y-111975000D03*
%TD*%
D14*
%TO.C,C12*%
X116600000Y-127880000D03*
X116600000Y-126920000D03*
%TD*%
D16*
%TO.C,R11*%
X122150000Y-124290000D03*
X122150000Y-125310000D03*
%TD*%
%TO.C,R12*%
X122150000Y-126490000D03*
X122150000Y-127510000D03*
%TD*%
D12*
%TO.C,R14*%
X119750000Y-107710000D03*
X119750000Y-106690000D03*
%TD*%
D17*
%TO.C,Q1*%
X131137500Y-123525000D03*
X131137500Y-124175000D03*
X131137500Y-124825000D03*
X131137500Y-125475000D03*
X136862500Y-125475000D03*
X136862500Y-124825000D03*
X136862500Y-124175000D03*
X136862500Y-123525000D03*
%TD*%
D14*
%TO.C,C16*%
X119750000Y-114930000D03*
X119750000Y-113970000D03*
%TD*%
D12*
%TO.C,R17*%
X118400000Y-119410000D03*
X118400000Y-118390000D03*
%TD*%
D18*
%TO.C,C9*%
X139900000Y-110550000D03*
X139900000Y-108650000D03*
%TD*%
D19*
%TO.C,FID1*%
X114500000Y-101100000D03*
%TD*%
D16*
%TO.C,R21*%
X136500000Y-102090000D03*
X136500000Y-103110000D03*
%TD*%
D20*
%TO.C,R5*%
X130689999Y-112050000D03*
X131709999Y-112050000D03*
%TD*%
D21*
%TO.C,J5*%
X109000000Y-103500000D03*
D22*
X111540000Y-103500000D03*
%TD*%
D23*
%TO.C,C13*%
X101375000Y-125700000D03*
X104325000Y-125700000D03*
%TD*%
D24*
%TO.C,H1*%
X103500000Y-103500000D03*
%TD*%
D20*
%TO.C,R9*%
X123390000Y-127600000D03*
X124410000Y-127600000D03*
%TD*%
%TO.C,R8*%
X118890000Y-127600000D03*
X119910000Y-127600000D03*
%TD*%
D25*
%TO.C,C5*%
X126575000Y-121650000D03*
X128125000Y-121650000D03*
%TD*%
D26*
%TO.C,C6*%
X128650000Y-118920000D03*
X128650000Y-119880000D03*
%TD*%
D21*
%TO.C,J7*%
X124200000Y-103500000D03*
D22*
X126740000Y-103500000D03*
%TD*%
D27*
%TO.C,U4*%
X129862500Y-113900000D03*
X129862500Y-114850000D03*
X129862500Y-115800000D03*
X132137500Y-115800000D03*
X132137500Y-113900000D03*
%TD*%
D16*
%TO.C,R15*%
X121100000Y-113890000D03*
X121100000Y-114910000D03*
%TD*%
%TO.C,R19*%
X118400000Y-109590000D03*
X118400000Y-110610000D03*
%TD*%
D28*
%TO.C,J2*%
X133500000Y-129240000D03*
D29*
X135500000Y-129240000D03*
%TD*%
D30*
%TO.C,J1*%
X138400000Y-119890000D03*
X138400000Y-114110000D03*
D31*
X136955000Y-120250000D03*
X136955000Y-119450000D03*
D32*
X136955000Y-118250000D03*
X136955000Y-117250000D03*
X136955000Y-116750000D03*
X136955000Y-115750000D03*
D31*
X136955000Y-114550000D03*
X136955000Y-113750000D03*
X136955000Y-113750000D03*
X136955000Y-114550000D03*
D32*
X136955000Y-115250000D03*
X136955000Y-116250000D03*
X136955000Y-117750000D03*
X136955000Y-118750000D03*
D31*
X136955000Y-119450000D03*
X136955000Y-120250000D03*
D33*
X137870000Y-121320000D03*
D34*
X142050000Y-121320000D03*
D33*
X137870000Y-112680000D03*
D34*
X142050000Y-112680000D03*
%TD*%
D16*
%TO.C,R3*%
X140300000Y-122940000D03*
X140300000Y-123960000D03*
%TD*%
D13*
%TO.C,D1*%
X128337500Y-111050000D03*
X128337500Y-110100000D03*
X128337500Y-109150000D03*
X126062500Y-109150000D03*
X126062500Y-110100000D03*
X126062500Y-111050000D03*
%TD*%
D12*
%TO.C,R13*%
X121100000Y-117110000D03*
X121100000Y-116090000D03*
%TD*%
D24*
%TO.C,H2*%
X141500000Y-103500000D03*
%TD*%
D35*
%TO.C,U2*%
X112000000Y-123720000D03*
D36*
X109225000Y-121445000D03*
X109225000Y-122095000D03*
X109225000Y-122745000D03*
X109225000Y-123395000D03*
X109225000Y-124045000D03*
X109225000Y-124695000D03*
X109225000Y-125345000D03*
X109225000Y-125995000D03*
X114775000Y-125995000D03*
X114775000Y-125345000D03*
X114775000Y-124695000D03*
X114775000Y-124045000D03*
X114775000Y-123395000D03*
X114775000Y-122745000D03*
X114775000Y-122095000D03*
X114775000Y-121445000D03*
%TD*%
D13*
%TO.C,U6*%
X125437500Y-115150000D03*
X125437500Y-114200000D03*
X125437500Y-113250000D03*
X123162500Y-113250000D03*
X123162500Y-115150000D03*
%TD*%
D24*
%TO.C,H3*%
X103500000Y-130500000D03*
%TD*%
D14*
%TO.C,C15*%
X116600000Y-123480000D03*
X116600000Y-122520000D03*
%TD*%
D21*
%TO.C,J4*%
X117750000Y-130699999D03*
D22*
X120290000Y-130699999D03*
X122830000Y-130699999D03*
%TD*%
D12*
%TO.C,R20*%
X135150000Y-103110000D03*
X135150000Y-102090000D03*
%TD*%
D14*
%TO.C,C20*%
X119750000Y-112730000D03*
X119750000Y-111770000D03*
%TD*%
D37*
%TO.C,S4*%
X131100000Y-107600000D03*
X137100000Y-107600000D03*
%TD*%
D18*
%TO.C,C11*%
X128500000Y-130050000D03*
X128500000Y-128150000D03*
%TD*%
D21*
%TO.C,J6*%
X117500000Y-103500000D03*
D22*
X120040000Y-103500000D03*
%TD*%
D19*
%TO.C,FID3*%
X142500000Y-125000000D03*
%TD*%
D28*
%TO.C,J3*%
X109150000Y-129240000D03*
D29*
X111150000Y-129240000D03*
%TD*%
D10*
%TO.C,C1*%
X123000000Y-122325000D03*
X123000000Y-120775000D03*
%TD*%
D26*
%TO.C,C22*%
X137800000Y-102120000D03*
X137800000Y-103080000D03*
%TD*%
D12*
%TO.C,R16*%
X119750000Y-117160000D03*
X119750000Y-116140000D03*
%TD*%
D16*
%TO.C,R1*%
X124900000Y-121090000D03*
X124900000Y-122110000D03*
%TD*%
D14*
%TO.C,C17*%
X106700000Y-125580000D03*
X106700000Y-124620000D03*
%TD*%
D12*
%TO.C,R2*%
X139000000Y-123960000D03*
X139000000Y-122940000D03*
%TD*%
D38*
%TO.C,U7*%
X123737500Y-125050000D03*
X123737500Y-125550000D03*
X123737500Y-126050000D03*
X125162500Y-126050000D03*
X125162500Y-125550000D03*
X125162500Y-125050000D03*
%TD*%
D20*
%TO.C,R6*%
X129890000Y-117650000D03*
X130910000Y-117650000D03*
%TD*%
D18*
%TO.C,C10*%
X126200000Y-130050000D03*
X126200000Y-128150000D03*
%TD*%
D14*
%TO.C,C18*%
X118400000Y-117180000D03*
X118400000Y-116220000D03*
%TD*%
D19*
%TO.C,FID2*%
X143400000Y-107600000D03*
%TD*%
D16*
%TO.C,R4*%
X123400000Y-107090000D03*
X123400000Y-108110000D03*
%TD*%
D39*
%TO.C,U1*%
X107200000Y-119320000D03*
X108000000Y-119320000D03*
X108800000Y-119320000D03*
X109600000Y-119320000D03*
X110400000Y-119320000D03*
X111200000Y-119320000D03*
X112000000Y-119320000D03*
X112800000Y-119320000D03*
X113600000Y-119320000D03*
X114400000Y-119320000D03*
X115200000Y-119320000D03*
D40*
X116100000Y-118220000D03*
X116100000Y-117420000D03*
X116100000Y-116620000D03*
X116100000Y-115820000D03*
X116100000Y-115020000D03*
X116100000Y-114220000D03*
X116100000Y-113420000D03*
X116100000Y-112620000D03*
X116100000Y-111820000D03*
X116100000Y-111020000D03*
X116100000Y-110220000D03*
X116100000Y-109420000D03*
X116100000Y-108620000D03*
D39*
X115200000Y-107520000D03*
X114400000Y-107520000D03*
X113600000Y-107520000D03*
X112800000Y-107520000D03*
X112000000Y-107520000D03*
X111200000Y-107520000D03*
X110400000Y-107520000D03*
X109600000Y-107520000D03*
X108800000Y-107520000D03*
X108000000Y-107520000D03*
X107200000Y-107520000D03*
D40*
X106300000Y-108620000D03*
X106300000Y-109420000D03*
X106300000Y-110220000D03*
X106300000Y-111020000D03*
X106300000Y-111820000D03*
X106300000Y-112620000D03*
X106300000Y-113420000D03*
X106300000Y-114220000D03*
X106300000Y-115020000D03*
X106300000Y-115820000D03*
X106300000Y-116620000D03*
X106300000Y-117420000D03*
X106300000Y-118220000D03*
D41*
X109225000Y-115395000D03*
D42*
X111200000Y-115395000D03*
X113175000Y-115395000D03*
X109225000Y-113420000D03*
X111200000Y-113420000D03*
X113175000Y-113420000D03*
X109225000Y-111445000D03*
X111200000Y-111445000D03*
X113175000Y-111445000D03*
D43*
X106250000Y-107470000D03*
X116150000Y-107470000D03*
X116150000Y-119370000D03*
X106250000Y-119370000D03*
%TD*%
D16*
%TO.C,R18*%
X118400000Y-111790000D03*
X118400000Y-112810000D03*
%TD*%
%TO.C,R7*%
X139400000Y-125190000D03*
X139400000Y-126210000D03*
%TD*%
D44*
%TO.C,L1*%
X128225000Y-125200000D03*
X126775000Y-125200000D03*
%TD*%
D14*
%TO.C,C14*%
X116600000Y-125680000D03*
X116600000Y-124720000D03*
%TD*%
D18*
%TO.C,C2*%
X125050000Y-119150000D03*
X125050000Y-117250000D03*
%TD*%
D14*
%TO.C,C19*%
X119750000Y-119330000D03*
X119750000Y-118370000D03*
%TD*%
D10*
%TO.C,C8*%
X122950000Y-118875000D03*
X122950000Y-117325000D03*
%TD*%
D15*
%TO.C,D3*%
X121400000Y-108087500D03*
X121400000Y-106512500D03*
%TD*%
D14*
%TO.C,C21*%
X119900000Y-110480000D03*
X119900000Y-109520000D03*
%TD*%
D24*
%TO.C,H4*%
X141500000Y-130500000D03*
%TD*%
M02*
