%TF.GenerationSoftware,KiCad,Pcbnew,10.0.5*%
%TF.CreationDate,2026-08-13T21:07:55-05:00*%
%TF.ProjectId,triangle_flywheel_balancer,74726961-6e67-46c6-955f-666c79776865,rev?*%
%TF.SameCoordinates,Original*%
%TF.FileFunction,Copper,L2,Inr*%
%TF.FilePolarity,Positive*%
%FSLAX46Y46*%
G04 Gerber Fmt 4.6, Leading zero omitted, Abs format (unit mm)*
G04 Created by KiCad (PCBNEW 10.0.5) date 2026-08-13 21:07:55*
%MOMM*%
%LPD*%
G01*
G04 APERTURE LIST*
G04 Aperture macros list*
%AMRoundRect*
0 Rectangle with rounded corners*
0 $1 Rounding radius*
0 $2 $3 $4 $5 $6 $7 $8 $9 X,Y pos of 4 corners*
0 Add a 4 corners polygon primitive as box body*
4,1,4,$2,$3,$4,$5,$6,$7,$8,$9,$2,$3,0*
0 Add four circle primitives for the rounded corners*
1,1,$1+$1,$2,$3*
1,1,$1+$1,$4,$5*
1,1,$1+$1,$6,$7*
1,1,$1+$1,$8,$9*
0 Add four rect primitives between the rounded corners*
20,1,$1+$1,$2,$3,$4,$5,0*
20,1,$1+$1,$4,$5,$6,$7,0*
20,1,$1+$1,$6,$7,$8,$9,0*
20,1,$1+$1,$8,$9,$2,$3,0*%
G04 Aperture macros list end*
%TA.AperFunction,ComponentPad*%
%ADD10R,1.700000X1.700000*%
%TD*%
%TA.AperFunction,ComponentPad*%
%ADD11C,1.700000*%
%TD*%
%TA.AperFunction,WasherPad*%
%ADD12C,6.000000*%
%TD*%
%TA.AperFunction,ComponentPad*%
%ADD13RoundRect,0.250000X-0.350000X-0.625000X0.350000X-0.625000X0.350000X0.625000X-0.350000X0.625000X0*%
%TD*%
%TA.AperFunction,ComponentPad*%
%ADD14O,1.200000X1.750000*%
%TD*%
%TA.AperFunction,ComponentPad*%
%ADD15O,2.100000X1.000000*%
%TD*%
%TA.AperFunction,ComponentPad*%
%ADD16O,1.600000X1.000000*%
%TD*%
%TA.AperFunction,ComponentPad*%
%ADD17C,0.600000*%
%TD*%
%TA.AperFunction,ViaPad*%
%ADD18C,0.600000*%
%TD*%
G04 APERTURE END LIST*
D10*
%TO.N,SW_LATCH_J*%
%TO.C,J5*%
X109000000Y-103500000D03*
D11*
%TO.N,GND*%
X111540000Y-103500000D03*
%TD*%
D12*
%TO.N,*%
%TO.C,H1*%
X103500000Y-103500000D03*
%TD*%
D10*
%TO.N,SW_CLOSED_J*%
%TO.C,J7*%
X124200000Y-103500000D03*
D11*
%TO.N,GND*%
X126740000Y-103500000D03*
%TD*%
D13*
%TO.N,VBAT*%
%TO.C,J2*%
X133500000Y-129240000D03*
D14*
%TO.N,BATT_N*%
X135500000Y-129240000D03*
%TD*%
D15*
%TO.N,GND*%
%TO.C,J1*%
X137870000Y-121320000D03*
D16*
X142050000Y-121320000D03*
D15*
X137870000Y-112680000D03*
D16*
X142050000Y-112680000D03*
%TD*%
D12*
%TO.N,*%
%TO.C,H2*%
X141500000Y-103500000D03*
%TD*%
D17*
%TO.N,GND*%
%TO.C,U2*%
X110900000Y-121520000D03*
X110900000Y-122620000D03*
X110900000Y-123720000D03*
X110900000Y-124820000D03*
X110900000Y-125920000D03*
X112000000Y-121520000D03*
X112000000Y-122620000D03*
X112000000Y-123720000D03*
X112000000Y-124820000D03*
X112000000Y-125920000D03*
X113100000Y-121520000D03*
X113100000Y-122620000D03*
X113100000Y-123720000D03*
X113100000Y-124820000D03*
X113100000Y-125920000D03*
%TD*%
D12*
%TO.N,*%
%TO.C,H3*%
X103500000Y-130500000D03*
%TD*%
D10*
%TO.N,SERVO_PWM*%
%TO.C,J4*%
X117750000Y-130699999D03*
D11*
%TO.N,+5V*%
X120290000Y-130699999D03*
%TO.N,GND*%
X122830000Y-130699999D03*
%TD*%
D10*
%TO.N,SW_OPEN_J*%
%TO.C,J6*%
X117500000Y-103500000D03*
D11*
%TO.N,GND*%
X120040000Y-103500000D03*
%TD*%
D13*
%TO.N,MOTOR_A*%
%TO.C,J3*%
X109150000Y-129240000D03*
D14*
%TO.N,MOTOR_B*%
X111150000Y-129240000D03*
%TD*%
D12*
%TO.N,*%
%TO.C,H4*%
X141500000Y-130500000D03*
%TD*%
D18*
%TO.N,VBAT*%
X139900000Y-111300000D03*
X127550000Y-119750000D03*
X126200000Y-112400000D03*
X127500000Y-122600000D03*
X123950000Y-126750000D03*
X129500000Y-116600000D03*
X128699999Y-126100000D03*
%TO.N,GND*%
X107250000Y-110220000D03*
X119150000Y-113990000D03*
X119100000Y-116100000D03*
X123750000Y-120775000D03*
X123700000Y-117325000D03*
X139000000Y-122190000D03*
X113825000Y-125995000D03*
X115450000Y-116620000D03*
X137850000Y-107600000D03*
X125190000Y-128400000D03*
X137392830Y-124705330D03*
X107250000Y-108620000D03*
X137250000Y-103110000D03*
X120550000Y-111350000D03*
X107200000Y-118570000D03*
X107250000Y-116620000D03*
X140650000Y-108650000D03*
X120563172Y-113156827D03*
X107250000Y-115820000D03*
X140150000Y-126210000D03*
X134150000Y-111975000D03*
X137485330Y-120780330D03*
X107200000Y-119370000D03*
X125800000Y-117250000D03*
X137800000Y-103830000D03*
X129449999Y-114850000D03*
X106050000Y-122100000D03*
X121200000Y-126700000D03*
X105950000Y-124620000D03*
X113000000Y-112400000D03*
X113000000Y-114400000D03*
X110400000Y-114400000D03*
X116600000Y-126920000D03*
X126950000Y-128150000D03*
X129250000Y-128150000D03*
X125600000Y-104750000D03*
X110400000Y-112400000D03*
X136424669Y-113219669D03*
X107250000Y-112620000D03*
X125160000Y-127600000D03*
X122600000Y-104600000D03*
X107450000Y-113420000D03*
X107450000Y-115020000D03*
X136332169Y-124294669D03*
X129087500Y-110100000D03*
X115950000Y-119320000D03*
X127850000Y-117425000D03*
X124687500Y-114200000D03*
X116900000Y-107470000D03*
X107450000Y-111020000D03*
X113825000Y-121445000D03*
X120500000Y-118370000D03*
X128655330Y-122180330D03*
X107450000Y-109420000D03*
X137485330Y-113219669D03*
X115305330Y-121564669D03*
X141050000Y-123960000D03*
X105075000Y-125700000D03*
X119219669Y-111239669D03*
X107250000Y-114220000D03*
X107250000Y-111820000D03*
X111700000Y-113400000D03*
%TO.N,IPROPI*%
X117500000Y-114450000D03*
X117500000Y-116500000D03*
X108150000Y-125350000D03*
X118350000Y-125750000D03*
%TO.N,nFAULT_ANY*%
X121900000Y-115400000D03*
X120300000Y-121500000D03*
X107600000Y-127850000D03*
X110400000Y-118500000D03*
X107400000Y-123400000D03*
%TO.N,+3V3*%
X106150000Y-126350000D03*
X121850000Y-117600000D03*
X122900000Y-116150000D03*
X107900000Y-124045000D03*
X123850000Y-119300000D03*
X121200000Y-124500000D03*
X108800000Y-119320000D03*
X125150000Y-120050000D03*
X117500000Y-122300000D03*
X122400000Y-109500000D03*
X118850000Y-107500000D03*
X108200000Y-122750000D03*
%TO.N,PROT_OD*%
X130600000Y-125900000D03*
X133600000Y-121450000D03*
%TO.N,PROT_OC*%
X134150000Y-119750000D03*
X135750000Y-125550000D03*
%TO.N,STAT*%
X125600000Y-116200000D03*
X123400000Y-111187500D03*
%TO.N,VBUS*%
X132400000Y-111200000D03*
X129550000Y-108500000D03*
X135750000Y-119900000D03*
X135400000Y-113900000D03*
%TO.N,+5V*%
X118890000Y-128600000D03*
X126200000Y-131100000D03*
X116600000Y-124720000D03*
X102600000Y-126600000D03*
X122300000Y-123300000D03*
X116600000Y-128850000D03*
X128500000Y-131100000D03*
%TO.N,SW_LATCH_J*%
X106850000Y-120500000D03*
%TO.N,VBUS_DET*%
X112900000Y-102300000D03*
X111200000Y-106450000D03*
%TO.N,SW_CLOSED*%
X118400000Y-110610000D03*
X117500000Y-112950000D03*
%TO.N,CC1*%
X135700000Y-118700000D03*
X139000000Y-123960000D03*
%TO.N,USB_DP_C*%
X138600000Y-117250000D03*
X138600000Y-116250000D03*
%TO.N,USB_DM_C*%
X134000000Y-116550000D03*
X134000000Y-118450000D03*
X128340000Y-111050000D03*
%TO.N,CC2*%
X140300000Y-122940000D03*
X135550000Y-115300000D03*
%TO.N,USB_DP*%
X113600000Y-106850000D03*
X124900000Y-109000000D03*
%TO.N,USB_DM*%
X114550000Y-106850000D03*
X124850000Y-111000000D03*
%TO.N,MOTOR_EN*%
X108550000Y-121350000D03*
X114750000Y-112050000D03*
%TO.N,MOTOR_PH*%
X107700000Y-122050000D03*
X115150000Y-111020000D03*
%TO.N,VCP*%
X115800000Y-124000000D03*
X116600000Y-125560000D03*
%TO.N,SERVO_PWM*%
X114600000Y-117750000D03*
%TO.N,SW_OPEN*%
X118400000Y-112810000D03*
X116850000Y-113420000D03*
%TO.N,BUTTON*%
X126150000Y-108300000D03*
X117100000Y-109350000D03*
%TO.N,EN*%
X124900000Y-122110000D03*
X112800000Y-119320000D03*
X123000000Y-122375000D03*
%TO.N,BOOST_EN*%
X124400000Y-124350000D03*
X110400000Y-108600000D03*
%TO.N,STATUS_LED*%
X121400000Y-107987500D03*
X116450000Y-110220000D03*
%TD*%
%TA.AperFunction,Conductor*%
%TO.N,GND*%
G36*
X139706593Y-100520185D02*
G01*
X139752348Y-100572989D01*
X139762292Y-100642147D01*
X139733267Y-100705703D01*
X139708445Y-100727602D01*
X139531532Y-100845811D01*
X139531518Y-100845821D01*
X139280841Y-101051546D01*
X139051546Y-101280841D01*
X138845821Y-101531518D01*
X138845811Y-101531532D01*
X138665657Y-101801151D01*
X138665646Y-101801169D01*
X138512788Y-102087145D01*
X138512786Y-102087150D01*
X138388686Y-102386752D01*
X138294548Y-102697086D01*
X138294545Y-102697097D01*
X138231287Y-103015125D01*
X138231284Y-103015142D01*
X138206666Y-103265099D01*
X138199500Y-103337857D01*
X138199500Y-103662143D01*
X138209054Y-103759152D01*
X138231284Y-103984857D01*
X138231287Y-103984874D01*
X138294545Y-104302902D01*
X138294548Y-104302913D01*
X138388686Y-104613247D01*
X138512786Y-104912849D01*
X138512788Y-104912854D01*
X138665646Y-105198830D01*
X138665657Y-105198848D01*
X138845811Y-105468467D01*
X138845821Y-105468481D01*
X139051546Y-105719158D01*
X139280841Y-105948453D01*
X139280846Y-105948457D01*
X139280847Y-105948458D01*
X139531524Y-106154183D01*
X139801158Y-106334347D01*
X139801167Y-106334352D01*
X139801169Y-106334353D01*
X140087145Y-106487211D01*
X140087147Y-106487211D01*
X140087153Y-106487215D01*
X140386754Y-106611314D01*
X140697077Y-106705449D01*
X140697083Y-106705450D01*
X140697086Y-106705451D01*
X140697097Y-106705454D01*
X140896528Y-106745122D01*
X141015132Y-106768714D01*
X141337857Y-106800500D01*
X141337860Y-106800500D01*
X141662140Y-106800500D01*
X141662143Y-106800500D01*
X141984868Y-106768714D01*
X142142295Y-106737399D01*
X142302902Y-106705454D01*
X142302913Y-106705451D01*
X142302913Y-106705450D01*
X142302923Y-106705449D01*
X142613246Y-106611314D01*
X142912847Y-106487215D01*
X143198842Y-106334347D01*
X143468476Y-106154183D01*
X143719153Y-105948458D01*
X143948458Y-105719153D01*
X144154183Y-105468476D01*
X144272398Y-105291554D01*
X144326010Y-105246749D01*
X144395335Y-105238042D01*
X144458362Y-105268196D01*
X144495082Y-105327639D01*
X144499500Y-105360445D01*
X144499500Y-128639554D01*
X144479815Y-128706593D01*
X144427011Y-128752348D01*
X144357853Y-128762292D01*
X144294297Y-128733267D01*
X144272398Y-128708445D01*
X144260321Y-128690371D01*
X144154183Y-128531524D01*
X143948458Y-128280847D01*
X143948457Y-128280846D01*
X143948453Y-128280841D01*
X143719158Y-128051546D01*
X143468481Y-127845821D01*
X143468480Y-127845820D01*
X143468476Y-127845817D01*
X143198842Y-127665653D01*
X143198837Y-127665650D01*
X143198830Y-127665646D01*
X142912854Y-127512788D01*
X142912849Y-127512786D01*
X142613247Y-127388686D01*
X142302913Y-127294548D01*
X142302902Y-127294545D01*
X141984874Y-127231287D01*
X141984857Y-127231284D01*
X141726513Y-127205840D01*
X141662143Y-127199500D01*
X141337857Y-127199500D01*
X141273487Y-127205840D01*
X141015142Y-127231284D01*
X141015125Y-127231287D01*
X140697097Y-127294545D01*
X140697086Y-127294548D01*
X140386752Y-127388686D01*
X140087150Y-127512786D01*
X140087145Y-127512788D01*
X139801169Y-127665646D01*
X139801151Y-127665657D01*
X139531532Y-127845811D01*
X139531518Y-127845821D01*
X139280841Y-128051546D01*
X139051546Y-128280841D01*
X138845821Y-128531518D01*
X138845811Y-128531532D01*
X138665657Y-128801151D01*
X138665646Y-128801169D01*
X138512788Y-129087145D01*
X138512786Y-129087150D01*
X138388686Y-129386752D01*
X138294548Y-129697086D01*
X138294545Y-129697097D01*
X138231287Y-130015125D01*
X138231284Y-130015142D01*
X138211653Y-130214464D01*
X138199500Y-130337857D01*
X138199500Y-130662143D01*
X138209054Y-130759152D01*
X138231284Y-130984857D01*
X138231287Y-130984874D01*
X138294545Y-131302902D01*
X138294548Y-131302913D01*
X138388686Y-131613247D01*
X138475023Y-131821681D01*
X138486752Y-131849999D01*
X138512786Y-131912849D01*
X138512788Y-131912854D01*
X138665646Y-132198830D01*
X138665657Y-132198848D01*
X138845811Y-132468467D01*
X138845821Y-132468481D01*
X139051546Y-132719158D01*
X139280841Y-132948453D01*
X139280846Y-132948457D01*
X139280847Y-132948458D01*
X139531524Y-133154183D01*
X139692074Y-133261459D01*
X139708445Y-133272398D01*
X139753250Y-133326010D01*
X139761957Y-133395335D01*
X139731803Y-133458362D01*
X139672360Y-133495082D01*
X139639554Y-133499500D01*
X105360446Y-133499500D01*
X105293407Y-133479815D01*
X105247652Y-133427011D01*
X105237708Y-133357853D01*
X105266733Y-133294297D01*
X105291555Y-133272398D01*
X105307926Y-133261459D01*
X105468476Y-133154183D01*
X105719153Y-132948458D01*
X105948458Y-132719153D01*
X106154183Y-132468476D01*
X106334347Y-132198842D01*
X106487215Y-131912847D01*
X106611314Y-131613246D01*
X106705449Y-131302923D01*
X106705451Y-131302913D01*
X106705454Y-131302902D01*
X106745793Y-131100098D01*
X106768714Y-130984868D01*
X106800500Y-130662143D01*
X106800500Y-130337857D01*
X106768714Y-130015132D01*
X106745122Y-129896528D01*
X106705454Y-129697097D01*
X106705451Y-129697086D01*
X106705450Y-129697083D01*
X106705449Y-129697077D01*
X106611314Y-129386754D01*
X106487215Y-129087153D01*
X106484348Y-129081790D01*
X106334353Y-128801169D01*
X106334352Y-128801167D01*
X106334347Y-128801158D01*
X106181160Y-128571898D01*
X108249500Y-128571898D01*
X108249500Y-129908102D01*
X108253516Y-129941541D01*
X108260122Y-129996561D01*
X108315639Y-130137343D01*
X108407077Y-130257922D01*
X108527656Y-130349360D01*
X108527657Y-130349360D01*
X108527658Y-130349361D01*
X108668436Y-130404877D01*
X108756898Y-130415500D01*
X108756903Y-130415500D01*
X109543097Y-130415500D01*
X109543102Y-130415500D01*
X109631564Y-130404877D01*
X109772342Y-130349361D01*
X109892922Y-130257922D01*
X109984361Y-130137342D01*
X110039877Y-129996564D01*
X110050500Y-129908102D01*
X110050500Y-129837080D01*
X110070185Y-129770041D01*
X110122989Y-129724286D01*
X110192147Y-129714342D01*
X110255703Y-129743367D01*
X110289060Y-129789627D01*
X110295484Y-129805135D01*
X110351983Y-129941541D01*
X110351990Y-129941553D01*
X110450535Y-130089034D01*
X110450538Y-130089038D01*
X110575961Y-130214461D01*
X110575965Y-130214464D01*
X110723446Y-130313009D01*
X110723459Y-130313016D01*
X110846363Y-130363923D01*
X110887334Y-130380894D01*
X110887336Y-130380894D01*
X110887341Y-130380896D01*
X111061304Y-130415499D01*
X111061307Y-130415500D01*
X111061309Y-130415500D01*
X111238693Y-130415500D01*
X111238694Y-130415499D01*
X111296682Y-130403964D01*
X111412658Y-130380896D01*
X111412661Y-130380894D01*
X111412666Y-130380894D01*
X111576547Y-130313013D01*
X111724035Y-130214464D01*
X111849464Y-130089035D01*
X111948013Y-129941547D01*
X112015894Y-129777666D01*
X112019873Y-129757666D01*
X112050499Y-129603695D01*
X112050500Y-129603693D01*
X112050500Y-128876306D01*
X112032737Y-128787008D01*
X112032737Y-128787007D01*
X112029542Y-128770943D01*
X115999500Y-128770943D01*
X115999500Y-128929057D01*
X116040086Y-129080524D01*
X116040423Y-129081783D01*
X116040426Y-129081790D01*
X116119475Y-129218709D01*
X116119479Y-129218714D01*
X116119480Y-129218716D01*
X116231284Y-129330520D01*
X116231286Y-129330521D01*
X116231290Y-129330524D01*
X116328685Y-129386754D01*
X116368216Y-129409577D01*
X116520943Y-129450500D01*
X116520945Y-129450500D01*
X116575166Y-129450500D01*
X116642205Y-129470185D01*
X116687960Y-129522989D01*
X116697904Y-129592147D01*
X116668879Y-129655703D01*
X116662847Y-129662181D01*
X116647794Y-129677233D01*
X116602415Y-129780005D01*
X116602415Y-129780007D01*
X116599500Y-129805130D01*
X116599500Y-131594855D01*
X116599502Y-131594881D01*
X116602413Y-131619986D01*
X116602415Y-131619990D01*
X116647793Y-131722763D01*
X116647794Y-131722764D01*
X116727235Y-131802205D01*
X116830009Y-131847584D01*
X116855135Y-131850499D01*
X118644864Y-131850498D01*
X118644879Y-131850496D01*
X118644882Y-131850496D01*
X118669987Y-131847585D01*
X118669988Y-131847584D01*
X118669991Y-131847584D01*
X118772765Y-131802205D01*
X118852206Y-131722764D01*
X118897585Y-131619990D01*
X118900500Y-131594864D01*
X118900499Y-130857124D01*
X118920183Y-130790088D01*
X118972987Y-130744333D01*
X119042146Y-130734389D01*
X119105702Y-130763414D01*
X119143476Y-130822192D01*
X119146972Y-130837728D01*
X119167829Y-130969409D01*
X119223787Y-131141635D01*
X119223788Y-131141638D01*
X119279664Y-131251299D01*
X119305968Y-131302923D01*
X119306006Y-131302996D01*
X119412441Y-131449493D01*
X119412445Y-131449498D01*
X119540500Y-131577553D01*
X119540505Y-131577557D01*
X119653392Y-131659573D01*
X119687006Y-131683995D01*
X119763094Y-131722764D01*
X119848360Y-131766210D01*
X119848363Y-131766211D01*
X119934476Y-131794190D01*
X120020591Y-131822170D01*
X120103429Y-131835290D01*
X120199449Y-131850499D01*
X120199454Y-131850499D01*
X120380551Y-131850499D01*
X120467259Y-131836764D01*
X120559409Y-131822170D01*
X120731639Y-131766210D01*
X120892994Y-131683995D01*
X121039501Y-131577552D01*
X121167553Y-131449500D01*
X121273996Y-131302993D01*
X121356211Y-131141638D01*
X121412171Y-130969408D01*
X121437780Y-130807719D01*
X121467709Y-130744584D01*
X121527021Y-130707653D01*
X121596883Y-130708651D01*
X121655116Y-130747261D01*
X121682726Y-130807719D01*
X121708317Y-130969292D01*
X121764251Y-131141443D01*
X121764252Y-131141446D01*
X121846434Y-131302733D01*
X121887667Y-131359486D01*
X121887668Y-131359486D01*
X122361980Y-130885175D01*
X122364075Y-130892992D01*
X122429901Y-131007006D01*
X122522993Y-131100098D01*
X122637007Y-131165924D01*
X122644822Y-131168018D01*
X122170510Y-131642329D01*
X122170511Y-131642330D01*
X122227265Y-131683564D01*
X122388552Y-131765746D01*
X122388555Y-131765747D01*
X122560706Y-131821681D01*
X122739494Y-131849999D01*
X122920506Y-131849999D01*
X123099293Y-131821681D01*
X123271444Y-131765747D01*
X123271447Y-131765746D01*
X123432730Y-131683567D01*
X123489487Y-131642329D01*
X123489488Y-131642328D01*
X123015178Y-131168018D01*
X123022993Y-131165924D01*
X123137007Y-131100098D01*
X123230099Y-131007006D01*
X123295925Y-130892992D01*
X123298019Y-130885176D01*
X123772329Y-131359487D01*
X123772330Y-131359486D01*
X123813568Y-131302729D01*
X123895747Y-131141446D01*
X123895749Y-131141440D01*
X123934901Y-131020943D01*
X125599500Y-131020943D01*
X125599500Y-131179057D01*
X125632710Y-131302996D01*
X125640423Y-131331783D01*
X125640426Y-131331790D01*
X125719475Y-131468709D01*
X125719479Y-131468714D01*
X125719480Y-131468716D01*
X125831284Y-131580520D01*
X125831286Y-131580521D01*
X125831290Y-131580524D01*
X125938341Y-131642329D01*
X125968216Y-131659577D01*
X126120943Y-131700500D01*
X126120945Y-131700500D01*
X126279055Y-131700500D01*
X126279057Y-131700500D01*
X126431784Y-131659577D01*
X126568716Y-131580520D01*
X126680520Y-131468716D01*
X126759577Y-131331784D01*
X126800500Y-131179057D01*
X126800500Y-131020943D01*
X127899500Y-131020943D01*
X127899500Y-131179057D01*
X127932710Y-131302996D01*
X127940423Y-131331783D01*
X127940426Y-131331790D01*
X128019475Y-131468709D01*
X128019479Y-131468714D01*
X128019480Y-131468716D01*
X128131284Y-131580520D01*
X128131286Y-131580521D01*
X128131290Y-131580524D01*
X128238341Y-131642329D01*
X128268216Y-131659577D01*
X128420943Y-131700500D01*
X128420945Y-131700500D01*
X128579055Y-131700500D01*
X128579057Y-131700500D01*
X128731784Y-131659577D01*
X128868716Y-131580520D01*
X128980520Y-131468716D01*
X129059577Y-131331784D01*
X129100500Y-131179057D01*
X129100500Y-131020943D01*
X129059577Y-130868216D01*
X129033005Y-130822192D01*
X128980524Y-130731290D01*
X128980518Y-130731282D01*
X128868717Y-130619481D01*
X128868709Y-130619475D01*
X128731790Y-130540426D01*
X128731786Y-130540424D01*
X128731784Y-130540423D01*
X128579057Y-130499500D01*
X128420943Y-130499500D01*
X128268216Y-130540423D01*
X128268209Y-130540426D01*
X128131290Y-130619475D01*
X128131282Y-130619481D01*
X128019481Y-130731282D01*
X128019475Y-130731290D01*
X127940426Y-130868209D01*
X127940423Y-130868216D01*
X127899500Y-131020943D01*
X126800500Y-131020943D01*
X126759577Y-130868216D01*
X126733005Y-130822192D01*
X126680524Y-130731290D01*
X126680518Y-130731282D01*
X126568717Y-130619481D01*
X126568709Y-130619475D01*
X126431790Y-130540426D01*
X126431786Y-130540424D01*
X126431784Y-130540423D01*
X126279057Y-130499500D01*
X126120943Y-130499500D01*
X125968216Y-130540423D01*
X125968209Y-130540426D01*
X125831290Y-130619475D01*
X125831282Y-130619481D01*
X125719481Y-130731282D01*
X125719475Y-130731290D01*
X125640426Y-130868209D01*
X125640423Y-130868216D01*
X125599500Y-131020943D01*
X123934901Y-131020943D01*
X123949991Y-130974499D01*
X123949991Y-130974497D01*
X123949993Y-130974493D01*
X123951682Y-130969293D01*
X123980000Y-130790505D01*
X123980000Y-130609492D01*
X123951682Y-130430705D01*
X123895748Y-130258554D01*
X123895747Y-130258551D01*
X123813565Y-130097264D01*
X123772331Y-130040510D01*
X123772330Y-130040509D01*
X123298018Y-130514820D01*
X123295925Y-130507006D01*
X123230099Y-130392992D01*
X123137007Y-130299900D01*
X123022993Y-130234074D01*
X123015176Y-130231979D01*
X123489487Y-129757667D01*
X123489487Y-129757666D01*
X123432734Y-129716433D01*
X123271447Y-129634251D01*
X123271444Y-129634250D01*
X123099293Y-129578316D01*
X122920506Y-129549999D01*
X122739494Y-129549999D01*
X122560706Y-129578316D01*
X122388555Y-129634250D01*
X122388552Y-129634251D01*
X122227270Y-129716430D01*
X122227268Y-129716431D01*
X122170511Y-129757666D01*
X122170511Y-129757667D01*
X122644823Y-130231979D01*
X122637007Y-130234074D01*
X122522993Y-130299900D01*
X122429901Y-130392992D01*
X122364075Y-130507006D01*
X122361980Y-130514822D01*
X121887668Y-130040510D01*
X121887667Y-130040510D01*
X121846432Y-130097267D01*
X121846431Y-130097269D01*
X121764252Y-130258551D01*
X121764251Y-130258554D01*
X121708317Y-130430705D01*
X121682726Y-130592278D01*
X121652797Y-130655413D01*
X121593485Y-130692344D01*
X121523622Y-130691346D01*
X121465390Y-130652736D01*
X121437780Y-130592278D01*
X121412189Y-130430705D01*
X121412171Y-130430590D01*
X121356211Y-130258360D01*
X121356211Y-130258359D01*
X121294549Y-130137343D01*
X121273996Y-130097005D01*
X121232950Y-130040510D01*
X121167558Y-129950504D01*
X121167554Y-129950499D01*
X121039499Y-129822444D01*
X121039494Y-129822440D01*
X120892997Y-129716005D01*
X120892996Y-129716004D01*
X120892994Y-129716003D01*
X120816906Y-129677234D01*
X120731639Y-129633787D01*
X120731636Y-129633786D01*
X120559410Y-129577828D01*
X120380551Y-129549499D01*
X120380546Y-129549499D01*
X120199454Y-129549499D01*
X120199449Y-129549499D01*
X120020589Y-129577828D01*
X119848363Y-129633786D01*
X119848360Y-129633787D01*
X119687002Y-129716005D01*
X119540505Y-129822440D01*
X119540500Y-129822444D01*
X119412445Y-129950499D01*
X119412441Y-129950504D01*
X119306006Y-130097001D01*
X119223788Y-130258359D01*
X119223787Y-130258362D01*
X119167829Y-130430588D01*
X119146972Y-130562270D01*
X119117042Y-130625404D01*
X119057731Y-130662335D01*
X118987868Y-130661337D01*
X118929636Y-130622727D01*
X118901522Y-130558763D01*
X118900499Y-130542871D01*
X118900499Y-129805142D01*
X118900499Y-129805135D01*
X118898701Y-129789628D01*
X118897586Y-129780011D01*
X118897585Y-129780009D01*
X118897585Y-129780008D01*
X118852206Y-129677234D01*
X118772765Y-129597793D01*
X118728654Y-129578316D01*
X118669992Y-129552414D01*
X118644868Y-129549499D01*
X117048627Y-129549499D01*
X116981588Y-129529814D01*
X116935833Y-129477010D01*
X116925889Y-129407852D01*
X116954914Y-129344296D01*
X116963197Y-129336495D01*
X116962969Y-129336267D01*
X116968718Y-129330518D01*
X117080520Y-129218716D01*
X117159577Y-129081784D01*
X117200500Y-128929057D01*
X117200500Y-128770943D01*
X117159577Y-128618216D01*
X117103417Y-128520943D01*
X118289500Y-128520943D01*
X118289500Y-128679057D01*
X118318426Y-128787008D01*
X118330423Y-128831783D01*
X118330426Y-128831790D01*
X118409475Y-128968709D01*
X118409479Y-128968714D01*
X118409480Y-128968716D01*
X118521284Y-129080520D01*
X118521286Y-129080521D01*
X118521290Y-129080524D01*
X118584142Y-129116811D01*
X118658216Y-129159577D01*
X118810943Y-129200500D01*
X118810945Y-129200500D01*
X118969055Y-129200500D01*
X118969057Y-129200500D01*
X119121784Y-129159577D01*
X119258716Y-129080520D01*
X119370520Y-128968716D01*
X119449577Y-128831784D01*
X119490500Y-128679057D01*
X119490500Y-128571898D01*
X132599500Y-128571898D01*
X132599500Y-129908102D01*
X132603516Y-129941541D01*
X132610122Y-129996561D01*
X132665639Y-130137343D01*
X132757077Y-130257922D01*
X132877656Y-130349360D01*
X132877657Y-130349360D01*
X132877658Y-130349361D01*
X133018436Y-130404877D01*
X133106898Y-130415500D01*
X133106903Y-130415500D01*
X133893097Y-130415500D01*
X133893102Y-130415500D01*
X133981564Y-130404877D01*
X134122342Y-130349361D01*
X134242922Y-130257922D01*
X134334361Y-130137342D01*
X134389877Y-129996564D01*
X134400500Y-129908102D01*
X134400500Y-129837080D01*
X134420185Y-129770041D01*
X134472989Y-129724286D01*
X134542147Y-129714342D01*
X134605703Y-129743367D01*
X134639060Y-129789627D01*
X134645484Y-129805135D01*
X134701983Y-129941541D01*
X134701990Y-129941553D01*
X134800535Y-130089034D01*
X134800538Y-130089038D01*
X134925961Y-130214461D01*
X134925965Y-130214464D01*
X135073446Y-130313009D01*
X135073459Y-130313016D01*
X135196363Y-130363923D01*
X135237334Y-130380894D01*
X135237336Y-130380894D01*
X135237341Y-130380896D01*
X135411304Y-130415499D01*
X135411307Y-130415500D01*
X135411309Y-130415500D01*
X135588693Y-130415500D01*
X135588694Y-130415499D01*
X135646682Y-130403964D01*
X135762658Y-130380896D01*
X135762661Y-130380894D01*
X135762666Y-130380894D01*
X135926547Y-130313013D01*
X136074035Y-130214464D01*
X136199464Y-130089035D01*
X136298013Y-129941547D01*
X136365894Y-129777666D01*
X136369873Y-129757666D01*
X136400499Y-129603695D01*
X136400500Y-129603693D01*
X136400500Y-128876306D01*
X136400499Y-128876304D01*
X136365896Y-128702341D01*
X136365893Y-128702332D01*
X136298016Y-128538459D01*
X136298009Y-128538446D01*
X136199464Y-128390965D01*
X136199461Y-128390961D01*
X136074038Y-128265538D01*
X136074034Y-128265535D01*
X135926553Y-128166990D01*
X135926540Y-128166983D01*
X135762667Y-128099106D01*
X135762658Y-128099103D01*
X135588694Y-128064500D01*
X135588691Y-128064500D01*
X135411309Y-128064500D01*
X135411306Y-128064500D01*
X135237341Y-128099103D01*
X135237332Y-128099106D01*
X135073459Y-128166983D01*
X135073446Y-128166990D01*
X134925965Y-128265535D01*
X134925961Y-128265538D01*
X134800538Y-128390961D01*
X134800535Y-128390965D01*
X134701990Y-128538446D01*
X134701983Y-128538459D01*
X134639061Y-128690371D01*
X134595221Y-128744775D01*
X134528927Y-128766840D01*
X134461227Y-128749561D01*
X134413616Y-128698424D01*
X134400500Y-128642919D01*
X134400500Y-128571903D01*
X134400500Y-128571898D01*
X134389877Y-128483436D01*
X134334361Y-128342658D01*
X134334360Y-128342657D01*
X134334360Y-128342656D01*
X134242922Y-128222077D01*
X134122343Y-128130639D01*
X133981561Y-128075122D01*
X133935926Y-128069642D01*
X133893102Y-128064500D01*
X133106898Y-128064500D01*
X133067853Y-128069188D01*
X133018438Y-128075122D01*
X132877656Y-128130639D01*
X132757077Y-128222077D01*
X132665639Y-128342656D01*
X132610122Y-128483438D01*
X132605619Y-128520943D01*
X132599500Y-128571898D01*
X119490500Y-128571898D01*
X119490500Y-128520943D01*
X119449577Y-128368216D01*
X119427816Y-128330524D01*
X119370524Y-128231290D01*
X119370518Y-128231282D01*
X119258717Y-128119481D01*
X119258709Y-128119475D01*
X119121790Y-128040426D01*
X119121786Y-128040424D01*
X119121784Y-128040423D01*
X118969057Y-127999500D01*
X118810943Y-127999500D01*
X118658216Y-128040423D01*
X118658209Y-128040426D01*
X118521290Y-128119475D01*
X118521282Y-128119481D01*
X118409481Y-128231282D01*
X118409475Y-128231290D01*
X118330426Y-128368209D01*
X118330423Y-128368216D01*
X118289500Y-128520943D01*
X117103417Y-128520943D01*
X117080520Y-128481284D01*
X116968716Y-128369480D01*
X116968714Y-128369479D01*
X116968709Y-128369475D01*
X116831790Y-128290426D01*
X116831786Y-128290424D01*
X116831784Y-128290423D01*
X116679057Y-128249500D01*
X116520943Y-128249500D01*
X116368216Y-128290423D01*
X116368209Y-128290426D01*
X116231290Y-128369475D01*
X116231282Y-128369481D01*
X116119481Y-128481282D01*
X116119475Y-128481290D01*
X116040426Y-128618209D01*
X116040423Y-128618216D01*
X115999500Y-128770943D01*
X112029542Y-128770943D01*
X112015896Y-128702341D01*
X112015893Y-128702332D01*
X111948016Y-128538459D01*
X111948009Y-128538446D01*
X111849464Y-128390965D01*
X111849461Y-128390961D01*
X111724038Y-128265538D01*
X111724034Y-128265535D01*
X111576553Y-128166990D01*
X111576540Y-128166983D01*
X111412667Y-128099106D01*
X111412658Y-128099103D01*
X111238694Y-128064500D01*
X111238691Y-128064500D01*
X111061309Y-128064500D01*
X111061306Y-128064500D01*
X110887341Y-128099103D01*
X110887332Y-128099106D01*
X110723459Y-128166983D01*
X110723446Y-128166990D01*
X110575965Y-128265535D01*
X110575961Y-128265538D01*
X110450538Y-128390961D01*
X110450535Y-128390965D01*
X110351990Y-128538446D01*
X110351983Y-128538459D01*
X110289061Y-128690371D01*
X110245221Y-128744775D01*
X110178927Y-128766840D01*
X110111227Y-128749561D01*
X110063616Y-128698424D01*
X110050500Y-128642919D01*
X110050500Y-128571903D01*
X110050500Y-128571898D01*
X110039877Y-128483436D01*
X109984361Y-128342658D01*
X109984360Y-128342657D01*
X109984360Y-128342656D01*
X109892922Y-128222077D01*
X109772343Y-128130639D01*
X109631561Y-128075122D01*
X109585926Y-128069642D01*
X109543102Y-128064500D01*
X108756898Y-128064500D01*
X108717853Y-128069188D01*
X108668438Y-128075122D01*
X108527656Y-128130639D01*
X108407077Y-128222077D01*
X108315639Y-128342656D01*
X108260122Y-128483438D01*
X108255619Y-128520943D01*
X108249500Y-128571898D01*
X106181160Y-128571898D01*
X106154183Y-128531524D01*
X105948458Y-128280847D01*
X105948457Y-128280846D01*
X105948453Y-128280841D01*
X105719158Y-128051546D01*
X105484136Y-127858669D01*
X105468481Y-127845821D01*
X105468480Y-127845820D01*
X105468476Y-127845817D01*
X105356419Y-127770943D01*
X106999500Y-127770943D01*
X106999500Y-127929057D01*
X107029341Y-128040423D01*
X107040423Y-128081783D01*
X107040426Y-128081790D01*
X107119475Y-128218709D01*
X107119479Y-128218714D01*
X107119480Y-128218716D01*
X107231284Y-128330520D01*
X107231286Y-128330521D01*
X107231290Y-128330524D01*
X107298765Y-128369480D01*
X107368216Y-128409577D01*
X107520943Y-128450500D01*
X107520945Y-128450500D01*
X107679054Y-128450500D01*
X107679057Y-128450500D01*
X107831784Y-128409577D01*
X107968716Y-128330520D01*
X108080520Y-128218716D01*
X108159577Y-128081784D01*
X108200500Y-127929057D01*
X108200500Y-127770943D01*
X108159577Y-127618216D01*
X108098707Y-127512785D01*
X108080524Y-127481290D01*
X108080518Y-127481282D01*
X107968717Y-127369481D01*
X107968709Y-127369475D01*
X107831790Y-127290426D01*
X107831786Y-127290424D01*
X107831784Y-127290423D01*
X107679057Y-127249500D01*
X107520943Y-127249500D01*
X107368216Y-127290423D01*
X107368209Y-127290426D01*
X107231290Y-127369475D01*
X107231282Y-127369481D01*
X107119481Y-127481282D01*
X107119475Y-127481290D01*
X107040426Y-127618209D01*
X107040423Y-127618216D01*
X106999500Y-127770943D01*
X105356419Y-127770943D01*
X105198842Y-127665653D01*
X105198837Y-127665650D01*
X105198830Y-127665646D01*
X104912854Y-127512788D01*
X104912849Y-127512786D01*
X104613247Y-127388686D01*
X104302913Y-127294548D01*
X104302902Y-127294545D01*
X103984874Y-127231287D01*
X103984857Y-127231284D01*
X103726513Y-127205840D01*
X103662143Y-127199500D01*
X103337857Y-127199500D01*
X103288768Y-127204334D01*
X103141295Y-127218859D01*
X103072649Y-127205840D01*
X103021938Y-127157775D01*
X103005264Y-127089924D01*
X103027920Y-127023829D01*
X103041455Y-127007780D01*
X103080520Y-126968716D01*
X103159577Y-126831784D01*
X103200500Y-126679057D01*
X103200500Y-126520943D01*
X103159577Y-126368216D01*
X103103417Y-126270943D01*
X105549500Y-126270943D01*
X105549500Y-126429057D01*
X105590086Y-126580524D01*
X105590423Y-126581783D01*
X105590426Y-126581790D01*
X105669475Y-126718709D01*
X105669479Y-126718714D01*
X105669480Y-126718716D01*
X105781284Y-126830520D01*
X105781286Y-126830521D01*
X105781290Y-126830524D01*
X105909571Y-126904586D01*
X105918216Y-126909577D01*
X106070943Y-126950500D01*
X106070945Y-126950500D01*
X106229055Y-126950500D01*
X106229057Y-126950500D01*
X106381784Y-126909577D01*
X106518716Y-126830520D01*
X106630520Y-126718716D01*
X106642900Y-126697273D01*
X123549500Y-126697273D01*
X123549500Y-126802727D01*
X123576793Y-126904587D01*
X123629520Y-126995913D01*
X123704087Y-127070480D01*
X123795413Y-127123207D01*
X123897273Y-127150500D01*
X123897275Y-127150500D01*
X124002725Y-127150500D01*
X124002727Y-127150500D01*
X124104587Y-127123207D01*
X124195913Y-127070480D01*
X124270480Y-126995913D01*
X124323207Y-126904587D01*
X124350500Y-126802727D01*
X124350500Y-126697273D01*
X124323207Y-126595413D01*
X124270480Y-126504087D01*
X124195913Y-126429520D01*
X124111049Y-126380524D01*
X124104589Y-126376794D01*
X124104588Y-126376793D01*
X124104587Y-126376793D01*
X124002727Y-126349500D01*
X123897273Y-126349500D01*
X123795413Y-126376793D01*
X123795410Y-126376794D01*
X123704085Y-126429521D01*
X123629521Y-126504085D01*
X123576794Y-126595410D01*
X123576793Y-126595413D01*
X123549500Y-126697273D01*
X106642900Y-126697273D01*
X106664666Y-126659573D01*
X106683388Y-126627146D01*
X106701710Y-126595410D01*
X106709577Y-126581784D01*
X106741470Y-126462757D01*
X110640083Y-126462757D01*
X110668406Y-126479109D01*
X110821009Y-126519999D01*
X110821011Y-126520000D01*
X110978989Y-126520000D01*
X110978990Y-126519999D01*
X111131591Y-126479110D01*
X111159913Y-126462757D01*
X111740083Y-126462757D01*
X111768406Y-126479109D01*
X111921009Y-126519999D01*
X111921011Y-126520000D01*
X112078989Y-126520000D01*
X112078990Y-126519999D01*
X112231591Y-126479110D01*
X112259913Y-126462757D01*
X112840083Y-126462757D01*
X112868406Y-126479109D01*
X113021009Y-126519999D01*
X113021011Y-126520000D01*
X113178989Y-126520000D01*
X113178990Y-126519999D01*
X113331591Y-126479110D01*
X113359915Y-126462756D01*
X113100001Y-126202842D01*
X113100000Y-126202842D01*
X112840083Y-126462757D01*
X112259913Y-126462757D01*
X112259915Y-126462756D01*
X112000001Y-126202842D01*
X112000000Y-126202842D01*
X111740083Y-126462757D01*
X111159913Y-126462757D01*
X111159915Y-126462756D01*
X110900001Y-126202842D01*
X110900000Y-126202842D01*
X110640083Y-126462757D01*
X106741470Y-126462757D01*
X106750500Y-126429057D01*
X106750500Y-126270943D01*
X106709577Y-126118216D01*
X106681740Y-126070000D01*
X106630524Y-125981290D01*
X106630518Y-125981282D01*
X106518717Y-125869481D01*
X106518709Y-125869475D01*
X106381790Y-125790426D01*
X106381786Y-125790424D01*
X106381784Y-125790423D01*
X106229057Y-125749500D01*
X106070943Y-125749500D01*
X105918216Y-125790423D01*
X105918209Y-125790426D01*
X105781290Y-125869475D01*
X105781282Y-125869481D01*
X105669481Y-125981282D01*
X105669475Y-125981290D01*
X105590426Y-126118209D01*
X105590423Y-126118216D01*
X105549500Y-126270943D01*
X103103417Y-126270943D01*
X103080520Y-126231284D01*
X102968716Y-126119480D01*
X102968714Y-126119479D01*
X102968709Y-126119475D01*
X102831790Y-126040426D01*
X102831786Y-126040424D01*
X102831784Y-126040423D01*
X102679057Y-125999500D01*
X102520943Y-125999500D01*
X102368216Y-126040423D01*
X102368209Y-126040426D01*
X102231290Y-126119475D01*
X102231282Y-126119481D01*
X102119481Y-126231282D01*
X102119475Y-126231290D01*
X102040426Y-126368209D01*
X102040423Y-126368216D01*
X101999500Y-126520943D01*
X101999500Y-126679057D01*
X102040086Y-126830524D01*
X102040423Y-126831783D01*
X102040426Y-126831790D01*
X102119475Y-126968709D01*
X102119479Y-126968714D01*
X102119480Y-126968716D01*
X102231284Y-127080520D01*
X102231286Y-127080521D01*
X102231290Y-127080524D01*
X102352492Y-127150499D01*
X102368216Y-127159577D01*
X102368223Y-127159579D01*
X102375723Y-127162686D01*
X102374588Y-127165426D01*
X102422116Y-127194373D01*
X102452667Y-127257210D01*
X102444396Y-127326588D01*
X102399929Y-127380481D01*
X102377844Y-127392376D01*
X102087150Y-127512786D01*
X102087145Y-127512788D01*
X101801169Y-127665646D01*
X101801151Y-127665657D01*
X101531532Y-127845811D01*
X101531518Y-127845821D01*
X101280841Y-128051546D01*
X101051546Y-128280841D01*
X100845821Y-128531518D01*
X100845811Y-128531532D01*
X100727602Y-128708445D01*
X100673990Y-128753250D01*
X100604665Y-128761957D01*
X100541638Y-128731803D01*
X100504918Y-128672360D01*
X100500500Y-128639554D01*
X100500500Y-123394000D01*
X100520185Y-123326961D01*
X100527130Y-123320943D01*
X106799500Y-123320943D01*
X106799500Y-123479057D01*
X106840289Y-123631282D01*
X106840423Y-123631783D01*
X106840426Y-123631790D01*
X106919475Y-123768709D01*
X106919479Y-123768714D01*
X106919480Y-123768716D01*
X107031284Y-123880520D01*
X107031286Y-123880521D01*
X107031290Y-123880524D01*
X107135040Y-123940423D01*
X107168216Y-123959577D01*
X107207593Y-123970128D01*
X107267253Y-124006491D01*
X107297783Y-124069337D01*
X107299500Y-124089902D01*
X107299500Y-124124057D01*
X107338126Y-124268209D01*
X107340423Y-124276783D01*
X107340426Y-124276790D01*
X107419475Y-124413709D01*
X107419479Y-124413714D01*
X107419480Y-124413716D01*
X107531284Y-124525520D01*
X107531286Y-124525521D01*
X107531290Y-124525524D01*
X107626527Y-124580508D01*
X107668216Y-124604577D01*
X107769666Y-124631760D01*
X107829325Y-124668124D01*
X107859854Y-124730970D01*
X107851560Y-124800346D01*
X107807074Y-124854224D01*
X107799573Y-124858920D01*
X107781287Y-124869477D01*
X107781282Y-124869481D01*
X107669481Y-124981282D01*
X107669475Y-124981290D01*
X107590426Y-125118209D01*
X107590423Y-125118216D01*
X107549500Y-125270943D01*
X107549500Y-125429057D01*
X107579341Y-125540423D01*
X107590423Y-125581783D01*
X107590426Y-125581790D01*
X107669475Y-125718709D01*
X107669479Y-125718714D01*
X107669480Y-125718716D01*
X107781284Y-125830520D01*
X107781286Y-125830521D01*
X107781290Y-125830524D01*
X107918209Y-125909573D01*
X107918216Y-125909577D01*
X108070943Y-125950500D01*
X108070945Y-125950500D01*
X108229055Y-125950500D01*
X108229057Y-125950500D01*
X108381784Y-125909577D01*
X108500548Y-125841009D01*
X110300000Y-125841009D01*
X110300000Y-125998990D01*
X110340890Y-126151593D01*
X110340890Y-126151594D01*
X110357241Y-126179915D01*
X110357242Y-126179915D01*
X110617158Y-125920000D01*
X110587321Y-125890163D01*
X110750000Y-125890163D01*
X110750000Y-125949837D01*
X110772836Y-126004968D01*
X110815032Y-126047164D01*
X110870163Y-126070000D01*
X110929837Y-126070000D01*
X110984968Y-126047164D01*
X111027164Y-126004968D01*
X111050000Y-125949837D01*
X111050000Y-125920000D01*
X111182842Y-125920000D01*
X111182842Y-125920001D01*
X111443933Y-126181092D01*
X111456063Y-126181092D01*
X111717157Y-125919999D01*
X111687321Y-125890163D01*
X111850000Y-125890163D01*
X111850000Y-125949837D01*
X111872836Y-126004968D01*
X111915032Y-126047164D01*
X111970163Y-126070000D01*
X112029837Y-126070000D01*
X112084968Y-126047164D01*
X112127164Y-126004968D01*
X112150000Y-125949837D01*
X112150000Y-125920000D01*
X112282842Y-125920000D01*
X112282842Y-125920001D01*
X112543933Y-126181092D01*
X112556063Y-126181092D01*
X112817157Y-125919999D01*
X112787321Y-125890163D01*
X112950000Y-125890163D01*
X112950000Y-125949837D01*
X112972836Y-126004968D01*
X113015032Y-126047164D01*
X113070163Y-126070000D01*
X113129837Y-126070000D01*
X113184968Y-126047164D01*
X113227164Y-126004968D01*
X113250000Y-125949837D01*
X113250000Y-125919999D01*
X113382842Y-125919999D01*
X113382842Y-125920000D01*
X113642756Y-126179914D01*
X113659110Y-126151591D01*
X113699999Y-125998990D01*
X113700000Y-125998989D01*
X113700000Y-125841011D01*
X113699999Y-125841009D01*
X113659109Y-125688406D01*
X113642757Y-125660084D01*
X113642757Y-125660083D01*
X113382842Y-125919999D01*
X113250000Y-125919999D01*
X113250000Y-125890163D01*
X113227164Y-125835032D01*
X113184968Y-125792836D01*
X113129837Y-125770000D01*
X113070163Y-125770000D01*
X113015032Y-125792836D01*
X112972836Y-125835032D01*
X112950000Y-125890163D01*
X112787321Y-125890163D01*
X112554972Y-125657814D01*
X112544484Y-125658356D01*
X112282842Y-125920000D01*
X112150000Y-125920000D01*
X112150000Y-125890163D01*
X112127164Y-125835032D01*
X112084968Y-125792836D01*
X112029837Y-125770000D01*
X111970163Y-125770000D01*
X111915032Y-125792836D01*
X111872836Y-125835032D01*
X111850000Y-125890163D01*
X111687321Y-125890163D01*
X111454972Y-125657814D01*
X111444484Y-125658356D01*
X111182842Y-125920000D01*
X111050000Y-125920000D01*
X111050000Y-125890163D01*
X111027164Y-125835032D01*
X110984968Y-125792836D01*
X110929837Y-125770000D01*
X110870163Y-125770000D01*
X110815032Y-125792836D01*
X110772836Y-125835032D01*
X110750000Y-125890163D01*
X110587321Y-125890163D01*
X110357242Y-125660084D01*
X110340891Y-125688405D01*
X110340888Y-125688412D01*
X110300000Y-125841009D01*
X108500548Y-125841009D01*
X108518716Y-125830520D01*
X108630520Y-125718716D01*
X108709577Y-125581784D01*
X108750500Y-125429057D01*
X108750500Y-125363933D01*
X110638906Y-125363933D01*
X110638906Y-125376064D01*
X110899999Y-125637157D01*
X111161092Y-125376063D01*
X111161092Y-125363933D01*
X111738906Y-125363933D01*
X111738906Y-125376064D01*
X111999999Y-125637157D01*
X112261092Y-125376063D01*
X112261092Y-125363933D01*
X112838906Y-125363933D01*
X112838906Y-125376064D01*
X113099999Y-125637157D01*
X113361092Y-125376063D01*
X113361092Y-125363933D01*
X113100001Y-125102842D01*
X112838906Y-125363933D01*
X112261092Y-125363933D01*
X112000001Y-125102842D01*
X111738906Y-125363933D01*
X111161092Y-125363933D01*
X110900001Y-125102842D01*
X110638906Y-125363933D01*
X108750500Y-125363933D01*
X108750500Y-125270943D01*
X108709577Y-125118216D01*
X108686359Y-125078001D01*
X108630524Y-124981290D01*
X108630518Y-124981282D01*
X108518717Y-124869481D01*
X108518709Y-124869475D01*
X108475322Y-124844426D01*
X108475317Y-124844424D01*
X108381784Y-124790423D01*
X108272662Y-124761184D01*
X108265315Y-124758166D01*
X108244000Y-124741093D01*
X108243862Y-124741009D01*
X110300000Y-124741009D01*
X110300000Y-124898990D01*
X110340890Y-125051593D01*
X110340890Y-125051594D01*
X110357241Y-125079915D01*
X110357242Y-125079915D01*
X110617158Y-124820000D01*
X110587321Y-124790163D01*
X110750000Y-124790163D01*
X110750000Y-124849837D01*
X110772836Y-124904968D01*
X110815032Y-124947164D01*
X110870163Y-124970000D01*
X110929837Y-124970000D01*
X110984968Y-124947164D01*
X111027164Y-124904968D01*
X111050000Y-124849837D01*
X111050000Y-124820000D01*
X111182842Y-124820000D01*
X111182842Y-124820001D01*
X111443933Y-125081092D01*
X111456063Y-125081092D01*
X111717157Y-124819999D01*
X111687321Y-124790163D01*
X111850000Y-124790163D01*
X111850000Y-124849837D01*
X111872836Y-124904968D01*
X111915032Y-124947164D01*
X111970163Y-124970000D01*
X112029837Y-124970000D01*
X112084968Y-124947164D01*
X112127164Y-124904968D01*
X112150000Y-124849837D01*
X112150000Y-124820000D01*
X112282842Y-124820000D01*
X112282842Y-124820001D01*
X112543933Y-125081092D01*
X112556063Y-125081092D01*
X112817157Y-124819999D01*
X112787321Y-124790163D01*
X112950000Y-124790163D01*
X112950000Y-124849837D01*
X112972836Y-124904968D01*
X113015032Y-124947164D01*
X113070163Y-124970000D01*
X113129837Y-124970000D01*
X113184968Y-124947164D01*
X113227164Y-124904968D01*
X113250000Y-124849837D01*
X113250000Y-124819999D01*
X113382842Y-124819999D01*
X113382842Y-124820000D01*
X113642756Y-125079914D01*
X113659110Y-125051591D01*
X113699999Y-124898990D01*
X113700000Y-124898989D01*
X113700000Y-124741011D01*
X113699999Y-124741009D01*
X113659109Y-124588406D01*
X113642757Y-124560084D01*
X113642757Y-124560083D01*
X113382842Y-124819999D01*
X113250000Y-124819999D01*
X113250000Y-124790163D01*
X113227164Y-124735032D01*
X113184968Y-124692836D01*
X113129837Y-124670000D01*
X113070163Y-124670000D01*
X113015032Y-124692836D01*
X112972836Y-124735032D01*
X112950000Y-124790163D01*
X112787321Y-124790163D01*
X112554972Y-124557814D01*
X112544484Y-124558356D01*
X112282842Y-124820000D01*
X112150000Y-124820000D01*
X112150000Y-124790163D01*
X112127164Y-124735032D01*
X112084968Y-124692836D01*
X112029837Y-124670000D01*
X111970163Y-124670000D01*
X111915032Y-124692836D01*
X111872836Y-124735032D01*
X111850000Y-124790163D01*
X111687321Y-124790163D01*
X111454972Y-124557814D01*
X111444484Y-124558356D01*
X111182842Y-124820000D01*
X111050000Y-124820000D01*
X111050000Y-124790163D01*
X111027164Y-124735032D01*
X110984968Y-124692836D01*
X110929837Y-124670000D01*
X110870163Y-124670000D01*
X110815032Y-124692836D01*
X110772836Y-124735032D01*
X110750000Y-124790163D01*
X110587321Y-124790163D01*
X110357242Y-124560084D01*
X110340891Y-124588405D01*
X110340888Y-124588412D01*
X110300000Y-124741009D01*
X108243862Y-124741009D01*
X108220674Y-124726875D01*
X108217123Y-124719565D01*
X108210782Y-124714486D01*
X108202080Y-124688598D01*
X108190145Y-124664028D01*
X108191109Y-124655959D01*
X108188521Y-124648258D01*
X108195197Y-124621772D01*
X108198440Y-124594652D01*
X108203612Y-124588386D01*
X108205599Y-124580508D01*
X108225533Y-124561837D01*
X108242925Y-124540774D01*
X108250415Y-124536085D01*
X108268716Y-124525520D01*
X108380520Y-124413716D01*
X108459577Y-124276784D01*
X108463020Y-124263933D01*
X110638906Y-124263933D01*
X110638906Y-124276064D01*
X110899999Y-124537157D01*
X111161092Y-124276063D01*
X111161092Y-124263933D01*
X111738906Y-124263933D01*
X111738906Y-124276064D01*
X111999999Y-124537157D01*
X112261092Y-124276063D01*
X112261092Y-124263933D01*
X112838906Y-124263933D01*
X112838906Y-124276064D01*
X113099999Y-124537157D01*
X113361092Y-124276063D01*
X113361092Y-124263933D01*
X113100001Y-124002842D01*
X112838906Y-124263933D01*
X112261092Y-124263933D01*
X112000001Y-124002842D01*
X111738906Y-124263933D01*
X111161092Y-124263933D01*
X110900001Y-124002842D01*
X110638906Y-124263933D01*
X108463020Y-124263933D01*
X108500500Y-124124057D01*
X108500500Y-123965943D01*
X108459577Y-123813216D01*
X108380520Y-123676284D01*
X108345245Y-123641009D01*
X110300000Y-123641009D01*
X110300000Y-123798990D01*
X110340890Y-123951593D01*
X110340890Y-123951594D01*
X110357241Y-123979915D01*
X110357242Y-123979915D01*
X110617158Y-123720000D01*
X110587321Y-123690163D01*
X110750000Y-123690163D01*
X110750000Y-123749837D01*
X110772836Y-123804968D01*
X110815032Y-123847164D01*
X110870163Y-123870000D01*
X110929837Y-123870000D01*
X110984968Y-123847164D01*
X111027164Y-123804968D01*
X111050000Y-123749837D01*
X111050000Y-123720000D01*
X111182842Y-123720000D01*
X111182842Y-123720001D01*
X111443933Y-123981092D01*
X111456063Y-123981092D01*
X111717157Y-123719999D01*
X111687321Y-123690163D01*
X111850000Y-123690163D01*
X111850000Y-123749837D01*
X111872836Y-123804968D01*
X111915032Y-123847164D01*
X111970163Y-123870000D01*
X112029837Y-123870000D01*
X112084968Y-123847164D01*
X112127164Y-123804968D01*
X112150000Y-123749837D01*
X112150000Y-123720000D01*
X112282842Y-123720000D01*
X112282842Y-123720001D01*
X112543933Y-123981092D01*
X112556063Y-123981092D01*
X112817157Y-123719999D01*
X112787321Y-123690163D01*
X112950000Y-123690163D01*
X112950000Y-123749837D01*
X112972836Y-123804968D01*
X113015032Y-123847164D01*
X113070163Y-123870000D01*
X113129837Y-123870000D01*
X113184968Y-123847164D01*
X113227164Y-123804968D01*
X113250000Y-123749837D01*
X113250000Y-123719999D01*
X113382842Y-123719999D01*
X113382842Y-123720000D01*
X113642756Y-123979914D01*
X113659110Y-123951592D01*
X113667323Y-123920943D01*
X115199500Y-123920943D01*
X115199500Y-124079057D01*
X115230678Y-124195413D01*
X115240423Y-124231783D01*
X115240426Y-124231790D01*
X115319475Y-124368709D01*
X115319479Y-124368714D01*
X115319480Y-124368716D01*
X115431284Y-124480520D01*
X115431286Y-124480521D01*
X115431290Y-124480524D01*
X115529383Y-124537157D01*
X115568216Y-124559577D01*
X115720943Y-124600500D01*
X115720945Y-124600500D01*
X115875500Y-124600500D01*
X115942539Y-124620185D01*
X115988294Y-124672989D01*
X115999500Y-124724500D01*
X115999500Y-124799057D01*
X116018369Y-124869475D01*
X116040423Y-124951783D01*
X116040423Y-124951784D01*
X116113293Y-125078001D01*
X116129764Y-125145901D01*
X116113293Y-125201999D01*
X116040423Y-125328215D01*
X116040423Y-125328216D01*
X115999500Y-125480943D01*
X115999500Y-125639057D01*
X116040059Y-125790423D01*
X116040423Y-125791783D01*
X116040426Y-125791790D01*
X116119475Y-125928709D01*
X116119479Y-125928714D01*
X116119480Y-125928716D01*
X116231284Y-126040520D01*
X116231286Y-126040521D01*
X116231290Y-126040524D01*
X116366725Y-126118716D01*
X116368216Y-126119577D01*
X116520943Y-126160500D01*
X116520945Y-126160500D01*
X116679055Y-126160500D01*
X116679057Y-126160500D01*
X116831784Y-126119577D01*
X116968716Y-126040520D01*
X117080520Y-125928716D01*
X117159577Y-125791784D01*
X117191956Y-125670943D01*
X117749500Y-125670943D01*
X117749500Y-125829057D01*
X117790289Y-125981282D01*
X117790423Y-125981783D01*
X117790426Y-125981790D01*
X117869475Y-126118709D01*
X117869479Y-126118714D01*
X117869480Y-126118716D01*
X117981284Y-126230520D01*
X117981286Y-126230521D01*
X117981290Y-126230524D01*
X118118209Y-126309573D01*
X118118216Y-126309577D01*
X118270943Y-126350500D01*
X118270945Y-126350500D01*
X118429055Y-126350500D01*
X118429057Y-126350500D01*
X118581784Y-126309577D01*
X118718716Y-126230520D01*
X118830520Y-126118716D01*
X118886969Y-126020943D01*
X128099499Y-126020943D01*
X128099499Y-126179057D01*
X128134472Y-126309576D01*
X128140422Y-126331783D01*
X128140425Y-126331790D01*
X128219474Y-126468709D01*
X128219478Y-126468714D01*
X128219479Y-126468716D01*
X128331283Y-126580520D01*
X128331285Y-126580521D01*
X128331289Y-126580524D01*
X128412042Y-126627146D01*
X128468215Y-126659577D01*
X128620942Y-126700500D01*
X128620944Y-126700500D01*
X128779054Y-126700500D01*
X128779056Y-126700500D01*
X128931783Y-126659577D01*
X129068715Y-126580520D01*
X129180519Y-126468716D01*
X129259576Y-126331784D01*
X129300499Y-126179057D01*
X129300499Y-126020943D01*
X129259576Y-125868216D01*
X129243869Y-125841011D01*
X129232283Y-125820943D01*
X129999500Y-125820943D01*
X129999500Y-125979057D01*
X130037127Y-126119481D01*
X130040423Y-126131783D01*
X130040426Y-126131790D01*
X130119475Y-126268709D01*
X130119479Y-126268714D01*
X130119480Y-126268716D01*
X130231284Y-126380520D01*
X130231286Y-126380521D01*
X130231290Y-126380524D01*
X130315353Y-126429057D01*
X130368216Y-126459577D01*
X130520943Y-126500500D01*
X130520945Y-126500500D01*
X130679055Y-126500500D01*
X130679057Y-126500500D01*
X130831784Y-126459577D01*
X130968716Y-126380520D01*
X131080520Y-126268716D01*
X131159577Y-126131784D01*
X131200500Y-125979057D01*
X131200500Y-125820943D01*
X131159577Y-125668216D01*
X131154882Y-125660084D01*
X131080524Y-125531289D01*
X131080518Y-125531282D01*
X131020179Y-125470943D01*
X135149500Y-125470943D01*
X135149500Y-125629057D01*
X135187266Y-125770000D01*
X135190423Y-125781783D01*
X135190426Y-125781790D01*
X135269475Y-125918709D01*
X135269479Y-125918714D01*
X135269480Y-125918716D01*
X135381284Y-126030520D01*
X135381286Y-126030521D01*
X135381290Y-126030524D01*
X135518209Y-126109573D01*
X135518216Y-126109577D01*
X135670943Y-126150500D01*
X135670945Y-126150500D01*
X135829055Y-126150500D01*
X135829057Y-126150500D01*
X135981784Y-126109577D01*
X136118716Y-126030520D01*
X136230520Y-125918716D01*
X136309577Y-125781784D01*
X136350500Y-125629057D01*
X136350500Y-125470943D01*
X136309577Y-125318216D01*
X136309573Y-125318209D01*
X136230524Y-125181290D01*
X136230518Y-125181282D01*
X136118717Y-125069481D01*
X136118709Y-125069475D01*
X135981790Y-124990426D01*
X135981786Y-124990424D01*
X135981784Y-124990423D01*
X135829057Y-124949500D01*
X135670943Y-124949500D01*
X135518216Y-124990423D01*
X135518209Y-124990426D01*
X135381290Y-125069475D01*
X135381282Y-125069481D01*
X135269481Y-125181282D01*
X135269475Y-125181290D01*
X135190426Y-125318209D01*
X135190423Y-125318216D01*
X135149500Y-125470943D01*
X131020179Y-125470943D01*
X130968717Y-125419481D01*
X130968709Y-125419475D01*
X130831790Y-125340426D01*
X130831786Y-125340424D01*
X130831784Y-125340423D01*
X130679057Y-125299500D01*
X130520943Y-125299500D01*
X130368216Y-125340423D01*
X130368209Y-125340426D01*
X130231290Y-125419475D01*
X130231282Y-125419481D01*
X130119481Y-125531282D01*
X130119475Y-125531290D01*
X130040426Y-125668209D01*
X130040423Y-125668216D01*
X129999500Y-125820943D01*
X129232283Y-125820943D01*
X129180521Y-125731287D01*
X129180517Y-125731282D01*
X129068716Y-125619481D01*
X129068708Y-125619475D01*
X128931789Y-125540426D01*
X128931785Y-125540424D01*
X128931783Y-125540423D01*
X128779056Y-125499500D01*
X128620942Y-125499500D01*
X128468215Y-125540423D01*
X128468208Y-125540426D01*
X128331289Y-125619475D01*
X128331281Y-125619481D01*
X128219480Y-125731282D01*
X128219474Y-125731290D01*
X128140425Y-125868209D01*
X128140425Y-125868210D01*
X128140422Y-125868216D01*
X128099499Y-126020943D01*
X118886969Y-126020943D01*
X118909577Y-125981784D01*
X118950500Y-125829057D01*
X118950500Y-125670943D01*
X118909577Y-125518216D01*
X118909573Y-125518209D01*
X118830524Y-125381290D01*
X118830518Y-125381282D01*
X118718717Y-125269481D01*
X118718709Y-125269475D01*
X118581790Y-125190426D01*
X118581786Y-125190424D01*
X118581784Y-125190423D01*
X118429057Y-125149500D01*
X118270943Y-125149500D01*
X118118216Y-125190423D01*
X118118209Y-125190426D01*
X117981290Y-125269475D01*
X117981282Y-125269481D01*
X117869481Y-125381282D01*
X117869475Y-125381290D01*
X117790426Y-125518209D01*
X117790423Y-125518216D01*
X117749500Y-125670943D01*
X117191956Y-125670943D01*
X117200500Y-125639057D01*
X117200500Y-125480943D01*
X117159577Y-125328216D01*
X117086707Y-125202000D01*
X117070234Y-125134099D01*
X117086707Y-125078000D01*
X117137267Y-124990426D01*
X117159577Y-124951784D01*
X117200500Y-124799057D01*
X117200500Y-124640943D01*
X117159577Y-124488216D01*
X117155133Y-124480518D01*
X117151840Y-124474814D01*
X117120738Y-124420943D01*
X120599500Y-124420943D01*
X120599500Y-124579057D01*
X120638472Y-124724500D01*
X120640423Y-124731783D01*
X120640426Y-124731790D01*
X120719475Y-124868709D01*
X120719479Y-124868714D01*
X120719480Y-124868716D01*
X120831284Y-124980520D01*
X120831286Y-124980521D01*
X120831290Y-124980524D01*
X120954384Y-125051591D01*
X120968216Y-125059577D01*
X121120943Y-125100500D01*
X121120945Y-125100500D01*
X121279055Y-125100500D01*
X121279057Y-125100500D01*
X121431784Y-125059577D01*
X121568716Y-124980520D01*
X121680520Y-124868716D01*
X121759577Y-124731784D01*
X121800500Y-124579057D01*
X121800500Y-124420943D01*
X121767363Y-124297273D01*
X123999500Y-124297273D01*
X123999500Y-124402727D01*
X124026793Y-124504587D01*
X124079520Y-124595913D01*
X124154087Y-124670480D01*
X124245413Y-124723207D01*
X124347273Y-124750500D01*
X124347275Y-124750500D01*
X124452725Y-124750500D01*
X124452727Y-124750500D01*
X124554587Y-124723207D01*
X124645913Y-124670480D01*
X124720480Y-124595913D01*
X124773207Y-124504587D01*
X124800500Y-124402727D01*
X124800500Y-124297273D01*
X124773207Y-124195413D01*
X124720480Y-124104087D01*
X124645913Y-124029520D01*
X124560492Y-123980202D01*
X124554591Y-123976795D01*
X124554589Y-123976794D01*
X124554587Y-123976793D01*
X124452727Y-123949500D01*
X124347273Y-123949500D01*
X124245413Y-123976793D01*
X124245410Y-123976794D01*
X124154085Y-124029521D01*
X124079521Y-124104085D01*
X124026794Y-124195410D01*
X124026793Y-124195413D01*
X123999500Y-124297273D01*
X121767363Y-124297273D01*
X121759577Y-124268216D01*
X121742987Y-124239481D01*
X121680524Y-124131290D01*
X121680518Y-124131282D01*
X121568717Y-124019481D01*
X121568709Y-124019475D01*
X121431790Y-123940426D01*
X121431786Y-123940424D01*
X121431784Y-123940423D01*
X121279057Y-123899500D01*
X121120943Y-123899500D01*
X120968216Y-123940423D01*
X120968209Y-123940426D01*
X120831290Y-124019475D01*
X120831282Y-124019481D01*
X120719481Y-124131282D01*
X120719475Y-124131290D01*
X120640426Y-124268209D01*
X120640423Y-124268216D01*
X120599500Y-124420943D01*
X117120738Y-124420943D01*
X117080522Y-124351287D01*
X117080518Y-124351282D01*
X116968717Y-124239481D01*
X116968709Y-124239475D01*
X116831790Y-124160426D01*
X116831786Y-124160424D01*
X116831784Y-124160423D01*
X116679057Y-124119500D01*
X116524500Y-124119500D01*
X116457461Y-124099815D01*
X116411706Y-124047011D01*
X116400500Y-123995500D01*
X116400500Y-123920945D01*
X116400500Y-123920943D01*
X116359577Y-123768216D01*
X116336479Y-123728209D01*
X116280524Y-123631290D01*
X116280518Y-123631282D01*
X116168717Y-123519481D01*
X116168709Y-123519475D01*
X116031790Y-123440426D01*
X116031786Y-123440424D01*
X116031784Y-123440423D01*
X115879057Y-123399500D01*
X115720943Y-123399500D01*
X115568216Y-123440423D01*
X115568209Y-123440426D01*
X115431290Y-123519475D01*
X115431282Y-123519481D01*
X115319481Y-123631282D01*
X115319475Y-123631290D01*
X115240426Y-123768209D01*
X115240423Y-123768216D01*
X115199500Y-123920943D01*
X113667323Y-123920943D01*
X113678100Y-123880722D01*
X113678100Y-123880721D01*
X113699999Y-123798990D01*
X113700000Y-123798989D01*
X113700000Y-123641011D01*
X113699999Y-123641009D01*
X113659109Y-123488406D01*
X113642757Y-123460084D01*
X113642757Y-123460083D01*
X113382842Y-123719999D01*
X113250000Y-123719999D01*
X113250000Y-123690163D01*
X113227164Y-123635032D01*
X113184968Y-123592836D01*
X113129837Y-123570000D01*
X113070163Y-123570000D01*
X113015032Y-123592836D01*
X112972836Y-123635032D01*
X112950000Y-123690163D01*
X112787321Y-123690163D01*
X112554972Y-123457814D01*
X112544484Y-123458356D01*
X112282842Y-123720000D01*
X112150000Y-123720000D01*
X112150000Y-123690163D01*
X112127164Y-123635032D01*
X112084968Y-123592836D01*
X112029837Y-123570000D01*
X111970163Y-123570000D01*
X111915032Y-123592836D01*
X111872836Y-123635032D01*
X111850000Y-123690163D01*
X111687321Y-123690163D01*
X111454972Y-123457814D01*
X111444484Y-123458356D01*
X111182842Y-123720000D01*
X111050000Y-123720000D01*
X111050000Y-123690163D01*
X111027164Y-123635032D01*
X110984968Y-123592836D01*
X110929837Y-123570000D01*
X110870163Y-123570000D01*
X110815032Y-123592836D01*
X110772836Y-123635032D01*
X110750000Y-123690163D01*
X110587321Y-123690163D01*
X110357242Y-123460084D01*
X110340891Y-123488405D01*
X110340888Y-123488412D01*
X110300000Y-123641009D01*
X108345245Y-123641009D01*
X108268716Y-123564480D01*
X108260922Y-123559980D01*
X108249043Y-123547258D01*
X108237779Y-123524837D01*
X108222986Y-123504577D01*
X108222365Y-123494154D01*
X108217678Y-123484824D01*
X108220324Y-123459873D01*
X108218833Y-123434830D01*
X108223945Y-123425726D01*
X108225047Y-123415344D01*
X108240759Y-123395787D01*
X108253046Y-123373911D01*
X108262798Y-123368357D01*
X108268809Y-123360877D01*
X108286077Y-123355101D01*
X108307581Y-123342856D01*
X108431784Y-123309577D01*
X108568716Y-123230520D01*
X108635303Y-123163933D01*
X110638906Y-123163933D01*
X110638906Y-123176064D01*
X110899999Y-123437157D01*
X111161092Y-123176063D01*
X111161092Y-123163933D01*
X111738906Y-123163933D01*
X111738906Y-123176064D01*
X111999999Y-123437157D01*
X112261092Y-123176063D01*
X112261092Y-123163933D01*
X112838906Y-123163933D01*
X112838906Y-123176064D01*
X113099999Y-123437157D01*
X113316212Y-123220943D01*
X121699500Y-123220943D01*
X121699500Y-123379057D01*
X121737127Y-123519481D01*
X121740423Y-123531783D01*
X121740426Y-123531790D01*
X121819475Y-123668709D01*
X121819479Y-123668714D01*
X121819480Y-123668716D01*
X121931284Y-123780520D01*
X121931286Y-123780521D01*
X121931290Y-123780524D01*
X122046716Y-123847164D01*
X122068216Y-123859577D01*
X122220943Y-123900500D01*
X122220945Y-123900500D01*
X122379055Y-123900500D01*
X122379057Y-123900500D01*
X122452045Y-123880943D01*
X138399500Y-123880943D01*
X138399500Y-124039057D01*
X138422276Y-124124056D01*
X138440423Y-124191783D01*
X138440426Y-124191790D01*
X138519475Y-124328709D01*
X138519479Y-124328714D01*
X138519480Y-124328716D01*
X138631284Y-124440520D01*
X138631286Y-124440521D01*
X138631290Y-124440524D01*
X138742252Y-124504587D01*
X138768216Y-124519577D01*
X138920943Y-124560500D01*
X138920945Y-124560500D01*
X139079055Y-124560500D01*
X139079057Y-124560500D01*
X139231784Y-124519577D01*
X139368716Y-124440520D01*
X139480520Y-124328716D01*
X139559577Y-124191784D01*
X139600500Y-124039057D01*
X139600500Y-123880943D01*
X139559577Y-123728216D01*
X139537607Y-123690163D01*
X139480524Y-123591290D01*
X139480518Y-123591282D01*
X139368717Y-123479481D01*
X139368709Y-123479475D01*
X139231790Y-123400426D01*
X139231786Y-123400424D01*
X139231784Y-123400423D01*
X139079057Y-123359500D01*
X138920943Y-123359500D01*
X138768216Y-123400423D01*
X138768209Y-123400426D01*
X138631290Y-123479475D01*
X138631282Y-123479481D01*
X138519481Y-123591282D01*
X138519475Y-123591290D01*
X138440426Y-123728209D01*
X138440423Y-123728216D01*
X138399500Y-123880943D01*
X122452045Y-123880943D01*
X122531784Y-123859577D01*
X122668716Y-123780520D01*
X122780520Y-123668716D01*
X122859577Y-123531784D01*
X122900500Y-123379057D01*
X122900500Y-123220943D01*
X122876558Y-123131590D01*
X122878221Y-123061744D01*
X122917383Y-123003881D01*
X122981611Y-122976377D01*
X122996333Y-122975500D01*
X123079055Y-122975500D01*
X123079057Y-122975500D01*
X123231784Y-122934577D01*
X123368716Y-122855520D01*
X123480520Y-122743716D01*
X123559577Y-122606784D01*
X123600500Y-122454057D01*
X123600500Y-122295943D01*
X123559577Y-122143216D01*
X123494757Y-122030943D01*
X124299500Y-122030943D01*
X124299500Y-122189057D01*
X124328141Y-122295945D01*
X124340423Y-122341783D01*
X124340426Y-122341790D01*
X124419475Y-122478709D01*
X124419479Y-122478714D01*
X124419480Y-122478716D01*
X124531284Y-122590520D01*
X124531286Y-122590521D01*
X124531290Y-122590524D01*
X124666725Y-122668716D01*
X124668216Y-122669577D01*
X124820943Y-122710500D01*
X124820945Y-122710500D01*
X124979055Y-122710500D01*
X124979057Y-122710500D01*
X125131784Y-122669577D01*
X125268716Y-122590520D01*
X125338293Y-122520943D01*
X126899500Y-122520943D01*
X126899500Y-122679057D01*
X126939693Y-122829057D01*
X126940423Y-122831783D01*
X126940426Y-122831790D01*
X127019475Y-122968709D01*
X127019479Y-122968714D01*
X127019480Y-122968716D01*
X127131284Y-123080520D01*
X127131286Y-123080521D01*
X127131290Y-123080524D01*
X127223918Y-123134002D01*
X127268216Y-123159577D01*
X127420943Y-123200500D01*
X127420945Y-123200500D01*
X127579055Y-123200500D01*
X127579057Y-123200500D01*
X127731784Y-123159577D01*
X127868716Y-123080520D01*
X127980520Y-122968716D01*
X128042742Y-122860943D01*
X139699500Y-122860943D01*
X139699500Y-123019057D01*
X139738320Y-123163933D01*
X139740423Y-123171783D01*
X139740426Y-123171790D01*
X139819475Y-123308709D01*
X139819479Y-123308714D01*
X139819480Y-123308716D01*
X139931284Y-123420520D01*
X139931286Y-123420521D01*
X139931290Y-123420524D01*
X140033408Y-123479481D01*
X140068216Y-123499577D01*
X140220943Y-123540500D01*
X140220945Y-123540500D01*
X140379055Y-123540500D01*
X140379057Y-123540500D01*
X140531784Y-123499577D01*
X140668716Y-123420520D01*
X140780520Y-123308716D01*
X140859577Y-123171784D01*
X140900500Y-123019057D01*
X140900500Y-122860943D01*
X140859577Y-122708216D01*
X140842742Y-122679056D01*
X140780524Y-122571290D01*
X140780518Y-122571282D01*
X140668717Y-122459481D01*
X140668709Y-122459475D01*
X140531790Y-122380426D01*
X140531786Y-122380424D01*
X140531784Y-122380423D01*
X140379057Y-122339500D01*
X140220943Y-122339500D01*
X140068216Y-122380423D01*
X140068209Y-122380426D01*
X139931290Y-122459475D01*
X139931282Y-122459481D01*
X139819481Y-122571282D01*
X139819475Y-122571290D01*
X139740426Y-122708209D01*
X139740423Y-122708216D01*
X139699500Y-122860943D01*
X128042742Y-122860943D01*
X128059577Y-122831784D01*
X128100500Y-122679057D01*
X128100500Y-122520943D01*
X128059577Y-122368216D01*
X128054882Y-122360084D01*
X127980524Y-122231290D01*
X127980518Y-122231282D01*
X127868717Y-122119481D01*
X127868709Y-122119475D01*
X127731790Y-122040426D01*
X127731786Y-122040424D01*
X127731784Y-122040423D01*
X127579057Y-121999500D01*
X127420943Y-121999500D01*
X127268216Y-122040423D01*
X127268209Y-122040426D01*
X127131290Y-122119475D01*
X127131282Y-122119481D01*
X127019481Y-122231282D01*
X127019475Y-122231290D01*
X126940426Y-122368209D01*
X126940423Y-122368216D01*
X126899500Y-122520943D01*
X125338293Y-122520943D01*
X125380520Y-122478716D01*
X125459577Y-122341784D01*
X125500500Y-122189057D01*
X125500500Y-122030943D01*
X125459577Y-121878216D01*
X125425221Y-121818709D01*
X125380524Y-121741290D01*
X125380518Y-121741282D01*
X125268717Y-121629481D01*
X125268709Y-121629475D01*
X125131790Y-121550426D01*
X125131786Y-121550424D01*
X125131784Y-121550423D01*
X124979057Y-121509500D01*
X124820943Y-121509500D01*
X124668216Y-121550423D01*
X124668209Y-121550426D01*
X124531290Y-121629475D01*
X124531282Y-121629481D01*
X124419481Y-121741282D01*
X124419475Y-121741290D01*
X124340426Y-121878209D01*
X124340423Y-121878216D01*
X124299500Y-122030943D01*
X123494757Y-122030943D01*
X123480520Y-122006284D01*
X123368716Y-121894480D01*
X123368714Y-121894479D01*
X123368709Y-121894475D01*
X123231790Y-121815426D01*
X123231786Y-121815424D01*
X123231784Y-121815423D01*
X123079057Y-121774500D01*
X122920943Y-121774500D01*
X122768216Y-121815423D01*
X122768209Y-121815426D01*
X122631290Y-121894475D01*
X122631282Y-121894481D01*
X122519481Y-122006282D01*
X122519475Y-122006290D01*
X122440426Y-122143209D01*
X122440423Y-122143216D01*
X122399500Y-122295943D01*
X122399500Y-122454057D01*
X122423441Y-122543409D01*
X122421779Y-122613256D01*
X122382617Y-122671119D01*
X122318389Y-122698623D01*
X122303667Y-122699500D01*
X122220943Y-122699500D01*
X122068216Y-122740423D01*
X122068209Y-122740426D01*
X121931290Y-122819475D01*
X121931282Y-122819481D01*
X121819481Y-122931282D01*
X121819475Y-122931290D01*
X121740426Y-123068209D01*
X121740423Y-123068216D01*
X121699500Y-123220943D01*
X113316212Y-123220943D01*
X113361092Y-123176063D01*
X113361092Y-123163933D01*
X113100001Y-122902842D01*
X112838906Y-123163933D01*
X112261092Y-123163933D01*
X112000001Y-122902842D01*
X111738906Y-123163933D01*
X111161092Y-123163933D01*
X110900001Y-122902842D01*
X110638906Y-123163933D01*
X108635303Y-123163933D01*
X108680520Y-123118716D01*
X108759577Y-122981784D01*
X108800500Y-122829057D01*
X108800500Y-122670943D01*
X108765684Y-122541009D01*
X110300000Y-122541009D01*
X110300000Y-122698990D01*
X110340890Y-122851593D01*
X110340890Y-122851594D01*
X110357241Y-122879915D01*
X110357242Y-122879915D01*
X110617158Y-122620000D01*
X110587321Y-122590163D01*
X110750000Y-122590163D01*
X110750000Y-122649837D01*
X110772836Y-122704968D01*
X110815032Y-122747164D01*
X110870163Y-122770000D01*
X110929837Y-122770000D01*
X110984968Y-122747164D01*
X111027164Y-122704968D01*
X111050000Y-122649837D01*
X111050000Y-122620000D01*
X111182842Y-122620000D01*
X111182842Y-122620001D01*
X111443933Y-122881092D01*
X111456063Y-122881092D01*
X111717157Y-122619999D01*
X111687321Y-122590163D01*
X111850000Y-122590163D01*
X111850000Y-122649837D01*
X111872836Y-122704968D01*
X111915032Y-122747164D01*
X111970163Y-122770000D01*
X112029837Y-122770000D01*
X112084968Y-122747164D01*
X112127164Y-122704968D01*
X112150000Y-122649837D01*
X112150000Y-122620000D01*
X112282842Y-122620000D01*
X112282842Y-122620001D01*
X112543933Y-122881092D01*
X112556063Y-122881092D01*
X112817157Y-122619999D01*
X112787321Y-122590163D01*
X112950000Y-122590163D01*
X112950000Y-122649837D01*
X112972836Y-122704968D01*
X113015032Y-122747164D01*
X113070163Y-122770000D01*
X113129837Y-122770000D01*
X113184968Y-122747164D01*
X113227164Y-122704968D01*
X113250000Y-122649837D01*
X113250000Y-122619999D01*
X113382842Y-122619999D01*
X113382842Y-122620000D01*
X113642756Y-122879914D01*
X113659110Y-122851591D01*
X113699999Y-122698990D01*
X113700000Y-122698989D01*
X113700000Y-122541011D01*
X113699999Y-122541009D01*
X113659109Y-122388406D01*
X113642757Y-122360084D01*
X113642757Y-122360083D01*
X113382842Y-122619999D01*
X113250000Y-122619999D01*
X113250000Y-122590163D01*
X113227164Y-122535032D01*
X113184968Y-122492836D01*
X113129837Y-122470000D01*
X113070163Y-122470000D01*
X113015032Y-122492836D01*
X112972836Y-122535032D01*
X112950000Y-122590163D01*
X112787321Y-122590163D01*
X112554972Y-122357814D01*
X112544484Y-122358356D01*
X112282842Y-122620000D01*
X112150000Y-122620000D01*
X112150000Y-122590163D01*
X112127164Y-122535032D01*
X112084968Y-122492836D01*
X112029837Y-122470000D01*
X111970163Y-122470000D01*
X111915032Y-122492836D01*
X111872836Y-122535032D01*
X111850000Y-122590163D01*
X111687321Y-122590163D01*
X111454972Y-122357814D01*
X111444484Y-122358356D01*
X111182842Y-122620000D01*
X111050000Y-122620000D01*
X111050000Y-122590163D01*
X111027164Y-122535032D01*
X110984968Y-122492836D01*
X110929837Y-122470000D01*
X110870163Y-122470000D01*
X110815032Y-122492836D01*
X110772836Y-122535032D01*
X110750000Y-122590163D01*
X110587321Y-122590163D01*
X110357242Y-122360084D01*
X110340891Y-122388405D01*
X110340888Y-122388412D01*
X110300000Y-122541009D01*
X108765684Y-122541009D01*
X108759577Y-122518216D01*
X108744924Y-122492836D01*
X108680524Y-122381290D01*
X108680518Y-122381282D01*
X108568717Y-122269481D01*
X108568712Y-122269477D01*
X108499566Y-122229556D01*
X108499537Y-122229540D01*
X108431784Y-122190423D01*
X108426904Y-122189115D01*
X108415645Y-122182849D01*
X108395954Y-122162837D01*
X108374093Y-122145222D01*
X108371778Y-122138269D01*
X108366640Y-122133047D01*
X108360893Y-122105566D01*
X108352027Y-122078928D01*
X108353838Y-122071828D01*
X108352339Y-122064656D01*
X108352615Y-122063933D01*
X110638906Y-122063933D01*
X110638906Y-122076064D01*
X110899999Y-122337157D01*
X111161092Y-122076063D01*
X111161092Y-122063933D01*
X111738906Y-122063933D01*
X111738906Y-122076064D01*
X111999999Y-122337157D01*
X112261092Y-122076063D01*
X112261092Y-122063933D01*
X112838906Y-122063933D01*
X112838906Y-122076064D01*
X113099999Y-122337157D01*
X113216212Y-122220943D01*
X116899500Y-122220943D01*
X116899500Y-122379057D01*
X116940085Y-122530520D01*
X116940423Y-122531783D01*
X116940426Y-122531790D01*
X117019475Y-122668709D01*
X117019479Y-122668714D01*
X117019480Y-122668716D01*
X117131284Y-122780520D01*
X117131286Y-122780521D01*
X117131290Y-122780524D01*
X117261189Y-122855520D01*
X117268216Y-122859577D01*
X117420943Y-122900500D01*
X117420945Y-122900500D01*
X117579055Y-122900500D01*
X117579057Y-122900500D01*
X117731784Y-122859577D01*
X117868716Y-122780520D01*
X117980520Y-122668716D01*
X118059577Y-122531784D01*
X118100500Y-122379057D01*
X118100500Y-122220943D01*
X118059577Y-122068216D01*
X118025722Y-122009577D01*
X117980524Y-121931290D01*
X117980518Y-121931282D01*
X117868717Y-121819481D01*
X117868709Y-121819475D01*
X117731790Y-121740426D01*
X117731786Y-121740424D01*
X117731784Y-121740423D01*
X117579057Y-121699500D01*
X117420943Y-121699500D01*
X117268216Y-121740423D01*
X117268209Y-121740426D01*
X117131290Y-121819475D01*
X117131282Y-121819481D01*
X117019481Y-121931282D01*
X117019475Y-121931290D01*
X116940426Y-122068209D01*
X116940423Y-122068216D01*
X116899500Y-122220943D01*
X113216212Y-122220943D01*
X113292382Y-122144773D01*
X113331891Y-122034732D01*
X113100001Y-121802842D01*
X112838906Y-122063933D01*
X112261092Y-122063933D01*
X112000001Y-121802842D01*
X111738906Y-122063933D01*
X111161092Y-122063933D01*
X110900001Y-121802842D01*
X110638906Y-122063933D01*
X108352615Y-122063933D01*
X108362362Y-122038430D01*
X108369305Y-122011229D01*
X108374667Y-122006235D01*
X108377284Y-121999391D01*
X108399893Y-121982748D01*
X108420441Y-121963617D01*
X108428457Y-121961722D01*
X108433553Y-121957972D01*
X108448281Y-121957037D01*
X108475948Y-121950500D01*
X108629055Y-121950500D01*
X108629057Y-121950500D01*
X108781784Y-121909577D01*
X108918716Y-121830520D01*
X109030520Y-121718716D01*
X109109577Y-121581784D01*
X109147297Y-121441009D01*
X110300000Y-121441009D01*
X110300000Y-121598990D01*
X110340890Y-121751593D01*
X110340890Y-121751594D01*
X110357241Y-121779915D01*
X110357242Y-121779915D01*
X110617158Y-121520000D01*
X110587321Y-121490163D01*
X110750000Y-121490163D01*
X110750000Y-121549837D01*
X110772836Y-121604968D01*
X110815032Y-121647164D01*
X110870163Y-121670000D01*
X110929837Y-121670000D01*
X110984968Y-121647164D01*
X111027164Y-121604968D01*
X111050000Y-121549837D01*
X111050000Y-121520000D01*
X111182842Y-121520000D01*
X111182842Y-121520001D01*
X111443933Y-121781092D01*
X111456063Y-121781092D01*
X111717157Y-121519999D01*
X111687321Y-121490163D01*
X111850000Y-121490163D01*
X111850000Y-121549837D01*
X111872836Y-121604968D01*
X111915032Y-121647164D01*
X111970163Y-121670000D01*
X112029837Y-121670000D01*
X112084968Y-121647164D01*
X112127164Y-121604968D01*
X112150000Y-121549837D01*
X112150000Y-121520000D01*
X112282842Y-121520000D01*
X112282842Y-121520001D01*
X112543933Y-121781092D01*
X112556063Y-121781092D01*
X112817157Y-121519999D01*
X112787321Y-121490163D01*
X112950000Y-121490163D01*
X112950000Y-121549837D01*
X112972836Y-121604968D01*
X113015032Y-121647164D01*
X113070163Y-121670000D01*
X113129837Y-121670000D01*
X113184968Y-121647164D01*
X113227164Y-121604968D01*
X113250000Y-121549837D01*
X113250000Y-121519999D01*
X113382842Y-121519999D01*
X113382842Y-121520000D01*
X113642756Y-121779914D01*
X113659110Y-121751591D01*
X113699999Y-121598990D01*
X113700000Y-121598989D01*
X113700000Y-121441011D01*
X113699999Y-121441009D01*
X113694622Y-121420943D01*
X119699500Y-121420943D01*
X119699500Y-121579057D01*
X119736922Y-121718716D01*
X119740423Y-121731783D01*
X119740426Y-121731790D01*
X119819475Y-121868709D01*
X119819479Y-121868714D01*
X119819480Y-121868716D01*
X119931284Y-121980520D01*
X119931286Y-121980521D01*
X119931290Y-121980524D01*
X120031588Y-122038430D01*
X120068216Y-122059577D01*
X120220943Y-122100500D01*
X120220945Y-122100500D01*
X120379055Y-122100500D01*
X120379057Y-122100500D01*
X120531784Y-122059577D01*
X120668716Y-121980520D01*
X120780520Y-121868716D01*
X120859577Y-121731784D01*
X120900500Y-121579057D01*
X120900500Y-121420943D01*
X120887103Y-121370943D01*
X132999500Y-121370943D01*
X132999500Y-121529057D01*
X133040289Y-121681282D01*
X133040423Y-121681783D01*
X133040426Y-121681790D01*
X133119475Y-121818709D01*
X133119479Y-121818714D01*
X133119480Y-121818716D01*
X133231284Y-121930520D01*
X133231286Y-121930521D01*
X133231290Y-121930524D01*
X133317887Y-121980520D01*
X133368216Y-122009577D01*
X133520943Y-122050500D01*
X133520945Y-122050500D01*
X133679055Y-122050500D01*
X133679057Y-122050500D01*
X133831784Y-122009577D01*
X133968716Y-121930520D01*
X134080520Y-121818716D01*
X134159577Y-121681784D01*
X134200500Y-121529057D01*
X134200500Y-121370943D01*
X134159577Y-121218216D01*
X134102872Y-121119999D01*
X136544108Y-121119999D01*
X136544109Y-121120000D01*
X137095735Y-121120000D01*
X137079940Y-121135795D01*
X137040444Y-121204204D01*
X137020000Y-121280504D01*
X137020000Y-121359496D01*
X137040444Y-121435796D01*
X137079940Y-121504205D01*
X137095735Y-121520000D01*
X136544109Y-121520000D01*
X136550741Y-121553343D01*
X136550743Y-121553351D01*
X136611047Y-121698939D01*
X136611052Y-121698948D01*
X136698598Y-121829969D01*
X136698601Y-121829973D01*
X136810026Y-121941398D01*
X136810030Y-121941401D01*
X136941051Y-122028947D01*
X136941060Y-122028952D01*
X137086648Y-122089256D01*
X137086656Y-122089258D01*
X137241202Y-122119999D01*
X137241206Y-122120000D01*
X137670000Y-122120000D01*
X137670000Y-121620000D01*
X138070000Y-121620000D01*
X138070000Y-122120000D01*
X138498794Y-122120000D01*
X138498797Y-122119999D01*
X138653343Y-122089258D01*
X138653351Y-122089256D01*
X138798939Y-122028952D01*
X138798948Y-122028947D01*
X138929969Y-121941401D01*
X138929973Y-121941398D01*
X139041398Y-121829973D01*
X139041401Y-121829969D01*
X139128947Y-121698948D01*
X139128952Y-121698939D01*
X139189256Y-121553351D01*
X139189258Y-121553343D01*
X139195891Y-121520000D01*
X138644265Y-121520000D01*
X138660060Y-121504205D01*
X138699556Y-121435796D01*
X138720000Y-121359496D01*
X138720000Y-121280504D01*
X138699556Y-121204204D01*
X138660060Y-121135795D01*
X138644265Y-121120000D01*
X139195891Y-121120000D01*
X139195891Y-121119999D01*
X140974108Y-121119999D01*
X140974109Y-121120000D01*
X141525735Y-121120000D01*
X141509940Y-121135795D01*
X141470444Y-121204204D01*
X141450000Y-121280504D01*
X141450000Y-121359496D01*
X141470444Y-121435796D01*
X141509940Y-121504205D01*
X141525735Y-121520000D01*
X140974109Y-121520000D01*
X140980741Y-121553343D01*
X140980743Y-121553351D01*
X141041047Y-121698939D01*
X141041052Y-121698948D01*
X141128598Y-121829969D01*
X141128601Y-121829973D01*
X141240026Y-121941398D01*
X141240030Y-121941401D01*
X141371051Y-122028947D01*
X141371060Y-122028952D01*
X141516648Y-122089256D01*
X141516656Y-122089258D01*
X141671202Y-122119999D01*
X141671206Y-122120000D01*
X141850000Y-122120000D01*
X141850000Y-121620000D01*
X142250000Y-121620000D01*
X142250000Y-122120000D01*
X142428794Y-122120000D01*
X142428797Y-122119999D01*
X142583343Y-122089258D01*
X142583351Y-122089256D01*
X142728939Y-122028952D01*
X142728948Y-122028947D01*
X142859969Y-121941401D01*
X142859973Y-121941398D01*
X142971398Y-121829973D01*
X142971401Y-121829969D01*
X143058947Y-121698948D01*
X143058952Y-121698939D01*
X143119256Y-121553351D01*
X143119258Y-121553343D01*
X143125891Y-121520000D01*
X142574265Y-121520000D01*
X142590060Y-121504205D01*
X142629556Y-121435796D01*
X142650000Y-121359496D01*
X142650000Y-121280504D01*
X142629556Y-121204204D01*
X142590060Y-121135795D01*
X142574265Y-121120000D01*
X143125891Y-121120000D01*
X143125891Y-121119999D01*
X143119258Y-121086656D01*
X143119256Y-121086648D01*
X143058952Y-120941060D01*
X143058947Y-120941051D01*
X142971401Y-120810030D01*
X142971398Y-120810026D01*
X142859973Y-120698601D01*
X142859969Y-120698598D01*
X142728948Y-120611052D01*
X142728939Y-120611047D01*
X142583351Y-120550743D01*
X142583343Y-120550741D01*
X142428797Y-120520000D01*
X142250000Y-120520000D01*
X142250000Y-121020000D01*
X141850000Y-121020000D01*
X141850000Y-120520000D01*
X141671202Y-120520000D01*
X141516656Y-120550741D01*
X141516648Y-120550743D01*
X141371060Y-120611047D01*
X141371051Y-120611052D01*
X141240030Y-120698598D01*
X141240026Y-120698601D01*
X141128601Y-120810026D01*
X141128598Y-120810030D01*
X141041052Y-120941051D01*
X141041047Y-120941060D01*
X140980743Y-121086648D01*
X140980741Y-121086656D01*
X140974108Y-121119999D01*
X139195891Y-121119999D01*
X139189258Y-121086656D01*
X139189256Y-121086648D01*
X139128952Y-120941060D01*
X139128947Y-120941051D01*
X139041401Y-120810030D01*
X139041398Y-120810026D01*
X138929973Y-120698601D01*
X138929969Y-120698598D01*
X138798948Y-120611052D01*
X138798938Y-120611047D01*
X138741960Y-120587446D01*
X138687557Y-120543605D01*
X138665492Y-120477311D01*
X138682771Y-120409611D01*
X138727411Y-120365499D01*
X138753365Y-120350515D01*
X138860515Y-120243365D01*
X138936281Y-120112135D01*
X138975500Y-119965766D01*
X138975500Y-119814234D01*
X138936281Y-119667865D01*
X138860515Y-119536635D01*
X138753365Y-119429485D01*
X138669879Y-119381284D01*
X138622136Y-119353719D01*
X138519502Y-119326219D01*
X138475766Y-119314500D01*
X138324234Y-119314500D01*
X138177863Y-119353719D01*
X138046635Y-119429485D01*
X138046632Y-119429487D01*
X137939487Y-119536632D01*
X137939485Y-119536635D01*
X137863719Y-119667863D01*
X137824500Y-119814234D01*
X137824500Y-119965766D01*
X137838893Y-120019481D01*
X137863719Y-120112136D01*
X137901602Y-120177750D01*
X137939485Y-120243365D01*
X137939487Y-120243367D01*
X138052382Y-120356262D01*
X138050709Y-120357934D01*
X138084781Y-120404597D01*
X138088936Y-120474343D01*
X138070000Y-120508536D01*
X138070000Y-121020000D01*
X137670000Y-121020000D01*
X137670000Y-120520000D01*
X137241202Y-120520000D01*
X137086656Y-120550741D01*
X137086648Y-120550743D01*
X136941060Y-120611047D01*
X136941051Y-120611052D01*
X136810030Y-120698598D01*
X136810026Y-120698601D01*
X136698601Y-120810026D01*
X136698598Y-120810030D01*
X136611052Y-120941051D01*
X136611047Y-120941060D01*
X136550743Y-121086648D01*
X136550741Y-121086656D01*
X136544108Y-121119999D01*
X134102872Y-121119999D01*
X134080520Y-121081284D01*
X133968716Y-120969480D01*
X133968714Y-120969479D01*
X133968709Y-120969475D01*
X133831790Y-120890426D01*
X133831786Y-120890424D01*
X133831784Y-120890423D01*
X133679057Y-120849500D01*
X133520943Y-120849500D01*
X133368216Y-120890423D01*
X133368209Y-120890426D01*
X133231290Y-120969475D01*
X133231282Y-120969481D01*
X133119481Y-121081282D01*
X133119475Y-121081290D01*
X133040426Y-121218209D01*
X133040423Y-121218216D01*
X132999500Y-121370943D01*
X120887103Y-121370943D01*
X120859577Y-121268216D01*
X120854882Y-121260084D01*
X120780524Y-121131290D01*
X120780518Y-121131282D01*
X120668717Y-121019481D01*
X120668709Y-121019475D01*
X120531790Y-120940426D01*
X120531786Y-120940424D01*
X120531784Y-120940423D01*
X120379057Y-120899500D01*
X120220943Y-120899500D01*
X120068216Y-120940423D01*
X120068209Y-120940426D01*
X119931290Y-121019475D01*
X119931282Y-121019481D01*
X119819481Y-121131282D01*
X119819475Y-121131290D01*
X119740426Y-121268209D01*
X119740424Y-121268214D01*
X119740423Y-121268216D01*
X119699500Y-121420943D01*
X113694622Y-121420943D01*
X113659109Y-121288405D01*
X113642757Y-121260084D01*
X113642757Y-121260083D01*
X113382842Y-121519999D01*
X113250000Y-121519999D01*
X113250000Y-121490163D01*
X113227164Y-121435032D01*
X113184968Y-121392836D01*
X113129837Y-121370000D01*
X113070163Y-121370000D01*
X113015032Y-121392836D01*
X112972836Y-121435032D01*
X112950000Y-121490163D01*
X112787321Y-121490163D01*
X112556064Y-121258906D01*
X112543933Y-121258906D01*
X112282842Y-121520000D01*
X112150000Y-121520000D01*
X112150000Y-121490163D01*
X112127164Y-121435032D01*
X112084968Y-121392836D01*
X112029837Y-121370000D01*
X111970163Y-121370000D01*
X111915032Y-121392836D01*
X111872836Y-121435032D01*
X111850000Y-121490163D01*
X111687321Y-121490163D01*
X111456064Y-121258906D01*
X111443933Y-121258906D01*
X111182842Y-121520000D01*
X111050000Y-121520000D01*
X111050000Y-121490163D01*
X111027164Y-121435032D01*
X110984968Y-121392836D01*
X110929837Y-121370000D01*
X110870163Y-121370000D01*
X110815032Y-121392836D01*
X110772836Y-121435032D01*
X110750000Y-121490163D01*
X110587321Y-121490163D01*
X110357242Y-121260084D01*
X110340891Y-121288405D01*
X110340888Y-121288412D01*
X110300000Y-121441009D01*
X109147297Y-121441009D01*
X109150500Y-121429057D01*
X109150500Y-121270943D01*
X109109577Y-121118216D01*
X109088255Y-121081285D01*
X109030522Y-120981287D01*
X109030518Y-120981282D01*
X109026478Y-120977242D01*
X110640084Y-120977242D01*
X110900000Y-121237158D01*
X110900001Y-121237158D01*
X111159915Y-120977242D01*
X111740084Y-120977242D01*
X112000000Y-121237158D01*
X112000001Y-121237158D01*
X112259915Y-120977242D01*
X112840084Y-120977242D01*
X113100000Y-121237158D01*
X113100001Y-121237158D01*
X113359915Y-120977242D01*
X113359915Y-120977241D01*
X113331593Y-120960890D01*
X113178990Y-120920000D01*
X113021009Y-120920000D01*
X112868412Y-120960888D01*
X112868405Y-120960891D01*
X112840084Y-120977242D01*
X112259915Y-120977242D01*
X112259915Y-120977241D01*
X112231593Y-120960890D01*
X112078990Y-120920000D01*
X111921009Y-120920000D01*
X111768412Y-120960888D01*
X111768405Y-120960891D01*
X111740084Y-120977242D01*
X111159915Y-120977242D01*
X111159915Y-120977241D01*
X111131593Y-120960890D01*
X110978990Y-120920000D01*
X110821009Y-120920000D01*
X110668412Y-120960888D01*
X110668405Y-120960891D01*
X110640084Y-120977242D01*
X109026478Y-120977242D01*
X108918717Y-120869481D01*
X108918709Y-120869475D01*
X108781790Y-120790426D01*
X108781786Y-120790424D01*
X108781784Y-120790423D01*
X108629057Y-120749500D01*
X108470943Y-120749500D01*
X108318216Y-120790423D01*
X108318209Y-120790426D01*
X108181290Y-120869475D01*
X108181282Y-120869481D01*
X108069481Y-120981282D01*
X108069475Y-120981290D01*
X107990426Y-121118209D01*
X107990423Y-121118216D01*
X107949500Y-121270943D01*
X107949500Y-121333570D01*
X107929815Y-121400609D01*
X107877011Y-121446364D01*
X107807853Y-121456308D01*
X107793409Y-121453345D01*
X107779061Y-121449500D01*
X107779057Y-121449500D01*
X107620943Y-121449500D01*
X107468216Y-121490423D01*
X107468209Y-121490426D01*
X107331290Y-121569475D01*
X107331282Y-121569481D01*
X107219481Y-121681282D01*
X107219475Y-121681290D01*
X107140426Y-121818209D01*
X107140423Y-121818216D01*
X107099500Y-121970943D01*
X107099500Y-122129057D01*
X107137127Y-122269481D01*
X107140423Y-122281783D01*
X107140426Y-122281790D01*
X107219475Y-122418709D01*
X107219479Y-122418714D01*
X107219480Y-122418716D01*
X107331284Y-122530520D01*
X107331285Y-122530521D01*
X107331287Y-122530522D01*
X107396397Y-122568113D01*
X107444612Y-122618679D01*
X107457836Y-122687286D01*
X107431868Y-122752151D01*
X107374954Y-122792680D01*
X107334397Y-122799500D01*
X107320943Y-122799500D01*
X107168216Y-122840423D01*
X107168209Y-122840426D01*
X107031290Y-122919475D01*
X107031282Y-122919481D01*
X106919481Y-123031282D01*
X106919475Y-123031290D01*
X106840426Y-123168209D01*
X106840423Y-123168216D01*
X106799500Y-123320943D01*
X100527130Y-123320943D01*
X100572989Y-123281206D01*
X100624500Y-123270000D01*
X105600000Y-123270000D01*
X105600000Y-120420943D01*
X106249500Y-120420943D01*
X106249500Y-120579056D01*
X106290423Y-120731783D01*
X106290426Y-120731790D01*
X106369475Y-120868709D01*
X106369479Y-120868714D01*
X106369480Y-120868716D01*
X106481284Y-120980520D01*
X106481286Y-120980521D01*
X106481290Y-120980524D01*
X106585076Y-121040444D01*
X106618216Y-121059577D01*
X106770943Y-121100500D01*
X106770945Y-121100500D01*
X106929055Y-121100500D01*
X106929057Y-121100500D01*
X107081784Y-121059577D01*
X107218716Y-120980520D01*
X107330520Y-120868716D01*
X107409577Y-120731784D01*
X107450500Y-120579057D01*
X107450500Y-120420943D01*
X107409577Y-120268216D01*
X107395231Y-120243367D01*
X107330524Y-120131290D01*
X107330518Y-120131282D01*
X107218717Y-120019481D01*
X107218709Y-120019475D01*
X107134648Y-119970943D01*
X124549500Y-119970943D01*
X124549500Y-120129057D01*
X124586922Y-120268716D01*
X124590423Y-120281783D01*
X124590426Y-120281790D01*
X124669475Y-120418709D01*
X124669479Y-120418714D01*
X124669480Y-120418716D01*
X124781284Y-120530520D01*
X124781286Y-120530521D01*
X124781290Y-120530524D01*
X124918209Y-120609573D01*
X124918216Y-120609577D01*
X125070943Y-120650500D01*
X125070945Y-120650500D01*
X125229055Y-120650500D01*
X125229057Y-120650500D01*
X125381784Y-120609577D01*
X125518716Y-120530520D01*
X125630520Y-120418716D01*
X125709577Y-120281784D01*
X125750500Y-120129057D01*
X125750500Y-119970943D01*
X125709577Y-119818216D01*
X125630520Y-119681284D01*
X125620179Y-119670943D01*
X126949500Y-119670943D01*
X126949500Y-119829057D01*
X126989693Y-119979057D01*
X126990423Y-119981783D01*
X126990426Y-119981790D01*
X127069475Y-120118709D01*
X127069479Y-120118714D01*
X127069480Y-120118716D01*
X127181284Y-120230520D01*
X127181286Y-120230521D01*
X127181290Y-120230524D01*
X127270087Y-120281790D01*
X127318216Y-120309577D01*
X127470943Y-120350500D01*
X127470945Y-120350500D01*
X127629055Y-120350500D01*
X127629057Y-120350500D01*
X127781784Y-120309577D01*
X127918716Y-120230520D01*
X128030520Y-120118716D01*
X128109577Y-119981784D01*
X128150500Y-119829057D01*
X128150500Y-119670943D01*
X128109577Y-119518216D01*
X128052573Y-119419481D01*
X128030524Y-119381290D01*
X128030518Y-119381282D01*
X127918717Y-119269481D01*
X127918709Y-119269475D01*
X127781790Y-119190426D01*
X127781786Y-119190424D01*
X127781784Y-119190423D01*
X127629057Y-119149500D01*
X127470943Y-119149500D01*
X127318216Y-119190423D01*
X127318209Y-119190426D01*
X127181290Y-119269475D01*
X127181282Y-119269481D01*
X127069481Y-119381282D01*
X127069475Y-119381290D01*
X126990426Y-119518209D01*
X126990423Y-119518216D01*
X126949500Y-119670943D01*
X125620179Y-119670943D01*
X125518716Y-119569480D01*
X125518714Y-119569479D01*
X125518709Y-119569475D01*
X125381790Y-119490426D01*
X125381786Y-119490424D01*
X125381784Y-119490423D01*
X125229057Y-119449500D01*
X125070943Y-119449500D01*
X124918216Y-119490423D01*
X124918209Y-119490426D01*
X124781290Y-119569475D01*
X124781282Y-119569481D01*
X124669481Y-119681282D01*
X124669475Y-119681290D01*
X124590426Y-119818209D01*
X124590423Y-119818216D01*
X124549500Y-119970943D01*
X107134648Y-119970943D01*
X107081790Y-119940426D01*
X107081786Y-119940424D01*
X107081784Y-119940423D01*
X106929057Y-119899500D01*
X106770943Y-119899500D01*
X106618216Y-119940423D01*
X106618209Y-119940426D01*
X106481290Y-120019475D01*
X106481282Y-120019481D01*
X106369481Y-120131282D01*
X106369475Y-120131290D01*
X106290426Y-120268209D01*
X106290423Y-120268216D01*
X106249500Y-120420943D01*
X105600000Y-120420943D01*
X105600000Y-119240943D01*
X108199500Y-119240943D01*
X108199500Y-119399057D01*
X108231429Y-119518216D01*
X108240423Y-119551783D01*
X108240426Y-119551790D01*
X108319475Y-119688709D01*
X108319479Y-119688714D01*
X108319480Y-119688716D01*
X108431284Y-119800520D01*
X108431286Y-119800521D01*
X108431290Y-119800524D01*
X108568209Y-119879573D01*
X108568216Y-119879577D01*
X108720943Y-119920500D01*
X108720945Y-119920500D01*
X108879055Y-119920500D01*
X108879057Y-119920500D01*
X109031784Y-119879577D01*
X109168716Y-119800520D01*
X109280520Y-119688716D01*
X109359577Y-119551784D01*
X109400500Y-119399057D01*
X109400500Y-119240943D01*
X112199500Y-119240943D01*
X112199500Y-119399057D01*
X112231429Y-119518216D01*
X112240423Y-119551783D01*
X112240426Y-119551790D01*
X112319475Y-119688709D01*
X112319479Y-119688714D01*
X112319480Y-119688716D01*
X112431284Y-119800520D01*
X112431286Y-119800521D01*
X112431290Y-119800524D01*
X112568209Y-119879573D01*
X112568216Y-119879577D01*
X112720943Y-119920500D01*
X112720945Y-119920500D01*
X112879055Y-119920500D01*
X112879057Y-119920500D01*
X113031784Y-119879577D01*
X113168716Y-119800520D01*
X113280520Y-119688716D01*
X113359577Y-119551784D01*
X113400500Y-119399057D01*
X113400500Y-119240943D01*
X113395141Y-119220943D01*
X123249500Y-119220943D01*
X123249500Y-119379057D01*
X123290289Y-119531282D01*
X123290423Y-119531783D01*
X123290426Y-119531790D01*
X123369475Y-119668709D01*
X123369479Y-119668714D01*
X123369480Y-119668716D01*
X123481284Y-119780520D01*
X123481286Y-119780521D01*
X123481290Y-119780524D01*
X123565353Y-119829057D01*
X123618216Y-119859577D01*
X123770943Y-119900500D01*
X123770945Y-119900500D01*
X123929055Y-119900500D01*
X123929057Y-119900500D01*
X124081784Y-119859577D01*
X124088970Y-119855427D01*
X124088973Y-119855427D01*
X124218709Y-119780524D01*
X124218708Y-119780524D01*
X124218716Y-119780520D01*
X124330520Y-119668716D01*
X124409577Y-119531784D01*
X124450500Y-119379057D01*
X124450500Y-119220943D01*
X124409577Y-119068216D01*
X124399349Y-119050500D01*
X124330524Y-118931290D01*
X124330518Y-118931282D01*
X124218717Y-118819481D01*
X124218709Y-118819475D01*
X124081790Y-118740426D01*
X124081786Y-118740424D01*
X124081784Y-118740423D01*
X123929057Y-118699500D01*
X123770943Y-118699500D01*
X123618216Y-118740423D01*
X123618209Y-118740426D01*
X123481290Y-118819475D01*
X123481282Y-118819481D01*
X123369481Y-118931282D01*
X123369475Y-118931290D01*
X123290426Y-119068209D01*
X123290423Y-119068216D01*
X123249500Y-119220943D01*
X113395141Y-119220943D01*
X113359577Y-119088216D01*
X113348026Y-119068209D01*
X113280524Y-118951290D01*
X113280518Y-118951282D01*
X113168717Y-118839481D01*
X113168709Y-118839475D01*
X113031790Y-118760426D01*
X113031786Y-118760424D01*
X113031784Y-118760423D01*
X112879057Y-118719500D01*
X112720943Y-118719500D01*
X112568216Y-118760423D01*
X112568209Y-118760426D01*
X112431290Y-118839475D01*
X112431282Y-118839481D01*
X112319481Y-118951282D01*
X112319475Y-118951290D01*
X112240426Y-119088209D01*
X112240423Y-119088216D01*
X112199500Y-119240943D01*
X109400500Y-119240943D01*
X109359577Y-119088216D01*
X109348026Y-119068209D01*
X109280524Y-118951290D01*
X109280518Y-118951282D01*
X109168717Y-118839481D01*
X109168709Y-118839475D01*
X109031790Y-118760426D01*
X109031786Y-118760424D01*
X109031784Y-118760423D01*
X108879057Y-118719500D01*
X108720943Y-118719500D01*
X108568216Y-118760423D01*
X108568209Y-118760426D01*
X108431290Y-118839475D01*
X108431282Y-118839481D01*
X108319481Y-118951282D01*
X108319475Y-118951290D01*
X108240426Y-119088209D01*
X108240423Y-119088216D01*
X108199500Y-119240943D01*
X105600000Y-119240943D01*
X105600000Y-118420943D01*
X109799500Y-118420943D01*
X109799500Y-118579057D01*
X109827026Y-118681783D01*
X109840423Y-118731783D01*
X109840426Y-118731790D01*
X109919475Y-118868709D01*
X109919479Y-118868714D01*
X109919480Y-118868716D01*
X110031284Y-118980520D01*
X110031286Y-118980521D01*
X110031290Y-118980524D01*
X110152494Y-119050500D01*
X110168216Y-119059577D01*
X110320943Y-119100500D01*
X110320945Y-119100500D01*
X110479055Y-119100500D01*
X110479057Y-119100500D01*
X110631784Y-119059577D01*
X110768716Y-118980520D01*
X110880520Y-118868716D01*
X110959577Y-118731784D01*
X111000500Y-118579057D01*
X111000500Y-118420943D01*
X110987103Y-118370943D01*
X133399500Y-118370943D01*
X133399500Y-118529057D01*
X133424122Y-118620945D01*
X133440423Y-118681783D01*
X133440426Y-118681790D01*
X133519475Y-118818709D01*
X133519479Y-118818714D01*
X133519480Y-118818716D01*
X133631284Y-118930520D01*
X133631286Y-118930521D01*
X133631290Y-118930524D01*
X133717887Y-118980520D01*
X133768216Y-119009577D01*
X133795448Y-119016873D01*
X133855108Y-119053237D01*
X133885638Y-119116084D01*
X133877344Y-119185459D01*
X133832859Y-119239338D01*
X133825355Y-119244035D01*
X133781287Y-119269477D01*
X133781282Y-119269481D01*
X133669481Y-119381282D01*
X133669475Y-119381290D01*
X133590426Y-119518209D01*
X133590423Y-119518216D01*
X133549500Y-119670943D01*
X133549500Y-119829057D01*
X133589693Y-119979057D01*
X133590423Y-119981783D01*
X133590426Y-119981790D01*
X133669475Y-120118709D01*
X133669479Y-120118714D01*
X133669480Y-120118716D01*
X133781284Y-120230520D01*
X133781286Y-120230521D01*
X133781290Y-120230524D01*
X133870087Y-120281790D01*
X133918216Y-120309577D01*
X134070943Y-120350500D01*
X134070945Y-120350500D01*
X134229055Y-120350500D01*
X134229057Y-120350500D01*
X134381784Y-120309577D01*
X134518716Y-120230520D01*
X134630520Y-120118716D01*
X134709577Y-119981784D01*
X134750500Y-119829057D01*
X134750500Y-119670943D01*
X134709577Y-119518216D01*
X134652573Y-119419481D01*
X134630524Y-119381290D01*
X134630518Y-119381282D01*
X134518717Y-119269481D01*
X134518709Y-119269475D01*
X134381790Y-119190426D01*
X134381785Y-119190423D01*
X134363258Y-119185459D01*
X134354549Y-119183125D01*
X134294889Y-119146760D01*
X134264361Y-119083913D01*
X134272656Y-119014538D01*
X134317142Y-118960660D01*
X134324633Y-118955970D01*
X134368716Y-118930520D01*
X134480520Y-118818716D01*
X134559577Y-118681784D01*
X134575879Y-118620943D01*
X135099500Y-118620943D01*
X135099500Y-118779057D01*
X135140289Y-118931282D01*
X135140423Y-118931783D01*
X135140426Y-118931790D01*
X135219475Y-119068709D01*
X135219479Y-119068714D01*
X135219480Y-119068716D01*
X135331284Y-119180520D01*
X135377229Y-119207046D01*
X135425444Y-119257612D01*
X135438668Y-119326219D01*
X135412700Y-119391084D01*
X135386901Y-119413443D01*
X135387735Y-119414530D01*
X135381282Y-119419481D01*
X135269481Y-119531282D01*
X135269475Y-119531290D01*
X135190426Y-119668209D01*
X135190423Y-119668216D01*
X135149500Y-119820943D01*
X135149500Y-119979057D01*
X135190289Y-120131282D01*
X135190423Y-120131783D01*
X135190426Y-120131790D01*
X135269475Y-120268709D01*
X135269479Y-120268714D01*
X135269480Y-120268716D01*
X135381284Y-120380520D01*
X135381286Y-120380521D01*
X135381290Y-120380524D01*
X135460545Y-120426281D01*
X135518216Y-120459577D01*
X135670943Y-120500500D01*
X135670945Y-120500500D01*
X135829055Y-120500500D01*
X135829057Y-120500500D01*
X135981784Y-120459577D01*
X136118716Y-120380520D01*
X136230520Y-120268716D01*
X136309577Y-120131784D01*
X136350500Y-119979057D01*
X136350500Y-119820943D01*
X136309577Y-119668216D01*
X136252573Y-119569481D01*
X136230524Y-119531290D01*
X136230518Y-119531282D01*
X136118717Y-119419481D01*
X136118712Y-119419477D01*
X136072770Y-119392953D01*
X136024555Y-119342387D01*
X136011331Y-119273780D01*
X136037299Y-119208915D01*
X136063102Y-119186560D01*
X136062265Y-119185470D01*
X136068709Y-119180523D01*
X136068716Y-119180520D01*
X136180520Y-119068716D01*
X136259577Y-118931784D01*
X136300500Y-118779057D01*
X136300500Y-118620943D01*
X136259577Y-118468216D01*
X136259573Y-118468209D01*
X136180524Y-118331290D01*
X136180518Y-118331282D01*
X136068717Y-118219481D01*
X136068709Y-118219475D01*
X135931790Y-118140426D01*
X135931786Y-118140424D01*
X135931784Y-118140423D01*
X135779057Y-118099500D01*
X135620943Y-118099500D01*
X135468216Y-118140423D01*
X135468209Y-118140426D01*
X135331290Y-118219475D01*
X135331282Y-118219481D01*
X135219481Y-118331282D01*
X135219475Y-118331290D01*
X135140426Y-118468209D01*
X135140423Y-118468216D01*
X135099500Y-118620943D01*
X134575879Y-118620943D01*
X134600500Y-118529057D01*
X134600500Y-118370943D01*
X134559577Y-118218216D01*
X134525722Y-118159577D01*
X134480524Y-118081290D01*
X134480518Y-118081282D01*
X134368717Y-117969481D01*
X134368709Y-117969475D01*
X134231790Y-117890426D01*
X134231786Y-117890424D01*
X134231784Y-117890423D01*
X134079057Y-117849500D01*
X133920943Y-117849500D01*
X133768216Y-117890423D01*
X133768209Y-117890426D01*
X133631290Y-117969475D01*
X133631282Y-117969481D01*
X133519481Y-118081282D01*
X133519475Y-118081290D01*
X133440426Y-118218209D01*
X133440423Y-118218216D01*
X133399500Y-118370943D01*
X110987103Y-118370943D01*
X110959577Y-118268216D01*
X110959573Y-118268209D01*
X110880524Y-118131290D01*
X110880518Y-118131282D01*
X110768717Y-118019481D01*
X110768709Y-118019475D01*
X110631790Y-117940426D01*
X110631786Y-117940424D01*
X110631784Y-117940423D01*
X110479057Y-117899500D01*
X110320943Y-117899500D01*
X110168216Y-117940423D01*
X110168209Y-117940426D01*
X110031290Y-118019475D01*
X110031282Y-118019481D01*
X109919481Y-118131282D01*
X109919475Y-118131290D01*
X109840426Y-118268209D01*
X109840423Y-118268216D01*
X109799500Y-118420943D01*
X105600000Y-118420943D01*
X105600000Y-117670943D01*
X113999500Y-117670943D01*
X113999500Y-117829057D01*
X114037127Y-117969481D01*
X114040423Y-117981783D01*
X114040426Y-117981790D01*
X114119475Y-118118709D01*
X114119479Y-118118714D01*
X114119480Y-118118716D01*
X114231284Y-118230520D01*
X114231286Y-118230521D01*
X114231290Y-118230524D01*
X114368209Y-118309573D01*
X114368216Y-118309577D01*
X114520943Y-118350500D01*
X114520945Y-118350500D01*
X114679055Y-118350500D01*
X114679057Y-118350500D01*
X114831784Y-118309577D01*
X114968716Y-118230520D01*
X115080520Y-118118716D01*
X115159577Y-117981784D01*
X115200500Y-117829057D01*
X115200500Y-117670943D01*
X115160308Y-117520943D01*
X121249500Y-117520943D01*
X121249500Y-117679057D01*
X121289693Y-117829057D01*
X121290423Y-117831783D01*
X121290426Y-117831790D01*
X121369475Y-117968709D01*
X121369479Y-117968714D01*
X121369480Y-117968716D01*
X121481284Y-118080520D01*
X121481286Y-118080521D01*
X121481290Y-118080524D01*
X121569221Y-118131290D01*
X121618216Y-118159577D01*
X121770943Y-118200500D01*
X121770945Y-118200500D01*
X121929055Y-118200500D01*
X121929057Y-118200500D01*
X122081784Y-118159577D01*
X122218716Y-118080520D01*
X122330520Y-117968716D01*
X122409577Y-117831784D01*
X122450500Y-117679057D01*
X122450500Y-117520943D01*
X122409577Y-117368216D01*
X122352573Y-117269481D01*
X122330524Y-117231290D01*
X122330518Y-117231282D01*
X122218717Y-117119481D01*
X122218709Y-117119475D01*
X122081790Y-117040426D01*
X122081786Y-117040424D01*
X122081784Y-117040423D01*
X121929057Y-116999500D01*
X121770943Y-116999500D01*
X121618216Y-117040423D01*
X121618209Y-117040426D01*
X121481290Y-117119475D01*
X121481282Y-117119481D01*
X121369481Y-117231282D01*
X121369475Y-117231290D01*
X121290426Y-117368209D01*
X121290423Y-117368216D01*
X121249500Y-117520943D01*
X115160308Y-117520943D01*
X115159577Y-117518216D01*
X115138543Y-117481783D01*
X115080524Y-117381290D01*
X115080518Y-117381282D01*
X114968717Y-117269481D01*
X114968709Y-117269475D01*
X114831790Y-117190426D01*
X114831786Y-117190424D01*
X114831784Y-117190423D01*
X114679057Y-117149500D01*
X114520943Y-117149500D01*
X114368216Y-117190423D01*
X114368209Y-117190426D01*
X114231290Y-117269475D01*
X114231282Y-117269481D01*
X114119481Y-117381282D01*
X114119475Y-117381290D01*
X114040426Y-117518209D01*
X114040423Y-117518216D01*
X113999500Y-117670943D01*
X105600000Y-117670943D01*
X105600000Y-116420943D01*
X116899500Y-116420943D01*
X116899500Y-116579057D01*
X116940085Y-116730520D01*
X116940423Y-116731783D01*
X116940426Y-116731790D01*
X117019475Y-116868709D01*
X117019479Y-116868714D01*
X117019480Y-116868716D01*
X117131284Y-116980520D01*
X117131286Y-116980521D01*
X117131290Y-116980524D01*
X117217887Y-117030520D01*
X117268216Y-117059577D01*
X117420943Y-117100500D01*
X117420945Y-117100500D01*
X117579055Y-117100500D01*
X117579057Y-117100500D01*
X117731784Y-117059577D01*
X117868716Y-116980520D01*
X117980520Y-116868716D01*
X118059577Y-116731784D01*
X118100500Y-116579057D01*
X118100500Y-116420943D01*
X118059577Y-116268216D01*
X118038258Y-116231290D01*
X117980524Y-116131290D01*
X117980518Y-116131282D01*
X117868717Y-116019481D01*
X117868709Y-116019475D01*
X117731790Y-115940426D01*
X117731786Y-115940424D01*
X117731784Y-115940423D01*
X117579057Y-115899500D01*
X117420943Y-115899500D01*
X117268216Y-115940423D01*
X117268209Y-115940426D01*
X117131290Y-116019475D01*
X117131282Y-116019481D01*
X117019481Y-116131282D01*
X117019475Y-116131290D01*
X116940426Y-116268209D01*
X116940423Y-116268216D01*
X116899500Y-116420943D01*
X105600000Y-116420943D01*
X105600000Y-115320943D01*
X121299500Y-115320943D01*
X121299500Y-115479057D01*
X121330927Y-115596342D01*
X121340423Y-115631783D01*
X121340426Y-115631790D01*
X121419475Y-115768709D01*
X121419479Y-115768714D01*
X121419480Y-115768716D01*
X121531284Y-115880520D01*
X121531286Y-115880521D01*
X121531290Y-115880524D01*
X121664572Y-115957473D01*
X121668216Y-115959577D01*
X121820943Y-116000500D01*
X121820945Y-116000500D01*
X121979055Y-116000500D01*
X121979057Y-116000500D01*
X122131784Y-115959577D01*
X122131785Y-115959576D01*
X122139635Y-115957473D01*
X122140262Y-115959813D01*
X122197500Y-115953652D01*
X122259984Y-115984919D01*
X122295644Y-116045003D01*
X122299500Y-116075685D01*
X122299500Y-116229057D01*
X122336788Y-116368216D01*
X122340423Y-116381783D01*
X122340426Y-116381790D01*
X122419475Y-116518709D01*
X122419479Y-116518714D01*
X122419480Y-116518716D01*
X122531284Y-116630520D01*
X122531286Y-116630521D01*
X122531290Y-116630524D01*
X122617887Y-116680520D01*
X122668216Y-116709577D01*
X122820943Y-116750500D01*
X122820945Y-116750500D01*
X122979055Y-116750500D01*
X122979057Y-116750500D01*
X123131784Y-116709577D01*
X123268716Y-116630520D01*
X123380520Y-116518716D01*
X123459577Y-116381784D01*
X123500500Y-116229057D01*
X123500500Y-116120943D01*
X124999500Y-116120943D01*
X124999500Y-116279057D01*
X125027026Y-116381783D01*
X125040423Y-116431783D01*
X125040426Y-116431790D01*
X125119475Y-116568709D01*
X125119479Y-116568714D01*
X125119480Y-116568716D01*
X125231284Y-116680520D01*
X125231286Y-116680521D01*
X125231290Y-116680524D01*
X125320087Y-116731790D01*
X125368216Y-116759577D01*
X125520943Y-116800500D01*
X125520945Y-116800500D01*
X125679055Y-116800500D01*
X125679057Y-116800500D01*
X125831784Y-116759577D01*
X125968716Y-116680520D01*
X126080520Y-116568716D01*
X126108102Y-116520943D01*
X128899500Y-116520943D01*
X128899500Y-116679057D01*
X128932041Y-116800500D01*
X128940423Y-116831783D01*
X128940426Y-116831790D01*
X129019475Y-116968709D01*
X129019479Y-116968714D01*
X129019480Y-116968716D01*
X129131284Y-117080520D01*
X129131286Y-117080521D01*
X129131290Y-117080524D01*
X129198765Y-117119480D01*
X129268216Y-117159577D01*
X129420943Y-117200500D01*
X129420945Y-117200500D01*
X129579055Y-117200500D01*
X129579057Y-117200500D01*
X129731784Y-117159577D01*
X129868716Y-117080520D01*
X129980520Y-116968716D01*
X130059577Y-116831784D01*
X130100500Y-116679057D01*
X130100500Y-116520943D01*
X130087103Y-116470943D01*
X133399500Y-116470943D01*
X133399500Y-116629057D01*
X133434473Y-116759576D01*
X133440423Y-116781783D01*
X133440426Y-116781790D01*
X133519475Y-116918709D01*
X133519479Y-116918714D01*
X133519480Y-116918716D01*
X133631284Y-117030520D01*
X133631286Y-117030521D01*
X133631290Y-117030524D01*
X133717887Y-117080520D01*
X133768216Y-117109577D01*
X133920943Y-117150500D01*
X133920945Y-117150500D01*
X134079055Y-117150500D01*
X134079057Y-117150500D01*
X134231784Y-117109577D01*
X134368716Y-117030520D01*
X134480520Y-116918716D01*
X134559577Y-116781784D01*
X134600500Y-116629057D01*
X134600500Y-116470943D01*
X134559577Y-116318216D01*
X134480520Y-116181284D01*
X134470179Y-116170943D01*
X137999500Y-116170943D01*
X137999500Y-116329057D01*
X138032126Y-116450817D01*
X138040423Y-116481783D01*
X138040426Y-116481790D01*
X138119475Y-116618709D01*
X138119481Y-116618717D01*
X138163083Y-116662319D01*
X138196568Y-116723642D01*
X138191584Y-116793334D01*
X138163083Y-116837681D01*
X138119481Y-116881282D01*
X138119475Y-116881290D01*
X138040426Y-117018209D01*
X138040423Y-117018216D01*
X137999500Y-117170943D01*
X137999500Y-117329056D01*
X138040423Y-117481783D01*
X138040426Y-117481790D01*
X138119475Y-117618709D01*
X138119479Y-117618714D01*
X138119480Y-117618716D01*
X138231284Y-117730520D01*
X138231286Y-117730521D01*
X138231290Y-117730524D01*
X138368209Y-117809573D01*
X138368216Y-117809577D01*
X138520943Y-117850500D01*
X138520945Y-117850500D01*
X138679055Y-117850500D01*
X138679057Y-117850500D01*
X138831784Y-117809577D01*
X138968716Y-117730520D01*
X139080520Y-117618716D01*
X139159577Y-117481784D01*
X139200500Y-117329057D01*
X139200500Y-117170943D01*
X139159577Y-117018216D01*
X139159573Y-117018209D01*
X139080524Y-116881290D01*
X139080518Y-116881282D01*
X139036917Y-116837681D01*
X139003432Y-116776358D01*
X139008416Y-116706666D01*
X139036917Y-116662319D01*
X139080520Y-116618716D01*
X139159577Y-116481784D01*
X139200500Y-116329057D01*
X139200500Y-116170943D01*
X139159577Y-116018216D01*
X139149348Y-116000499D01*
X139080524Y-115881290D01*
X139080518Y-115881282D01*
X138968717Y-115769481D01*
X138968709Y-115769475D01*
X138831790Y-115690426D01*
X138831786Y-115690424D01*
X138831784Y-115690423D01*
X138679057Y-115649500D01*
X138520943Y-115649500D01*
X138368216Y-115690423D01*
X138368209Y-115690426D01*
X138231290Y-115769475D01*
X138231282Y-115769481D01*
X138119481Y-115881282D01*
X138119475Y-115881290D01*
X138040426Y-116018209D01*
X138040423Y-116018216D01*
X137999500Y-116170943D01*
X134470179Y-116170943D01*
X134368716Y-116069480D01*
X134368714Y-116069479D01*
X134368709Y-116069475D01*
X134231790Y-115990426D01*
X134231786Y-115990424D01*
X134231784Y-115990423D01*
X134079057Y-115949500D01*
X133920943Y-115949500D01*
X133768216Y-115990423D01*
X133768209Y-115990426D01*
X133631290Y-116069475D01*
X133631282Y-116069481D01*
X133519481Y-116181282D01*
X133519475Y-116181290D01*
X133440426Y-116318209D01*
X133440423Y-116318216D01*
X133399500Y-116470943D01*
X130087103Y-116470943D01*
X130059577Y-116368216D01*
X130008101Y-116279056D01*
X129980524Y-116231290D01*
X129980518Y-116231282D01*
X129868717Y-116119481D01*
X129868709Y-116119475D01*
X129731790Y-116040426D01*
X129731786Y-116040424D01*
X129731784Y-116040423D01*
X129579057Y-115999500D01*
X129420943Y-115999500D01*
X129268216Y-116040423D01*
X129268209Y-116040426D01*
X129131290Y-116119475D01*
X129131282Y-116119481D01*
X129019481Y-116231282D01*
X129019475Y-116231290D01*
X128940426Y-116368209D01*
X128940424Y-116368214D01*
X128940423Y-116368216D01*
X128899500Y-116520943D01*
X126108102Y-116520943D01*
X126159577Y-116431784D01*
X126200500Y-116279057D01*
X126200500Y-116120943D01*
X126159577Y-115968216D01*
X126151169Y-115953652D01*
X126080524Y-115831290D01*
X126080518Y-115831282D01*
X125968717Y-115719481D01*
X125968709Y-115719475D01*
X125831790Y-115640426D01*
X125831786Y-115640424D01*
X125831784Y-115640423D01*
X125679057Y-115599500D01*
X125520943Y-115599500D01*
X125368216Y-115640423D01*
X125368209Y-115640426D01*
X125231290Y-115719475D01*
X125231282Y-115719481D01*
X125119481Y-115831282D01*
X125119475Y-115831290D01*
X125040426Y-115968209D01*
X125040423Y-115968216D01*
X124999500Y-116120943D01*
X123500500Y-116120943D01*
X123500500Y-116070943D01*
X123459577Y-115918216D01*
X123449348Y-115900499D01*
X123380524Y-115781290D01*
X123380518Y-115781282D01*
X123268717Y-115669481D01*
X123268709Y-115669475D01*
X123131790Y-115590426D01*
X123131786Y-115590424D01*
X123131784Y-115590423D01*
X122979057Y-115549500D01*
X122820943Y-115549500D01*
X122668216Y-115590423D01*
X122668214Y-115590423D01*
X122660365Y-115592527D01*
X122659739Y-115590190D01*
X122602472Y-115596342D01*
X122539996Y-115565061D01*
X122504349Y-115504969D01*
X122500500Y-115474314D01*
X122500500Y-115320945D01*
X122500500Y-115320943D01*
X122459577Y-115168216D01*
X122401843Y-115068216D01*
X122380524Y-115031290D01*
X122380518Y-115031282D01*
X122268717Y-114919481D01*
X122268709Y-114919475D01*
X122131790Y-114840426D01*
X122131786Y-114840424D01*
X122131784Y-114840423D01*
X121979057Y-114799500D01*
X121820943Y-114799500D01*
X121668216Y-114840423D01*
X121668209Y-114840426D01*
X121531290Y-114919475D01*
X121531282Y-114919481D01*
X121419481Y-115031282D01*
X121419475Y-115031290D01*
X121340426Y-115168209D01*
X121340423Y-115168216D01*
X121299500Y-115320943D01*
X105600000Y-115320943D01*
X105600000Y-113340943D01*
X116249500Y-113340943D01*
X116249500Y-113499057D01*
X116290423Y-113651782D01*
X116290423Y-113651783D01*
X116290426Y-113651790D01*
X116369475Y-113788709D01*
X116369479Y-113788714D01*
X116369480Y-113788716D01*
X116481284Y-113900520D01*
X116481286Y-113900521D01*
X116481290Y-113900524D01*
X116600727Y-113969480D01*
X116618216Y-113979577D01*
X116770943Y-114020500D01*
X116770945Y-114020500D01*
X116839800Y-114020500D01*
X116906839Y-114040185D01*
X116952594Y-114092989D01*
X116962538Y-114162147D01*
X116947188Y-114206499D01*
X116940423Y-114218215D01*
X116940423Y-114218216D01*
X116899500Y-114370943D01*
X116899500Y-114529057D01*
X116910609Y-114570514D01*
X116940423Y-114681783D01*
X116940426Y-114681790D01*
X117019475Y-114818709D01*
X117019479Y-114818714D01*
X117019480Y-114818716D01*
X117131284Y-114930520D01*
X117131286Y-114930521D01*
X117131290Y-114930524D01*
X117268209Y-115009573D01*
X117268216Y-115009577D01*
X117420943Y-115050500D01*
X117420945Y-115050500D01*
X117579055Y-115050500D01*
X117579057Y-115050500D01*
X117731784Y-115009577D01*
X117868716Y-114930520D01*
X117980520Y-114818716D01*
X118059577Y-114681784D01*
X118100500Y-114529057D01*
X118100500Y-114370943D01*
X118059577Y-114218216D01*
X118027206Y-114162147D01*
X117980524Y-114081290D01*
X117980518Y-114081282D01*
X117868717Y-113969481D01*
X117868716Y-113969480D01*
X117731784Y-113890423D01*
X117579057Y-113849500D01*
X117510200Y-113849500D01*
X117443161Y-113829815D01*
X117435473Y-113820943D01*
X134799500Y-113820943D01*
X134799500Y-113979057D01*
X134810605Y-114020499D01*
X134840423Y-114131783D01*
X134840426Y-114131790D01*
X134919475Y-114268709D01*
X134919479Y-114268714D01*
X134919480Y-114268716D01*
X135031284Y-114380520D01*
X135031286Y-114380521D01*
X135031290Y-114380524D01*
X135168209Y-114459573D01*
X135168216Y-114459577D01*
X135320278Y-114500321D01*
X135379937Y-114536686D01*
X135410466Y-114599533D01*
X135402171Y-114668909D01*
X135357686Y-114722787D01*
X135320282Y-114739869D01*
X135319166Y-114740168D01*
X135318215Y-114740423D01*
X135318209Y-114740426D01*
X135181290Y-114819475D01*
X135181282Y-114819481D01*
X135069481Y-114931282D01*
X135069475Y-114931290D01*
X134990426Y-115068209D01*
X134990423Y-115068216D01*
X134949500Y-115220943D01*
X134949500Y-115379056D01*
X134990423Y-115531783D01*
X134990426Y-115531790D01*
X135069475Y-115668709D01*
X135069479Y-115668714D01*
X135069480Y-115668716D01*
X135181284Y-115780520D01*
X135181286Y-115780521D01*
X135181290Y-115780524D01*
X135269221Y-115831290D01*
X135318216Y-115859577D01*
X135470943Y-115900500D01*
X135470945Y-115900500D01*
X135629055Y-115900500D01*
X135629057Y-115900500D01*
X135781784Y-115859577D01*
X135918716Y-115780520D01*
X136030520Y-115668716D01*
X136109577Y-115531784D01*
X136150500Y-115379057D01*
X136150500Y-115220943D01*
X136109577Y-115068216D01*
X136088258Y-115031290D01*
X136030524Y-114931290D01*
X136030518Y-114931282D01*
X135918717Y-114819481D01*
X135918709Y-114819475D01*
X135781790Y-114740426D01*
X135781785Y-114740423D01*
X135629722Y-114699678D01*
X135570062Y-114663313D01*
X135539533Y-114600465D01*
X135547828Y-114531090D01*
X135592313Y-114477212D01*
X135629724Y-114460128D01*
X135631784Y-114459577D01*
X135768716Y-114380520D01*
X135880520Y-114268716D01*
X135959577Y-114131784D01*
X136000500Y-113979057D01*
X136000500Y-113820943D01*
X135959577Y-113668216D01*
X135950090Y-113651784D01*
X135880524Y-113531290D01*
X135880518Y-113531282D01*
X135768717Y-113419481D01*
X135768709Y-113419475D01*
X135631790Y-113340426D01*
X135631786Y-113340424D01*
X135631784Y-113340423D01*
X135479057Y-113299500D01*
X135320943Y-113299500D01*
X135168216Y-113340423D01*
X135168209Y-113340426D01*
X135031290Y-113419475D01*
X135031282Y-113419481D01*
X134919481Y-113531282D01*
X134919475Y-113531290D01*
X134840426Y-113668209D01*
X134840423Y-113668216D01*
X134799500Y-113820943D01*
X117435473Y-113820943D01*
X117397406Y-113777011D01*
X117387462Y-113707853D01*
X117402812Y-113663501D01*
X117409577Y-113651784D01*
X117412089Y-113642407D01*
X117448453Y-113582747D01*
X117511300Y-113552217D01*
X117531864Y-113550500D01*
X117579055Y-113550500D01*
X117579057Y-113550500D01*
X117731784Y-113509577D01*
X117868716Y-113430520D01*
X117949699Y-113349536D01*
X118011018Y-113316054D01*
X118080710Y-113321038D01*
X118099375Y-113329832D01*
X118168216Y-113369577D01*
X118320943Y-113410500D01*
X118320945Y-113410500D01*
X118479055Y-113410500D01*
X118479057Y-113410500D01*
X118631784Y-113369577D01*
X118768716Y-113290520D01*
X118880520Y-113178716D01*
X118959577Y-113041784D01*
X119000500Y-112889057D01*
X119000500Y-112730943D01*
X118959577Y-112578216D01*
X118903586Y-112481235D01*
X118880524Y-112441290D01*
X118880518Y-112441282D01*
X118768717Y-112329481D01*
X118768709Y-112329475D01*
X118753931Y-112320943D01*
X125599500Y-112320943D01*
X125599500Y-112479057D01*
X125634473Y-112609576D01*
X125640423Y-112631783D01*
X125640426Y-112631790D01*
X125719475Y-112768709D01*
X125719479Y-112768714D01*
X125719480Y-112768716D01*
X125831284Y-112880520D01*
X125831286Y-112880521D01*
X125831290Y-112880524D01*
X125933408Y-112939481D01*
X125968216Y-112959577D01*
X126120943Y-113000500D01*
X126120945Y-113000500D01*
X126279055Y-113000500D01*
X126279057Y-113000500D01*
X126431784Y-112959577D01*
X126568716Y-112880520D01*
X126680520Y-112768716D01*
X126759577Y-112631784D01*
X126800248Y-112479999D01*
X136544108Y-112479999D01*
X136544109Y-112480000D01*
X137095735Y-112480000D01*
X137079940Y-112495795D01*
X137040444Y-112564204D01*
X137020000Y-112640504D01*
X137020000Y-112719496D01*
X137040444Y-112795796D01*
X137079940Y-112864205D01*
X137095735Y-112880000D01*
X136544109Y-112880000D01*
X136550741Y-112913343D01*
X136550743Y-112913351D01*
X136611047Y-113058939D01*
X136611052Y-113058948D01*
X136698598Y-113189969D01*
X136698601Y-113189973D01*
X136810026Y-113301398D01*
X136810030Y-113301401D01*
X136941051Y-113388947D01*
X136941060Y-113388952D01*
X137086648Y-113449256D01*
X137086656Y-113449258D01*
X137241202Y-113479999D01*
X137241206Y-113480000D01*
X137670000Y-113480000D01*
X137670000Y-112980000D01*
X138070000Y-112980000D01*
X138070000Y-113491827D01*
X138089258Y-113527096D01*
X138084274Y-113596788D01*
X138050764Y-113642120D01*
X138052382Y-113643738D01*
X137939487Y-113756632D01*
X137939485Y-113756635D01*
X137863719Y-113887863D01*
X137841850Y-113969481D01*
X137824500Y-114034234D01*
X137824500Y-114185766D01*
X137833193Y-114218209D01*
X137863719Y-114332136D01*
X137901602Y-114397750D01*
X137939485Y-114463365D01*
X138046635Y-114570515D01*
X138177865Y-114646281D01*
X138324234Y-114685500D01*
X138324236Y-114685500D01*
X138475764Y-114685500D01*
X138475766Y-114685500D01*
X138622135Y-114646281D01*
X138753365Y-114570515D01*
X138860515Y-114463365D01*
X138936281Y-114332135D01*
X138975500Y-114185766D01*
X138975500Y-114034234D01*
X138936281Y-113887865D01*
X138860515Y-113756635D01*
X138753365Y-113649485D01*
X138740609Y-113642120D01*
X138727411Y-113634500D01*
X138679197Y-113583932D01*
X138665975Y-113515325D01*
X138691944Y-113450461D01*
X138741962Y-113412552D01*
X138798941Y-113388951D01*
X138798948Y-113388947D01*
X138929969Y-113301401D01*
X138929973Y-113301398D01*
X139041398Y-113189973D01*
X139041401Y-113189969D01*
X139128947Y-113058948D01*
X139128952Y-113058939D01*
X139189256Y-112913351D01*
X139189258Y-112913343D01*
X139195891Y-112880000D01*
X138644265Y-112880000D01*
X138660060Y-112864205D01*
X138699556Y-112795796D01*
X138720000Y-112719496D01*
X138720000Y-112640504D01*
X138699556Y-112564204D01*
X138660060Y-112495795D01*
X138644265Y-112480000D01*
X139195891Y-112480000D01*
X139195891Y-112479999D01*
X140974108Y-112479999D01*
X140974109Y-112480000D01*
X141525735Y-112480000D01*
X141509940Y-112495795D01*
X141470444Y-112564204D01*
X141450000Y-112640504D01*
X141450000Y-112719496D01*
X141470444Y-112795796D01*
X141509940Y-112864205D01*
X141525735Y-112880000D01*
X140974109Y-112880000D01*
X140980741Y-112913343D01*
X140980743Y-112913351D01*
X141041047Y-113058939D01*
X141041052Y-113058948D01*
X141128598Y-113189969D01*
X141128601Y-113189973D01*
X141240026Y-113301398D01*
X141240030Y-113301401D01*
X141371051Y-113388947D01*
X141371060Y-113388952D01*
X141516648Y-113449256D01*
X141516656Y-113449258D01*
X141671202Y-113479999D01*
X141671206Y-113480000D01*
X141850000Y-113480000D01*
X141850000Y-112980000D01*
X142250000Y-112980000D01*
X142250000Y-113480000D01*
X142428794Y-113480000D01*
X142428797Y-113479999D01*
X142583343Y-113449258D01*
X142583351Y-113449256D01*
X142728939Y-113388952D01*
X142728948Y-113388947D01*
X142859969Y-113301401D01*
X142859973Y-113301398D01*
X142971398Y-113189973D01*
X142971401Y-113189969D01*
X143058947Y-113058948D01*
X143058952Y-113058939D01*
X143119256Y-112913351D01*
X143119258Y-112913343D01*
X143125891Y-112880000D01*
X142574265Y-112880000D01*
X142590060Y-112864205D01*
X142629556Y-112795796D01*
X142650000Y-112719496D01*
X142650000Y-112640504D01*
X142629556Y-112564204D01*
X142590060Y-112495795D01*
X142574265Y-112480000D01*
X143125891Y-112480000D01*
X143125891Y-112479999D01*
X143119258Y-112446656D01*
X143119256Y-112446648D01*
X143058952Y-112301060D01*
X143058947Y-112301051D01*
X142971401Y-112170030D01*
X142971398Y-112170026D01*
X142859973Y-112058601D01*
X142859969Y-112058598D01*
X142728948Y-111971052D01*
X142728939Y-111971047D01*
X142583351Y-111910743D01*
X142583343Y-111910741D01*
X142428797Y-111880000D01*
X142250000Y-111880000D01*
X142250000Y-112380000D01*
X141850000Y-112380000D01*
X141850000Y-111880000D01*
X141671202Y-111880000D01*
X141516656Y-111910741D01*
X141516648Y-111910743D01*
X141371060Y-111971047D01*
X141371051Y-111971052D01*
X141240030Y-112058598D01*
X141240026Y-112058601D01*
X141128601Y-112170026D01*
X141128598Y-112170030D01*
X141041052Y-112301051D01*
X141041047Y-112301060D01*
X140980743Y-112446648D01*
X140980741Y-112446656D01*
X140974108Y-112479999D01*
X139195891Y-112479999D01*
X139189258Y-112446656D01*
X139189256Y-112446648D01*
X139128952Y-112301060D01*
X139128947Y-112301051D01*
X139041401Y-112170030D01*
X139041398Y-112170026D01*
X138929973Y-112058601D01*
X138929969Y-112058598D01*
X138798948Y-111971052D01*
X138798939Y-111971047D01*
X138653351Y-111910743D01*
X138653343Y-111910741D01*
X138498797Y-111880000D01*
X138070000Y-111880000D01*
X138070000Y-112380000D01*
X137670000Y-112380000D01*
X137670000Y-111880000D01*
X137241202Y-111880000D01*
X137086656Y-111910741D01*
X137086648Y-111910743D01*
X136941060Y-111971047D01*
X136941051Y-111971052D01*
X136810030Y-112058598D01*
X136810026Y-112058601D01*
X136698601Y-112170026D01*
X136698598Y-112170030D01*
X136611052Y-112301051D01*
X136611047Y-112301060D01*
X136550743Y-112446648D01*
X136550741Y-112446656D01*
X136544108Y-112479999D01*
X126800248Y-112479999D01*
X126800500Y-112479057D01*
X126800500Y-112320943D01*
X126759577Y-112168216D01*
X126736968Y-112129055D01*
X126680524Y-112031290D01*
X126680518Y-112031282D01*
X126568717Y-111919481D01*
X126568709Y-111919475D01*
X126431790Y-111840426D01*
X126431786Y-111840424D01*
X126431784Y-111840423D01*
X126279057Y-111799500D01*
X126120943Y-111799500D01*
X125968216Y-111840423D01*
X125968209Y-111840426D01*
X125831290Y-111919475D01*
X125831282Y-111919481D01*
X125719481Y-112031282D01*
X125719475Y-112031290D01*
X125640426Y-112168209D01*
X125640423Y-112168216D01*
X125599500Y-112320943D01*
X118753931Y-112320943D01*
X118631790Y-112250426D01*
X118631786Y-112250424D01*
X118631784Y-112250423D01*
X118479057Y-112209500D01*
X118320943Y-112209500D01*
X118168216Y-112250423D01*
X118168209Y-112250426D01*
X118031290Y-112329475D01*
X118031286Y-112329478D01*
X117950303Y-112410461D01*
X117888979Y-112443945D01*
X117819288Y-112438961D01*
X117800623Y-112430167D01*
X117731784Y-112390423D01*
X117692885Y-112380000D01*
X117579057Y-112349500D01*
X117420943Y-112349500D01*
X117268216Y-112390423D01*
X117268209Y-112390426D01*
X117131290Y-112469475D01*
X117131282Y-112469481D01*
X117019481Y-112581282D01*
X117019475Y-112581290D01*
X116940426Y-112718209D01*
X116940422Y-112718217D01*
X116937911Y-112727592D01*
X116901547Y-112787253D01*
X116838700Y-112817783D01*
X116818136Y-112819500D01*
X116770943Y-112819500D01*
X116618216Y-112860423D01*
X116618209Y-112860426D01*
X116481290Y-112939475D01*
X116481282Y-112939481D01*
X116369481Y-113051282D01*
X116369475Y-113051290D01*
X116290426Y-113188209D01*
X116290423Y-113188216D01*
X116249500Y-113340943D01*
X105600000Y-113340943D01*
X105600000Y-111970943D01*
X114149500Y-111970943D01*
X114149500Y-112129056D01*
X114190423Y-112281783D01*
X114190426Y-112281790D01*
X114269475Y-112418709D01*
X114269479Y-112418714D01*
X114269480Y-112418716D01*
X114381284Y-112530520D01*
X114381286Y-112530521D01*
X114381290Y-112530524D01*
X114469221Y-112581290D01*
X114518216Y-112609577D01*
X114670943Y-112650500D01*
X114670945Y-112650500D01*
X114829055Y-112650500D01*
X114829057Y-112650500D01*
X114981784Y-112609577D01*
X115118716Y-112530520D01*
X115230520Y-112418716D01*
X115309577Y-112281784D01*
X115350500Y-112129057D01*
X115350500Y-111970943D01*
X115309577Y-111818216D01*
X115280730Y-111768252D01*
X115264258Y-111700353D01*
X115287111Y-111634326D01*
X115342032Y-111591135D01*
X115356018Y-111586480D01*
X115381784Y-111579577D01*
X115518716Y-111500520D01*
X115630520Y-111388716D01*
X115709577Y-111251784D01*
X115750500Y-111099057D01*
X115750500Y-110940943D01*
X115709577Y-110788216D01*
X115669890Y-110719475D01*
X115630524Y-110651290D01*
X115630518Y-110651282D01*
X115518717Y-110539481D01*
X115518709Y-110539475D01*
X115381790Y-110460426D01*
X115381786Y-110460424D01*
X115381784Y-110460423D01*
X115229057Y-110419500D01*
X115070943Y-110419500D01*
X114918216Y-110460423D01*
X114918209Y-110460426D01*
X114781290Y-110539475D01*
X114781282Y-110539481D01*
X114669481Y-110651282D01*
X114669475Y-110651290D01*
X114590426Y-110788209D01*
X114590423Y-110788216D01*
X114549500Y-110940943D01*
X114549500Y-111099057D01*
X114568396Y-111169576D01*
X114590423Y-111251783D01*
X114590423Y-111251784D01*
X114619269Y-111301747D01*
X114635741Y-111369647D01*
X114612888Y-111435674D01*
X114557966Y-111478864D01*
X114543976Y-111483520D01*
X114518220Y-111490421D01*
X114518209Y-111490426D01*
X114381290Y-111569475D01*
X114381282Y-111569481D01*
X114269481Y-111681282D01*
X114269475Y-111681290D01*
X114190426Y-111818209D01*
X114190423Y-111818216D01*
X114149500Y-111970943D01*
X105600000Y-111970943D01*
X105600000Y-110140943D01*
X115849500Y-110140943D01*
X115849500Y-110299056D01*
X115890423Y-110451783D01*
X115890426Y-110451790D01*
X115969475Y-110588709D01*
X115969479Y-110588714D01*
X115969480Y-110588716D01*
X116081284Y-110700520D01*
X116081286Y-110700521D01*
X116081290Y-110700524D01*
X116198526Y-110768209D01*
X116218216Y-110779577D01*
X116370943Y-110820500D01*
X116370945Y-110820500D01*
X116529055Y-110820500D01*
X116529057Y-110820500D01*
X116681784Y-110779577D01*
X116818716Y-110700520D01*
X116930520Y-110588716D01*
X116963875Y-110530943D01*
X117799500Y-110530943D01*
X117799500Y-110689057D01*
X117834446Y-110819475D01*
X117840423Y-110841783D01*
X117840426Y-110841790D01*
X117919475Y-110978709D01*
X117919479Y-110978714D01*
X117919480Y-110978716D01*
X118031284Y-111090520D01*
X118031286Y-111090521D01*
X118031290Y-111090524D01*
X118168209Y-111169573D01*
X118168216Y-111169577D01*
X118320943Y-111210500D01*
X118320945Y-111210500D01*
X118479055Y-111210500D01*
X118479057Y-111210500D01*
X118631784Y-111169577D01*
X118737672Y-111108443D01*
X122799500Y-111108443D01*
X122799500Y-111266557D01*
X122832233Y-111388716D01*
X122840423Y-111419283D01*
X122840426Y-111419290D01*
X122919475Y-111556209D01*
X122919479Y-111556214D01*
X122919480Y-111556216D01*
X123031284Y-111668020D01*
X123031286Y-111668021D01*
X123031290Y-111668024D01*
X123168209Y-111747073D01*
X123168216Y-111747077D01*
X123320943Y-111788000D01*
X123320945Y-111788000D01*
X123479055Y-111788000D01*
X123479057Y-111788000D01*
X123631784Y-111747077D01*
X123768716Y-111668020D01*
X123880520Y-111556216D01*
X123959577Y-111419284D01*
X124000500Y-111266557D01*
X124000500Y-111108443D01*
X123959577Y-110955716D01*
X123945475Y-110931290D01*
X123939501Y-110920943D01*
X124249500Y-110920943D01*
X124249500Y-111079057D01*
X124273755Y-111169576D01*
X124290423Y-111231783D01*
X124290426Y-111231790D01*
X124369475Y-111368709D01*
X124369479Y-111368714D01*
X124369480Y-111368716D01*
X124481284Y-111480520D01*
X124481286Y-111480521D01*
X124481290Y-111480524D01*
X124612396Y-111556217D01*
X124618216Y-111559577D01*
X124770943Y-111600500D01*
X124770945Y-111600500D01*
X124929055Y-111600500D01*
X124929057Y-111600500D01*
X125081784Y-111559577D01*
X125218716Y-111480520D01*
X125330520Y-111368716D01*
X125409577Y-111231784D01*
X125450500Y-111079057D01*
X125450500Y-110970943D01*
X127739500Y-110970943D01*
X127739500Y-111129057D01*
X127779693Y-111279057D01*
X127780423Y-111281783D01*
X127780426Y-111281790D01*
X127859475Y-111418709D01*
X127859479Y-111418714D01*
X127859480Y-111418716D01*
X127971284Y-111530520D01*
X127971286Y-111530521D01*
X127971290Y-111530524D01*
X128038765Y-111569480D01*
X128108216Y-111609577D01*
X128260943Y-111650500D01*
X128260945Y-111650500D01*
X128419055Y-111650500D01*
X128419057Y-111650500D01*
X128571784Y-111609577D01*
X128708716Y-111530520D01*
X128820520Y-111418716D01*
X128899577Y-111281784D01*
X128940500Y-111129057D01*
X128940500Y-111120943D01*
X131799500Y-111120943D01*
X131799500Y-111279057D01*
X131837076Y-111419290D01*
X131840423Y-111431783D01*
X131840426Y-111431790D01*
X131919475Y-111568709D01*
X131919479Y-111568714D01*
X131919480Y-111568716D01*
X132031284Y-111680520D01*
X132031286Y-111680521D01*
X132031290Y-111680524D01*
X132146558Y-111747073D01*
X132168216Y-111759577D01*
X132320943Y-111800500D01*
X132320945Y-111800500D01*
X132479055Y-111800500D01*
X132479057Y-111800500D01*
X132631784Y-111759577D01*
X132768716Y-111680520D01*
X132880520Y-111568716D01*
X132959577Y-111431784D01*
X133000500Y-111279057D01*
X133000500Y-111220943D01*
X139299500Y-111220943D01*
X139299500Y-111379057D01*
X139340086Y-111530524D01*
X139340423Y-111531783D01*
X139340426Y-111531790D01*
X139419475Y-111668709D01*
X139419479Y-111668714D01*
X139419480Y-111668716D01*
X139531284Y-111780520D01*
X139531286Y-111780521D01*
X139531290Y-111780524D01*
X139635040Y-111840423D01*
X139668216Y-111859577D01*
X139820943Y-111900500D01*
X139820945Y-111900500D01*
X139979055Y-111900500D01*
X139979057Y-111900500D01*
X140131784Y-111859577D01*
X140268716Y-111780520D01*
X140380520Y-111668716D01*
X140459577Y-111531784D01*
X140500500Y-111379057D01*
X140500500Y-111220943D01*
X140459577Y-111068216D01*
X140427488Y-111012635D01*
X140380524Y-110931290D01*
X140380518Y-110931282D01*
X140268717Y-110819481D01*
X140268709Y-110819475D01*
X140131790Y-110740426D01*
X140131786Y-110740424D01*
X140131784Y-110740423D01*
X139979057Y-110699500D01*
X139820943Y-110699500D01*
X139668216Y-110740423D01*
X139668209Y-110740426D01*
X139531290Y-110819475D01*
X139531282Y-110819481D01*
X139419481Y-110931282D01*
X139419475Y-110931290D01*
X139340426Y-111068209D01*
X139340423Y-111068216D01*
X139299500Y-111220943D01*
X133000500Y-111220943D01*
X133000500Y-111120943D01*
X132959577Y-110968216D01*
X132938258Y-110931290D01*
X132880524Y-110831290D01*
X132880518Y-110831282D01*
X132768717Y-110719481D01*
X132768709Y-110719475D01*
X132631790Y-110640426D01*
X132631786Y-110640424D01*
X132631784Y-110640423D01*
X132479057Y-110599500D01*
X132320943Y-110599500D01*
X132168216Y-110640423D01*
X132168209Y-110640426D01*
X132031290Y-110719475D01*
X132031282Y-110719481D01*
X131919481Y-110831282D01*
X131919475Y-110831290D01*
X131840426Y-110968209D01*
X131840423Y-110968216D01*
X131799500Y-111120943D01*
X128940500Y-111120943D01*
X128940500Y-110970943D01*
X128899577Y-110818216D01*
X128877269Y-110779577D01*
X128820524Y-110681290D01*
X128820518Y-110681282D01*
X128708717Y-110569481D01*
X128708709Y-110569475D01*
X128571790Y-110490426D01*
X128571786Y-110490424D01*
X128571784Y-110490423D01*
X128419057Y-110449500D01*
X128260943Y-110449500D01*
X128108216Y-110490423D01*
X128108209Y-110490426D01*
X127971290Y-110569475D01*
X127971282Y-110569481D01*
X127859481Y-110681282D01*
X127859475Y-110681290D01*
X127780426Y-110818209D01*
X127780423Y-110818216D01*
X127739500Y-110970943D01*
X125450500Y-110970943D01*
X125450500Y-110920943D01*
X125409577Y-110768216D01*
X125381437Y-110719475D01*
X125330524Y-110631290D01*
X125330518Y-110631282D01*
X125218717Y-110519481D01*
X125218709Y-110519475D01*
X125081790Y-110440426D01*
X125081786Y-110440424D01*
X125081784Y-110440423D01*
X124929057Y-110399500D01*
X124770943Y-110399500D01*
X124618216Y-110440423D01*
X124618209Y-110440426D01*
X124481290Y-110519475D01*
X124481282Y-110519481D01*
X124369481Y-110631282D01*
X124369475Y-110631290D01*
X124290426Y-110768209D01*
X124290423Y-110768216D01*
X124249500Y-110920943D01*
X123939501Y-110920943D01*
X123880524Y-110818790D01*
X123880518Y-110818782D01*
X123768717Y-110706981D01*
X123768709Y-110706975D01*
X123631790Y-110627926D01*
X123631786Y-110627924D01*
X123631784Y-110627923D01*
X123479057Y-110587000D01*
X123320943Y-110587000D01*
X123168216Y-110627923D01*
X123168209Y-110627926D01*
X123031290Y-110706975D01*
X123031282Y-110706981D01*
X122919481Y-110818782D01*
X122919475Y-110818790D01*
X122840426Y-110955709D01*
X122840425Y-110955712D01*
X122840423Y-110955716D01*
X122799500Y-111108443D01*
X118737672Y-111108443D01*
X118768716Y-111090520D01*
X118880520Y-110978716D01*
X118959577Y-110841784D01*
X119000500Y-110689057D01*
X119000500Y-110530943D01*
X118959577Y-110378216D01*
X118913875Y-110299057D01*
X118880524Y-110241290D01*
X118880518Y-110241282D01*
X118768717Y-110129481D01*
X118768709Y-110129475D01*
X118631790Y-110050426D01*
X118631786Y-110050424D01*
X118631784Y-110050423D01*
X118479057Y-110009500D01*
X118320943Y-110009500D01*
X118168216Y-110050423D01*
X118168209Y-110050426D01*
X118031290Y-110129475D01*
X118031282Y-110129481D01*
X117919481Y-110241282D01*
X117919475Y-110241290D01*
X117840426Y-110378209D01*
X117840423Y-110378216D01*
X117799500Y-110530943D01*
X116963875Y-110530943D01*
X117004363Y-110460816D01*
X117006483Y-110457142D01*
X117009577Y-110451784D01*
X117050500Y-110299057D01*
X117050500Y-110140943D01*
X117041296Y-110106592D01*
X117042959Y-110036742D01*
X117082122Y-109978880D01*
X117146351Y-109951377D01*
X117161071Y-109950500D01*
X117179055Y-109950500D01*
X117179057Y-109950500D01*
X117331784Y-109909577D01*
X117468716Y-109830520D01*
X117580520Y-109718716D01*
X117659577Y-109581784D01*
X117700500Y-109429057D01*
X117700500Y-109420943D01*
X121799500Y-109420943D01*
X121799500Y-109579057D01*
X121836922Y-109718716D01*
X121840423Y-109731783D01*
X121840426Y-109731790D01*
X121919475Y-109868709D01*
X121919479Y-109868714D01*
X121919480Y-109868716D01*
X122031284Y-109980520D01*
X122031286Y-109980521D01*
X122031290Y-109980524D01*
X122152366Y-110050426D01*
X122168216Y-110059577D01*
X122320943Y-110100500D01*
X122320945Y-110100500D01*
X122479055Y-110100500D01*
X122479057Y-110100500D01*
X122631784Y-110059577D01*
X122768716Y-109980520D01*
X122880520Y-109868716D01*
X122959577Y-109731784D01*
X123000500Y-109579057D01*
X123000500Y-109420943D01*
X122959577Y-109268216D01*
X122896855Y-109159577D01*
X122880524Y-109131290D01*
X122880518Y-109131282D01*
X122768717Y-109019481D01*
X122768716Y-109019480D01*
X122631784Y-108940423D01*
X122559084Y-108920943D01*
X124299500Y-108920943D01*
X124299500Y-109079057D01*
X124332041Y-109200500D01*
X124340423Y-109231783D01*
X124340426Y-109231790D01*
X124419475Y-109368709D01*
X124419479Y-109368714D01*
X124419480Y-109368716D01*
X124531284Y-109480520D01*
X124531286Y-109480521D01*
X124531290Y-109480524D01*
X124668209Y-109559573D01*
X124668216Y-109559577D01*
X124820943Y-109600500D01*
X124820945Y-109600500D01*
X124979055Y-109600500D01*
X124979057Y-109600500D01*
X125131784Y-109559577D01*
X125268716Y-109480520D01*
X125380520Y-109368716D01*
X125459577Y-109231784D01*
X125500500Y-109079057D01*
X125500500Y-108920943D01*
X125466101Y-108792564D01*
X125467764Y-108722718D01*
X125506926Y-108664855D01*
X125571155Y-108637351D01*
X125640057Y-108648937D01*
X125673557Y-108672793D01*
X125781284Y-108780520D01*
X125781286Y-108780521D01*
X125781290Y-108780524D01*
X125870087Y-108831790D01*
X125918216Y-108859577D01*
X126070943Y-108900500D01*
X126070945Y-108900500D01*
X126229055Y-108900500D01*
X126229057Y-108900500D01*
X126381784Y-108859577D01*
X126518716Y-108780520D01*
X126630520Y-108668716D01*
X126709577Y-108531784D01*
X126739277Y-108420943D01*
X128949500Y-108420943D01*
X128949500Y-108579057D01*
X128976295Y-108679055D01*
X128990423Y-108731783D01*
X128990426Y-108731790D01*
X129069475Y-108868709D01*
X129069479Y-108868714D01*
X129069480Y-108868716D01*
X129181284Y-108980520D01*
X129181286Y-108980521D01*
X129181290Y-108980524D01*
X129248765Y-109019480D01*
X129318216Y-109059577D01*
X129470943Y-109100500D01*
X129470945Y-109100500D01*
X129629055Y-109100500D01*
X129629057Y-109100500D01*
X129781784Y-109059577D01*
X129918716Y-108980520D01*
X130030520Y-108868716D01*
X130109577Y-108731784D01*
X130150500Y-108579057D01*
X130150500Y-108420943D01*
X130109577Y-108268216D01*
X130088258Y-108231290D01*
X130030524Y-108131290D01*
X130030518Y-108131282D01*
X129918717Y-108019481D01*
X129918709Y-108019475D01*
X129781790Y-107940426D01*
X129781786Y-107940424D01*
X129781784Y-107940423D01*
X129629057Y-107899500D01*
X129470943Y-107899500D01*
X129318216Y-107940423D01*
X129318209Y-107940426D01*
X129181290Y-108019475D01*
X129181282Y-108019481D01*
X129069481Y-108131282D01*
X129069475Y-108131290D01*
X128990426Y-108268209D01*
X128990423Y-108268216D01*
X128949500Y-108420943D01*
X126739277Y-108420943D01*
X126750500Y-108379057D01*
X126750500Y-108220943D01*
X126709577Y-108068216D01*
X126669904Y-107999500D01*
X126630524Y-107931290D01*
X126630518Y-107931282D01*
X126518717Y-107819481D01*
X126518709Y-107819475D01*
X126381790Y-107740426D01*
X126381786Y-107740424D01*
X126381784Y-107740423D01*
X126229057Y-107699500D01*
X126070943Y-107699500D01*
X125918216Y-107740423D01*
X125918209Y-107740426D01*
X125781290Y-107819475D01*
X125781282Y-107819481D01*
X125669481Y-107931282D01*
X125669475Y-107931290D01*
X125590426Y-108068209D01*
X125590423Y-108068216D01*
X125549500Y-108220943D01*
X125549500Y-108379057D01*
X125560724Y-108420945D01*
X125583898Y-108507432D01*
X125582235Y-108577282D01*
X125543072Y-108635144D01*
X125478844Y-108662648D01*
X125409942Y-108651061D01*
X125376442Y-108627206D01*
X125268717Y-108519481D01*
X125268709Y-108519475D01*
X125131790Y-108440426D01*
X125131786Y-108440424D01*
X125131784Y-108440423D01*
X124979057Y-108399500D01*
X124820943Y-108399500D01*
X124668216Y-108440423D01*
X124668209Y-108440426D01*
X124531290Y-108519475D01*
X124531282Y-108519481D01*
X124419481Y-108631282D01*
X124419475Y-108631290D01*
X124340426Y-108768209D01*
X124340423Y-108768216D01*
X124299500Y-108920943D01*
X122559084Y-108920943D01*
X122479057Y-108899500D01*
X122320943Y-108899500D01*
X122168216Y-108940423D01*
X122168209Y-108940426D01*
X122031290Y-109019475D01*
X122031282Y-109019481D01*
X121919481Y-109131282D01*
X121919475Y-109131290D01*
X121840426Y-109268209D01*
X121840423Y-109268216D01*
X121799500Y-109420943D01*
X117700500Y-109420943D01*
X117700500Y-109270943D01*
X117659577Y-109118216D01*
X117637816Y-109080524D01*
X117580524Y-108981290D01*
X117580518Y-108981282D01*
X117468717Y-108869481D01*
X117468709Y-108869475D01*
X117331790Y-108790426D01*
X117331786Y-108790424D01*
X117331784Y-108790423D01*
X117179057Y-108749500D01*
X117020943Y-108749500D01*
X116868216Y-108790423D01*
X116868209Y-108790426D01*
X116731290Y-108869475D01*
X116731282Y-108869481D01*
X116619481Y-108981282D01*
X116619475Y-108981290D01*
X116540426Y-109118209D01*
X116540423Y-109118216D01*
X116499500Y-109270943D01*
X116499500Y-109429058D01*
X116508704Y-109463408D01*
X116507041Y-109533258D01*
X116467878Y-109591120D01*
X116403649Y-109618623D01*
X116388929Y-109619500D01*
X116370943Y-109619500D01*
X116218216Y-109660423D01*
X116218209Y-109660426D01*
X116081290Y-109739475D01*
X116081282Y-109739481D01*
X115969481Y-109851282D01*
X115969475Y-109851290D01*
X115890426Y-109988209D01*
X115890423Y-109988216D01*
X115849500Y-110140943D01*
X105600000Y-110140943D01*
X105600000Y-108520943D01*
X109799500Y-108520943D01*
X109799500Y-108679057D01*
X109829341Y-108790423D01*
X109840423Y-108831783D01*
X109840426Y-108831790D01*
X109919475Y-108968709D01*
X109919479Y-108968714D01*
X109919480Y-108968716D01*
X110031284Y-109080520D01*
X110031286Y-109080521D01*
X110031290Y-109080524D01*
X110119221Y-109131290D01*
X110168216Y-109159577D01*
X110320943Y-109200500D01*
X110320945Y-109200500D01*
X110479055Y-109200500D01*
X110479057Y-109200500D01*
X110631784Y-109159577D01*
X110768716Y-109080520D01*
X110880520Y-108968716D01*
X110959577Y-108831784D01*
X111000500Y-108679057D01*
X111000500Y-108520943D01*
X110959577Y-108368216D01*
X110959573Y-108368209D01*
X110880524Y-108231290D01*
X110880518Y-108231282D01*
X110768717Y-108119481D01*
X110768709Y-108119475D01*
X110631790Y-108040426D01*
X110631786Y-108040424D01*
X110631784Y-108040423D01*
X110479057Y-107999500D01*
X110320943Y-107999500D01*
X110168216Y-108040423D01*
X110168209Y-108040426D01*
X110031290Y-108119475D01*
X110031282Y-108119481D01*
X109919481Y-108231282D01*
X109919475Y-108231290D01*
X109840426Y-108368209D01*
X109840423Y-108368216D01*
X109799500Y-108520943D01*
X105600000Y-108520943D01*
X105600000Y-106370943D01*
X110599500Y-106370943D01*
X110599500Y-106529057D01*
X110621541Y-106611313D01*
X110640423Y-106681783D01*
X110640426Y-106681790D01*
X110719475Y-106818709D01*
X110719479Y-106818714D01*
X110719480Y-106818716D01*
X110831284Y-106930520D01*
X110831286Y-106930521D01*
X110831290Y-106930524D01*
X110968209Y-107009573D01*
X110968216Y-107009577D01*
X111120943Y-107050500D01*
X111120945Y-107050500D01*
X111279055Y-107050500D01*
X111279057Y-107050500D01*
X111431784Y-107009577D01*
X111568716Y-106930520D01*
X111680520Y-106818716D01*
X111708102Y-106770943D01*
X112999500Y-106770943D01*
X112999500Y-106929057D01*
X113032041Y-107050500D01*
X113040423Y-107081783D01*
X113040426Y-107081790D01*
X113119475Y-107218709D01*
X113119479Y-107218714D01*
X113119480Y-107218716D01*
X113231284Y-107330520D01*
X113231286Y-107330521D01*
X113231290Y-107330524D01*
X113329111Y-107387000D01*
X113368216Y-107409577D01*
X113520943Y-107450500D01*
X113520945Y-107450500D01*
X113679055Y-107450500D01*
X113679057Y-107450500D01*
X113831784Y-107409577D01*
X113968716Y-107330520D01*
X113987319Y-107311917D01*
X114048642Y-107278432D01*
X114118334Y-107283416D01*
X114162681Y-107311917D01*
X114181284Y-107330520D01*
X114181286Y-107330521D01*
X114181290Y-107330524D01*
X114279111Y-107387000D01*
X114318216Y-107409577D01*
X114470943Y-107450500D01*
X114470945Y-107450500D01*
X114629055Y-107450500D01*
X114629057Y-107450500D01*
X114739365Y-107420943D01*
X118249500Y-107420943D01*
X118249500Y-107579057D01*
X118260147Y-107618790D01*
X118290423Y-107731783D01*
X118290426Y-107731790D01*
X118369475Y-107868709D01*
X118369479Y-107868714D01*
X118369480Y-107868716D01*
X118481284Y-107980520D01*
X118481286Y-107980521D01*
X118481290Y-107980524D01*
X118548765Y-108019480D01*
X118618216Y-108059577D01*
X118770943Y-108100500D01*
X118770945Y-108100500D01*
X118929055Y-108100500D01*
X118929057Y-108100500D01*
X119081784Y-108059577D01*
X119218716Y-107980520D01*
X119290793Y-107908443D01*
X120799500Y-107908443D01*
X120799500Y-108066557D01*
X120813680Y-108119475D01*
X120840423Y-108219283D01*
X120840426Y-108219290D01*
X120919475Y-108356209D01*
X120919479Y-108356214D01*
X120919480Y-108356216D01*
X121031284Y-108468020D01*
X121031286Y-108468021D01*
X121031290Y-108468024D01*
X121141738Y-108531790D01*
X121168216Y-108547077D01*
X121320943Y-108588000D01*
X121320945Y-108588000D01*
X121479055Y-108588000D01*
X121479057Y-108588000D01*
X121631784Y-108547077D01*
X121768716Y-108468020D01*
X121880520Y-108356216D01*
X121959577Y-108219284D01*
X122000500Y-108066557D01*
X122000500Y-107908443D01*
X121959577Y-107755716D01*
X121950748Y-107740423D01*
X121880524Y-107618790D01*
X121880518Y-107618782D01*
X121768717Y-107506981D01*
X121768709Y-107506975D01*
X121631790Y-107427926D01*
X121631786Y-107427924D01*
X121631784Y-107427923D01*
X121479057Y-107387000D01*
X121320943Y-107387000D01*
X121168216Y-107427923D01*
X121168209Y-107427926D01*
X121031290Y-107506975D01*
X121031282Y-107506981D01*
X120919481Y-107618782D01*
X120919475Y-107618790D01*
X120840426Y-107755709D01*
X120840423Y-107755716D01*
X120799500Y-107908443D01*
X119290793Y-107908443D01*
X119330520Y-107868716D01*
X119335831Y-107859516D01*
X119348072Y-107838316D01*
X119373676Y-107793965D01*
X119409577Y-107731784D01*
X119450500Y-107579057D01*
X119450500Y-107420943D01*
X119409577Y-107268216D01*
X119409573Y-107268209D01*
X119330524Y-107131290D01*
X119330518Y-107131282D01*
X119218717Y-107019481D01*
X119218709Y-107019475D01*
X119081790Y-106940426D01*
X119081786Y-106940424D01*
X119081784Y-106940423D01*
X118929057Y-106899500D01*
X118770943Y-106899500D01*
X118618216Y-106940423D01*
X118618209Y-106940426D01*
X118481290Y-107019475D01*
X118481282Y-107019481D01*
X118369481Y-107131282D01*
X118369475Y-107131290D01*
X118290426Y-107268209D01*
X118290423Y-107268216D01*
X118249500Y-107420943D01*
X114739365Y-107420943D01*
X114781784Y-107409577D01*
X114918716Y-107330520D01*
X115030520Y-107218716D01*
X115109577Y-107081784D01*
X115150500Y-106929057D01*
X115150500Y-106770943D01*
X115109577Y-106618216D01*
X115058101Y-106529056D01*
X115030524Y-106481290D01*
X115030518Y-106481282D01*
X114918717Y-106369481D01*
X114918709Y-106369475D01*
X114781790Y-106290426D01*
X114781786Y-106290424D01*
X114781784Y-106290423D01*
X114629057Y-106249500D01*
X114470943Y-106249500D01*
X114318216Y-106290423D01*
X114318209Y-106290426D01*
X114181290Y-106369475D01*
X114181282Y-106369481D01*
X114162681Y-106388083D01*
X114101358Y-106421568D01*
X114031666Y-106416584D01*
X113987319Y-106388083D01*
X113968717Y-106369481D01*
X113968709Y-106369475D01*
X113831790Y-106290426D01*
X113831786Y-106290424D01*
X113831784Y-106290423D01*
X113679057Y-106249500D01*
X113520943Y-106249500D01*
X113368216Y-106290423D01*
X113368209Y-106290426D01*
X113231290Y-106369475D01*
X113231282Y-106369481D01*
X113119481Y-106481282D01*
X113119475Y-106481290D01*
X113040426Y-106618209D01*
X113040423Y-106618216D01*
X112999500Y-106770943D01*
X111708102Y-106770943D01*
X111759577Y-106681784D01*
X111800500Y-106529057D01*
X111800500Y-106370943D01*
X111759577Y-106218216D01*
X111722605Y-106154178D01*
X111680524Y-106081290D01*
X111680518Y-106081282D01*
X111568717Y-105969481D01*
X111568709Y-105969475D01*
X111431790Y-105890426D01*
X111431786Y-105890424D01*
X111431784Y-105890423D01*
X111279057Y-105849500D01*
X111120943Y-105849500D01*
X110968216Y-105890423D01*
X110968209Y-105890426D01*
X110831290Y-105969475D01*
X110831282Y-105969481D01*
X110719481Y-106081282D01*
X110719475Y-106081290D01*
X110640426Y-106218209D01*
X110640423Y-106218216D01*
X110599500Y-106370943D01*
X105600000Y-106370943D01*
X105600000Y-106104891D01*
X105619685Y-106037852D01*
X105645333Y-106009040D01*
X105719153Y-105948458D01*
X105948458Y-105719153D01*
X106154183Y-105468476D01*
X106334347Y-105198842D01*
X106487215Y-104912847D01*
X106611314Y-104613246D01*
X106705449Y-104302923D01*
X106705451Y-104302913D01*
X106705454Y-104302902D01*
X106745270Y-104102730D01*
X106768714Y-103984868D01*
X106800500Y-103662143D01*
X106800500Y-103337857D01*
X106768714Y-103015132D01*
X106737772Y-102859576D01*
X106705454Y-102697097D01*
X106705451Y-102697086D01*
X106705450Y-102697083D01*
X106705449Y-102697077D01*
X106677558Y-102605131D01*
X107849500Y-102605131D01*
X107849500Y-104394856D01*
X107849502Y-104394882D01*
X107852413Y-104419987D01*
X107852415Y-104419991D01*
X107897793Y-104522764D01*
X107897794Y-104522765D01*
X107977235Y-104602206D01*
X108080009Y-104647585D01*
X108105135Y-104650500D01*
X109894864Y-104650499D01*
X109894879Y-104650497D01*
X109894882Y-104650497D01*
X109919987Y-104647586D01*
X109919988Y-104647585D01*
X109919991Y-104647585D01*
X110022765Y-104602206D01*
X110102206Y-104522765D01*
X110147585Y-104419991D01*
X110150500Y-104394865D01*
X110150499Y-103653925D01*
X110170183Y-103586888D01*
X110222987Y-103541133D01*
X110292146Y-103531189D01*
X110355702Y-103560214D01*
X110393476Y-103618992D01*
X110396972Y-103634529D01*
X110418317Y-103769293D01*
X110474251Y-103941444D01*
X110474252Y-103941447D01*
X110556434Y-104102734D01*
X110597667Y-104159487D01*
X110597668Y-104159487D01*
X111071980Y-103685176D01*
X111074075Y-103692993D01*
X111139901Y-103807007D01*
X111232993Y-103900099D01*
X111347007Y-103965925D01*
X111354822Y-103968019D01*
X110880510Y-104442330D01*
X110880511Y-104442331D01*
X110937265Y-104483565D01*
X111098552Y-104565747D01*
X111098555Y-104565748D01*
X111270706Y-104621682D01*
X111449494Y-104650000D01*
X111630506Y-104650000D01*
X111809293Y-104621682D01*
X111981444Y-104565748D01*
X111981447Y-104565747D01*
X112142730Y-104483568D01*
X112199487Y-104442330D01*
X112199488Y-104442329D01*
X111725178Y-103968019D01*
X111732993Y-103965925D01*
X111847007Y-103900099D01*
X111940099Y-103807007D01*
X112005925Y-103692993D01*
X112008019Y-103685177D01*
X112482330Y-104159488D01*
X112482330Y-104159487D01*
X112523568Y-104102730D01*
X112605747Y-103941447D01*
X112605748Y-103941444D01*
X112661682Y-103769293D01*
X112690000Y-103590506D01*
X112690000Y-103409493D01*
X112661682Y-103230706D01*
X112605748Y-103058555D01*
X112605745Y-103058549D01*
X112604898Y-103056886D01*
X112604766Y-103056185D01*
X112603882Y-103054050D01*
X112604330Y-103053864D01*
X112592000Y-102988218D01*
X112618274Y-102923476D01*
X112675379Y-102883217D01*
X112745185Y-102880223D01*
X112747344Y-102880779D01*
X112820943Y-102900500D01*
X112820946Y-102900500D01*
X112979055Y-102900500D01*
X112979057Y-102900500D01*
X113131784Y-102859577D01*
X113268716Y-102780520D01*
X113380520Y-102668716D01*
X113417230Y-102605131D01*
X116349500Y-102605131D01*
X116349500Y-104394856D01*
X116349502Y-104394882D01*
X116352413Y-104419987D01*
X116352415Y-104419991D01*
X116397793Y-104522764D01*
X116397794Y-104522765D01*
X116477235Y-104602206D01*
X116580009Y-104647585D01*
X116605135Y-104650500D01*
X118394864Y-104650499D01*
X118394879Y-104650497D01*
X118394882Y-104650497D01*
X118419987Y-104647586D01*
X118419988Y-104647585D01*
X118419991Y-104647585D01*
X118522765Y-104602206D01*
X118602206Y-104522765D01*
X118647585Y-104419991D01*
X118650500Y-104394865D01*
X118650499Y-103653925D01*
X118670183Y-103586888D01*
X118722987Y-103541133D01*
X118792146Y-103531189D01*
X118855702Y-103560214D01*
X118893476Y-103618992D01*
X118896972Y-103634529D01*
X118918317Y-103769293D01*
X118974251Y-103941444D01*
X118974252Y-103941447D01*
X119056434Y-104102734D01*
X119097667Y-104159487D01*
X119097668Y-104159487D01*
X119571980Y-103685176D01*
X119574075Y-103692993D01*
X119639901Y-103807007D01*
X119732993Y-103900099D01*
X119847007Y-103965925D01*
X119854822Y-103968019D01*
X119380510Y-104442330D01*
X119380511Y-104442331D01*
X119437265Y-104483565D01*
X119598552Y-104565747D01*
X119598555Y-104565748D01*
X119770706Y-104621682D01*
X119949494Y-104650000D01*
X120130506Y-104650000D01*
X120309293Y-104621682D01*
X120481444Y-104565748D01*
X120481447Y-104565747D01*
X120642730Y-104483568D01*
X120699487Y-104442330D01*
X120699488Y-104442329D01*
X120225178Y-103968019D01*
X120232993Y-103965925D01*
X120347007Y-103900099D01*
X120440099Y-103807007D01*
X120505925Y-103692993D01*
X120508019Y-103685177D01*
X120982329Y-104159488D01*
X120982330Y-104159487D01*
X121023568Y-104102730D01*
X121105747Y-103941447D01*
X121105748Y-103941444D01*
X121161682Y-103769293D01*
X121190000Y-103590506D01*
X121190000Y-103409493D01*
X121161682Y-103230706D01*
X121105748Y-103058555D01*
X121105747Y-103058552D01*
X121023565Y-102897265D01*
X120982331Y-102840511D01*
X120982330Y-102840510D01*
X120508018Y-103314821D01*
X120505925Y-103307007D01*
X120440099Y-103192993D01*
X120347007Y-103099901D01*
X120232993Y-103034075D01*
X120225176Y-103031980D01*
X120652024Y-102605131D01*
X123049500Y-102605131D01*
X123049500Y-104394856D01*
X123049502Y-104394882D01*
X123052413Y-104419987D01*
X123052415Y-104419991D01*
X123097793Y-104522764D01*
X123097794Y-104522765D01*
X123177235Y-104602206D01*
X123280009Y-104647585D01*
X123305135Y-104650500D01*
X125094864Y-104650499D01*
X125094879Y-104650497D01*
X125094882Y-104650497D01*
X125119987Y-104647586D01*
X125119988Y-104647585D01*
X125119991Y-104647585D01*
X125222765Y-104602206D01*
X125302206Y-104522765D01*
X125347585Y-104419991D01*
X125350500Y-104394865D01*
X125350499Y-103653925D01*
X125370183Y-103586888D01*
X125422987Y-103541133D01*
X125492146Y-103531189D01*
X125555702Y-103560214D01*
X125593476Y-103618992D01*
X125596972Y-103634529D01*
X125618317Y-103769293D01*
X125674251Y-103941444D01*
X125674252Y-103941447D01*
X125756434Y-104102734D01*
X125797667Y-104159487D01*
X125797668Y-104159487D01*
X126271980Y-103685176D01*
X126274075Y-103692993D01*
X126339901Y-103807007D01*
X126432993Y-103900099D01*
X126547007Y-103965925D01*
X126554822Y-103968019D01*
X126080510Y-104442330D01*
X126080511Y-104442331D01*
X126137265Y-104483565D01*
X126298552Y-104565747D01*
X126298555Y-104565748D01*
X126470706Y-104621682D01*
X126649494Y-104650000D01*
X126830506Y-104650000D01*
X127009293Y-104621682D01*
X127181444Y-104565748D01*
X127181447Y-104565747D01*
X127342730Y-104483568D01*
X127399487Y-104442330D01*
X127399488Y-104442329D01*
X126925178Y-103968019D01*
X126932993Y-103965925D01*
X127047007Y-103900099D01*
X127140099Y-103807007D01*
X127205925Y-103692993D01*
X127208019Y-103685177D01*
X127682329Y-104159488D01*
X127682330Y-104159487D01*
X127723568Y-104102730D01*
X127805747Y-103941447D01*
X127805748Y-103941444D01*
X127861682Y-103769293D01*
X127890000Y-103590506D01*
X127890000Y-103409493D01*
X127861682Y-103230706D01*
X127805748Y-103058555D01*
X127805747Y-103058552D01*
X127723565Y-102897265D01*
X127682331Y-102840511D01*
X127682330Y-102840510D01*
X127208018Y-103314821D01*
X127205925Y-103307007D01*
X127140099Y-103192993D01*
X127047007Y-103099901D01*
X126932993Y-103034075D01*
X126925176Y-103031980D01*
X127399487Y-102557668D01*
X127399487Y-102557667D01*
X127342734Y-102516434D01*
X127181447Y-102434252D01*
X127181444Y-102434251D01*
X127009293Y-102378317D01*
X126830506Y-102350000D01*
X126649494Y-102350000D01*
X126470706Y-102378317D01*
X126298555Y-102434251D01*
X126298552Y-102434252D01*
X126137270Y-102516431D01*
X126137268Y-102516432D01*
X126080511Y-102557667D01*
X126080511Y-102557668D01*
X126554823Y-103031980D01*
X126547007Y-103034075D01*
X126432993Y-103099901D01*
X126339901Y-103192993D01*
X126274075Y-103307007D01*
X126271980Y-103314823D01*
X125797668Y-102840511D01*
X125797667Y-102840511D01*
X125756432Y-102897268D01*
X125756431Y-102897270D01*
X125674252Y-103058552D01*
X125674251Y-103058555D01*
X125618317Y-103230706D01*
X125596972Y-103365471D01*
X125567043Y-103428606D01*
X125507731Y-103465537D01*
X125437868Y-103464539D01*
X125379636Y-103425929D01*
X125351522Y-103361965D01*
X125350499Y-103346073D01*
X125350499Y-102605143D01*
X125350499Y-102605136D01*
X125350497Y-102605117D01*
X125347586Y-102580012D01*
X125347585Y-102580010D01*
X125347585Y-102580009D01*
X125302206Y-102477235D01*
X125222765Y-102397794D01*
X125180330Y-102379057D01*
X125119992Y-102352415D01*
X125094865Y-102349500D01*
X123305143Y-102349500D01*
X123305117Y-102349502D01*
X123280012Y-102352413D01*
X123280008Y-102352415D01*
X123177235Y-102397793D01*
X123097794Y-102477234D01*
X123052415Y-102580006D01*
X123052415Y-102580008D01*
X123049500Y-102605131D01*
X120652024Y-102605131D01*
X120699487Y-102557668D01*
X120699487Y-102557667D01*
X120642734Y-102516434D01*
X120481447Y-102434252D01*
X120481444Y-102434251D01*
X120309293Y-102378317D01*
X120130506Y-102350000D01*
X119949494Y-102350000D01*
X119770706Y-102378317D01*
X119598555Y-102434251D01*
X119598552Y-102434252D01*
X119437270Y-102516431D01*
X119437268Y-102516432D01*
X119380511Y-102557667D01*
X119380511Y-102557668D01*
X119854823Y-103031980D01*
X119847007Y-103034075D01*
X119732993Y-103099901D01*
X119639901Y-103192993D01*
X119574075Y-103307007D01*
X119571980Y-103314823D01*
X119097668Y-102840511D01*
X119097667Y-102840511D01*
X119056432Y-102897268D01*
X119056431Y-102897270D01*
X118974252Y-103058552D01*
X118974251Y-103058555D01*
X118918317Y-103230706D01*
X118896972Y-103365471D01*
X118867043Y-103428606D01*
X118807731Y-103465537D01*
X118737868Y-103464539D01*
X118679636Y-103425929D01*
X118651522Y-103361965D01*
X118650499Y-103346073D01*
X118650499Y-102605143D01*
X118650499Y-102605136D01*
X118650497Y-102605117D01*
X118647586Y-102580012D01*
X118647585Y-102580010D01*
X118647585Y-102580009D01*
X118602206Y-102477235D01*
X118522765Y-102397794D01*
X118480330Y-102379057D01*
X118419992Y-102352415D01*
X118394865Y-102349500D01*
X116605143Y-102349500D01*
X116605117Y-102349502D01*
X116580012Y-102352413D01*
X116580008Y-102352415D01*
X116477235Y-102397793D01*
X116397794Y-102477234D01*
X116352415Y-102580006D01*
X116352415Y-102580008D01*
X116349500Y-102605131D01*
X113417230Y-102605131D01*
X113459577Y-102531784D01*
X113500500Y-102379057D01*
X113500500Y-102220943D01*
X113459577Y-102068216D01*
X113420193Y-102000000D01*
X113380524Y-101931290D01*
X113380518Y-101931282D01*
X113268717Y-101819481D01*
X113268709Y-101819475D01*
X113131790Y-101740426D01*
X113131786Y-101740424D01*
X113131784Y-101740423D01*
X112979057Y-101699500D01*
X112820943Y-101699500D01*
X112668216Y-101740423D01*
X112668209Y-101740426D01*
X112531290Y-101819475D01*
X112531282Y-101819481D01*
X112419481Y-101931282D01*
X112419475Y-101931290D01*
X112340426Y-102068209D01*
X112340423Y-102068216D01*
X112299500Y-102220943D01*
X112299500Y-102387184D01*
X112298005Y-102387184D01*
X112288628Y-102447300D01*
X112242247Y-102499555D01*
X112174977Y-102518438D01*
X112120161Y-102504932D01*
X111981447Y-102434252D01*
X111981444Y-102434251D01*
X111809293Y-102378317D01*
X111630506Y-102350000D01*
X111449494Y-102350000D01*
X111270706Y-102378317D01*
X111098555Y-102434251D01*
X111098552Y-102434252D01*
X110937270Y-102516431D01*
X110937268Y-102516432D01*
X110880511Y-102557667D01*
X110880511Y-102557668D01*
X111354823Y-103031980D01*
X111347007Y-103034075D01*
X111232993Y-103099901D01*
X111139901Y-103192993D01*
X111074075Y-103307007D01*
X111071980Y-103314823D01*
X110597668Y-102840511D01*
X110597667Y-102840511D01*
X110556432Y-102897268D01*
X110556431Y-102897270D01*
X110474252Y-103058552D01*
X110474251Y-103058555D01*
X110418317Y-103230706D01*
X110396972Y-103365471D01*
X110367043Y-103428606D01*
X110307731Y-103465537D01*
X110237868Y-103464539D01*
X110179636Y-103425929D01*
X110151522Y-103361965D01*
X110150499Y-103346073D01*
X110150499Y-102605143D01*
X110150499Y-102605136D01*
X110150497Y-102605117D01*
X110147586Y-102580012D01*
X110147585Y-102580010D01*
X110147585Y-102580009D01*
X110102206Y-102477235D01*
X110022765Y-102397794D01*
X109980330Y-102379057D01*
X109919992Y-102352415D01*
X109894865Y-102349500D01*
X108105143Y-102349500D01*
X108105117Y-102349502D01*
X108080012Y-102352413D01*
X108080008Y-102352415D01*
X107977235Y-102397793D01*
X107897794Y-102477234D01*
X107852415Y-102580006D01*
X107852415Y-102580008D01*
X107849500Y-102605131D01*
X106677558Y-102605131D01*
X106611314Y-102386754D01*
X106487215Y-102087153D01*
X106405410Y-101934108D01*
X106334353Y-101801169D01*
X106334352Y-101801167D01*
X106334347Y-101801158D01*
X106154183Y-101531524D01*
X105948458Y-101280847D01*
X105948457Y-101280846D01*
X105948453Y-101280841D01*
X105719158Y-101051546D01*
X105468481Y-100845821D01*
X105468480Y-100845820D01*
X105468476Y-100845817D01*
X105291554Y-100727601D01*
X105246750Y-100673990D01*
X105238043Y-100604665D01*
X105268197Y-100541638D01*
X105327640Y-100504918D01*
X105360446Y-100500500D01*
X139639554Y-100500500D01*
X139706593Y-100520185D01*
G37*
%TD.AperFunction*%
%TD*%
M02*
