%TF.GenerationSoftware,KiCad,Pcbnew,10.0.5*%
%TF.CreationDate,2026-08-13T00:42:14-05:00*%
%TF.ProjectId,triangle_flywheel_balancer,74726961-6e67-46c6-955f-666c79776865,rev?*%
%TF.SameCoordinates,Original*%
%TF.FileFunction,Soldermask,Top*%
%TF.FilePolarity,Negative*%
%FSLAX46Y46*%
G04 Gerber Fmt 4.6, Leading zero omitted, Abs format (unit mm)*
G04 Created by KiCad (PCBNEW 10.0.5) date 2026-08-13 00:42:14*
%MOMM*%
%LPD*%
G01*
G04 APERTURE LIST*
G04 Aperture macros list*
%AMRoundRect*
0 Rectangle with rounded corners*
0 $1 Rounding radius*
0 $2 $3 $4 $5 $6 $7 $8 $9 X,Y pos of 4 corners*
0 Add a 4 corners polygon primitive as box body*
4,1,4,$2,$3,$4,$5,$6,$7,$8,$9,$2,$3,0*
0 Add four circle primitives for the rounded corners*
1,1,$1+$1,$2,$3*
1,1,$1+$1,$4,$5*
1,1,$1+$1,$6,$7*
1,1,$1+$1,$8,$9*
0 Add four rect primitives between the rounded corners*
20,1,$1+$1,$2,$3,$4,$5,0*
20,1,$1+$1,$4,$5,$6,$7,0*
20,1,$1+$1,$6,$7,$8,$9,0*
20,1,$1+$1,$8,$9,$2,$3,0*%
%AMFreePoly0*
4,1,6,0.725000,-0.725000,-0.725000,-0.725000,-0.725000,0.125000,-0.125000,0.725000,0.725000,0.725000,0.725000,-0.725000,0.725000,-0.725000,$1*%
G04 Aperture macros list end*
%ADD10RoundRect,0.225000X-0.225000X-0.250000X0.225000X-0.250000X0.225000X0.250000X-0.225000X0.250000X0*%
%ADD11RoundRect,0.135000X-0.135000X-0.185000X0.135000X-0.185000X0.135000X0.185000X-0.135000X0.185000X0*%
%ADD12RoundRect,0.150000X-0.512500X-0.150000X0.512500X-0.150000X0.512500X0.150000X-0.512500X0.150000X0*%
%ADD13RoundRect,0.140000X0.140000X0.170000X-0.140000X0.170000X-0.140000X-0.170000X0.140000X-0.170000X0*%
%ADD14RoundRect,0.218750X-0.218750X-0.256250X0.218750X-0.256250X0.218750X0.256250X-0.218750X0.256250X0*%
%ADD15RoundRect,0.225000X0.225000X0.250000X-0.225000X0.250000X-0.225000X-0.250000X0.225000X-0.250000X0*%
%ADD16RoundRect,0.140000X-0.140000X-0.170000X0.140000X-0.170000X0.140000X0.170000X-0.140000X0.170000X0*%
%ADD17RoundRect,0.135000X0.185000X-0.135000X0.185000X0.135000X-0.185000X0.135000X-0.185000X-0.135000X0*%
%ADD18RoundRect,0.100000X-0.637500X-0.100000X0.637500X-0.100000X0.637500X0.100000X-0.637500X0.100000X0*%
%ADD19RoundRect,0.135000X0.135000X0.185000X-0.135000X0.185000X-0.135000X-0.185000X0.135000X-0.185000X0*%
%ADD20RoundRect,0.250000X-0.250000X-0.475000X0.250000X-0.475000X0.250000X0.475000X-0.250000X0.475000X0*%
%ADD21R,1.700000X1.700000*%
%ADD22C,1.700000*%
%ADD23RoundRect,0.250000X-0.325000X-1.100000X0.325000X-1.100000X0.325000X1.100000X-0.325000X1.100000X0*%
%ADD24C,6.000000*%
%ADD25RoundRect,0.135000X-0.185000X0.135000X-0.185000X-0.135000X0.185000X-0.135000X0.185000X0.135000X0*%
%ADD26RoundRect,0.140000X-0.170000X0.140000X-0.170000X-0.140000X0.170000X-0.140000X0.170000X0.140000X0*%
%ADD27RoundRect,0.250000X-0.350000X-0.625000X0.350000X-0.625000X0.350000X0.625000X-0.350000X0.625000X0*%
%ADD28O,1.200000X1.750000*%
%ADD29C,0.650000*%
%ADD30RoundRect,0.150000X0.575000X-0.150000X0.575000X0.150000X-0.575000X0.150000X-0.575000X-0.150000X0*%
%ADD31RoundRect,0.075000X0.650000X-0.075000X0.650000X0.075000X-0.650000X0.075000X-0.650000X-0.075000X0*%
%ADD32O,2.100000X1.000000*%
%ADD33O,1.600000X1.000000*%
%ADD34RoundRect,0.150000X0.512500X0.150000X-0.512500X0.150000X-0.512500X-0.150000X0.512500X-0.150000X0*%
%ADD35R,3.000000X3.000000*%
%ADD36R,1.050000X0.450000*%
%ADD37RoundRect,0.140000X0.170000X-0.140000X0.170000X0.140000X-0.170000X0.140000X-0.170000X-0.140000X0*%
%ADD38RoundRect,0.500000X-0.500000X-0.500000X0.500000X-0.500000X0.500000X0.500000X-0.500000X0.500000X0*%
%ADD39RoundRect,0.250000X-0.475000X0.250000X-0.475000X-0.250000X0.475000X-0.250000X0.475000X0.250000X0*%
%ADD40RoundRect,0.250000X-0.625000X0.350000X-0.625000X-0.350000X0.625000X-0.350000X0.625000X0.350000X0*%
%ADD41O,1.750000X1.200000*%
%ADD42RoundRect,0.087500X-0.425000X-0.087500X0.425000X-0.087500X0.425000X0.087500X-0.425000X0.087500X0*%
%ADD43RoundRect,0.087500X-0.250000X-0.087500X0.250000X-0.087500X0.250000X0.087500X-0.250000X0.087500X0*%
%ADD44R,0.800000X0.400000*%
%ADD45R,0.400000X0.800000*%
%ADD46FreePoly0,0.000000*%
%ADD47R,1.450000X1.450000*%
%ADD48R,0.700000X0.700000*%
%ADD49RoundRect,0.137500X0.662500X-0.137500X0.662500X0.137500X-0.662500X0.137500X-0.662500X-0.137500X0*%
%ADD50RoundRect,0.250000X0.250000X0.475000X-0.250000X0.475000X-0.250000X-0.475000X0.250000X-0.475000X0*%
%ADD51RoundRect,0.218750X0.256250X-0.218750X0.256250X0.218750X-0.256250X0.218750X-0.256250X-0.218750X0*%
G04 APERTURE END LIST*
D10*
%TO.C,C7*%
X124225000Y-130500000D03*
X125775000Y-130500000D03*
%TD*%
D11*
%TO.C,R10*%
X108090000Y-124400000D03*
X109110000Y-124400000D03*
%TD*%
D12*
%TO.C,U5*%
X144362500Y-130050000D03*
X144362500Y-131000000D03*
X144362500Y-131950000D03*
X146637500Y-131950000D03*
X146637500Y-131000000D03*
X146637500Y-130050000D03*
%TD*%
D13*
%TO.C,C3*%
X114080000Y-105600000D03*
X113120000Y-105600000D03*
%TD*%
D14*
%TO.C,D2*%
X146812500Y-125400000D03*
X148387500Y-125400000D03*
%TD*%
D15*
%TO.C,C4*%
X148375000Y-123200000D03*
X146825000Y-123200000D03*
%TD*%
D16*
%TO.C,C12*%
X117620000Y-119800000D03*
X118580000Y-119800000D03*
%TD*%
D17*
%TO.C,R11*%
X122500000Y-124310000D03*
X122500000Y-123290000D03*
%TD*%
%TO.C,R12*%
X122500000Y-127510000D03*
X122500000Y-126490000D03*
%TD*%
%TO.C,R14*%
X135500000Y-112010000D03*
X135500000Y-110990000D03*
%TD*%
D18*
%TO.C,Q1*%
X135737500Y-130525000D03*
X135737500Y-131175000D03*
X135737500Y-131825000D03*
X135737500Y-132475000D03*
X141462500Y-132475000D03*
X141462500Y-131825000D03*
X141462500Y-131175000D03*
X141462500Y-130525000D03*
%TD*%
D16*
%TO.C,C16*%
X110720000Y-124400000D03*
X111680000Y-124400000D03*
%TD*%
D19*
%TO.C,R17*%
X118310000Y-133400000D03*
X117290000Y-133400000D03*
%TD*%
D20*
%TO.C,C9*%
X108050000Y-131000000D03*
X109950000Y-131000000D03*
%TD*%
D17*
%TO.C,R5*%
X151400000Y-120110000D03*
X151400000Y-119090000D03*
%TD*%
D21*
%TO.C,J5*%
X117600000Y-136800000D03*
D22*
X120140000Y-136800000D03*
%TD*%
D23*
%TO.C,C13*%
X117425000Y-126750000D03*
X120375000Y-126750000D03*
%TD*%
D24*
%TO.C,H1*%
X103500000Y-103500000D03*
%TD*%
D25*
%TO.C,R9*%
X112900000Y-125790000D03*
X112900000Y-126810000D03*
%TD*%
D17*
%TO.C,R8*%
X114300000Y-126810000D03*
X114300000Y-125790000D03*
%TD*%
D10*
%TO.C,C5*%
X142625000Y-123200000D03*
X144175000Y-123200000D03*
%TD*%
D26*
%TO.C,C6*%
X151000000Y-131520000D03*
X151000000Y-132480000D03*
%TD*%
D21*
%TO.C,J7*%
X130600000Y-136800000D03*
D22*
X133140000Y-136800000D03*
%TD*%
D12*
%TO.C,U4*%
X145862500Y-119650000D03*
X145862500Y-120600000D03*
X145862500Y-121550000D03*
X148137500Y-121550000D03*
X148137500Y-119650000D03*
%TD*%
D11*
%TO.C,R15*%
X127689999Y-120600000D03*
X128709999Y-120600000D03*
%TD*%
D17*
%TO.C,R19*%
X130600000Y-134410000D03*
X130600000Y-133390000D03*
%TD*%
D27*
%TO.C,J2*%
X137500000Y-136200000D03*
D28*
X139500000Y-136200000D03*
%TD*%
D29*
%TO.C,J1*%
X147900000Y-114890000D03*
X147900000Y-109110000D03*
D30*
X146455000Y-115250000D03*
X146455000Y-114450000D03*
D31*
X146455000Y-113250000D03*
X146455000Y-112250000D03*
X146455000Y-111750000D03*
X146455000Y-110750000D03*
D30*
X146455000Y-109550000D03*
X146455000Y-108750000D03*
X146455000Y-108750000D03*
X146455000Y-109550000D03*
D31*
X146455000Y-110250000D03*
X146455000Y-111250000D03*
X146455000Y-112750000D03*
X146455000Y-113750000D03*
D30*
X146455000Y-114450000D03*
X146455000Y-115250000D03*
D32*
X147370000Y-116320000D03*
D33*
X151550000Y-116320000D03*
D32*
X147370000Y-107680000D03*
D33*
X151550000Y-107680000D03*
%TD*%
D11*
%TO.C,R3*%
X143790000Y-118600000D03*
X144810000Y-118600000D03*
%TD*%
D34*
%TO.C,D1*%
X142137500Y-110950000D03*
X142137500Y-110000000D03*
X142137500Y-109050000D03*
X139862500Y-109050000D03*
X139862500Y-110000000D03*
X139862500Y-110950000D03*
%TD*%
D19*
%TO.C,R13*%
X121410000Y-116600000D03*
X120390000Y-116600000D03*
%TD*%
D24*
%TO.C,H2*%
X151500000Y-103500000D03*
%TD*%
D35*
%TO.C,U2*%
X110500000Y-117000000D03*
D36*
X107725000Y-114725000D03*
X107725000Y-115375000D03*
X107725000Y-116025000D03*
X107725000Y-116675000D03*
X107725000Y-117325000D03*
X107725000Y-117975000D03*
X107725000Y-118625000D03*
X107725000Y-119275000D03*
X113275000Y-119275000D03*
X113275000Y-118625000D03*
X113275000Y-117975000D03*
X113275000Y-117325000D03*
X113275000Y-116675000D03*
X113275000Y-116025000D03*
X113275000Y-115375000D03*
X113275000Y-114725000D03*
%TD*%
D12*
%TO.C,U6*%
X126862500Y-127050000D03*
X126862500Y-128000000D03*
X126862500Y-128950000D03*
X129137500Y-128950000D03*
X129137500Y-127050000D03*
%TD*%
D24*
%TO.C,H3*%
X103500000Y-136500000D03*
%TD*%
D37*
%TO.C,C15*%
X114900000Y-116530000D03*
X114900000Y-115570000D03*
%TD*%
D21*
%TO.C,J4*%
X108600000Y-136800000D03*
D22*
X111140000Y-136800000D03*
X113680000Y-136800000D03*
%TD*%
D16*
%TO.C,C20*%
X125720000Y-132900000D03*
X126680000Y-132900000D03*
%TD*%
D38*
%TO.C,S4*%
X136000000Y-105000000D03*
X142000000Y-105000000D03*
%TD*%
D39*
%TO.C,C11*%
X121150000Y-129140000D03*
X121150000Y-131040000D03*
%TD*%
D21*
%TO.C,J6*%
X124000000Y-136800000D03*
D22*
X126540000Y-136800000D03*
%TD*%
D40*
%TO.C,J3*%
X104500000Y-109000000D03*
D41*
X104500000Y-111000000D03*
%TD*%
D42*
%TO.C,U3*%
X113162500Y-122350000D03*
X113162500Y-123000000D03*
X113162500Y-123650000D03*
X114837500Y-123650000D03*
X114837500Y-122350000D03*
%TD*%
D10*
%TO.C,C1*%
X112825000Y-108850000D03*
X114375000Y-108850000D03*
%TD*%
D11*
%TO.C,R16*%
X127689999Y-122200000D03*
X128709999Y-122200000D03*
%TD*%
%TO.C,R1*%
X113090000Y-107200000D03*
X114110000Y-107200000D03*
%TD*%
D37*
%TO.C,C17*%
X122500000Y-117280000D03*
X122500000Y-116320000D03*
%TD*%
D11*
%TO.C,R2*%
X142490000Y-116900000D03*
X143510000Y-116900000D03*
%TD*%
D43*
%TO.C,U7*%
X111287500Y-128500000D03*
X111287500Y-129000000D03*
X111287500Y-129500000D03*
X112712500Y-129500000D03*
X112712500Y-129000000D03*
X112712500Y-128500000D03*
%TD*%
D17*
%TO.C,R6*%
X151000000Y-128910000D03*
X151000000Y-127890000D03*
%TD*%
D20*
%TO.C,C10*%
X117500000Y-130700000D03*
X119400000Y-130700000D03*
%TD*%
D16*
%TO.C,C18*%
X130920000Y-122200000D03*
X131880000Y-122200000D03*
%TD*%
D19*
%TO.C,R4*%
X151010000Y-125400000D03*
X149990000Y-125400000D03*
%TD*%
D44*
%TO.C,U1*%
X118100000Y-103700000D03*
X118100000Y-104500000D03*
X118100000Y-105300000D03*
X118100000Y-106100000D03*
X118100000Y-106900000D03*
X118100000Y-107700000D03*
X118100000Y-108500000D03*
X118100000Y-109300000D03*
X118100000Y-110100000D03*
X118100000Y-110900000D03*
X118100000Y-111700000D03*
D45*
X119200000Y-112600000D03*
X120000000Y-112600000D03*
X120800000Y-112600000D03*
X121600000Y-112600000D03*
X122400000Y-112600000D03*
X123200000Y-112600000D03*
X124000000Y-112600000D03*
X124800000Y-112600000D03*
X125600000Y-112600000D03*
X126400000Y-112600000D03*
X127200000Y-112600000D03*
X128000000Y-112600000D03*
X128800000Y-112600000D03*
D44*
X129900000Y-111700000D03*
X129900000Y-110900000D03*
X129900000Y-110100000D03*
X129900000Y-109300000D03*
X129900000Y-108500000D03*
X129900000Y-107700000D03*
X129900000Y-106900000D03*
X129900000Y-106100000D03*
X129900000Y-105300000D03*
X129900000Y-104500000D03*
X129900000Y-103700000D03*
D45*
X128800000Y-102800000D03*
X128000000Y-102800000D03*
X127200000Y-102800000D03*
X126400000Y-102800000D03*
X125600000Y-102800000D03*
X124800000Y-102800000D03*
X124000000Y-102800000D03*
X123200000Y-102800000D03*
X122400000Y-102800000D03*
X121600000Y-102800000D03*
X120800000Y-102800000D03*
X120000000Y-102800000D03*
X119200000Y-102800000D03*
D46*
X122025000Y-105725000D03*
D47*
X122025000Y-107700000D03*
X122025000Y-109675000D03*
X124000000Y-105725000D03*
X124000000Y-107700000D03*
X124000000Y-109675000D03*
X125975000Y-105725000D03*
X125975000Y-107700000D03*
X125975000Y-109675000D03*
D48*
X129950000Y-102750000D03*
X129950000Y-112650000D03*
X118050000Y-112650000D03*
X118050000Y-102750000D03*
%TD*%
D17*
%TO.C,R18*%
X124000000Y-134410000D03*
X124000000Y-133390000D03*
%TD*%
D11*
%TO.C,R7*%
X142090000Y-127600000D03*
X143110000Y-127600000D03*
%TD*%
D49*
%TO.C,L1*%
X115500000Y-131525000D03*
X115500000Y-130075000D03*
%TD*%
D13*
%TO.C,C14*%
X115580000Y-117970000D03*
X114620000Y-117970000D03*
%TD*%
D50*
%TO.C,C2*%
X114550000Y-104000000D03*
X112650000Y-104000000D03*
%TD*%
D16*
%TO.C,C19*%
X113120000Y-110400000D03*
X114080000Y-110400000D03*
%TD*%
D10*
%TO.C,C8*%
X130875000Y-127000000D03*
X132425000Y-127000000D03*
%TD*%
D51*
%TO.C,D3*%
X133500000Y-109787500D03*
X133500000Y-108212500D03*
%TD*%
D16*
%TO.C,C21*%
X132320000Y-132900000D03*
X133280000Y-132900000D03*
%TD*%
D24*
%TO.C,H4*%
X151500000Y-136500000D03*
%TD*%
M02*
