%TF.GenerationSoftware,KiCad,Pcbnew,10.0.5*%
%TF.CreationDate,2026-08-13T00:42:14-05:00*%
%TF.ProjectId,triangle_flywheel_balancer,74726961-6e67-46c6-955f-666c79776865,rev?*%
%TF.SameCoordinates,Original*%
%TF.FileFunction,Legend,Top*%
%TF.FilePolarity,Positive*%
%FSLAX46Y46*%
G04 Gerber Fmt 4.6, Leading zero omitted, Abs format (unit mm)*
G04 Created by KiCad (PCBNEW 10.0.5) date 2026-08-13 00:42:14*
%MOMM*%
%LPD*%
G01*
G04 APERTURE LIST*
G04 Aperture macros list*
%AMRoundRect*
0 Rectangle with rounded corners*
0 $1 Rounding radius*
0 $2 $3 $4 $5 $6 $7 $8 $9 X,Y pos of 4 corners*
0 Add a 4 corners polygon primitive as box body*
4,1,4,$2,$3,$4,$5,$6,$7,$8,$9,$2,$3,0*
0 Add four circle primitives for the rounded corners*
1,1,$1+$1,$2,$3*
1,1,$1+$1,$4,$5*
1,1,$1+$1,$6,$7*
1,1,$1+$1,$8,$9*
0 Add four rect primitives between the rounded corners*
20,1,$1+$1,$2,$3,$4,$5,0*
20,1,$1+$1,$4,$5,$6,$7,0*
20,1,$1+$1,$6,$7,$8,$9,0*
20,1,$1+$1,$8,$9,$2,$3,0*%
%AMFreePoly0*
4,1,6,0.725000,-0.725000,-0.725000,-0.725000,-0.725000,0.125000,-0.125000,0.725000,0.725000,0.725000,0.725000,-0.725000,0.725000,-0.725000,$1*%
G04 Aperture macros list end*
%ADD10C,0.150000*%
%ADD11C,0.120000*%
%ADD12RoundRect,0.225000X-0.225000X-0.250000X0.225000X-0.250000X0.225000X0.250000X-0.225000X0.250000X0*%
%ADD13RoundRect,0.135000X-0.135000X-0.185000X0.135000X-0.185000X0.135000X0.185000X-0.135000X0.185000X0*%
%ADD14RoundRect,0.150000X-0.512500X-0.150000X0.512500X-0.150000X0.512500X0.150000X-0.512500X0.150000X0*%
%ADD15RoundRect,0.140000X0.140000X0.170000X-0.140000X0.170000X-0.140000X-0.170000X0.140000X-0.170000X0*%
%ADD16RoundRect,0.218750X-0.218750X-0.256250X0.218750X-0.256250X0.218750X0.256250X-0.218750X0.256250X0*%
%ADD17RoundRect,0.225000X0.225000X0.250000X-0.225000X0.250000X-0.225000X-0.250000X0.225000X-0.250000X0*%
%ADD18RoundRect,0.140000X-0.140000X-0.170000X0.140000X-0.170000X0.140000X0.170000X-0.140000X0.170000X0*%
%ADD19RoundRect,0.135000X0.185000X-0.135000X0.185000X0.135000X-0.185000X0.135000X-0.185000X-0.135000X0*%
%ADD20RoundRect,0.100000X-0.637500X-0.100000X0.637500X-0.100000X0.637500X0.100000X-0.637500X0.100000X0*%
%ADD21RoundRect,0.135000X0.135000X0.185000X-0.135000X0.185000X-0.135000X-0.185000X0.135000X-0.185000X0*%
%ADD22RoundRect,0.250000X-0.250000X-0.475000X0.250000X-0.475000X0.250000X0.475000X-0.250000X0.475000X0*%
%ADD23R,1.700000X1.700000*%
%ADD24C,1.700000*%
%ADD25RoundRect,0.250000X-0.325000X-1.100000X0.325000X-1.100000X0.325000X1.100000X-0.325000X1.100000X0*%
%ADD26C,6.000000*%
%ADD27RoundRect,0.135000X-0.185000X0.135000X-0.185000X-0.135000X0.185000X-0.135000X0.185000X0.135000X0*%
%ADD28RoundRect,0.140000X-0.170000X0.140000X-0.170000X-0.140000X0.170000X-0.140000X0.170000X0.140000X0*%
%ADD29RoundRect,0.250000X-0.350000X-0.625000X0.350000X-0.625000X0.350000X0.625000X-0.350000X0.625000X0*%
%ADD30O,1.200000X1.750000*%
%ADD31C,0.650000*%
%ADD32RoundRect,0.150000X0.575000X-0.150000X0.575000X0.150000X-0.575000X0.150000X-0.575000X-0.150000X0*%
%ADD33RoundRect,0.075000X0.650000X-0.075000X0.650000X0.075000X-0.650000X0.075000X-0.650000X-0.075000X0*%
%ADD34O,2.100000X1.000000*%
%ADD35O,1.600000X1.000000*%
%ADD36RoundRect,0.150000X0.512500X0.150000X-0.512500X0.150000X-0.512500X-0.150000X0.512500X-0.150000X0*%
%ADD37R,3.000000X3.000000*%
%ADD38R,1.050000X0.450000*%
%ADD39RoundRect,0.140000X0.170000X-0.140000X0.170000X0.140000X-0.170000X0.140000X-0.170000X-0.140000X0*%
%ADD40RoundRect,0.500000X-0.500000X-0.500000X0.500000X-0.500000X0.500000X0.500000X-0.500000X0.500000X0*%
%ADD41RoundRect,0.250000X-0.475000X0.250000X-0.475000X-0.250000X0.475000X-0.250000X0.475000X0.250000X0*%
%ADD42RoundRect,0.250000X-0.625000X0.350000X-0.625000X-0.350000X0.625000X-0.350000X0.625000X0.350000X0*%
%ADD43O,1.750000X1.200000*%
%ADD44RoundRect,0.087500X-0.425000X-0.087500X0.425000X-0.087500X0.425000X0.087500X-0.425000X0.087500X0*%
%ADD45RoundRect,0.087500X-0.250000X-0.087500X0.250000X-0.087500X0.250000X0.087500X-0.250000X0.087500X0*%
%ADD46R,0.800000X0.400000*%
%ADD47R,0.400000X0.800000*%
%ADD48FreePoly0,0.000000*%
%ADD49R,1.450000X1.450000*%
%ADD50R,0.700000X0.700000*%
%ADD51RoundRect,0.137500X0.662500X-0.137500X0.662500X0.137500X-0.662500X0.137500X-0.662500X-0.137500X0*%
%ADD52RoundRect,0.250000X0.250000X0.475000X-0.250000X0.475000X-0.250000X-0.475000X0.250000X-0.475000X0*%
%ADD53RoundRect,0.218750X0.256250X-0.218750X0.256250X0.218750X-0.256250X0.218750X-0.256250X-0.218750X0*%
G04 APERTURE END LIST*
D10*
X124833333Y-129429580D02*
X124785714Y-129477200D01*
X124785714Y-129477200D02*
X124642857Y-129524819D01*
X124642857Y-129524819D02*
X124547619Y-129524819D01*
X124547619Y-129524819D02*
X124404762Y-129477200D01*
X124404762Y-129477200D02*
X124309524Y-129381961D01*
X124309524Y-129381961D02*
X124261905Y-129286723D01*
X124261905Y-129286723D02*
X124214286Y-129096247D01*
X124214286Y-129096247D02*
X124214286Y-128953390D01*
X124214286Y-128953390D02*
X124261905Y-128762914D01*
X124261905Y-128762914D02*
X124309524Y-128667676D01*
X124309524Y-128667676D02*
X124404762Y-128572438D01*
X124404762Y-128572438D02*
X124547619Y-128524819D01*
X124547619Y-128524819D02*
X124642857Y-128524819D01*
X124642857Y-128524819D02*
X124785714Y-128572438D01*
X124785714Y-128572438D02*
X124833333Y-128620057D01*
X125166667Y-128524819D02*
X125833333Y-128524819D01*
X125833333Y-128524819D02*
X125404762Y-129524819D01*
X150359580Y-123366666D02*
X150407200Y-123414285D01*
X150407200Y-123414285D02*
X150454819Y-123557142D01*
X150454819Y-123557142D02*
X150454819Y-123652380D01*
X150454819Y-123652380D02*
X150407200Y-123795237D01*
X150407200Y-123795237D02*
X150311961Y-123890475D01*
X150311961Y-123890475D02*
X150216723Y-123938094D01*
X150216723Y-123938094D02*
X150026247Y-123985713D01*
X150026247Y-123985713D02*
X149883390Y-123985713D01*
X149883390Y-123985713D02*
X149692914Y-123938094D01*
X149692914Y-123938094D02*
X149597676Y-123890475D01*
X149597676Y-123890475D02*
X149502438Y-123795237D01*
X149502438Y-123795237D02*
X149454819Y-123652380D01*
X149454819Y-123652380D02*
X149454819Y-123557142D01*
X149454819Y-123557142D02*
X149502438Y-123414285D01*
X149502438Y-123414285D02*
X149550057Y-123366666D01*
X149788152Y-122509523D02*
X150454819Y-122509523D01*
X149407200Y-122747618D02*
X150121485Y-122985713D01*
X150121485Y-122985713D02*
X150121485Y-122366666D01*
X108833333Y-129679580D02*
X108785714Y-129727200D01*
X108785714Y-129727200D02*
X108642857Y-129774819D01*
X108642857Y-129774819D02*
X108547619Y-129774819D01*
X108547619Y-129774819D02*
X108404762Y-129727200D01*
X108404762Y-129727200D02*
X108309524Y-129631961D01*
X108309524Y-129631961D02*
X108261905Y-129536723D01*
X108261905Y-129536723D02*
X108214286Y-129346247D01*
X108214286Y-129346247D02*
X108214286Y-129203390D01*
X108214286Y-129203390D02*
X108261905Y-129012914D01*
X108261905Y-129012914D02*
X108309524Y-128917676D01*
X108309524Y-128917676D02*
X108404762Y-128822438D01*
X108404762Y-128822438D02*
X108547619Y-128774819D01*
X108547619Y-128774819D02*
X108642857Y-128774819D01*
X108642857Y-128774819D02*
X108785714Y-128822438D01*
X108785714Y-128822438D02*
X108833333Y-128870057D01*
X109309524Y-129774819D02*
X109500000Y-129774819D01*
X109500000Y-129774819D02*
X109595238Y-129727200D01*
X109595238Y-129727200D02*
X109642857Y-129679580D01*
X109642857Y-129679580D02*
X109738095Y-129536723D01*
X109738095Y-129536723D02*
X109785714Y-129346247D01*
X109785714Y-129346247D02*
X109785714Y-128965295D01*
X109785714Y-128965295D02*
X109738095Y-128870057D01*
X109738095Y-128870057D02*
X109690476Y-128822438D01*
X109690476Y-128822438D02*
X109595238Y-128774819D01*
X109595238Y-128774819D02*
X109404762Y-128774819D01*
X109404762Y-128774819D02*
X109309524Y-128822438D01*
X109309524Y-128822438D02*
X109261905Y-128870057D01*
X109261905Y-128870057D02*
X109214286Y-128965295D01*
X109214286Y-128965295D02*
X109214286Y-129203390D01*
X109214286Y-129203390D02*
X109261905Y-129298628D01*
X109261905Y-129298628D02*
X109309524Y-129346247D01*
X109309524Y-129346247D02*
X109404762Y-129393866D01*
X109404762Y-129393866D02*
X109595238Y-129393866D01*
X109595238Y-129393866D02*
X109690476Y-129346247D01*
X109690476Y-129346247D02*
X109738095Y-129298628D01*
X109738095Y-129298628D02*
X109785714Y-129203390D01*
X118257142Y-124809580D02*
X118209523Y-124857200D01*
X118209523Y-124857200D02*
X118066666Y-124904819D01*
X118066666Y-124904819D02*
X117971428Y-124904819D01*
X117971428Y-124904819D02*
X117828571Y-124857200D01*
X117828571Y-124857200D02*
X117733333Y-124761961D01*
X117733333Y-124761961D02*
X117685714Y-124666723D01*
X117685714Y-124666723D02*
X117638095Y-124476247D01*
X117638095Y-124476247D02*
X117638095Y-124333390D01*
X117638095Y-124333390D02*
X117685714Y-124142914D01*
X117685714Y-124142914D02*
X117733333Y-124047676D01*
X117733333Y-124047676D02*
X117828571Y-123952438D01*
X117828571Y-123952438D02*
X117971428Y-123904819D01*
X117971428Y-123904819D02*
X118066666Y-123904819D01*
X118066666Y-123904819D02*
X118209523Y-123952438D01*
X118209523Y-123952438D02*
X118257142Y-124000057D01*
X119209523Y-124904819D02*
X118638095Y-124904819D01*
X118923809Y-124904819D02*
X118923809Y-123904819D01*
X118923809Y-123904819D02*
X118828571Y-124047676D01*
X118828571Y-124047676D02*
X118733333Y-124142914D01*
X118733333Y-124142914D02*
X118638095Y-124190533D01*
X119542857Y-123904819D02*
X120161904Y-123904819D01*
X120161904Y-123904819D02*
X119828571Y-124285771D01*
X119828571Y-124285771D02*
X119971428Y-124285771D01*
X119971428Y-124285771D02*
X120066666Y-124333390D01*
X120066666Y-124333390D02*
X120114285Y-124381009D01*
X120114285Y-124381009D02*
X120161904Y-124476247D01*
X120161904Y-124476247D02*
X120161904Y-124714342D01*
X120161904Y-124714342D02*
X120114285Y-124809580D01*
X120114285Y-124809580D02*
X120066666Y-124857200D01*
X120066666Y-124857200D02*
X119971428Y-124904819D01*
X119971428Y-124904819D02*
X119685714Y-124904819D01*
X119685714Y-124904819D02*
X119590476Y-124857200D01*
X119590476Y-124857200D02*
X119542857Y-124809580D01*
X143233333Y-122129580D02*
X143185714Y-122177200D01*
X143185714Y-122177200D02*
X143042857Y-122224819D01*
X143042857Y-122224819D02*
X142947619Y-122224819D01*
X142947619Y-122224819D02*
X142804762Y-122177200D01*
X142804762Y-122177200D02*
X142709524Y-122081961D01*
X142709524Y-122081961D02*
X142661905Y-121986723D01*
X142661905Y-121986723D02*
X142614286Y-121796247D01*
X142614286Y-121796247D02*
X142614286Y-121653390D01*
X142614286Y-121653390D02*
X142661905Y-121462914D01*
X142661905Y-121462914D02*
X142709524Y-121367676D01*
X142709524Y-121367676D02*
X142804762Y-121272438D01*
X142804762Y-121272438D02*
X142947619Y-121224819D01*
X142947619Y-121224819D02*
X143042857Y-121224819D01*
X143042857Y-121224819D02*
X143185714Y-121272438D01*
X143185714Y-121272438D02*
X143233333Y-121320057D01*
X144138095Y-121224819D02*
X143661905Y-121224819D01*
X143661905Y-121224819D02*
X143614286Y-121701009D01*
X143614286Y-121701009D02*
X143661905Y-121653390D01*
X143661905Y-121653390D02*
X143757143Y-121605771D01*
X143757143Y-121605771D02*
X143995238Y-121605771D01*
X143995238Y-121605771D02*
X144090476Y-121653390D01*
X144090476Y-121653390D02*
X144138095Y-121701009D01*
X144138095Y-121701009D02*
X144185714Y-121796247D01*
X144185714Y-121796247D02*
X144185714Y-122034342D01*
X144185714Y-122034342D02*
X144138095Y-122129580D01*
X144138095Y-122129580D02*
X144090476Y-122177200D01*
X144090476Y-122177200D02*
X143995238Y-122224819D01*
X143995238Y-122224819D02*
X143757143Y-122224819D01*
X143757143Y-122224819D02*
X143661905Y-122177200D01*
X143661905Y-122177200D02*
X143614286Y-122129580D01*
X137666666Y-101390819D02*
X137333333Y-100914628D01*
X137095238Y-101390819D02*
X137095238Y-100390819D01*
X137095238Y-100390819D02*
X137476190Y-100390819D01*
X137476190Y-100390819D02*
X137571428Y-100438438D01*
X137571428Y-100438438D02*
X137619047Y-100486057D01*
X137619047Y-100486057D02*
X137666666Y-100581295D01*
X137666666Y-100581295D02*
X137666666Y-100724152D01*
X137666666Y-100724152D02*
X137619047Y-100819390D01*
X137619047Y-100819390D02*
X137571428Y-100867009D01*
X137571428Y-100867009D02*
X137476190Y-100914628D01*
X137476190Y-100914628D02*
X137095238Y-100914628D01*
X138095238Y-100867009D02*
X138428571Y-100867009D01*
X138571428Y-101390819D02*
X138095238Y-101390819D01*
X138095238Y-101390819D02*
X138095238Y-100390819D01*
X138095238Y-100390819D02*
X138571428Y-100390819D01*
X139333333Y-100867009D02*
X139000000Y-100867009D01*
X139000000Y-101390819D02*
X139000000Y-100390819D01*
X139000000Y-100390819D02*
X139476190Y-100390819D01*
X140000000Y-100390819D02*
X140000000Y-100628914D01*
X139761905Y-100533676D02*
X140000000Y-100628914D01*
X140000000Y-100628914D02*
X140238095Y-100533676D01*
X139857143Y-100819390D02*
X140000000Y-100628914D01*
X140000000Y-100628914D02*
X140142857Y-100819390D01*
X140761905Y-100390819D02*
X140761905Y-100628914D01*
X140523810Y-100533676D02*
X140761905Y-100628914D01*
X140761905Y-100628914D02*
X141000000Y-100533676D01*
X140619048Y-100819390D02*
X140761905Y-100628914D01*
X140761905Y-100628914D02*
X140904762Y-100819390D01*
X123189580Y-130732857D02*
X123237200Y-130780476D01*
X123237200Y-130780476D02*
X123284819Y-130923333D01*
X123284819Y-130923333D02*
X123284819Y-131018571D01*
X123284819Y-131018571D02*
X123237200Y-131161428D01*
X123237200Y-131161428D02*
X123141961Y-131256666D01*
X123141961Y-131256666D02*
X123046723Y-131304285D01*
X123046723Y-131304285D02*
X122856247Y-131351904D01*
X122856247Y-131351904D02*
X122713390Y-131351904D01*
X122713390Y-131351904D02*
X122522914Y-131304285D01*
X122522914Y-131304285D02*
X122427676Y-131256666D01*
X122427676Y-131256666D02*
X122332438Y-131161428D01*
X122332438Y-131161428D02*
X122284819Y-131018571D01*
X122284819Y-131018571D02*
X122284819Y-130923333D01*
X122284819Y-130923333D02*
X122332438Y-130780476D01*
X122332438Y-130780476D02*
X122380057Y-130732857D01*
X123284819Y-129780476D02*
X123284819Y-130351904D01*
X123284819Y-130066190D02*
X122284819Y-130066190D01*
X122284819Y-130066190D02*
X122427676Y-130161428D01*
X122427676Y-130161428D02*
X122522914Y-130256666D01*
X122522914Y-130256666D02*
X122570533Y-130351904D01*
X123284819Y-128828095D02*
X123284819Y-129399523D01*
X123284819Y-129113809D02*
X122284819Y-129113809D01*
X122284819Y-129113809D02*
X122427676Y-129209047D01*
X122427676Y-129209047D02*
X122522914Y-129304285D01*
X122522914Y-129304285D02*
X122570533Y-129399523D01*
X111133333Y-109209580D02*
X111085714Y-109257200D01*
X111085714Y-109257200D02*
X110942857Y-109304819D01*
X110942857Y-109304819D02*
X110847619Y-109304819D01*
X110847619Y-109304819D02*
X110704762Y-109257200D01*
X110704762Y-109257200D02*
X110609524Y-109161961D01*
X110609524Y-109161961D02*
X110561905Y-109066723D01*
X110561905Y-109066723D02*
X110514286Y-108876247D01*
X110514286Y-108876247D02*
X110514286Y-108733390D01*
X110514286Y-108733390D02*
X110561905Y-108542914D01*
X110561905Y-108542914D02*
X110609524Y-108447676D01*
X110609524Y-108447676D02*
X110704762Y-108352438D01*
X110704762Y-108352438D02*
X110847619Y-108304819D01*
X110847619Y-108304819D02*
X110942857Y-108304819D01*
X110942857Y-108304819D02*
X111085714Y-108352438D01*
X111085714Y-108352438D02*
X111133333Y-108400057D01*
X112085714Y-109304819D02*
X111514286Y-109304819D01*
X111800000Y-109304819D02*
X111800000Y-108304819D01*
X111800000Y-108304819D02*
X111704762Y-108447676D01*
X111704762Y-108447676D02*
X111609524Y-108542914D01*
X111609524Y-108542914D02*
X111514286Y-108590533D01*
X117807142Y-129379580D02*
X117759523Y-129427200D01*
X117759523Y-129427200D02*
X117616666Y-129474819D01*
X117616666Y-129474819D02*
X117521428Y-129474819D01*
X117521428Y-129474819D02*
X117378571Y-129427200D01*
X117378571Y-129427200D02*
X117283333Y-129331961D01*
X117283333Y-129331961D02*
X117235714Y-129236723D01*
X117235714Y-129236723D02*
X117188095Y-129046247D01*
X117188095Y-129046247D02*
X117188095Y-128903390D01*
X117188095Y-128903390D02*
X117235714Y-128712914D01*
X117235714Y-128712914D02*
X117283333Y-128617676D01*
X117283333Y-128617676D02*
X117378571Y-128522438D01*
X117378571Y-128522438D02*
X117521428Y-128474819D01*
X117521428Y-128474819D02*
X117616666Y-128474819D01*
X117616666Y-128474819D02*
X117759523Y-128522438D01*
X117759523Y-128522438D02*
X117807142Y-128570057D01*
X118759523Y-129474819D02*
X118188095Y-129474819D01*
X118473809Y-129474819D02*
X118473809Y-128474819D01*
X118473809Y-128474819D02*
X118378571Y-128617676D01*
X118378571Y-128617676D02*
X118283333Y-128712914D01*
X118283333Y-128712914D02*
X118188095Y-128760533D01*
X119378571Y-128474819D02*
X119473809Y-128474819D01*
X119473809Y-128474819D02*
X119569047Y-128522438D01*
X119569047Y-128522438D02*
X119616666Y-128570057D01*
X119616666Y-128570057D02*
X119664285Y-128665295D01*
X119664285Y-128665295D02*
X119711904Y-128855771D01*
X119711904Y-128855771D02*
X119711904Y-129093866D01*
X119711904Y-129093866D02*
X119664285Y-129284342D01*
X119664285Y-129284342D02*
X119616666Y-129379580D01*
X119616666Y-129379580D02*
X119569047Y-129427200D01*
X119569047Y-129427200D02*
X119473809Y-129474819D01*
X119473809Y-129474819D02*
X119378571Y-129474819D01*
X119378571Y-129474819D02*
X119283333Y-129427200D01*
X119283333Y-129427200D02*
X119235714Y-129379580D01*
X119235714Y-129379580D02*
X119188095Y-129284342D01*
X119188095Y-129284342D02*
X119140476Y-129093866D01*
X119140476Y-129093866D02*
X119140476Y-128855771D01*
X119140476Y-128855771D02*
X119188095Y-128665295D01*
X119188095Y-128665295D02*
X119235714Y-128570057D01*
X119235714Y-128570057D02*
X119283333Y-128522438D01*
X119283333Y-128522438D02*
X119378571Y-128474819D01*
X113433333Y-102859580D02*
X113385714Y-102907200D01*
X113385714Y-102907200D02*
X113242857Y-102954819D01*
X113242857Y-102954819D02*
X113147619Y-102954819D01*
X113147619Y-102954819D02*
X113004762Y-102907200D01*
X113004762Y-102907200D02*
X112909524Y-102811961D01*
X112909524Y-102811961D02*
X112861905Y-102716723D01*
X112861905Y-102716723D02*
X112814286Y-102526247D01*
X112814286Y-102526247D02*
X112814286Y-102383390D01*
X112814286Y-102383390D02*
X112861905Y-102192914D01*
X112861905Y-102192914D02*
X112909524Y-102097676D01*
X112909524Y-102097676D02*
X113004762Y-102002438D01*
X113004762Y-102002438D02*
X113147619Y-101954819D01*
X113147619Y-101954819D02*
X113242857Y-101954819D01*
X113242857Y-101954819D02*
X113385714Y-102002438D01*
X113385714Y-102002438D02*
X113433333Y-102050057D01*
X113814286Y-102050057D02*
X113861905Y-102002438D01*
X113861905Y-102002438D02*
X113957143Y-101954819D01*
X113957143Y-101954819D02*
X114195238Y-101954819D01*
X114195238Y-101954819D02*
X114290476Y-102002438D01*
X114290476Y-102002438D02*
X114338095Y-102050057D01*
X114338095Y-102050057D02*
X114385714Y-102145295D01*
X114385714Y-102145295D02*
X114385714Y-102240533D01*
X114385714Y-102240533D02*
X114338095Y-102383390D01*
X114338095Y-102383390D02*
X113766667Y-102954819D01*
X113766667Y-102954819D02*
X114385714Y-102954819D01*
X131483333Y-125929580D02*
X131435714Y-125977200D01*
X131435714Y-125977200D02*
X131292857Y-126024819D01*
X131292857Y-126024819D02*
X131197619Y-126024819D01*
X131197619Y-126024819D02*
X131054762Y-125977200D01*
X131054762Y-125977200D02*
X130959524Y-125881961D01*
X130959524Y-125881961D02*
X130911905Y-125786723D01*
X130911905Y-125786723D02*
X130864286Y-125596247D01*
X130864286Y-125596247D02*
X130864286Y-125453390D01*
X130864286Y-125453390D02*
X130911905Y-125262914D01*
X130911905Y-125262914D02*
X130959524Y-125167676D01*
X130959524Y-125167676D02*
X131054762Y-125072438D01*
X131054762Y-125072438D02*
X131197619Y-125024819D01*
X131197619Y-125024819D02*
X131292857Y-125024819D01*
X131292857Y-125024819D02*
X131435714Y-125072438D01*
X131435714Y-125072438D02*
X131483333Y-125120057D01*
X132054762Y-125453390D02*
X131959524Y-125405771D01*
X131959524Y-125405771D02*
X131911905Y-125358152D01*
X131911905Y-125358152D02*
X131864286Y-125262914D01*
X131864286Y-125262914D02*
X131864286Y-125215295D01*
X131864286Y-125215295D02*
X131911905Y-125120057D01*
X131911905Y-125120057D02*
X131959524Y-125072438D01*
X131959524Y-125072438D02*
X132054762Y-125024819D01*
X132054762Y-125024819D02*
X132245238Y-125024819D01*
X132245238Y-125024819D02*
X132340476Y-125072438D01*
X132340476Y-125072438D02*
X132388095Y-125120057D01*
X132388095Y-125120057D02*
X132435714Y-125215295D01*
X132435714Y-125215295D02*
X132435714Y-125262914D01*
X132435714Y-125262914D02*
X132388095Y-125358152D01*
X132388095Y-125358152D02*
X132340476Y-125405771D01*
X132340476Y-125405771D02*
X132245238Y-125453390D01*
X132245238Y-125453390D02*
X132054762Y-125453390D01*
X132054762Y-125453390D02*
X131959524Y-125501009D01*
X131959524Y-125501009D02*
X131911905Y-125548628D01*
X131911905Y-125548628D02*
X131864286Y-125643866D01*
X131864286Y-125643866D02*
X131864286Y-125834342D01*
X131864286Y-125834342D02*
X131911905Y-125929580D01*
X131911905Y-125929580D02*
X131959524Y-125977200D01*
X131959524Y-125977200D02*
X132054762Y-126024819D01*
X132054762Y-126024819D02*
X132245238Y-126024819D01*
X132245238Y-126024819D02*
X132340476Y-125977200D01*
X132340476Y-125977200D02*
X132388095Y-125929580D01*
X132388095Y-125929580D02*
X132435714Y-125834342D01*
X132435714Y-125834342D02*
X132435714Y-125643866D01*
X132435714Y-125643866D02*
X132388095Y-125548628D01*
X132388095Y-125548628D02*
X132340476Y-125501009D01*
X132340476Y-125501009D02*
X132245238Y-125453390D01*
%TO.C,C7*%
D11*
X124859420Y-129990000D02*
X125140580Y-129990000D01*
X124859420Y-131010000D02*
X125140580Y-131010000D01*
%TO.C,R10*%
X108446359Y-124020000D02*
X108753641Y-124020000D01*
X108446359Y-124780000D02*
X108753641Y-124780000D01*
%TO.C,U5*%
X144590000Y-129440000D02*
X146410000Y-129440000D01*
X144590000Y-129490000D02*
X144590000Y-129440000D01*
X144590000Y-132560000D02*
X144590000Y-132510000D01*
X146410000Y-129440000D02*
X146410000Y-129490000D01*
X146410000Y-132510000D02*
X146410000Y-132560000D01*
X146410000Y-132560000D02*
X144590000Y-132560000D01*
X144050000Y-129490000D02*
X143810000Y-129160000D01*
X144290000Y-129160000D01*
X144050000Y-129490000D01*
G36*
X144050000Y-129490000D02*
G01*
X143810000Y-129160000D01*
X144290000Y-129160000D01*
X144050000Y-129490000D01*
G37*
%TO.C,C3*%
X113707836Y-105240000D02*
X113492164Y-105240000D01*
X113707836Y-105960000D02*
X113492164Y-105960000D01*
%TO.C,D2*%
X146115000Y-124665000D02*
X146115000Y-126135000D01*
X146115000Y-126135000D02*
X148400000Y-126135000D01*
X148400000Y-124665000D02*
X146115000Y-124665000D01*
%TO.C,C4*%
X147740580Y-122690000D02*
X147459420Y-122690000D01*
X147740580Y-123710000D02*
X147459420Y-123710000D01*
%TO.C,C12*%
X117992164Y-119440000D02*
X118207836Y-119440000D01*
X117992164Y-120160000D02*
X118207836Y-120160000D01*
%TO.C,R11*%
X122120000Y-123953641D02*
X122120000Y-123646359D01*
X122880000Y-123953641D02*
X122880000Y-123646359D01*
%TO.C,R12*%
X122120000Y-127153641D02*
X122120000Y-126846359D01*
X122880000Y-127153641D02*
X122880000Y-126846359D01*
%TO.C,R14*%
X135120000Y-111653641D02*
X135120000Y-111346359D01*
X135880000Y-111653641D02*
X135880000Y-111346359D01*
%TO.C,Q1*%
X136290000Y-129890000D02*
X140910000Y-129890000D01*
X136290000Y-130065000D02*
X136290000Y-129890000D01*
X136290000Y-133110000D02*
X136290000Y-132935000D01*
X140910000Y-129890000D02*
X140910000Y-130065000D01*
X140910000Y-132935000D02*
X140910000Y-133110000D01*
X140910000Y-133110000D02*
X136290000Y-133110000D01*
X135730000Y-130060000D02*
X135490000Y-129730000D01*
X135970000Y-129730000D01*
X135730000Y-130060000D01*
G36*
X135730000Y-130060000D02*
G01*
X135490000Y-129730000D01*
X135970000Y-129730000D01*
X135730000Y-130060000D01*
G37*
%TO.C,C16*%
X111092164Y-124040000D02*
X111307836Y-124040000D01*
X111092164Y-124760000D02*
X111307836Y-124760000D01*
%TO.C,R17*%
X117953641Y-133020000D02*
X117646359Y-133020000D01*
X117953641Y-133780000D02*
X117646359Y-133780000D01*
%TO.C,C9*%
X108738748Y-130265000D02*
X109261252Y-130265000D01*
X108738748Y-131735000D02*
X109261252Y-131735000D01*
%TO.C,R5*%
X151020000Y-119753641D02*
X151020000Y-119446359D01*
X151780000Y-119753641D02*
X151780000Y-119446359D01*
%TO.C,J5*%
X116220000Y-138180000D02*
X116220000Y-136800000D01*
X117600000Y-138180000D02*
X116220000Y-138180000D01*
X118870000Y-135420000D02*
X121520000Y-135420000D01*
X118870000Y-138180000D02*
X118870000Y-135420000D01*
X118870000Y-138180000D02*
X121520000Y-138180000D01*
X121520000Y-138180000D02*
X121520000Y-135420000D01*
%TO.C,C13*%
X118188748Y-125390000D02*
X119611252Y-125390000D01*
X118188748Y-128110000D02*
X119611252Y-128110000D01*
%TO.C,R9*%
X112520000Y-126146359D02*
X112520000Y-126453641D01*
X113280000Y-126146359D02*
X113280000Y-126453641D01*
%TO.C,R8*%
X113920000Y-126453641D02*
X113920000Y-126146359D01*
X114680000Y-126453641D02*
X114680000Y-126146359D01*
%TO.C,C5*%
X143259420Y-122690000D02*
X143540580Y-122690000D01*
X143259420Y-123710000D02*
X143540580Y-123710000D01*
%TO.C,C6*%
X150640000Y-131892164D02*
X150640000Y-132107836D01*
X151360000Y-131892164D02*
X151360000Y-132107836D01*
%TO.C,J7*%
X129220000Y-138180000D02*
X129220000Y-136800000D01*
X130600000Y-138180000D02*
X129220000Y-138180000D01*
X131870000Y-135420000D02*
X134520000Y-135420000D01*
X131870000Y-138180000D02*
X131870000Y-135420000D01*
X131870000Y-138180000D02*
X134520000Y-138180000D01*
X134520000Y-138180000D02*
X134520000Y-135420000D01*
%TO.C,U4*%
X146090000Y-119040000D02*
X147910000Y-119040000D01*
X146090000Y-119090000D02*
X146090000Y-119040000D01*
X146090000Y-122160000D02*
X146090000Y-122110000D01*
X147910000Y-119040000D02*
X147910000Y-119090000D01*
X147910000Y-120210000D02*
X147910000Y-120990000D01*
X147910000Y-122110000D02*
X147910000Y-122160000D01*
X147910000Y-122160000D02*
X146090000Y-122160000D01*
X145550000Y-119090000D02*
X145310000Y-118760000D01*
X145790000Y-118760000D01*
X145550000Y-119090000D01*
G36*
X145550000Y-119090000D02*
G01*
X145310000Y-118760000D01*
X145790000Y-118760000D01*
X145550000Y-119090000D01*
G37*
%TO.C,R15*%
X128046358Y-120220000D02*
X128353640Y-120220000D01*
X128046358Y-120980000D02*
X128353640Y-120980000D01*
%TO.C,R19*%
X130220000Y-134053641D02*
X130220000Y-133746359D01*
X130980000Y-134053641D02*
X130980000Y-133746359D01*
%TO.C,J2*%
X135140000Y-134090000D02*
X135140000Y-135340000D01*
X135440000Y-135700000D02*
X136050000Y-135700000D01*
X135440000Y-137000000D02*
X136050000Y-137000000D01*
X136050000Y-135000000D02*
X136050000Y-138500000D01*
X136050000Y-138500000D02*
X140950000Y-138500000D01*
X136390000Y-134090000D02*
X135140000Y-134090000D01*
X136900000Y-134190000D02*
X136900000Y-134390000D01*
X137200000Y-134190000D02*
X136900000Y-134190000D01*
X137200000Y-134290000D02*
X136900000Y-134290000D01*
X137200000Y-134390000D02*
X137200000Y-134190000D01*
X138000000Y-134390000D02*
X138000000Y-135000000D01*
X138000000Y-135000000D02*
X136050000Y-135000000D01*
X138400000Y-138000000D02*
X138600000Y-138000000D01*
X138400000Y-138500000D02*
X138400000Y-138000000D01*
X138500000Y-138500000D02*
X138500000Y-138000000D01*
X138600000Y-138000000D02*
X138600000Y-138500000D01*
X139000000Y-135000000D02*
X139000000Y-134390000D01*
X140950000Y-135000000D02*
X139000000Y-135000000D01*
X140950000Y-138500000D02*
X140950000Y-135000000D01*
X141560000Y-135700000D02*
X140950000Y-135700000D01*
X141560000Y-137000000D02*
X140950000Y-137000000D01*
X135440000Y-134390000D02*
X141560000Y-134390000D01*
X141560000Y-139110000D01*
X135440000Y-139110000D01*
X135440000Y-134390000D01*
%TO.C,J1*%
X148600000Y-107300000D02*
X150600000Y-107300000D01*
X148600000Y-116700000D02*
X150600000Y-116700000D01*
X152500000Y-107300000D02*
X154400000Y-107300000D01*
X152500000Y-116700000D02*
X154400000Y-116700000D01*
X154400000Y-116700000D02*
X154400000Y-107300000D01*
%TO.C,R3*%
X144146359Y-118220000D02*
X144453641Y-118220000D01*
X144146359Y-118980000D02*
X144453641Y-118980000D01*
%TO.C,D1*%
X140090000Y-108440000D02*
X141910000Y-108440000D01*
X140090000Y-108490000D02*
X140090000Y-108440000D01*
X140090000Y-111560000D02*
X140090000Y-111510000D01*
X141910000Y-108440000D02*
X141910000Y-108490000D01*
X141910000Y-111510000D02*
X141910000Y-111560000D01*
X141910000Y-111560000D02*
X140090000Y-111560000D01*
X142450000Y-111510000D02*
X142690000Y-111840000D01*
X142210000Y-111840000D01*
X142450000Y-111510000D01*
G36*
X142690000Y-111840000D02*
G01*
X142210000Y-111840000D01*
X142450000Y-111510000D01*
X142690000Y-111840000D01*
G37*
%TO.C,R13*%
X121053641Y-116220000D02*
X120746359Y-116220000D01*
X121053641Y-116980000D02*
X120746359Y-116980000D01*
%TO.C,U2*%
D10*
X108250000Y-114275000D02*
X112750000Y-114275000D01*
X108250000Y-119725000D02*
X112750000Y-119725000D01*
D11*
X106900000Y-114725000D02*
X106570000Y-114485000D01*
X106570000Y-114965000D01*
X106900000Y-114725000D01*
G36*
X106900000Y-114725000D02*
G01*
X106570000Y-114965000D01*
X106570000Y-114485000D01*
X106900000Y-114725000D01*
G37*
%TO.C,U6*%
X127090000Y-126440000D02*
X128910000Y-126440000D01*
X127090000Y-126490000D02*
X127090000Y-126440000D01*
X127090000Y-129560000D02*
X127090000Y-129510000D01*
X128910000Y-126440000D02*
X128910000Y-126490000D01*
X128910000Y-127610000D02*
X128910000Y-128390000D01*
X128910000Y-129510000D02*
X128910000Y-129560000D01*
X128910000Y-129560000D02*
X127090000Y-129560000D01*
X126550000Y-126490000D02*
X126310000Y-126160000D01*
X126790000Y-126160000D01*
X126550000Y-126490000D01*
G36*
X126550000Y-126490000D02*
G01*
X126310000Y-126160000D01*
X126790000Y-126160000D01*
X126550000Y-126490000D01*
G37*
%TO.C,C15*%
X114540000Y-116157836D02*
X114540000Y-115942164D01*
X115260000Y-116157836D02*
X115260000Y-115942164D01*
%TO.C,J4*%
X107220000Y-138180000D02*
X107220000Y-136800000D01*
X108600000Y-138180000D02*
X107220000Y-138180000D01*
X109870000Y-135420000D02*
X115060000Y-135420000D01*
X109870000Y-138180000D02*
X109870000Y-135420000D01*
X109870000Y-138180000D02*
X115060000Y-138180000D01*
X115060000Y-138180000D02*
X115060000Y-135420000D01*
%TO.C,C20*%
X126092164Y-132540000D02*
X126307836Y-132540000D01*
X126092164Y-133260000D02*
X126307836Y-133260000D01*
%TO.C,S4*%
X135850000Y-103019000D02*
X137000000Y-101850000D01*
X135850000Y-103700000D02*
X135850000Y-103019000D01*
X135850000Y-106300000D02*
X135850000Y-107000000D01*
X135850000Y-107000000D02*
X137000000Y-108150000D01*
X137000000Y-101850000D02*
X141000000Y-101850000D01*
X137000000Y-108150000D02*
X141000000Y-108150000D01*
X141000000Y-101850000D02*
X142150000Y-103000000D01*
X141000000Y-108150000D02*
X142150000Y-107000000D01*
X142150000Y-103000000D02*
X142150000Y-103700000D01*
X142150000Y-107000000D02*
X142150000Y-106300000D01*
%TO.C,C11*%
X120415000Y-129828748D02*
X120415000Y-130351252D01*
X121885000Y-129828748D02*
X121885000Y-130351252D01*
%TO.C,J6*%
X122620000Y-138180000D02*
X122620000Y-136800000D01*
X124000000Y-138180000D02*
X122620000Y-138180000D01*
X125270000Y-135420000D02*
X127920000Y-135420000D01*
X125270000Y-138180000D02*
X125270000Y-135420000D01*
X125270000Y-138180000D02*
X127920000Y-138180000D01*
X127920000Y-138180000D02*
X127920000Y-135420000D01*
%TO.C,J3*%
X102200000Y-107550000D02*
X102200000Y-112450000D01*
X102200000Y-109900000D02*
X102700000Y-109900000D01*
X102200000Y-110000000D02*
X102700000Y-110000000D01*
X102200000Y-112450000D02*
X105700000Y-112450000D01*
X102700000Y-109900000D02*
X102700000Y-110100000D01*
X102700000Y-110100000D02*
X102200000Y-110100000D01*
X103700000Y-106940000D02*
X103700000Y-107550000D01*
X103700000Y-113060000D02*
X103700000Y-112450000D01*
X105000000Y-106940000D02*
X105000000Y-107550000D01*
X105000000Y-113060000D02*
X105000000Y-112450000D01*
X105700000Y-107550000D02*
X102200000Y-107550000D01*
X105700000Y-109500000D02*
X105700000Y-107550000D01*
X105700000Y-110500000D02*
X106310000Y-110500000D01*
X105700000Y-112450000D02*
X105700000Y-110500000D01*
X106310000Y-108700000D02*
X106510000Y-108700000D01*
X106310000Y-109500000D02*
X105700000Y-109500000D01*
X106410000Y-108700000D02*
X106410000Y-108400000D01*
X106510000Y-108400000D02*
X106310000Y-108400000D01*
X106510000Y-108700000D02*
X106510000Y-108400000D01*
X106610000Y-106640000D02*
X105360000Y-106640000D01*
X106610000Y-107890000D02*
X106610000Y-106640000D01*
X101590000Y-106940000D02*
X106310000Y-106940000D01*
X106310000Y-113060000D01*
X101590000Y-113060000D01*
X101590000Y-106940000D01*
%TO.C,U3*%
X113265000Y-121890000D02*
X114735000Y-121890000D01*
X113265000Y-121915000D02*
X113265000Y-121890000D01*
X113265000Y-124110000D02*
X113265000Y-124085000D01*
X114735000Y-121890000D02*
X114735000Y-121915000D01*
X114735000Y-122785000D02*
X114735000Y-123215000D01*
X114735000Y-124085000D02*
X114735000Y-124110000D01*
X114735000Y-124110000D02*
X113265000Y-124110000D01*
X112820000Y-121910000D02*
X112680000Y-121720000D01*
X112960000Y-121720000D01*
X112820000Y-121910000D01*
G36*
X112820000Y-121910000D02*
G01*
X112680000Y-121720000D01*
X112960000Y-121720000D01*
X112820000Y-121910000D01*
G37*
%TO.C,C1*%
X113459420Y-108340000D02*
X113740580Y-108340000D01*
X113459420Y-109360000D02*
X113740580Y-109360000D01*
%TO.C,R16*%
X128046358Y-121820000D02*
X128353640Y-121820000D01*
X128046358Y-122580000D02*
X128353640Y-122580000D01*
%TO.C,R1*%
X113446359Y-106820000D02*
X113753641Y-106820000D01*
X113446359Y-107580000D02*
X113753641Y-107580000D01*
%TO.C,C17*%
X122140000Y-116907836D02*
X122140000Y-116692164D01*
X122860000Y-116907836D02*
X122860000Y-116692164D01*
%TO.C,R2*%
X142846359Y-116520000D02*
X143153641Y-116520000D01*
X142846359Y-117280000D02*
X143153641Y-117280000D01*
%TO.C,U7*%
X111574432Y-128065000D02*
X112710000Y-128065000D01*
X112710000Y-129935000D02*
X111290000Y-129935000D01*
X111280000Y-128060000D02*
X111140000Y-127870000D01*
X111420000Y-127870000D01*
X111280000Y-128060000D01*
G36*
X111280000Y-128060000D02*
G01*
X111140000Y-127870000D01*
X111420000Y-127870000D01*
X111280000Y-128060000D01*
G37*
%TO.C,R6*%
X150620000Y-128553641D02*
X150620000Y-128246359D01*
X151380000Y-128553641D02*
X151380000Y-128246359D01*
%TO.C,C10*%
X118188748Y-129965000D02*
X118711252Y-129965000D01*
X118188748Y-131435000D02*
X118711252Y-131435000D01*
%TO.C,C18*%
X131292164Y-121840000D02*
X131507836Y-121840000D01*
X131292164Y-122560000D02*
X131507836Y-122560000D01*
%TO.C,R4*%
X150653641Y-125020000D02*
X150346359Y-125020000D01*
X150653641Y-125780000D02*
X150346359Y-125780000D01*
%TO.C,U1*%
X117200000Y-112700000D02*
X117200000Y-113500000D01*
X117200000Y-113500000D02*
X118000000Y-113500000D01*
X117400000Y-102100000D02*
X130600000Y-102100000D01*
X130600000Y-113300000D02*
X117400000Y-113300000D01*
X130800000Y-112700000D02*
X130800000Y-113500000D01*
X130800000Y-113500000D02*
X130000000Y-113500000D01*
%TO.C,R18*%
X123620000Y-134053641D02*
X123620000Y-133746359D01*
X124380000Y-134053641D02*
X124380000Y-133746359D01*
%TO.C,R7*%
X142446359Y-127220000D02*
X142753641Y-127220000D01*
X142446359Y-127980000D02*
X142753641Y-127980000D01*
%TO.C,L1*%
X114440000Y-131910000D02*
X114440000Y-129690000D01*
X116560000Y-129690000D02*
X116560000Y-131910000D01*
%TO.C,C14*%
X115207836Y-117610000D02*
X114992164Y-117610000D01*
X115207836Y-118330000D02*
X114992164Y-118330000D01*
%TO.C,C2*%
X113861252Y-103265000D02*
X113338748Y-103265000D01*
X113861252Y-104735000D02*
X113338748Y-104735000D01*
%TO.C,C19*%
X113492164Y-110040000D02*
X113707836Y-110040000D01*
X113492164Y-110760000D02*
X113707836Y-110760000D01*
%TO.C,C8*%
X131509420Y-126490000D02*
X131790580Y-126490000D01*
X131509420Y-127510000D02*
X131790580Y-127510000D01*
%TO.C,D3*%
X132765000Y-108200000D02*
X132765000Y-110485000D01*
X132765000Y-110485000D02*
X134235000Y-110485000D01*
X134235000Y-110485000D02*
X134235000Y-108200000D01*
%TO.C,C21*%
X132692164Y-132540000D02*
X132907836Y-132540000D01*
X132692164Y-133260000D02*
X132907836Y-133260000D01*
%TD*%
%LPC*%
D12*
%TO.C,C7*%
X124225000Y-130500000D03*
X125775000Y-130500000D03*
%TD*%
D13*
%TO.C,R10*%
X108090000Y-124400000D03*
X109110000Y-124400000D03*
%TD*%
D14*
%TO.C,U5*%
X144362500Y-130050000D03*
X144362500Y-131000000D03*
X144362500Y-131950000D03*
X146637500Y-131950000D03*
X146637500Y-131000000D03*
X146637500Y-130050000D03*
%TD*%
D15*
%TO.C,C3*%
X114080000Y-105600000D03*
X113120000Y-105600000D03*
%TD*%
D16*
%TO.C,D2*%
X146812500Y-125400000D03*
X148387500Y-125400000D03*
%TD*%
D17*
%TO.C,C4*%
X148375000Y-123200000D03*
X146825000Y-123200000D03*
%TD*%
D18*
%TO.C,C12*%
X117620000Y-119800000D03*
X118580000Y-119800000D03*
%TD*%
D19*
%TO.C,R11*%
X122500000Y-124310000D03*
X122500000Y-123290000D03*
%TD*%
%TO.C,R12*%
X122500000Y-127510000D03*
X122500000Y-126490000D03*
%TD*%
%TO.C,R14*%
X135500000Y-112010000D03*
X135500000Y-110990000D03*
%TD*%
D20*
%TO.C,Q1*%
X135737500Y-130525000D03*
X135737500Y-131175000D03*
X135737500Y-131825000D03*
X135737500Y-132475000D03*
X141462500Y-132475000D03*
X141462500Y-131825000D03*
X141462500Y-131175000D03*
X141462500Y-130525000D03*
%TD*%
D18*
%TO.C,C16*%
X110720000Y-124400000D03*
X111680000Y-124400000D03*
%TD*%
D21*
%TO.C,R17*%
X118310000Y-133400000D03*
X117290000Y-133400000D03*
%TD*%
D22*
%TO.C,C9*%
X108050000Y-131000000D03*
X109950000Y-131000000D03*
%TD*%
D19*
%TO.C,R5*%
X151400000Y-120110000D03*
X151400000Y-119090000D03*
%TD*%
D23*
%TO.C,J5*%
X117600000Y-136800000D03*
D24*
X120140000Y-136800000D03*
%TD*%
D25*
%TO.C,C13*%
X117425000Y-126750000D03*
X120375000Y-126750000D03*
%TD*%
D26*
%TO.C,H1*%
X103500000Y-103500000D03*
%TD*%
D27*
%TO.C,R9*%
X112900000Y-125790000D03*
X112900000Y-126810000D03*
%TD*%
D19*
%TO.C,R8*%
X114300000Y-126810000D03*
X114300000Y-125790000D03*
%TD*%
D12*
%TO.C,C5*%
X142625000Y-123200000D03*
X144175000Y-123200000D03*
%TD*%
D28*
%TO.C,C6*%
X151000000Y-131520000D03*
X151000000Y-132480000D03*
%TD*%
D23*
%TO.C,J7*%
X130600000Y-136800000D03*
D24*
X133140000Y-136800000D03*
%TD*%
D14*
%TO.C,U4*%
X145862500Y-119650000D03*
X145862500Y-120600000D03*
X145862500Y-121550000D03*
X148137500Y-121550000D03*
X148137500Y-119650000D03*
%TD*%
D13*
%TO.C,R15*%
X127689999Y-120600000D03*
X128709999Y-120600000D03*
%TD*%
D19*
%TO.C,R19*%
X130600000Y-134410000D03*
X130600000Y-133390000D03*
%TD*%
D29*
%TO.C,J2*%
X137500000Y-136200000D03*
D30*
X139500000Y-136200000D03*
%TD*%
D31*
%TO.C,J1*%
X147900000Y-114890000D03*
X147900000Y-109110000D03*
D32*
X146455000Y-115250000D03*
X146455000Y-114450000D03*
D33*
X146455000Y-113250000D03*
X146455000Y-112250000D03*
X146455000Y-111750000D03*
X146455000Y-110750000D03*
D32*
X146455000Y-109550000D03*
X146455000Y-108750000D03*
X146455000Y-108750000D03*
X146455000Y-109550000D03*
D33*
X146455000Y-110250000D03*
X146455000Y-111250000D03*
X146455000Y-112750000D03*
X146455000Y-113750000D03*
D32*
X146455000Y-114450000D03*
X146455000Y-115250000D03*
D34*
X147370000Y-116320000D03*
D35*
X151550000Y-116320000D03*
D34*
X147370000Y-107680000D03*
D35*
X151550000Y-107680000D03*
%TD*%
D13*
%TO.C,R3*%
X143790000Y-118600000D03*
X144810000Y-118600000D03*
%TD*%
D36*
%TO.C,D1*%
X142137500Y-110950000D03*
X142137500Y-110000000D03*
X142137500Y-109050000D03*
X139862500Y-109050000D03*
X139862500Y-110000000D03*
X139862500Y-110950000D03*
%TD*%
D21*
%TO.C,R13*%
X121410000Y-116600000D03*
X120390000Y-116600000D03*
%TD*%
D26*
%TO.C,H2*%
X151500000Y-103500000D03*
%TD*%
D37*
%TO.C,U2*%
X110500000Y-117000000D03*
D38*
X107725000Y-114725000D03*
X107725000Y-115375000D03*
X107725000Y-116025000D03*
X107725000Y-116675000D03*
X107725000Y-117325000D03*
X107725000Y-117975000D03*
X107725000Y-118625000D03*
X107725000Y-119275000D03*
X113275000Y-119275000D03*
X113275000Y-118625000D03*
X113275000Y-117975000D03*
X113275000Y-117325000D03*
X113275000Y-116675000D03*
X113275000Y-116025000D03*
X113275000Y-115375000D03*
X113275000Y-114725000D03*
%TD*%
D14*
%TO.C,U6*%
X126862500Y-127050000D03*
X126862500Y-128000000D03*
X126862500Y-128950000D03*
X129137500Y-128950000D03*
X129137500Y-127050000D03*
%TD*%
D26*
%TO.C,H3*%
X103500000Y-136500000D03*
%TD*%
D39*
%TO.C,C15*%
X114900000Y-116530000D03*
X114900000Y-115570000D03*
%TD*%
D23*
%TO.C,J4*%
X108600000Y-136800000D03*
D24*
X111140000Y-136800000D03*
X113680000Y-136800000D03*
%TD*%
D18*
%TO.C,C20*%
X125720000Y-132900000D03*
X126680000Y-132900000D03*
%TD*%
D40*
%TO.C,S4*%
X136000000Y-105000000D03*
X142000000Y-105000000D03*
%TD*%
D41*
%TO.C,C11*%
X121150000Y-129140000D03*
X121150000Y-131040000D03*
%TD*%
D23*
%TO.C,J6*%
X124000000Y-136800000D03*
D24*
X126540000Y-136800000D03*
%TD*%
D42*
%TO.C,J3*%
X104500000Y-109000000D03*
D43*
X104500000Y-111000000D03*
%TD*%
D44*
%TO.C,U3*%
X113162500Y-122350000D03*
X113162500Y-123000000D03*
X113162500Y-123650000D03*
X114837500Y-123650000D03*
X114837500Y-122350000D03*
%TD*%
D12*
%TO.C,C1*%
X112825000Y-108850000D03*
X114375000Y-108850000D03*
%TD*%
D13*
%TO.C,R16*%
X127689999Y-122200000D03*
X128709999Y-122200000D03*
%TD*%
%TO.C,R1*%
X113090000Y-107200000D03*
X114110000Y-107200000D03*
%TD*%
D39*
%TO.C,C17*%
X122500000Y-117280000D03*
X122500000Y-116320000D03*
%TD*%
D13*
%TO.C,R2*%
X142490000Y-116900000D03*
X143510000Y-116900000D03*
%TD*%
D45*
%TO.C,U7*%
X111287500Y-128500000D03*
X111287500Y-129000000D03*
X111287500Y-129500000D03*
X112712500Y-129500000D03*
X112712500Y-129000000D03*
X112712500Y-128500000D03*
%TD*%
D19*
%TO.C,R6*%
X151000000Y-128910000D03*
X151000000Y-127890000D03*
%TD*%
D22*
%TO.C,C10*%
X117500000Y-130700000D03*
X119400000Y-130700000D03*
%TD*%
D18*
%TO.C,C18*%
X130920000Y-122200000D03*
X131880000Y-122200000D03*
%TD*%
D21*
%TO.C,R4*%
X151010000Y-125400000D03*
X149990000Y-125400000D03*
%TD*%
D46*
%TO.C,U1*%
X118100000Y-103700000D03*
X118100000Y-104500000D03*
X118100000Y-105300000D03*
X118100000Y-106100000D03*
X118100000Y-106900000D03*
X118100000Y-107700000D03*
X118100000Y-108500000D03*
X118100000Y-109300000D03*
X118100000Y-110100000D03*
X118100000Y-110900000D03*
X118100000Y-111700000D03*
D47*
X119200000Y-112600000D03*
X120000000Y-112600000D03*
X120800000Y-112600000D03*
X121600000Y-112600000D03*
X122400000Y-112600000D03*
X123200000Y-112600000D03*
X124000000Y-112600000D03*
X124800000Y-112600000D03*
X125600000Y-112600000D03*
X126400000Y-112600000D03*
X127200000Y-112600000D03*
X128000000Y-112600000D03*
X128800000Y-112600000D03*
D46*
X129900000Y-111700000D03*
X129900000Y-110900000D03*
X129900000Y-110100000D03*
X129900000Y-109300000D03*
X129900000Y-108500000D03*
X129900000Y-107700000D03*
X129900000Y-106900000D03*
X129900000Y-106100000D03*
X129900000Y-105300000D03*
X129900000Y-104500000D03*
X129900000Y-103700000D03*
D47*
X128800000Y-102800000D03*
X128000000Y-102800000D03*
X127200000Y-102800000D03*
X126400000Y-102800000D03*
X125600000Y-102800000D03*
X124800000Y-102800000D03*
X124000000Y-102800000D03*
X123200000Y-102800000D03*
X122400000Y-102800000D03*
X121600000Y-102800000D03*
X120800000Y-102800000D03*
X120000000Y-102800000D03*
X119200000Y-102800000D03*
D48*
X122025000Y-105725000D03*
D49*
X122025000Y-107700000D03*
X122025000Y-109675000D03*
X124000000Y-105725000D03*
X124000000Y-107700000D03*
X124000000Y-109675000D03*
X125975000Y-105725000D03*
X125975000Y-107700000D03*
X125975000Y-109675000D03*
D50*
X129950000Y-102750000D03*
X129950000Y-112650000D03*
X118050000Y-112650000D03*
X118050000Y-102750000D03*
%TD*%
D19*
%TO.C,R18*%
X124000000Y-134410000D03*
X124000000Y-133390000D03*
%TD*%
D13*
%TO.C,R7*%
X142090000Y-127600000D03*
X143110000Y-127600000D03*
%TD*%
D51*
%TO.C,L1*%
X115500000Y-131525000D03*
X115500000Y-130075000D03*
%TD*%
D15*
%TO.C,C14*%
X115580000Y-117970000D03*
X114620000Y-117970000D03*
%TD*%
D52*
%TO.C,C2*%
X114550000Y-104000000D03*
X112650000Y-104000000D03*
%TD*%
D18*
%TO.C,C19*%
X113120000Y-110400000D03*
X114080000Y-110400000D03*
%TD*%
D12*
%TO.C,C8*%
X130875000Y-127000000D03*
X132425000Y-127000000D03*
%TD*%
D53*
%TO.C,D3*%
X133500000Y-109787500D03*
X133500000Y-108212500D03*
%TD*%
D18*
%TO.C,C21*%
X132320000Y-132900000D03*
X133280000Y-132900000D03*
%TD*%
D26*
%TO.C,H4*%
X151500000Y-136500000D03*
%TD*%
%LPD*%
M02*
