%TF.GenerationSoftware,KiCad,Pcbnew,10.0.5*%
%TF.CreationDate,2026-08-13T00:42:14-05:00*%
%TF.ProjectId,triangle_flywheel_balancer,74726961-6e67-46c6-955f-666c79776865,rev?*%
%TF.SameCoordinates,Original*%
%TF.FileFunction,Copper,L2,Inr*%
%TF.FilePolarity,Positive*%
%FSLAX46Y46*%
G04 Gerber Fmt 4.6, Leading zero omitted, Abs format (unit mm)*
G04 Created by KiCad (PCBNEW 10.0.5) date 2026-08-13 00:42:14*
%MOMM*%
%LPD*%
G01*
G04 APERTURE LIST*
G04 Aperture macros list*
%AMRoundRect*
0 Rectangle with rounded corners*
0 $1 Rounding radius*
0 $2 $3 $4 $5 $6 $7 $8 $9 X,Y pos of 4 corners*
0 Add a 4 corners polygon primitive as box body*
4,1,4,$2,$3,$4,$5,$6,$7,$8,$9,$2,$3,0*
0 Add four circle primitives for the rounded corners*
1,1,$1+$1,$2,$3*
1,1,$1+$1,$4,$5*
1,1,$1+$1,$6,$7*
1,1,$1+$1,$8,$9*
0 Add four rect primitives between the rounded corners*
20,1,$1+$1,$2,$3,$4,$5,0*
20,1,$1+$1,$4,$5,$6,$7,0*
20,1,$1+$1,$6,$7,$8,$9,0*
20,1,$1+$1,$8,$9,$2,$3,0*%
G04 Aperture macros list end*
%TA.AperFunction,ComponentPad*%
%ADD10R,1.700000X1.700000*%
%TD*%
%TA.AperFunction,ComponentPad*%
%ADD11C,1.700000*%
%TD*%
%TA.AperFunction,WasherPad*%
%ADD12C,6.000000*%
%TD*%
%TA.AperFunction,ComponentPad*%
%ADD13RoundRect,0.250000X-0.350000X-0.625000X0.350000X-0.625000X0.350000X0.625000X-0.350000X0.625000X0*%
%TD*%
%TA.AperFunction,ComponentPad*%
%ADD14O,1.200000X1.750000*%
%TD*%
%TA.AperFunction,ComponentPad*%
%ADD15O,2.100000X1.000000*%
%TD*%
%TA.AperFunction,ComponentPad*%
%ADD16O,1.600000X1.000000*%
%TD*%
%TA.AperFunction,ComponentPad*%
%ADD17C,0.600000*%
%TD*%
%TA.AperFunction,ComponentPad*%
%ADD18RoundRect,0.250000X-0.625000X0.350000X-0.625000X-0.350000X0.625000X-0.350000X0.625000X0.350000X0*%
%TD*%
%TA.AperFunction,ComponentPad*%
%ADD19O,1.750000X1.200000*%
%TD*%
%TA.AperFunction,ViaPad*%
%ADD20C,0.600000*%
%TD*%
G04 APERTURE END LIST*
D10*
%TO.N,SW_LATCH_J*%
%TO.C,J5*%
X117600000Y-136800000D03*
D11*
%TO.N,GND*%
X120140000Y-136800000D03*
%TD*%
D12*
%TO.N,*%
%TO.C,H1*%
X103500000Y-103500000D03*
%TD*%
D10*
%TO.N,SW_CLOSED_J*%
%TO.C,J7*%
X130600000Y-136800000D03*
D11*
%TO.N,GND*%
X133140000Y-136800000D03*
%TD*%
D13*
%TO.N,VBAT*%
%TO.C,J2*%
X137500000Y-136200000D03*
D14*
%TO.N,BATT_N*%
X139500000Y-136200000D03*
%TD*%
D15*
%TO.N,GND*%
%TO.C,J1*%
X147370000Y-116320000D03*
D16*
X151550000Y-116320000D03*
D15*
X147370000Y-107680000D03*
D16*
X151550000Y-107680000D03*
%TD*%
D12*
%TO.N,*%
%TO.C,H2*%
X151500000Y-103500000D03*
%TD*%
D17*
%TO.N,GND*%
%TO.C,U2*%
X109400000Y-114800000D03*
X109400000Y-115900000D03*
X109400000Y-117000000D03*
X109400000Y-118100000D03*
X109400000Y-119200000D03*
X110500000Y-114800000D03*
X110500000Y-115900000D03*
X110500000Y-117000000D03*
X110500000Y-118100000D03*
X110500000Y-119200000D03*
X111600000Y-114800000D03*
X111600000Y-115900000D03*
X111600000Y-117000000D03*
X111600000Y-118100000D03*
X111600000Y-119200000D03*
%TD*%
D12*
%TO.N,*%
%TO.C,H3*%
X103500000Y-136500000D03*
%TD*%
D10*
%TO.N,SERVO_PWM*%
%TO.C,J4*%
X108600000Y-136800000D03*
D11*
%TO.N,+5V*%
X111140000Y-136800000D03*
%TO.N,GND*%
X113680000Y-136800000D03*
%TD*%
D10*
%TO.N,SW_OPEN_J*%
%TO.C,J6*%
X124000000Y-136800000D03*
D11*
%TO.N,GND*%
X126540000Y-136800000D03*
%TD*%
D18*
%TO.N,MOTOR_A*%
%TO.C,J3*%
X104500000Y-109000000D03*
D19*
%TO.N,MOTOR_B*%
X104500000Y-111000000D03*
%TD*%
D12*
%TO.N,*%
%TO.C,H4*%
X151500000Y-136500000D03*
%TD*%
D20*
%TO.N,VBAT*%
X144600000Y-121500000D03*
X126000000Y-132050000D03*
X126900000Y-120600000D03*
X151000000Y-129699999D03*
X126000000Y-129500000D03*
X108200000Y-131000000D03*
X111000000Y-130300000D03*
X126000000Y-127000000D03*
X142100000Y-123200000D03*
%TO.N,GND*%
X132800000Y-127000000D03*
X138400000Y-122800000D03*
X126100000Y-130600000D03*
X135800000Y-107200000D03*
X133199999Y-102000000D03*
X151400000Y-115000000D03*
X151400000Y-109800000D03*
X102000000Y-130600000D03*
X112700000Y-127800000D03*
X143600000Y-107200000D03*
X118000000Y-114800000D03*
X138400000Y-104600000D03*
X109900000Y-124400000D03*
X135800000Y-125400000D03*
X107200000Y-135800000D03*
X124800000Y-102800000D03*
X114900000Y-108800000D03*
X120400000Y-127600000D03*
X144700000Y-123200000D03*
X112300000Y-104200000D03*
X146600000Y-123200000D03*
X154000000Y-107200000D03*
X125400000Y-117600000D03*
X148800000Y-107200000D03*
X126900000Y-131000000D03*
X124000000Y-109300000D03*
X138400000Y-138400000D03*
X126000000Y-109300000D03*
X154000000Y-112400000D03*
X124000000Y-105700000D03*
X122000000Y-105700000D03*
X111900000Y-122800000D03*
X122000000Y-109300000D03*
X145600000Y-118600000D03*
X122400000Y-102800000D03*
X154000000Y-125400000D03*
X112300000Y-105600000D03*
X122500000Y-115300000D03*
X154000000Y-130600000D03*
X107200000Y-109800000D03*
X118500000Y-102800000D03*
X129900000Y-112600000D03*
X117100000Y-102800000D03*
X135800000Y-135800000D03*
X114900000Y-110400000D03*
X146200000Y-128000000D03*
X142000000Y-105000000D03*
X148800000Y-128000000D03*
X120200000Y-125400000D03*
X102000000Y-125400000D03*
X119700000Y-119800000D03*
X143400000Y-110000000D03*
X151400000Y-118300000D03*
X117600000Y-117600000D03*
X143900000Y-126700000D03*
X144200000Y-119500000D03*
X120200000Y-130600000D03*
X116900000Y-104300000D03*
X154000000Y-120200000D03*
X135800000Y-120200000D03*
X148800000Y-112400000D03*
X115000000Y-102000000D03*
X134700000Y-133500000D03*
X125600000Y-128000000D03*
X120800000Y-112300000D03*
X143600000Y-135800000D03*
X132699999Y-122200000D03*
X141000000Y-125400000D03*
X135800000Y-115000000D03*
X109700000Y-131000000D03*
X120200000Y-135800000D03*
X107200000Y-125400000D03*
X112400000Y-112400000D03*
X115000000Y-135800000D03*
X146200000Y-102000000D03*
X102000000Y-107200000D03*
X128000000Y-102800000D03*
X107200000Y-112400000D03*
X129500000Y-123100000D03*
X119400000Y-121400000D03*
X109800000Y-104600000D03*
X146200000Y-138400000D03*
X125400000Y-120200000D03*
X120000000Y-102800000D03*
X154000000Y-117600000D03*
X141000000Y-115000000D03*
X144300000Y-116900000D03*
X135800000Y-102000000D03*
X125400000Y-125400000D03*
X113200000Y-129900000D03*
X107200000Y-102000000D03*
X142100000Y-131300000D03*
X118100000Y-112500000D03*
X122500000Y-126000000D03*
X130600000Y-138400000D03*
X102000000Y-122800000D03*
X138400000Y-128000000D03*
X141000000Y-102000000D03*
%TO.N,IPROPI*%
X106650000Y-118150000D03*
X120000000Y-115700000D03*
X112600000Y-123700000D03*
X107000000Y-122600000D03*
%TO.N,PROT_OD*%
X143600000Y-130100000D03*
X134400000Y-132600000D03*
%TO.N,PROT_CS*%
X141300000Y-127600000D03*
X144300000Y-131000000D03*
%TO.N,DW01_VDD*%
X147100000Y-127100000D03*
X147100000Y-130900000D03*
%TO.N,+3V3*%
X114900000Y-105600000D03*
X122000000Y-117200000D03*
X117100000Y-105300000D03*
X122000000Y-122300000D03*
X106200000Y-117330000D03*
X135500000Y-112800000D03*
X122500000Y-118100000D03*
X112300000Y-107000000D03*
X122500000Y-125100000D03*
X114900000Y-104200000D03*
X123600000Y-126200000D03*
%TO.N,VBUS*%
X148300000Y-122600000D03*
X139600000Y-110000000D03*
X145850000Y-109550000D03*
%TO.N,+5V*%
X117700000Y-119800000D03*
X109500000Y-128199999D03*
X119200000Y-126800000D03*
X117650000Y-127800000D03*
X114500000Y-117970000D03*
X114300000Y-126800000D03*
X117650000Y-125700000D03*
X112000000Y-126800000D03*
X115100000Y-126800000D03*
%TO.N,LED_A*%
X132800000Y-107800000D03*
X132800000Y-111600000D03*
%TO.N,SW_LATCH*%
X116400000Y-108600000D03*
X119150000Y-132949999D03*
%TO.N,VBAT_SENSE*%
X119200000Y-114600000D03*
X123200000Y-122200000D03*
%TO.N,SW_CLOSED*%
X128500000Y-134700000D03*
X127600000Y-129800000D03*
X127100000Y-134700000D03*
X124800000Y-112500000D03*
%TO.N,CC1*%
X142300000Y-117600000D03*
X147700000Y-113250000D03*
%TO.N,USB_DP_C*%
X144500000Y-109400000D03*
X147900000Y-112250000D03*
%TO.N,USB_DM_C*%
X143400000Y-111300000D03*
X145150000Y-112750000D03*
%TO.N,CC2*%
X138500000Y-118250000D03*
X145200000Y-107900000D03*
%TO.N,USB_DP*%
X130900000Y-106200000D03*
X128900000Y-106200000D03*
%TO.N,nFAULT_ANY*%
X105600000Y-118200000D03*
X105600000Y-120300000D03*
%TO.N,MOTOR_EN*%
X106500000Y-114720000D03*
X125200000Y-113900000D03*
%TO.N,MOTOR_PH*%
X126300000Y-113600000D03*
X105700000Y-115380000D03*
%TO.N,DRV_NSLEEP*%
X130900000Y-107700000D03*
X102900000Y-116030000D03*
%TO.N,MOTOR_B*%
X116600000Y-118900000D03*
%TO.N,SW_OPEN*%
X127300000Y-105500000D03*
X126200000Y-135400000D03*
%TO.N,EN*%
X119100000Y-107000000D03*
X114100000Y-107000000D03*
%TO.N,BOOST_EN*%
X106300000Y-134000000D03*
X132000000Y-106900000D03*
%TO.N,STATUS_LED*%
X136900000Y-114200000D03*
X136900000Y-109800000D03*
%TD*%
%TA.AperFunction,Conductor*%
%TO.N,GND*%
G36*
X117359191Y-100319407D02*
G01*
X117395155Y-100368907D01*
X117400000Y-100399500D01*
X117400000Y-102100000D01*
X117400001Y-102100000D01*
X130599999Y-102100000D01*
X130600000Y-102100000D01*
X130600000Y-100399500D01*
X130618907Y-100341309D01*
X130668407Y-100305345D01*
X130699000Y-100300500D01*
X150232604Y-100300500D01*
X150290795Y-100319407D01*
X150326759Y-100368907D01*
X150326759Y-100430093D01*
X150290795Y-100479593D01*
X150270490Y-100490964D01*
X150108564Y-100558035D01*
X150108537Y-100558048D01*
X149826893Y-100708590D01*
X149826889Y-100708592D01*
X149561346Y-100886022D01*
X149314470Y-101088629D01*
X149088629Y-101314470D01*
X148886022Y-101561346D01*
X148708592Y-101826889D01*
X148708590Y-101826893D01*
X148558048Y-102108537D01*
X148558035Y-102108564D01*
X148435816Y-102403627D01*
X148343111Y-102709235D01*
X148280803Y-103022480D01*
X148249500Y-103340305D01*
X148249500Y-103659694D01*
X148280803Y-103977519D01*
X148343111Y-104290764D01*
X148435816Y-104596372D01*
X148558035Y-104891435D01*
X148558048Y-104891462D01*
X148708590Y-105173106D01*
X148708592Y-105173110D01*
X148886022Y-105438653D01*
X149049631Y-105638010D01*
X149088634Y-105685535D01*
X149314465Y-105911366D01*
X149561344Y-106113975D01*
X149561347Y-106113977D01*
X149561346Y-106113977D01*
X149826889Y-106291407D01*
X149826893Y-106291409D01*
X149935574Y-106349500D01*
X150108556Y-106441961D01*
X150403619Y-106564180D01*
X150403621Y-106564180D01*
X150403627Y-106564183D01*
X150709235Y-106656888D01*
X150709239Y-106656888D01*
X150709240Y-106656889D01*
X151022477Y-106719196D01*
X151057792Y-106722674D01*
X151340305Y-106750500D01*
X151340313Y-106750500D01*
X151659695Y-106750500D01*
X151871577Y-106729630D01*
X151977523Y-106719196D01*
X152290760Y-106656889D01*
X152290761Y-106656888D01*
X152290764Y-106656888D01*
X152596372Y-106564183D01*
X152596374Y-106564181D01*
X152596381Y-106564180D01*
X152891444Y-106441961D01*
X153173106Y-106291409D01*
X153173110Y-106291407D01*
X153438653Y-106113977D01*
X153438652Y-106113977D01*
X153438656Y-106113975D01*
X153685535Y-105911366D01*
X153911366Y-105685535D01*
X154113975Y-105438656D01*
X154148146Y-105387515D01*
X154291407Y-105173110D01*
X154291409Y-105173106D01*
X154298689Y-105159487D01*
X154441961Y-104891444D01*
X154509036Y-104729509D01*
X154548772Y-104682984D01*
X154608267Y-104668700D01*
X154664795Y-104692115D01*
X154696765Y-104744284D01*
X154699500Y-104767395D01*
X154699500Y-135232604D01*
X154680593Y-135290795D01*
X154631093Y-135326759D01*
X154569907Y-135326759D01*
X154520407Y-135290795D01*
X154509036Y-135270490D01*
X154441961Y-135108556D01*
X154427184Y-135080910D01*
X154291409Y-134826893D01*
X154291407Y-134826889D01*
X154113977Y-134561346D01*
X153911370Y-134314470D01*
X153911366Y-134314465D01*
X153685535Y-134088634D01*
X153438656Y-133886025D01*
X153438652Y-133886022D01*
X153438653Y-133886022D01*
X153173110Y-133708592D01*
X153173106Y-133708590D01*
X152891462Y-133558048D01*
X152891450Y-133558042D01*
X152891444Y-133558039D01*
X152891439Y-133558036D01*
X152891435Y-133558035D01*
X152596372Y-133435816D01*
X152290764Y-133343111D01*
X152013770Y-133288014D01*
X151977523Y-133280804D01*
X151977521Y-133280803D01*
X151659695Y-133249500D01*
X151659687Y-133249500D01*
X151340313Y-133249500D01*
X151340305Y-133249500D01*
X151022480Y-133280803D01*
X150709235Y-133343111D01*
X150403627Y-133435816D01*
X150108564Y-133558035D01*
X150108537Y-133558048D01*
X149826893Y-133708590D01*
X149826889Y-133708592D01*
X149561346Y-133886022D01*
X149314470Y-134088629D01*
X149088629Y-134314470D01*
X148886022Y-134561346D01*
X148708592Y-134826889D01*
X148708590Y-134826893D01*
X148558048Y-135108537D01*
X148558035Y-135108564D01*
X148435816Y-135403627D01*
X148343111Y-135709235D01*
X148280803Y-136022480D01*
X148249500Y-136340305D01*
X148249500Y-136659694D01*
X148280803Y-136977519D01*
X148343111Y-137290764D01*
X148435816Y-137596372D01*
X148558035Y-137891435D01*
X148558048Y-137891462D01*
X148708590Y-138173106D01*
X148708592Y-138173110D01*
X148886022Y-138438653D01*
X149088629Y-138685529D01*
X149088634Y-138685535D01*
X149314465Y-138911366D01*
X149561344Y-139113975D01*
X149561347Y-139113977D01*
X149561346Y-139113977D01*
X149826889Y-139291407D01*
X149826893Y-139291409D01*
X150108537Y-139441951D01*
X150108556Y-139441961D01*
X150270490Y-139509036D01*
X150317015Y-139548773D01*
X150331299Y-139608267D01*
X150307884Y-139664795D01*
X150255715Y-139696765D01*
X150232604Y-139699500D01*
X104767396Y-139699500D01*
X104709205Y-139680593D01*
X104673241Y-139631093D01*
X104673241Y-139569907D01*
X104709205Y-139520407D01*
X104729510Y-139509036D01*
X104891444Y-139441961D01*
X105173106Y-139291409D01*
X105173110Y-139291407D01*
X105438653Y-139113977D01*
X105438652Y-139113977D01*
X105438656Y-139113975D01*
X105685535Y-138911366D01*
X105911366Y-138685535D01*
X106113975Y-138438656D01*
X106245467Y-138241864D01*
X106291407Y-138173110D01*
X106291409Y-138173106D01*
X106385828Y-137996461D01*
X106441961Y-137891444D01*
X106564180Y-137596381D01*
X106588283Y-137516926D01*
X106656888Y-137290764D01*
X106656889Y-137290760D01*
X106719196Y-136977523D01*
X106744256Y-136723085D01*
X106750500Y-136659694D01*
X106750500Y-136340305D01*
X106719196Y-136022478D01*
X106702746Y-135939775D01*
X106699872Y-135925327D01*
X107499500Y-135925327D01*
X107499500Y-137674672D01*
X107499501Y-137674684D01*
X107514033Y-137747736D01*
X107514035Y-137747742D01*
X107569397Y-137830599D01*
X107569399Y-137830601D01*
X107652260Y-137885966D01*
X107707808Y-137897015D01*
X107725315Y-137900498D01*
X107725320Y-137900498D01*
X107725326Y-137900500D01*
X107725327Y-137900500D01*
X109474673Y-137900500D01*
X109474674Y-137900500D01*
X109547740Y-137885966D01*
X109630601Y-137830601D01*
X109685966Y-137747740D01*
X109700500Y-137674674D01*
X109700500Y-136713385D01*
X110039500Y-136713385D01*
X110039500Y-136886614D01*
X110066597Y-137057702D01*
X110066598Y-137057706D01*
X110120123Y-137222438D01*
X110120125Y-137222441D01*
X110172635Y-137325500D01*
X110198768Y-137376788D01*
X110300586Y-137516928D01*
X110423072Y-137639414D01*
X110563212Y-137741232D01*
X110717555Y-137819873D01*
X110717557Y-137819873D01*
X110717558Y-137819874D01*
X110717561Y-137819876D01*
X110882293Y-137873401D01*
X110882297Y-137873402D01*
X111053386Y-137900500D01*
X111053389Y-137900500D01*
X111226614Y-137900500D01*
X111397702Y-137873402D01*
X111397706Y-137873401D01*
X111562438Y-137819876D01*
X111562440Y-137819874D01*
X111562445Y-137819873D01*
X111716788Y-137741232D01*
X111856928Y-137639414D01*
X111979414Y-137516928D01*
X112081232Y-137376788D01*
X112159873Y-137222445D01*
X112159874Y-137222440D01*
X112159876Y-137222438D01*
X112213401Y-137057706D01*
X112213402Y-137057702D01*
X112240500Y-136886614D01*
X112240500Y-136713385D01*
X112213402Y-136542297D01*
X112213401Y-136542293D01*
X112159876Y-136377561D01*
X112159874Y-136377558D01*
X112159873Y-136377557D01*
X112159873Y-136377555D01*
X112081232Y-136223212D01*
X111979414Y-136083072D01*
X111856928Y-135960586D01*
X111808398Y-135925327D01*
X116499500Y-135925327D01*
X116499500Y-137674672D01*
X116499501Y-137674684D01*
X116514033Y-137747736D01*
X116514035Y-137747742D01*
X116569397Y-137830599D01*
X116569399Y-137830601D01*
X116652260Y-137885966D01*
X116707808Y-137897015D01*
X116725315Y-137900498D01*
X116725320Y-137900498D01*
X116725326Y-137900500D01*
X116725327Y-137900500D01*
X118474673Y-137900500D01*
X118474674Y-137900500D01*
X118547740Y-137885966D01*
X118630601Y-137830601D01*
X118685966Y-137747740D01*
X118700500Y-137674674D01*
X118700500Y-135925327D01*
X122899500Y-135925327D01*
X122899500Y-137674672D01*
X122899501Y-137674684D01*
X122914033Y-137747736D01*
X122914035Y-137747742D01*
X122969397Y-137830599D01*
X122969399Y-137830601D01*
X123052260Y-137885966D01*
X123107808Y-137897015D01*
X123125315Y-137900498D01*
X123125320Y-137900498D01*
X123125326Y-137900500D01*
X123125327Y-137900500D01*
X124874673Y-137900500D01*
X124874674Y-137900500D01*
X124947740Y-137885966D01*
X125030601Y-137830601D01*
X125085966Y-137747740D01*
X125100500Y-137674674D01*
X125100500Y-135925326D01*
X125100128Y-135923458D01*
X125097015Y-135907808D01*
X125085966Y-135852260D01*
X125037768Y-135780125D01*
X125030602Y-135769400D01*
X125030599Y-135769397D01*
X124947742Y-135714035D01*
X124947740Y-135714034D01*
X124947737Y-135714033D01*
X124947736Y-135714033D01*
X124874684Y-135699501D01*
X124874674Y-135699500D01*
X123125326Y-135699500D01*
X123125325Y-135699500D01*
X123125315Y-135699501D01*
X123052263Y-135714033D01*
X123052257Y-135714035D01*
X122969400Y-135769397D01*
X122969397Y-135769400D01*
X122914035Y-135852257D01*
X122914033Y-135852263D01*
X122899501Y-135925315D01*
X122899500Y-135925327D01*
X118700500Y-135925327D01*
X118700500Y-135925326D01*
X118700128Y-135923458D01*
X118697015Y-135907808D01*
X118685966Y-135852260D01*
X118637768Y-135780125D01*
X118630602Y-135769400D01*
X118630599Y-135769397D01*
X118547742Y-135714035D01*
X118547740Y-135714034D01*
X118547737Y-135714033D01*
X118547736Y-135714033D01*
X118474684Y-135699501D01*
X118474674Y-135699500D01*
X116725326Y-135699500D01*
X116725325Y-135699500D01*
X116725315Y-135699501D01*
X116652263Y-135714033D01*
X116652257Y-135714035D01*
X116569400Y-135769397D01*
X116569397Y-135769400D01*
X116514035Y-135852257D01*
X116514033Y-135852263D01*
X116499501Y-135925315D01*
X116499500Y-135925327D01*
X111808398Y-135925327D01*
X111716788Y-135858768D01*
X111716787Y-135858767D01*
X111716785Y-135858766D01*
X111562441Y-135780125D01*
X111562438Y-135780123D01*
X111397706Y-135726598D01*
X111397702Y-135726597D01*
X111226614Y-135699500D01*
X111226611Y-135699500D01*
X111053389Y-135699500D01*
X111053386Y-135699500D01*
X110882297Y-135726597D01*
X110882293Y-135726598D01*
X110717561Y-135780123D01*
X110717558Y-135780125D01*
X110563214Y-135858766D01*
X110423073Y-135960585D01*
X110300585Y-136083073D01*
X110198766Y-136223214D01*
X110120125Y-136377558D01*
X110120123Y-136377561D01*
X110066598Y-136542293D01*
X110066597Y-136542297D01*
X110039500Y-136713385D01*
X109700500Y-136713385D01*
X109700500Y-135925326D01*
X109700128Y-135923458D01*
X109697015Y-135907808D01*
X109685966Y-135852260D01*
X109637768Y-135780125D01*
X109630602Y-135769400D01*
X109630599Y-135769397D01*
X109547742Y-135714035D01*
X109547740Y-135714034D01*
X109547737Y-135714033D01*
X109547736Y-135714033D01*
X109474684Y-135699501D01*
X109474674Y-135699500D01*
X107725326Y-135699500D01*
X107725325Y-135699500D01*
X107725315Y-135699501D01*
X107652263Y-135714033D01*
X107652257Y-135714035D01*
X107569400Y-135769397D01*
X107569397Y-135769400D01*
X107514035Y-135852257D01*
X107514033Y-135852263D01*
X107499501Y-135925315D01*
X107499500Y-135925327D01*
X106699872Y-135925327D01*
X106656888Y-135709235D01*
X106564181Y-135403623D01*
X106564180Y-135403619D01*
X106553697Y-135378311D01*
X106545666Y-135358921D01*
X106532661Y-135327525D01*
X125649500Y-135327525D01*
X125649500Y-135472475D01*
X125664145Y-135527129D01*
X125687017Y-135612489D01*
X125759487Y-135738010D01*
X125759489Y-135738012D01*
X125759491Y-135738015D01*
X125861985Y-135840509D01*
X125861987Y-135840510D01*
X125861989Y-135840512D01*
X125987511Y-135912982D01*
X125987512Y-135912982D01*
X125987515Y-135912984D01*
X126127525Y-135950500D01*
X126127526Y-135950500D01*
X126272474Y-135950500D01*
X126272475Y-135950500D01*
X126366421Y-135925327D01*
X129499500Y-135925327D01*
X129499500Y-137674672D01*
X129499501Y-137674684D01*
X129514033Y-137747736D01*
X129514035Y-137747742D01*
X129569397Y-137830599D01*
X129569399Y-137830601D01*
X129652260Y-137885966D01*
X129707808Y-137897015D01*
X129725315Y-137900498D01*
X129725320Y-137900498D01*
X129725326Y-137900500D01*
X129725327Y-137900500D01*
X131474673Y-137900500D01*
X131474674Y-137900500D01*
X131547740Y-137885966D01*
X131630601Y-137830601D01*
X131685966Y-137747740D01*
X131700500Y-137674674D01*
X131700500Y-135925326D01*
X131700128Y-135923458D01*
X131697015Y-135907808D01*
X131685966Y-135852260D01*
X131637768Y-135780125D01*
X131630602Y-135769400D01*
X131630599Y-135769397D01*
X131547742Y-135714035D01*
X131547740Y-135714034D01*
X131547737Y-135714033D01*
X131547736Y-135714033D01*
X131474684Y-135699501D01*
X131474674Y-135699500D01*
X129725326Y-135699500D01*
X129725325Y-135699500D01*
X129725315Y-135699501D01*
X129652263Y-135714033D01*
X129652257Y-135714035D01*
X129569400Y-135769397D01*
X129569397Y-135769400D01*
X129514035Y-135852257D01*
X129514033Y-135852263D01*
X129499501Y-135925315D01*
X129499500Y-135925327D01*
X126366421Y-135925327D01*
X126412485Y-135912984D01*
X126412487Y-135912982D01*
X126412489Y-135912982D01*
X126538008Y-135840513D01*
X126538007Y-135840513D01*
X126538015Y-135840509D01*
X126640509Y-135738015D01*
X126654355Y-135714034D01*
X126675786Y-135676914D01*
X126712984Y-135612485D01*
X126722589Y-135576635D01*
X126735855Y-135527129D01*
X136649500Y-135527129D01*
X136649500Y-136872866D01*
X136649500Y-136872869D01*
X136649501Y-136872872D01*
X136650038Y-136877863D01*
X136655908Y-136932480D01*
X136655909Y-136932485D01*
X136706202Y-137067329D01*
X136792450Y-137182541D01*
X136792454Y-137182546D01*
X136792457Y-137182548D01*
X136792458Y-137182549D01*
X136907670Y-137268797D01*
X137042511Y-137319089D01*
X137042512Y-137319089D01*
X137042517Y-137319091D01*
X137102127Y-137325500D01*
X137897872Y-137325499D01*
X137957483Y-137319091D01*
X138033442Y-137290760D01*
X138092329Y-137268797D01*
X138092329Y-137268796D01*
X138092331Y-137268796D01*
X138207546Y-137182546D01*
X138293796Y-137067331D01*
X138297388Y-137057702D01*
X138344089Y-136932488D01*
X138344090Y-136932485D01*
X138344091Y-136932483D01*
X138350500Y-136872873D01*
X138350499Y-135841230D01*
X138649500Y-135841230D01*
X138649500Y-136558769D01*
X138682183Y-136723079D01*
X138682185Y-136723085D01*
X138746296Y-136877862D01*
X138746297Y-136877863D01*
X138839374Y-137017162D01*
X138957838Y-137135626D01*
X139097137Y-137228703D01*
X139251918Y-137292816D01*
X139416233Y-137325500D01*
X139416234Y-137325500D01*
X139583766Y-137325500D01*
X139583767Y-137325500D01*
X139748082Y-137292816D01*
X139902863Y-137228703D01*
X140042162Y-137135626D01*
X140160626Y-137017162D01*
X140253703Y-136877863D01*
X140317816Y-136723082D01*
X140350500Y-136558767D01*
X140350500Y-135841233D01*
X140317816Y-135676918D01*
X140253703Y-135522137D01*
X140160626Y-135382838D01*
X140042162Y-135264374D01*
X139927135Y-135187515D01*
X139902862Y-135171296D01*
X139748085Y-135107185D01*
X139748079Y-135107183D01*
X139583769Y-135074500D01*
X139583767Y-135074500D01*
X139416233Y-135074500D01*
X139416230Y-135074500D01*
X139251920Y-135107183D01*
X139251914Y-135107185D01*
X139097137Y-135171296D01*
X138957838Y-135264374D01*
X138957834Y-135264377D01*
X138839377Y-135382834D01*
X138839374Y-135382838D01*
X138746296Y-135522137D01*
X138682185Y-135676914D01*
X138682183Y-135676920D01*
X138649500Y-135841230D01*
X138350499Y-135841230D01*
X138350499Y-135527128D01*
X138344091Y-135467517D01*
X138312508Y-135382838D01*
X138293797Y-135332670D01*
X138207549Y-135217458D01*
X138207548Y-135217457D01*
X138207546Y-135217454D01*
X138201575Y-135212984D01*
X138092329Y-135131202D01*
X137957488Y-135080910D01*
X137957483Y-135080909D01*
X137957481Y-135080908D01*
X137957477Y-135080908D01*
X137926249Y-135077550D01*
X137897873Y-135074500D01*
X137897870Y-135074500D01*
X137102133Y-135074500D01*
X137102129Y-135074500D01*
X137102128Y-135074501D01*
X137094949Y-135075272D01*
X137042519Y-135080908D01*
X137042514Y-135080909D01*
X136907670Y-135131202D01*
X136792458Y-135217450D01*
X136792450Y-135217458D01*
X136706202Y-135332670D01*
X136655910Y-135467511D01*
X136655908Y-135467522D01*
X136649500Y-135527129D01*
X126735855Y-135527129D01*
X126743432Y-135498855D01*
X126743432Y-135498853D01*
X126750500Y-135472474D01*
X126750500Y-135327524D01*
X126749653Y-135321091D01*
X126751246Y-135320881D01*
X126754026Y-135267671D01*
X126792523Y-135220114D01*
X126851621Y-135204269D01*
X126884337Y-135211668D01*
X126887510Y-135212982D01*
X126887512Y-135212982D01*
X126887515Y-135212984D01*
X127027525Y-135250500D01*
X127027526Y-135250500D01*
X127172474Y-135250500D01*
X127172475Y-135250500D01*
X127312485Y-135212984D01*
X127312487Y-135212982D01*
X127312489Y-135212982D01*
X127438010Y-135140512D01*
X127438010Y-135140511D01*
X127438015Y-135140509D01*
X127540509Y-135038015D01*
X127585845Y-134959491D01*
X127612982Y-134912489D01*
X127612982Y-134912487D01*
X127612984Y-134912485D01*
X127650500Y-134772475D01*
X127650500Y-134627525D01*
X127949500Y-134627525D01*
X127949500Y-134772475D01*
X127964082Y-134826894D01*
X127987017Y-134912489D01*
X128059487Y-135038010D01*
X128059489Y-135038012D01*
X128059491Y-135038015D01*
X128161985Y-135140509D01*
X128161987Y-135140510D01*
X128161989Y-135140512D01*
X128287511Y-135212982D01*
X128287512Y-135212982D01*
X128287515Y-135212984D01*
X128427525Y-135250500D01*
X128427526Y-135250500D01*
X128572474Y-135250500D01*
X128572475Y-135250500D01*
X128712485Y-135212984D01*
X128712487Y-135212982D01*
X128712489Y-135212982D01*
X128838010Y-135140512D01*
X128838010Y-135140511D01*
X128838015Y-135140509D01*
X128940509Y-135038015D01*
X128985845Y-134959491D01*
X129012982Y-134912489D01*
X129012982Y-134912487D01*
X129012984Y-134912485D01*
X129050500Y-134772475D01*
X129050500Y-134627525D01*
X129012984Y-134487515D01*
X129012982Y-134487512D01*
X129012982Y-134487510D01*
X128940512Y-134361989D01*
X128940510Y-134361987D01*
X128940509Y-134361985D01*
X128838015Y-134259491D01*
X128838012Y-134259489D01*
X128838010Y-134259487D01*
X128712488Y-134187017D01*
X128712489Y-134187017D01*
X128682896Y-134179087D01*
X128572475Y-134149500D01*
X128427525Y-134149500D01*
X128365790Y-134166041D01*
X128287510Y-134187017D01*
X128161989Y-134259487D01*
X128059487Y-134361989D01*
X127987017Y-134487510D01*
X127949500Y-134627525D01*
X127650500Y-134627525D01*
X127612984Y-134487515D01*
X127612982Y-134487512D01*
X127612982Y-134487510D01*
X127540512Y-134361989D01*
X127540510Y-134361987D01*
X127540509Y-134361985D01*
X127438015Y-134259491D01*
X127438012Y-134259489D01*
X127438010Y-134259487D01*
X127312488Y-134187017D01*
X127312489Y-134187017D01*
X127282896Y-134179087D01*
X127172475Y-134149500D01*
X127027525Y-134149500D01*
X126965790Y-134166041D01*
X126887510Y-134187017D01*
X126761989Y-134259487D01*
X126659487Y-134361989D01*
X126587017Y-134487510D01*
X126549500Y-134627525D01*
X126549500Y-134772475D01*
X126550347Y-134778909D01*
X126548756Y-134779118D01*
X126545968Y-134832341D01*
X126507464Y-134879892D01*
X126448364Y-134895729D01*
X126415667Y-134888333D01*
X126412492Y-134887018D01*
X126385898Y-134879892D01*
X126272475Y-134849500D01*
X126127525Y-134849500D01*
X126065790Y-134866041D01*
X125987510Y-134887017D01*
X125861989Y-134959487D01*
X125759487Y-135061989D01*
X125687017Y-135187510D01*
X125665538Y-135267671D01*
X125649500Y-135327525D01*
X106532661Y-135327525D01*
X106467949Y-135171296D01*
X106441961Y-135108556D01*
X106423758Y-135074500D01*
X106291412Y-134826899D01*
X106291405Y-134826889D01*
X106209629Y-134704501D01*
X106193021Y-134645613D01*
X106214199Y-134588210D01*
X106265072Y-134554217D01*
X106291945Y-134550500D01*
X106372474Y-134550500D01*
X106372475Y-134550500D01*
X106512485Y-134512984D01*
X106512487Y-134512982D01*
X106512489Y-134512982D01*
X106638010Y-134440512D01*
X106638010Y-134440511D01*
X106638015Y-134440509D01*
X106740509Y-134338015D01*
X106785845Y-134259491D01*
X106812982Y-134212489D01*
X106812982Y-134212487D01*
X106812984Y-134212485D01*
X106850500Y-134072475D01*
X106850500Y-133927525D01*
X106812984Y-133787515D01*
X106812982Y-133787512D01*
X106812982Y-133787510D01*
X106740512Y-133661989D01*
X106740510Y-133661987D01*
X106740509Y-133661985D01*
X106638015Y-133559491D01*
X106638012Y-133559489D01*
X106638010Y-133559487D01*
X106512488Y-133487017D01*
X106512489Y-133487017D01*
X106482896Y-133479087D01*
X106372475Y-133449500D01*
X106227525Y-133449500D01*
X106165790Y-133466041D01*
X106087510Y-133487017D01*
X105961989Y-133559487D01*
X105859487Y-133661989D01*
X105787017Y-133787510D01*
X105749500Y-133927525D01*
X105749500Y-133931810D01*
X105730593Y-133990001D01*
X105681093Y-134025965D01*
X105619907Y-134025965D01*
X105587695Y-134008338D01*
X105438652Y-133886022D01*
X105438653Y-133886022D01*
X105173110Y-133708592D01*
X105173106Y-133708590D01*
X104891462Y-133558048D01*
X104891450Y-133558042D01*
X104891444Y-133558039D01*
X104891439Y-133558036D01*
X104891435Y-133558035D01*
X104596372Y-133435816D01*
X104290764Y-133343111D01*
X104013770Y-133288014D01*
X103977523Y-133280804D01*
X103977521Y-133280803D01*
X103659695Y-133249500D01*
X103659687Y-133249500D01*
X103340313Y-133249500D01*
X103340305Y-133249500D01*
X103022480Y-133280803D01*
X102709235Y-133343111D01*
X102403627Y-133435816D01*
X102108564Y-133558035D01*
X102108537Y-133558048D01*
X101826893Y-133708590D01*
X101826889Y-133708592D01*
X101561346Y-133886022D01*
X101314470Y-134088629D01*
X101088629Y-134314470D01*
X100886022Y-134561346D01*
X100708592Y-134826889D01*
X100708590Y-134826893D01*
X100558048Y-135108537D01*
X100558035Y-135108564D01*
X100512934Y-135217450D01*
X100492132Y-135267671D01*
X100490964Y-135270490D01*
X100451227Y-135317015D01*
X100391733Y-135331299D01*
X100335205Y-135307884D01*
X100303235Y-135255715D01*
X100300500Y-135232604D01*
X100300500Y-132877524D01*
X118599500Y-132877524D01*
X118599500Y-133022474D01*
X118623752Y-133112982D01*
X118637017Y-133162488D01*
X118709487Y-133288009D01*
X118709489Y-133288011D01*
X118709491Y-133288014D01*
X118811985Y-133390508D01*
X118811987Y-133390509D01*
X118811989Y-133390511D01*
X118937511Y-133462981D01*
X118937512Y-133462981D01*
X118937515Y-133462983D01*
X119077525Y-133500499D01*
X119077526Y-133500499D01*
X119222474Y-133500499D01*
X119222475Y-133500499D01*
X119362485Y-133462983D01*
X119362487Y-133462981D01*
X119362489Y-133462981D01*
X119488010Y-133390511D01*
X119488010Y-133390510D01*
X119488015Y-133390508D01*
X119590509Y-133288014D01*
X119662984Y-133162484D01*
X119700500Y-133022474D01*
X119700500Y-132877524D01*
X119662984Y-132737514D01*
X119662982Y-132737511D01*
X119662982Y-132737509D01*
X119590512Y-132611988D01*
X119590510Y-132611986D01*
X119590509Y-132611984D01*
X119488015Y-132509490D01*
X119488012Y-132509488D01*
X119488010Y-132509486D01*
X119362488Y-132437016D01*
X119362489Y-132437016D01*
X119332896Y-132429086D01*
X119222475Y-132399499D01*
X119077525Y-132399499D01*
X119015790Y-132416040D01*
X118937510Y-132437016D01*
X118811989Y-132509486D01*
X118709487Y-132611988D01*
X118637017Y-132737509D01*
X118637016Y-132737514D01*
X118599500Y-132877524D01*
X100300500Y-132877524D01*
X100300500Y-131977525D01*
X125449500Y-131977525D01*
X125449500Y-132122475D01*
X125459419Y-132159491D01*
X125487017Y-132262489D01*
X125559487Y-132388010D01*
X125559489Y-132388012D01*
X125559491Y-132388015D01*
X125661985Y-132490509D01*
X125661987Y-132490510D01*
X125661989Y-132490512D01*
X125787511Y-132562982D01*
X125787512Y-132562982D01*
X125787515Y-132562984D01*
X125927525Y-132600500D01*
X125927526Y-132600500D01*
X126072474Y-132600500D01*
X126072475Y-132600500D01*
X126212485Y-132562984D01*
X126212487Y-132562982D01*
X126212489Y-132562982D01*
X126273902Y-132527525D01*
X133849500Y-132527525D01*
X133849500Y-132672474D01*
X133887017Y-132812489D01*
X133959487Y-132938010D01*
X133959489Y-132938012D01*
X133959491Y-132938015D01*
X134061985Y-133040509D01*
X134061987Y-133040510D01*
X134061989Y-133040512D01*
X134187511Y-133112982D01*
X134187512Y-133112982D01*
X134187515Y-133112984D01*
X134327525Y-133150500D01*
X134327526Y-133150500D01*
X134472474Y-133150500D01*
X134472475Y-133150500D01*
X134612485Y-133112984D01*
X134612487Y-133112982D01*
X134612489Y-133112982D01*
X134738010Y-133040512D01*
X134738010Y-133040511D01*
X134738015Y-133040509D01*
X134840509Y-132938015D01*
X134912984Y-132812485D01*
X134950500Y-132672475D01*
X134950500Y-132527525D01*
X134912984Y-132387515D01*
X134912982Y-132387512D01*
X134912982Y-132387510D01*
X134840512Y-132261989D01*
X134840510Y-132261987D01*
X134840509Y-132261985D01*
X134738015Y-132159491D01*
X134738012Y-132159489D01*
X134738010Y-132159487D01*
X134612488Y-132087017D01*
X134612489Y-132087017D01*
X134582896Y-132079087D01*
X134472475Y-132049500D01*
X134327525Y-132049500D01*
X134265790Y-132066041D01*
X134187510Y-132087017D01*
X134061989Y-132159487D01*
X133959487Y-132261989D01*
X133887017Y-132387510D01*
X133849500Y-132527525D01*
X126273902Y-132527525D01*
X126338010Y-132490512D01*
X126338010Y-132490511D01*
X126338015Y-132490509D01*
X126440509Y-132388015D01*
X126512984Y-132262485D01*
X126550500Y-132122475D01*
X126550500Y-131977525D01*
X126512984Y-131837515D01*
X126512982Y-131837512D01*
X126512982Y-131837510D01*
X126440512Y-131711989D01*
X126440510Y-131711987D01*
X126440509Y-131711985D01*
X126338015Y-131609491D01*
X126338012Y-131609489D01*
X126338010Y-131609487D01*
X126212488Y-131537017D01*
X126212489Y-131537017D01*
X126122797Y-131512984D01*
X126072475Y-131499500D01*
X125927525Y-131499500D01*
X125877210Y-131512982D01*
X125787510Y-131537017D01*
X125661989Y-131609487D01*
X125559487Y-131711989D01*
X125487017Y-131837510D01*
X125487016Y-131837515D01*
X125449500Y-131977525D01*
X100300500Y-131977525D01*
X100300500Y-130927525D01*
X107649500Y-130927525D01*
X107649500Y-131072474D01*
X107687017Y-131212489D01*
X107759487Y-131338010D01*
X107759489Y-131338012D01*
X107759491Y-131338015D01*
X107861985Y-131440509D01*
X107861987Y-131440510D01*
X107861989Y-131440512D01*
X107987511Y-131512982D01*
X107987512Y-131512982D01*
X107987515Y-131512984D01*
X108127525Y-131550500D01*
X108127526Y-131550500D01*
X108272474Y-131550500D01*
X108272475Y-131550500D01*
X108412485Y-131512984D01*
X108412487Y-131512982D01*
X108412489Y-131512982D01*
X108538010Y-131440512D01*
X108538010Y-131440511D01*
X108538015Y-131440509D01*
X108640509Y-131338015D01*
X108712984Y-131212485D01*
X108750500Y-131072475D01*
X108750500Y-130927525D01*
X108712984Y-130787515D01*
X108712982Y-130787512D01*
X108712982Y-130787510D01*
X108640512Y-130661989D01*
X108640510Y-130661987D01*
X108640509Y-130661985D01*
X108538015Y-130559491D01*
X108538012Y-130559489D01*
X108538010Y-130559487D01*
X108412488Y-130487017D01*
X108412489Y-130487017D01*
X108309761Y-130459491D01*
X108272475Y-130449500D01*
X108127525Y-130449500D01*
X108090239Y-130459491D01*
X107987510Y-130487017D01*
X107861989Y-130559487D01*
X107759487Y-130661989D01*
X107687017Y-130787510D01*
X107649500Y-130927525D01*
X100300500Y-130927525D01*
X100300500Y-130227525D01*
X110449500Y-130227525D01*
X110449500Y-130372475D01*
X110453397Y-130387017D01*
X110487017Y-130512489D01*
X110559487Y-130638010D01*
X110559489Y-130638012D01*
X110559491Y-130638015D01*
X110661985Y-130740509D01*
X110661987Y-130740510D01*
X110661989Y-130740512D01*
X110787511Y-130812982D01*
X110787512Y-130812982D01*
X110787515Y-130812984D01*
X110927525Y-130850500D01*
X110927526Y-130850500D01*
X111072474Y-130850500D01*
X111072475Y-130850500D01*
X111212485Y-130812984D01*
X111212487Y-130812982D01*
X111212489Y-130812982D01*
X111338010Y-130740512D01*
X111338010Y-130740511D01*
X111338015Y-130740509D01*
X111440509Y-130638015D01*
X111485845Y-130559491D01*
X111512982Y-130512489D01*
X111512982Y-130512487D01*
X111512984Y-130512485D01*
X111550500Y-130372475D01*
X111550500Y-130227525D01*
X111512984Y-130087515D01*
X111512982Y-130087512D01*
X111512982Y-130087510D01*
X111440512Y-129961989D01*
X111440510Y-129961987D01*
X111440509Y-129961985D01*
X111338015Y-129859491D01*
X111338012Y-129859489D01*
X111338010Y-129859487D01*
X111212488Y-129787017D01*
X111212489Y-129787017D01*
X111158210Y-129772473D01*
X111072475Y-129749500D01*
X110927525Y-129749500D01*
X110880931Y-129761985D01*
X110787510Y-129787017D01*
X110661989Y-129859487D01*
X110559487Y-129961989D01*
X110487017Y-130087510D01*
X110464251Y-130172474D01*
X110449500Y-130227525D01*
X100300500Y-130227525D01*
X100300500Y-129427525D01*
X125449500Y-129427525D01*
X125449500Y-129572475D01*
X125453397Y-129587017D01*
X125487017Y-129712489D01*
X125559487Y-129838010D01*
X125559489Y-129838012D01*
X125559491Y-129838015D01*
X125661985Y-129940509D01*
X125661987Y-129940510D01*
X125661989Y-129940512D01*
X125787511Y-130012982D01*
X125787512Y-130012982D01*
X125787515Y-130012984D01*
X125927525Y-130050500D01*
X125927526Y-130050500D01*
X126072474Y-130050500D01*
X126072475Y-130050500D01*
X126212485Y-130012984D01*
X126212487Y-130012982D01*
X126212489Y-130012982D01*
X126338010Y-129940512D01*
X126338010Y-129940511D01*
X126338015Y-129940509D01*
X126440509Y-129838015D01*
X126469953Y-129787017D01*
X126504301Y-129727525D01*
X127049500Y-129727525D01*
X127049500Y-129872475D01*
X127079087Y-129982896D01*
X127087017Y-130012489D01*
X127159487Y-130138010D01*
X127159489Y-130138012D01*
X127159491Y-130138015D01*
X127261985Y-130240509D01*
X127261987Y-130240510D01*
X127261989Y-130240512D01*
X127387511Y-130312982D01*
X127387512Y-130312982D01*
X127387515Y-130312984D01*
X127527525Y-130350500D01*
X127527526Y-130350500D01*
X127672474Y-130350500D01*
X127672475Y-130350500D01*
X127812485Y-130312984D01*
X127812487Y-130312982D01*
X127812489Y-130312982D01*
X127938010Y-130240512D01*
X127938010Y-130240511D01*
X127938015Y-130240509D01*
X128040509Y-130138015D01*
X128104301Y-130027525D01*
X143049500Y-130027525D01*
X143049500Y-130172474D01*
X143087017Y-130312489D01*
X143159487Y-130438010D01*
X143159489Y-130438012D01*
X143159491Y-130438015D01*
X143261985Y-130540509D01*
X143261987Y-130540510D01*
X143261989Y-130540512D01*
X143387511Y-130612982D01*
X143387512Y-130612982D01*
X143387515Y-130612984D01*
X143527525Y-130650500D01*
X143527526Y-130650500D01*
X143672476Y-130650500D01*
X143678909Y-130649653D01*
X143679118Y-130651247D01*
X143732324Y-130654024D01*
X143779882Y-130692519D01*
X143795730Y-130751616D01*
X143788334Y-130784329D01*
X143787019Y-130787503D01*
X143749500Y-130927525D01*
X143749500Y-131072474D01*
X143787017Y-131212489D01*
X143859487Y-131338010D01*
X143859489Y-131338012D01*
X143859491Y-131338015D01*
X143961985Y-131440509D01*
X143961987Y-131440510D01*
X143961989Y-131440512D01*
X144087511Y-131512982D01*
X144087512Y-131512982D01*
X144087515Y-131512984D01*
X144227525Y-131550500D01*
X144227526Y-131550500D01*
X144372474Y-131550500D01*
X144372475Y-131550500D01*
X144512485Y-131512984D01*
X144512487Y-131512982D01*
X144512489Y-131512982D01*
X144638010Y-131440512D01*
X144638010Y-131440511D01*
X144638015Y-131440509D01*
X144740509Y-131338015D01*
X144812984Y-131212485D01*
X144850500Y-131072475D01*
X144850500Y-130927525D01*
X144823705Y-130827525D01*
X146549500Y-130827525D01*
X146549500Y-130972474D01*
X146587017Y-131112489D01*
X146659487Y-131238010D01*
X146659489Y-131238012D01*
X146659491Y-131238015D01*
X146761985Y-131340509D01*
X146761987Y-131340510D01*
X146761989Y-131340512D01*
X146887511Y-131412982D01*
X146887512Y-131412982D01*
X146887515Y-131412984D01*
X147027525Y-131450500D01*
X147027526Y-131450500D01*
X147172474Y-131450500D01*
X147172475Y-131450500D01*
X147312485Y-131412984D01*
X147312487Y-131412982D01*
X147312489Y-131412982D01*
X147438010Y-131340512D01*
X147438010Y-131340511D01*
X147438015Y-131340509D01*
X147540509Y-131238015D01*
X147540512Y-131238010D01*
X147612982Y-131112489D01*
X147612982Y-131112487D01*
X147612984Y-131112485D01*
X147650500Y-130972475D01*
X147650500Y-130827525D01*
X147612984Y-130687515D01*
X147612982Y-130687512D01*
X147612982Y-130687510D01*
X147540512Y-130561989D01*
X147540510Y-130561987D01*
X147540509Y-130561985D01*
X147438015Y-130459491D01*
X147438012Y-130459489D01*
X147438010Y-130459487D01*
X147312488Y-130387017D01*
X147312489Y-130387017D01*
X147258214Y-130372474D01*
X147172475Y-130349500D01*
X147027525Y-130349500D01*
X146965790Y-130366041D01*
X146887510Y-130387017D01*
X146761989Y-130459487D01*
X146659487Y-130561989D01*
X146587017Y-130687510D01*
X146549500Y-130827525D01*
X144823705Y-130827525D01*
X144812984Y-130787515D01*
X144812982Y-130787512D01*
X144812982Y-130787510D01*
X144740512Y-130661989D01*
X144740510Y-130661987D01*
X144740509Y-130661985D01*
X144638015Y-130559491D01*
X144638012Y-130559489D01*
X144638010Y-130559487D01*
X144512488Y-130487017D01*
X144512489Y-130487017D01*
X144409761Y-130459491D01*
X144372475Y-130449500D01*
X144227525Y-130449500D01*
X144221091Y-130450347D01*
X144220881Y-130448757D01*
X144167653Y-130445967D01*
X144120104Y-130407460D01*
X144104270Y-130348359D01*
X144111670Y-130315658D01*
X144112982Y-130312490D01*
X144112982Y-130312487D01*
X144112984Y-130312485D01*
X144150500Y-130172475D01*
X144150500Y-130027525D01*
X144112984Y-129887515D01*
X144112982Y-129887512D01*
X144112982Y-129887510D01*
X144040512Y-129761989D01*
X144040510Y-129761987D01*
X144040509Y-129761985D01*
X143938015Y-129659491D01*
X143938012Y-129659489D01*
X143938010Y-129659487D01*
X143882648Y-129627524D01*
X150449500Y-129627524D01*
X150449500Y-129772474D01*
X150479087Y-129882895D01*
X150487017Y-129912488D01*
X150559487Y-130038009D01*
X150559489Y-130038011D01*
X150559491Y-130038014D01*
X150661985Y-130140508D01*
X150661987Y-130140509D01*
X150661989Y-130140511D01*
X150787511Y-130212981D01*
X150787512Y-130212981D01*
X150787515Y-130212983D01*
X150927525Y-130250499D01*
X150927526Y-130250499D01*
X151072474Y-130250499D01*
X151072475Y-130250499D01*
X151212485Y-130212983D01*
X151212487Y-130212981D01*
X151212489Y-130212981D01*
X151338010Y-130140511D01*
X151338010Y-130140510D01*
X151338015Y-130140508D01*
X151440509Y-130038014D01*
X151465105Y-129995413D01*
X151512982Y-129912488D01*
X151512982Y-129912486D01*
X151512984Y-129912484D01*
X151550500Y-129772474D01*
X151550500Y-129627524D01*
X151512984Y-129487514D01*
X151512982Y-129487511D01*
X151512982Y-129487509D01*
X151440512Y-129361988D01*
X151440510Y-129361986D01*
X151440509Y-129361984D01*
X151338015Y-129259490D01*
X151338012Y-129259488D01*
X151338010Y-129259486D01*
X151212488Y-129187016D01*
X151212489Y-129187016D01*
X151182896Y-129179086D01*
X151072475Y-129149499D01*
X150927525Y-129149499D01*
X150880927Y-129161985D01*
X150787510Y-129187016D01*
X150661989Y-129259486D01*
X150559487Y-129361988D01*
X150487017Y-129487509D01*
X150449500Y-129627524D01*
X143882648Y-129627524D01*
X143812488Y-129587017D01*
X143812489Y-129587017D01*
X143758210Y-129572473D01*
X143672475Y-129549500D01*
X143527525Y-129549500D01*
X143465790Y-129566041D01*
X143387510Y-129587017D01*
X143261989Y-129659487D01*
X143159487Y-129761989D01*
X143087017Y-129887510D01*
X143049500Y-130027525D01*
X128104301Y-130027525D01*
X128112984Y-130012485D01*
X128150500Y-129872475D01*
X128150500Y-129727525D01*
X128112984Y-129587515D01*
X128112982Y-129587512D01*
X128112982Y-129587510D01*
X128040512Y-129461989D01*
X128040510Y-129461987D01*
X128040509Y-129461985D01*
X127938015Y-129359491D01*
X127938012Y-129359489D01*
X127938010Y-129359487D01*
X127812488Y-129287017D01*
X127812489Y-129287017D01*
X127782896Y-129279087D01*
X127672475Y-129249500D01*
X127527525Y-129249500D01*
X127465790Y-129266041D01*
X127387510Y-129287017D01*
X127261989Y-129359487D01*
X127159487Y-129461989D01*
X127087017Y-129587510D01*
X127087016Y-129587515D01*
X127049500Y-129727525D01*
X126504301Y-129727525D01*
X126512982Y-129712489D01*
X126512982Y-129712487D01*
X126512984Y-129712485D01*
X126550500Y-129572475D01*
X126550500Y-129427525D01*
X126512984Y-129287515D01*
X126512982Y-129287512D01*
X126512982Y-129287510D01*
X126440512Y-129161989D01*
X126440510Y-129161987D01*
X126440509Y-129161985D01*
X126338015Y-129059491D01*
X126338012Y-129059489D01*
X126338010Y-129059487D01*
X126212488Y-128987017D01*
X126212489Y-128987017D01*
X126182896Y-128979087D01*
X126072475Y-128949500D01*
X125927525Y-128949500D01*
X125865790Y-128966041D01*
X125787510Y-128987017D01*
X125661989Y-129059487D01*
X125559487Y-129161989D01*
X125487017Y-129287510D01*
X125487016Y-129287515D01*
X125449500Y-129427525D01*
X100300500Y-129427525D01*
X100300500Y-128127524D01*
X108949500Y-128127524D01*
X108949500Y-128272473D01*
X108987017Y-128412488D01*
X109059487Y-128538009D01*
X109059489Y-128538011D01*
X109059491Y-128538014D01*
X109161985Y-128640508D01*
X109161987Y-128640509D01*
X109161989Y-128640511D01*
X109287511Y-128712981D01*
X109287512Y-128712981D01*
X109287515Y-128712983D01*
X109427525Y-128750499D01*
X109427526Y-128750499D01*
X109572474Y-128750499D01*
X109572475Y-128750499D01*
X109712485Y-128712983D01*
X109712487Y-128712981D01*
X109712489Y-128712981D01*
X109838010Y-128640511D01*
X109838010Y-128640510D01*
X109838015Y-128640508D01*
X109940509Y-128538014D01*
X110012984Y-128412484D01*
X110050500Y-128272474D01*
X110050500Y-128127524D01*
X110012984Y-127987514D01*
X110012982Y-127987511D01*
X110012982Y-127987509D01*
X109940512Y-127861988D01*
X109940510Y-127861986D01*
X109940509Y-127861984D01*
X109838015Y-127759490D01*
X109838012Y-127759488D01*
X109838010Y-127759486D01*
X109782652Y-127727525D01*
X117099500Y-127727525D01*
X117099500Y-127872474D01*
X117137017Y-128012489D01*
X117209487Y-128138010D01*
X117209489Y-128138012D01*
X117209491Y-128138015D01*
X117311985Y-128240509D01*
X117311987Y-128240510D01*
X117311989Y-128240512D01*
X117437511Y-128312982D01*
X117437512Y-128312982D01*
X117437515Y-128312984D01*
X117577525Y-128350500D01*
X117577526Y-128350500D01*
X117722474Y-128350500D01*
X117722475Y-128350500D01*
X117862485Y-128312984D01*
X117862487Y-128312982D01*
X117862489Y-128312982D01*
X117988010Y-128240512D01*
X117988010Y-128240511D01*
X117988015Y-128240509D01*
X118090509Y-128138015D01*
X118146803Y-128040512D01*
X118162982Y-128012489D01*
X118162982Y-128012487D01*
X118162984Y-128012485D01*
X118200500Y-127872475D01*
X118200500Y-127727525D01*
X118162984Y-127587515D01*
X118162982Y-127587512D01*
X118162982Y-127587510D01*
X118090512Y-127461989D01*
X118090510Y-127461987D01*
X118090509Y-127461985D01*
X117988015Y-127359491D01*
X117988012Y-127359489D01*
X117988010Y-127359487D01*
X117862488Y-127287017D01*
X117862489Y-127287017D01*
X117832896Y-127279087D01*
X117722475Y-127249500D01*
X117577525Y-127249500D01*
X117530931Y-127261985D01*
X117437510Y-127287017D01*
X117311989Y-127359487D01*
X117209487Y-127461989D01*
X117137017Y-127587510D01*
X117099500Y-127727525D01*
X109782652Y-127727525D01*
X109712488Y-127687016D01*
X109712489Y-127687016D01*
X109682896Y-127679086D01*
X109572475Y-127649499D01*
X109427525Y-127649499D01*
X109365790Y-127666040D01*
X109287510Y-127687016D01*
X109161989Y-127759486D01*
X109059487Y-127861988D01*
X108987017Y-127987509D01*
X108949500Y-128127524D01*
X100300500Y-128127524D01*
X100300500Y-126727525D01*
X111449500Y-126727525D01*
X111449500Y-126872475D01*
X111464251Y-126927525D01*
X111487017Y-127012489D01*
X111559487Y-127138010D01*
X111559489Y-127138012D01*
X111559491Y-127138015D01*
X111661985Y-127240509D01*
X111661987Y-127240510D01*
X111661989Y-127240512D01*
X111787511Y-127312982D01*
X111787512Y-127312982D01*
X111787515Y-127312984D01*
X111927525Y-127350500D01*
X111927526Y-127350500D01*
X112072474Y-127350500D01*
X112072475Y-127350500D01*
X112212485Y-127312984D01*
X112212487Y-127312982D01*
X112212489Y-127312982D01*
X112338010Y-127240512D01*
X112338010Y-127240511D01*
X112338015Y-127240509D01*
X112440509Y-127138015D01*
X112469953Y-127087017D01*
X112512982Y-127012489D01*
X112512982Y-127012487D01*
X112512984Y-127012485D01*
X112550500Y-126872475D01*
X112550500Y-126727525D01*
X113749500Y-126727525D01*
X113749500Y-126872475D01*
X113764251Y-126927525D01*
X113787017Y-127012489D01*
X113859487Y-127138010D01*
X113859489Y-127138012D01*
X113859491Y-127138015D01*
X113961985Y-127240509D01*
X113961987Y-127240510D01*
X113961989Y-127240512D01*
X114087511Y-127312982D01*
X114087512Y-127312982D01*
X114087515Y-127312984D01*
X114227525Y-127350500D01*
X114227526Y-127350500D01*
X114372474Y-127350500D01*
X114372475Y-127350500D01*
X114512485Y-127312984D01*
X114512487Y-127312982D01*
X114512489Y-127312982D01*
X114575250Y-127276746D01*
X114638015Y-127240509D01*
X114638019Y-127240504D01*
X114639730Y-127239193D01*
X114641193Y-127238674D01*
X114643635Y-127237265D01*
X114643896Y-127237717D01*
X114697406Y-127218767D01*
X114756072Y-127236143D01*
X114760270Y-127239193D01*
X114761988Y-127240511D01*
X114887511Y-127312982D01*
X114887512Y-127312982D01*
X114887515Y-127312984D01*
X115027525Y-127350500D01*
X115027526Y-127350500D01*
X115172474Y-127350500D01*
X115172475Y-127350500D01*
X115312485Y-127312984D01*
X115312487Y-127312982D01*
X115312489Y-127312982D01*
X115438010Y-127240512D01*
X115438010Y-127240511D01*
X115438015Y-127240509D01*
X115540509Y-127138015D01*
X115569953Y-127087017D01*
X115612982Y-127012489D01*
X115612982Y-127012487D01*
X115612984Y-127012485D01*
X115650500Y-126872475D01*
X115650500Y-126727525D01*
X118649500Y-126727525D01*
X118649500Y-126872475D01*
X118664251Y-126927525D01*
X118687017Y-127012489D01*
X118759487Y-127138010D01*
X118759489Y-127138012D01*
X118759491Y-127138015D01*
X118861985Y-127240509D01*
X118861987Y-127240510D01*
X118861989Y-127240512D01*
X118987511Y-127312982D01*
X118987512Y-127312982D01*
X118987515Y-127312984D01*
X119127525Y-127350500D01*
X119127526Y-127350500D01*
X119272474Y-127350500D01*
X119272475Y-127350500D01*
X119412485Y-127312984D01*
X119412487Y-127312982D01*
X119412489Y-127312982D01*
X119538010Y-127240512D01*
X119538010Y-127240511D01*
X119538015Y-127240509D01*
X119640509Y-127138015D01*
X119669953Y-127087017D01*
X119712982Y-127012489D01*
X119712982Y-127012487D01*
X119712984Y-127012485D01*
X119735749Y-126927525D01*
X125449500Y-126927525D01*
X125449500Y-127072475D01*
X125453397Y-127087017D01*
X125487017Y-127212489D01*
X125559487Y-127338010D01*
X125559489Y-127338012D01*
X125559491Y-127338015D01*
X125661985Y-127440509D01*
X125661987Y-127440510D01*
X125661989Y-127440512D01*
X125787511Y-127512982D01*
X125787512Y-127512982D01*
X125787515Y-127512984D01*
X125927525Y-127550500D01*
X125927526Y-127550500D01*
X126072474Y-127550500D01*
X126072475Y-127550500D01*
X126158218Y-127527525D01*
X140749500Y-127527525D01*
X140749500Y-127672475D01*
X140764251Y-127727525D01*
X140787017Y-127812489D01*
X140859487Y-127938010D01*
X140859489Y-127938012D01*
X140859491Y-127938015D01*
X140961985Y-128040509D01*
X140961987Y-128040510D01*
X140961989Y-128040512D01*
X141087511Y-128112982D01*
X141087512Y-128112982D01*
X141087515Y-128112984D01*
X141227525Y-128150500D01*
X141227526Y-128150500D01*
X141372474Y-128150500D01*
X141372475Y-128150500D01*
X141512485Y-128112984D01*
X141512487Y-128112982D01*
X141512489Y-128112982D01*
X141638010Y-128040512D01*
X141638010Y-128040511D01*
X141638015Y-128040509D01*
X141740509Y-127938015D01*
X141778349Y-127872474D01*
X141812982Y-127812489D01*
X141812982Y-127812487D01*
X141812984Y-127812485D01*
X141850500Y-127672475D01*
X141850500Y-127527525D01*
X141812984Y-127387515D01*
X141812982Y-127387512D01*
X141812982Y-127387510D01*
X141740512Y-127261989D01*
X141740510Y-127261987D01*
X141740509Y-127261985D01*
X141638015Y-127159491D01*
X141638012Y-127159489D01*
X141638010Y-127159487D01*
X141546708Y-127106773D01*
X141546705Y-127106773D01*
X141512486Y-127087016D01*
X141442480Y-127068258D01*
X141372475Y-127049500D01*
X141227525Y-127049500D01*
X141165790Y-127066041D01*
X141087510Y-127087017D01*
X140961989Y-127159487D01*
X140859487Y-127261989D01*
X140787017Y-127387510D01*
X140753397Y-127512982D01*
X140749500Y-127527525D01*
X126158218Y-127527525D01*
X126212485Y-127512984D01*
X126212487Y-127512982D01*
X126212489Y-127512982D01*
X126338008Y-127440513D01*
X126338007Y-127440513D01*
X126338015Y-127440509D01*
X126440509Y-127338015D01*
X126454962Y-127312982D01*
X126512982Y-127212489D01*
X126512982Y-127212487D01*
X126512984Y-127212485D01*
X126550500Y-127072475D01*
X126550500Y-127027525D01*
X146549500Y-127027525D01*
X146549500Y-127172475D01*
X146579087Y-127282896D01*
X146587017Y-127312489D01*
X146659487Y-127438010D01*
X146659489Y-127438012D01*
X146659491Y-127438015D01*
X146761985Y-127540509D01*
X146761987Y-127540510D01*
X146761989Y-127540512D01*
X146887511Y-127612982D01*
X146887512Y-127612982D01*
X146887515Y-127612984D01*
X147027525Y-127650500D01*
X147027526Y-127650500D01*
X147172474Y-127650500D01*
X147172475Y-127650500D01*
X147312485Y-127612984D01*
X147312487Y-127612982D01*
X147312489Y-127612982D01*
X147438010Y-127540512D01*
X147438010Y-127540511D01*
X147438015Y-127540509D01*
X147540509Y-127438015D01*
X147585845Y-127359491D01*
X147612982Y-127312489D01*
X147612982Y-127312487D01*
X147612984Y-127312485D01*
X147650500Y-127172475D01*
X147650500Y-127027525D01*
X147612984Y-126887515D01*
X147612982Y-126887512D01*
X147612982Y-126887510D01*
X147540512Y-126761989D01*
X147540510Y-126761987D01*
X147540509Y-126761985D01*
X147438015Y-126659491D01*
X147438012Y-126659489D01*
X147438010Y-126659487D01*
X147312488Y-126587017D01*
X147312489Y-126587017D01*
X147209761Y-126559491D01*
X147172475Y-126549500D01*
X147027525Y-126549500D01*
X146990239Y-126559491D01*
X146887510Y-126587017D01*
X146761989Y-126659487D01*
X146659487Y-126761989D01*
X146587017Y-126887510D01*
X146576295Y-126927525D01*
X146549500Y-127027525D01*
X126550500Y-127027525D01*
X126550500Y-126927525D01*
X126512984Y-126787515D01*
X126512982Y-126787512D01*
X126512982Y-126787510D01*
X126440512Y-126661989D01*
X126440510Y-126661987D01*
X126440509Y-126661985D01*
X126338015Y-126559491D01*
X126338012Y-126559489D01*
X126338010Y-126559487D01*
X126212488Y-126487017D01*
X126212489Y-126487017D01*
X126182896Y-126479087D01*
X126072475Y-126449500D01*
X125927525Y-126449500D01*
X125880931Y-126461985D01*
X125787510Y-126487017D01*
X125661989Y-126559487D01*
X125559487Y-126661989D01*
X125487017Y-126787510D01*
X125487016Y-126787515D01*
X125449500Y-126927525D01*
X119735749Y-126927525D01*
X119750500Y-126872475D01*
X119750500Y-126727525D01*
X119712984Y-126587515D01*
X119712982Y-126587512D01*
X119712982Y-126587510D01*
X119640512Y-126461989D01*
X119640510Y-126461987D01*
X119640509Y-126461985D01*
X119538015Y-126359491D01*
X119538012Y-126359489D01*
X119538010Y-126359487D01*
X119412488Y-126287017D01*
X119412489Y-126287017D01*
X119358214Y-126272474D01*
X119272475Y-126249500D01*
X119127525Y-126249500D01*
X119065790Y-126266041D01*
X118987510Y-126287017D01*
X118861989Y-126359487D01*
X118759487Y-126461989D01*
X118687017Y-126587510D01*
X118653397Y-126712982D01*
X118649500Y-126727525D01*
X115650500Y-126727525D01*
X115612984Y-126587515D01*
X115612982Y-126587512D01*
X115612982Y-126587510D01*
X115540512Y-126461989D01*
X115540510Y-126461987D01*
X115540509Y-126461985D01*
X115438015Y-126359491D01*
X115438012Y-126359489D01*
X115438010Y-126359487D01*
X115312488Y-126287017D01*
X115312489Y-126287017D01*
X115258214Y-126272474D01*
X115172475Y-126249500D01*
X115027525Y-126249500D01*
X114965790Y-126266041D01*
X114887510Y-126287017D01*
X114761983Y-126359490D01*
X114760262Y-126360812D01*
X114758797Y-126361330D01*
X114756365Y-126362735D01*
X114756104Y-126362283D01*
X114702585Y-126381232D01*
X114643921Y-126363851D01*
X114639738Y-126360812D01*
X114638016Y-126359490D01*
X114512488Y-126287017D01*
X114512489Y-126287017D01*
X114458214Y-126272474D01*
X114372475Y-126249500D01*
X114227525Y-126249500D01*
X114165790Y-126266041D01*
X114087510Y-126287017D01*
X113961989Y-126359487D01*
X113859487Y-126461989D01*
X113787017Y-126587510D01*
X113753397Y-126712982D01*
X113749500Y-126727525D01*
X112550500Y-126727525D01*
X112512984Y-126587515D01*
X112512982Y-126587512D01*
X112512982Y-126587510D01*
X112440512Y-126461989D01*
X112440510Y-126461987D01*
X112440509Y-126461985D01*
X112338015Y-126359491D01*
X112338012Y-126359489D01*
X112338010Y-126359487D01*
X112212488Y-126287017D01*
X112212489Y-126287017D01*
X112158214Y-126272474D01*
X112072475Y-126249500D01*
X111927525Y-126249500D01*
X111865790Y-126266041D01*
X111787510Y-126287017D01*
X111661989Y-126359487D01*
X111559487Y-126461989D01*
X111487017Y-126587510D01*
X111453397Y-126712982D01*
X111449500Y-126727525D01*
X100300500Y-126727525D01*
X100300500Y-125627525D01*
X117099500Y-125627525D01*
X117099500Y-125772475D01*
X117129087Y-125882896D01*
X117137017Y-125912489D01*
X117209487Y-126038010D01*
X117209489Y-126038012D01*
X117209491Y-126038015D01*
X117311985Y-126140509D01*
X117311987Y-126140510D01*
X117311989Y-126140512D01*
X117437511Y-126212982D01*
X117437512Y-126212982D01*
X117437515Y-126212984D01*
X117577525Y-126250500D01*
X117577526Y-126250500D01*
X117722474Y-126250500D01*
X117722475Y-126250500D01*
X117862485Y-126212984D01*
X117862487Y-126212982D01*
X117862489Y-126212982D01*
X117988010Y-126140512D01*
X117988010Y-126140511D01*
X117988015Y-126140509D01*
X118000999Y-126127525D01*
X123049500Y-126127525D01*
X123049500Y-126272475D01*
X123053397Y-126287017D01*
X123087017Y-126412489D01*
X123159487Y-126538010D01*
X123159489Y-126538012D01*
X123159491Y-126538015D01*
X123261985Y-126640509D01*
X123261987Y-126640510D01*
X123261989Y-126640512D01*
X123387511Y-126712982D01*
X123387512Y-126712982D01*
X123387515Y-126712984D01*
X123527525Y-126750500D01*
X123527526Y-126750500D01*
X123672474Y-126750500D01*
X123672475Y-126750500D01*
X123812485Y-126712984D01*
X123812487Y-126712982D01*
X123812489Y-126712982D01*
X123938010Y-126640512D01*
X123938010Y-126640511D01*
X123938015Y-126640509D01*
X124040509Y-126538015D01*
X124069953Y-126487017D01*
X124112982Y-126412489D01*
X124112982Y-126412487D01*
X124112984Y-126412485D01*
X124150500Y-126272475D01*
X124150500Y-126127525D01*
X124112984Y-125987515D01*
X124112982Y-125987512D01*
X124112982Y-125987510D01*
X124040512Y-125861989D01*
X124040510Y-125861987D01*
X124040509Y-125861985D01*
X123938015Y-125759491D01*
X123938012Y-125759489D01*
X123938010Y-125759487D01*
X123812488Y-125687017D01*
X123812489Y-125687017D01*
X123782896Y-125679087D01*
X123672475Y-125649500D01*
X123527525Y-125649500D01*
X123465790Y-125666041D01*
X123387510Y-125687017D01*
X123261989Y-125759487D01*
X123159487Y-125861989D01*
X123087017Y-125987510D01*
X123087016Y-125987515D01*
X123049500Y-126127525D01*
X118000999Y-126127525D01*
X118090509Y-126038015D01*
X118162984Y-125912485D01*
X118200500Y-125772475D01*
X118200500Y-125627525D01*
X118162984Y-125487515D01*
X118162982Y-125487512D01*
X118162982Y-125487510D01*
X118090512Y-125361989D01*
X118090510Y-125361987D01*
X118090509Y-125361985D01*
X117988015Y-125259491D01*
X117988012Y-125259489D01*
X117988010Y-125259487D01*
X117862488Y-125187017D01*
X117862489Y-125187017D01*
X117808214Y-125172474D01*
X117722475Y-125149500D01*
X117577525Y-125149500D01*
X117515790Y-125166041D01*
X117437510Y-125187017D01*
X117311989Y-125259487D01*
X117209487Y-125361989D01*
X117137017Y-125487510D01*
X117137016Y-125487515D01*
X117099500Y-125627525D01*
X100300500Y-125627525D01*
X100300500Y-125027525D01*
X121949500Y-125027525D01*
X121949500Y-125172475D01*
X121953397Y-125187017D01*
X121987017Y-125312489D01*
X122059487Y-125438010D01*
X122059489Y-125438012D01*
X122059491Y-125438015D01*
X122161985Y-125540509D01*
X122161987Y-125540510D01*
X122161989Y-125540512D01*
X122287511Y-125612982D01*
X122287512Y-125612982D01*
X122287515Y-125612984D01*
X122427525Y-125650500D01*
X122427526Y-125650500D01*
X122572474Y-125650500D01*
X122572475Y-125650500D01*
X122712485Y-125612984D01*
X122712487Y-125612982D01*
X122712489Y-125612982D01*
X122838010Y-125540512D01*
X122838010Y-125540511D01*
X122838015Y-125540509D01*
X122940509Y-125438015D01*
X123012984Y-125312485D01*
X123050500Y-125172475D01*
X123050500Y-125027525D01*
X123012984Y-124887515D01*
X123012982Y-124887512D01*
X123012982Y-124887510D01*
X122940512Y-124761989D01*
X122940510Y-124761987D01*
X122940509Y-124761985D01*
X122838015Y-124659491D01*
X122838012Y-124659489D01*
X122838010Y-124659487D01*
X122712488Y-124587017D01*
X122712489Y-124587017D01*
X122682896Y-124579087D01*
X122572475Y-124549500D01*
X122427525Y-124549500D01*
X122365790Y-124566041D01*
X122287510Y-124587017D01*
X122161989Y-124659487D01*
X122059487Y-124761989D01*
X121987017Y-124887510D01*
X121987016Y-124887515D01*
X121949500Y-125027525D01*
X100300500Y-125027525D01*
X100300500Y-123627525D01*
X112049500Y-123627525D01*
X112049500Y-123772474D01*
X112087017Y-123912489D01*
X112159487Y-124038010D01*
X112159489Y-124038012D01*
X112159491Y-124038015D01*
X112261985Y-124140509D01*
X112261987Y-124140510D01*
X112261989Y-124140512D01*
X112387511Y-124212982D01*
X112387512Y-124212982D01*
X112387515Y-124212984D01*
X112527525Y-124250500D01*
X112527526Y-124250500D01*
X112672474Y-124250500D01*
X112672475Y-124250500D01*
X112812485Y-124212984D01*
X112812487Y-124212982D01*
X112812489Y-124212982D01*
X112938010Y-124140512D01*
X112938010Y-124140511D01*
X112938015Y-124140509D01*
X113040509Y-124038015D01*
X113112984Y-123912485D01*
X113150500Y-123772475D01*
X113150500Y-123627525D01*
X113112984Y-123487515D01*
X113112982Y-123487512D01*
X113112982Y-123487510D01*
X113040512Y-123361989D01*
X113040510Y-123361987D01*
X113040509Y-123361985D01*
X112938015Y-123259491D01*
X112938012Y-123259489D01*
X112938010Y-123259487D01*
X112846708Y-123206773D01*
X112846705Y-123206773D01*
X112812486Y-123187016D01*
X112742480Y-123168258D01*
X112672475Y-123149500D01*
X112527525Y-123149500D01*
X112465790Y-123166041D01*
X112387510Y-123187017D01*
X112261989Y-123259487D01*
X112159487Y-123361989D01*
X112087017Y-123487510D01*
X112049500Y-123627525D01*
X100300500Y-123627525D01*
X100300500Y-122527525D01*
X106449500Y-122527525D01*
X106449500Y-122672475D01*
X106467730Y-122740509D01*
X106487017Y-122812489D01*
X106559487Y-122938010D01*
X106559489Y-122938012D01*
X106559491Y-122938015D01*
X106661985Y-123040509D01*
X106661987Y-123040510D01*
X106661989Y-123040512D01*
X106787511Y-123112982D01*
X106787512Y-123112982D01*
X106787515Y-123112984D01*
X106927525Y-123150500D01*
X106927526Y-123150500D01*
X107072474Y-123150500D01*
X107072475Y-123150500D01*
X107158218Y-123127525D01*
X141549500Y-123127525D01*
X141549500Y-123272475D01*
X141579087Y-123382896D01*
X141587017Y-123412489D01*
X141659487Y-123538010D01*
X141659489Y-123538012D01*
X141659491Y-123538015D01*
X141761985Y-123640509D01*
X141761987Y-123640510D01*
X141761989Y-123640512D01*
X141887511Y-123712982D01*
X141887512Y-123712982D01*
X141887515Y-123712984D01*
X142027525Y-123750500D01*
X142027526Y-123750500D01*
X142172474Y-123750500D01*
X142172475Y-123750500D01*
X142312485Y-123712984D01*
X142312487Y-123712982D01*
X142312489Y-123712982D01*
X142438010Y-123640512D01*
X142438010Y-123640511D01*
X142438015Y-123640509D01*
X142540509Y-123538015D01*
X142612984Y-123412485D01*
X142650500Y-123272475D01*
X142650500Y-123127525D01*
X142612984Y-122987515D01*
X142612982Y-122987512D01*
X142612982Y-122987510D01*
X142540512Y-122861989D01*
X142540510Y-122861987D01*
X142540509Y-122861985D01*
X142438015Y-122759491D01*
X142438012Y-122759489D01*
X142438010Y-122759487D01*
X142312488Y-122687017D01*
X142312489Y-122687017D01*
X142258214Y-122672474D01*
X142172475Y-122649500D01*
X142027525Y-122649500D01*
X141965790Y-122666041D01*
X141887510Y-122687017D01*
X141761989Y-122759487D01*
X141659487Y-122861989D01*
X141587017Y-122987510D01*
X141587016Y-122987515D01*
X141549500Y-123127525D01*
X107158218Y-123127525D01*
X107212485Y-123112984D01*
X107212487Y-123112982D01*
X107212489Y-123112982D01*
X107338010Y-123040512D01*
X107338010Y-123040511D01*
X107338015Y-123040509D01*
X107440509Y-122938015D01*
X107512984Y-122812485D01*
X107550500Y-122672475D01*
X107550500Y-122527525D01*
X107512984Y-122387515D01*
X107440509Y-122261985D01*
X107406049Y-122227525D01*
X121449500Y-122227525D01*
X121449500Y-122372475D01*
X121475408Y-122469165D01*
X121487017Y-122512489D01*
X121559487Y-122638010D01*
X121559489Y-122638012D01*
X121559491Y-122638015D01*
X121661985Y-122740509D01*
X121661987Y-122740510D01*
X121661989Y-122740512D01*
X121787511Y-122812982D01*
X121787512Y-122812982D01*
X121787515Y-122812984D01*
X121927525Y-122850500D01*
X121927526Y-122850500D01*
X122072474Y-122850500D01*
X122072475Y-122850500D01*
X122212485Y-122812984D01*
X122212487Y-122812982D01*
X122212489Y-122812982D01*
X122338010Y-122740512D01*
X122338010Y-122740511D01*
X122338015Y-122740509D01*
X122440509Y-122638015D01*
X122512984Y-122512485D01*
X122524592Y-122469163D01*
X122557915Y-122417851D01*
X122615037Y-122395924D01*
X122674137Y-122411760D01*
X122705954Y-122445288D01*
X122759487Y-122538010D01*
X122759489Y-122538012D01*
X122759491Y-122538015D01*
X122861985Y-122640509D01*
X122861987Y-122640510D01*
X122861989Y-122640512D01*
X122987511Y-122712982D01*
X122987512Y-122712982D01*
X122987515Y-122712984D01*
X123127525Y-122750500D01*
X123127526Y-122750500D01*
X123272474Y-122750500D01*
X123272475Y-122750500D01*
X123412485Y-122712984D01*
X123412487Y-122712982D01*
X123412489Y-122712982D01*
X123538010Y-122640512D01*
X123538010Y-122640511D01*
X123538015Y-122640509D01*
X123640509Y-122538015D01*
X123646565Y-122527525D01*
X147749500Y-122527525D01*
X147749500Y-122672475D01*
X147767730Y-122740509D01*
X147787017Y-122812489D01*
X147859487Y-122938010D01*
X147859489Y-122938012D01*
X147859491Y-122938015D01*
X147961985Y-123040509D01*
X147961987Y-123040510D01*
X147961989Y-123040512D01*
X148087511Y-123112982D01*
X148087512Y-123112982D01*
X148087515Y-123112984D01*
X148227525Y-123150500D01*
X148227526Y-123150500D01*
X148372474Y-123150500D01*
X148372475Y-123150500D01*
X148512485Y-123112984D01*
X148512487Y-123112982D01*
X148512489Y-123112982D01*
X148638010Y-123040512D01*
X148638010Y-123040511D01*
X148638015Y-123040509D01*
X148740509Y-122938015D01*
X148812984Y-122812485D01*
X148850500Y-122672475D01*
X148850500Y-122527525D01*
X148812984Y-122387515D01*
X148812982Y-122387512D01*
X148812982Y-122387510D01*
X148740512Y-122261989D01*
X148740510Y-122261987D01*
X148740509Y-122261985D01*
X148638015Y-122159491D01*
X148638012Y-122159489D01*
X148638010Y-122159487D01*
X148512488Y-122087017D01*
X148512489Y-122087017D01*
X148391922Y-122054711D01*
X148372475Y-122049500D01*
X148227525Y-122049500D01*
X148208078Y-122054711D01*
X148087510Y-122087017D01*
X147961989Y-122159487D01*
X147859487Y-122261989D01*
X147787017Y-122387510D01*
X147765138Y-122469165D01*
X147749500Y-122527525D01*
X123646565Y-122527525D01*
X123661030Y-122502471D01*
X123678892Y-122471535D01*
X123712983Y-122412486D01*
X123712984Y-122412485D01*
X123750500Y-122272475D01*
X123750500Y-122127525D01*
X123712984Y-121987515D01*
X123712982Y-121987511D01*
X123712982Y-121987510D01*
X123640512Y-121861989D01*
X123640510Y-121861987D01*
X123640509Y-121861985D01*
X123538015Y-121759491D01*
X123538012Y-121759489D01*
X123538010Y-121759487D01*
X123412488Y-121687017D01*
X123412489Y-121687017D01*
X123382896Y-121679087D01*
X123272475Y-121649500D01*
X123127525Y-121649500D01*
X123065790Y-121666041D01*
X122987510Y-121687017D01*
X122861989Y-121759487D01*
X122759487Y-121861989D01*
X122687017Y-121987511D01*
X122687016Y-121987514D01*
X122675407Y-122030836D01*
X122642082Y-122082150D01*
X122584960Y-122104075D01*
X122525860Y-122088238D01*
X122494045Y-122054712D01*
X122440509Y-121961985D01*
X122338015Y-121859491D01*
X122338012Y-121859489D01*
X122338010Y-121859487D01*
X122212488Y-121787017D01*
X122212489Y-121787017D01*
X122109761Y-121759491D01*
X122072475Y-121749500D01*
X121927525Y-121749500D01*
X121890239Y-121759491D01*
X121787510Y-121787017D01*
X121661989Y-121859487D01*
X121559487Y-121961989D01*
X121487017Y-122087510D01*
X121476295Y-122127525D01*
X121449500Y-122227525D01*
X107406049Y-122227525D01*
X107338015Y-122159491D01*
X107338012Y-122159489D01*
X107338010Y-122159487D01*
X107212488Y-122087017D01*
X107212489Y-122087017D01*
X107091922Y-122054711D01*
X107072475Y-122049500D01*
X106927525Y-122049500D01*
X106908078Y-122054711D01*
X106787510Y-122087017D01*
X106661989Y-122159487D01*
X106559487Y-122261989D01*
X106487017Y-122387510D01*
X106465138Y-122469165D01*
X106449500Y-122527525D01*
X100300500Y-122527525D01*
X100300500Y-121427525D01*
X144049500Y-121427525D01*
X144049500Y-121572474D01*
X144087017Y-121712489D01*
X144159487Y-121838010D01*
X144159489Y-121838012D01*
X144159491Y-121838015D01*
X144261985Y-121940509D01*
X144261987Y-121940510D01*
X144261989Y-121940512D01*
X144387511Y-122012982D01*
X144387512Y-122012982D01*
X144387515Y-122012984D01*
X144527525Y-122050500D01*
X144527526Y-122050500D01*
X144672474Y-122050500D01*
X144672475Y-122050500D01*
X144812485Y-122012984D01*
X144812487Y-122012982D01*
X144812489Y-122012982D01*
X144938010Y-121940512D01*
X144938010Y-121940511D01*
X144938015Y-121940509D01*
X145040509Y-121838015D01*
X145069953Y-121787017D01*
X145112982Y-121712489D01*
X145112982Y-121712487D01*
X145112984Y-121712485D01*
X145150500Y-121572475D01*
X145150500Y-121427525D01*
X145112984Y-121287515D01*
X145112982Y-121287512D01*
X145112982Y-121287510D01*
X145040512Y-121161989D01*
X145040510Y-121161987D01*
X145040509Y-121161985D01*
X144938015Y-121059491D01*
X144938012Y-121059489D01*
X144938010Y-121059487D01*
X144812488Y-120987017D01*
X144812489Y-120987017D01*
X144782896Y-120979087D01*
X144672475Y-120949500D01*
X144527525Y-120949500D01*
X144465790Y-120966041D01*
X144387510Y-120987017D01*
X144261989Y-121059487D01*
X144159487Y-121161989D01*
X144087017Y-121287510D01*
X144049500Y-121427525D01*
X100300500Y-121427525D01*
X100300500Y-120227525D01*
X105049500Y-120227525D01*
X105049500Y-120372474D01*
X105087017Y-120512489D01*
X105159487Y-120638010D01*
X105159489Y-120638012D01*
X105159491Y-120638015D01*
X105261985Y-120740509D01*
X105261987Y-120740510D01*
X105261989Y-120740512D01*
X105387511Y-120812982D01*
X105387512Y-120812982D01*
X105387515Y-120812984D01*
X105527525Y-120850500D01*
X105527526Y-120850500D01*
X105672474Y-120850500D01*
X105672475Y-120850500D01*
X105812485Y-120812984D01*
X105812487Y-120812982D01*
X105812489Y-120812982D01*
X105938010Y-120740512D01*
X105938010Y-120740511D01*
X105938015Y-120740509D01*
X106040509Y-120638015D01*
X106104301Y-120527525D01*
X126349500Y-120527525D01*
X126349500Y-120672474D01*
X126387017Y-120812489D01*
X126459487Y-120938010D01*
X126459489Y-120938012D01*
X126459491Y-120938015D01*
X126561985Y-121040509D01*
X126561987Y-121040510D01*
X126561989Y-121040512D01*
X126687511Y-121112982D01*
X126687512Y-121112982D01*
X126687515Y-121112984D01*
X126827525Y-121150500D01*
X126827526Y-121150500D01*
X126972474Y-121150500D01*
X126972475Y-121150500D01*
X127112485Y-121112984D01*
X127112487Y-121112982D01*
X127112489Y-121112982D01*
X127238010Y-121040512D01*
X127238010Y-121040511D01*
X127238015Y-121040509D01*
X127340509Y-120938015D01*
X127412984Y-120812485D01*
X127450500Y-120672475D01*
X127450500Y-120527525D01*
X127412984Y-120387515D01*
X127412982Y-120387512D01*
X127412982Y-120387510D01*
X127340512Y-120261989D01*
X127340510Y-120261987D01*
X127340509Y-120261985D01*
X127238015Y-120159491D01*
X127238012Y-120159489D01*
X127238010Y-120159487D01*
X127112488Y-120087017D01*
X127112489Y-120087017D01*
X127082896Y-120079087D01*
X126972475Y-120049500D01*
X126827525Y-120049500D01*
X126765790Y-120066041D01*
X126687510Y-120087017D01*
X126561989Y-120159487D01*
X126459487Y-120261989D01*
X126387017Y-120387510D01*
X126349500Y-120527525D01*
X106104301Y-120527525D01*
X106112984Y-120512485D01*
X106150500Y-120372475D01*
X106150500Y-120227525D01*
X106112984Y-120087515D01*
X106112982Y-120087512D01*
X106112982Y-120087510D01*
X106040512Y-119961989D01*
X106040510Y-119961987D01*
X106040509Y-119961985D01*
X105938015Y-119859491D01*
X105938012Y-119859489D01*
X105938010Y-119859487D01*
X105846708Y-119806773D01*
X105846705Y-119806773D01*
X105812486Y-119787016D01*
X105742480Y-119768258D01*
X105672475Y-119749500D01*
X105527525Y-119749500D01*
X105465790Y-119766041D01*
X105387510Y-119787017D01*
X105261989Y-119859487D01*
X105159487Y-119961989D01*
X105087017Y-120087510D01*
X105049500Y-120227525D01*
X100300500Y-120227525D01*
X100300500Y-119727525D01*
X117149500Y-119727525D01*
X117149500Y-119872475D01*
X117179087Y-119982896D01*
X117187017Y-120012489D01*
X117259487Y-120138010D01*
X117259489Y-120138012D01*
X117259491Y-120138015D01*
X117361985Y-120240509D01*
X117361987Y-120240510D01*
X117361989Y-120240512D01*
X117487511Y-120312982D01*
X117487512Y-120312982D01*
X117487515Y-120312984D01*
X117627525Y-120350500D01*
X117627526Y-120350500D01*
X117772474Y-120350500D01*
X117772475Y-120350500D01*
X117912485Y-120312984D01*
X117912487Y-120312982D01*
X117912489Y-120312982D01*
X118038010Y-120240512D01*
X118038010Y-120240511D01*
X118038015Y-120240509D01*
X118140509Y-120138015D01*
X118169953Y-120087017D01*
X118212982Y-120012489D01*
X118212982Y-120012487D01*
X118212984Y-120012485D01*
X118250500Y-119872475D01*
X118250500Y-119727525D01*
X118212984Y-119587515D01*
X118212982Y-119587512D01*
X118212982Y-119587510D01*
X118140512Y-119461989D01*
X118140510Y-119461987D01*
X118140509Y-119461985D01*
X118038015Y-119359491D01*
X118038012Y-119359489D01*
X118038010Y-119359487D01*
X117912488Y-119287017D01*
X117912489Y-119287017D01*
X117882896Y-119279087D01*
X117772475Y-119249500D01*
X117627525Y-119249500D01*
X117565790Y-119266041D01*
X117487510Y-119287017D01*
X117361989Y-119359487D01*
X117259487Y-119461989D01*
X117187017Y-119587510D01*
X117187016Y-119587515D01*
X117149500Y-119727525D01*
X100300500Y-119727525D01*
X100300500Y-118827525D01*
X116049500Y-118827525D01*
X116049500Y-118972474D01*
X116087017Y-119112489D01*
X116159487Y-119238010D01*
X116159489Y-119238012D01*
X116159491Y-119238015D01*
X116261985Y-119340509D01*
X116261987Y-119340510D01*
X116261989Y-119340512D01*
X116387511Y-119412982D01*
X116387512Y-119412982D01*
X116387515Y-119412984D01*
X116527525Y-119450500D01*
X116527526Y-119450500D01*
X116672474Y-119450500D01*
X116672475Y-119450500D01*
X116812485Y-119412984D01*
X116812487Y-119412982D01*
X116812489Y-119412982D01*
X116938010Y-119340512D01*
X116938010Y-119340511D01*
X116938015Y-119340509D01*
X117040509Y-119238015D01*
X117112984Y-119112485D01*
X117150500Y-118972475D01*
X117150500Y-118827525D01*
X117112984Y-118687515D01*
X117112982Y-118687512D01*
X117112982Y-118687510D01*
X117040512Y-118561989D01*
X117040510Y-118561987D01*
X117040509Y-118561985D01*
X116938015Y-118459491D01*
X116938012Y-118459489D01*
X116938010Y-118459487D01*
X116812488Y-118387017D01*
X116812489Y-118387017D01*
X116782896Y-118379087D01*
X116672475Y-118349500D01*
X116527525Y-118349500D01*
X116479065Y-118362485D01*
X116387510Y-118387017D01*
X116261989Y-118459487D01*
X116159487Y-118561989D01*
X116087017Y-118687510D01*
X116049500Y-118827525D01*
X100300500Y-118827525D01*
X100300500Y-118127525D01*
X105049500Y-118127525D01*
X105049500Y-118272475D01*
X105079087Y-118382896D01*
X105087017Y-118412489D01*
X105159487Y-118538010D01*
X105159489Y-118538012D01*
X105159491Y-118538015D01*
X105261985Y-118640509D01*
X105261987Y-118640510D01*
X105261989Y-118640512D01*
X105387511Y-118712982D01*
X105387512Y-118712982D01*
X105387515Y-118712984D01*
X105527525Y-118750500D01*
X105527526Y-118750500D01*
X105672473Y-118750500D01*
X105672475Y-118750500D01*
X105812485Y-118712984D01*
X105812488Y-118712982D01*
X105812489Y-118712982D01*
X105938010Y-118640512D01*
X105938010Y-118640511D01*
X105938015Y-118640509D01*
X106040509Y-118538015D01*
X106056152Y-118510919D01*
X106101618Y-118469979D01*
X106162468Y-118463582D01*
X106211889Y-118490413D01*
X106311985Y-118590509D01*
X106311987Y-118590510D01*
X106311989Y-118590512D01*
X106437511Y-118662982D01*
X106437512Y-118662982D01*
X106437515Y-118662984D01*
X106577525Y-118700500D01*
X106577526Y-118700500D01*
X106722474Y-118700500D01*
X106722475Y-118700500D01*
X106862485Y-118662984D01*
X106862487Y-118662982D01*
X106862489Y-118662982D01*
X106988010Y-118590512D01*
X106988010Y-118590511D01*
X106988015Y-118590509D01*
X107090509Y-118488015D01*
X107100922Y-118469979D01*
X107162982Y-118362489D01*
X107162982Y-118362487D01*
X107162984Y-118362485D01*
X107200500Y-118222475D01*
X107200500Y-118077525D01*
X107162984Y-117937515D01*
X107162982Y-117937512D01*
X107162982Y-117937510D01*
X107139897Y-117897525D01*
X113949500Y-117897525D01*
X113949500Y-118042474D01*
X113987017Y-118182489D01*
X114059487Y-118308010D01*
X114059489Y-118308012D01*
X114059491Y-118308015D01*
X114161985Y-118410509D01*
X114161987Y-118410510D01*
X114161989Y-118410512D01*
X114287511Y-118482982D01*
X114287512Y-118482982D01*
X114287515Y-118482984D01*
X114427525Y-118520500D01*
X114427526Y-118520500D01*
X114572474Y-118520500D01*
X114572475Y-118520500D01*
X114712485Y-118482984D01*
X114712487Y-118482982D01*
X114712489Y-118482982D01*
X114838010Y-118410512D01*
X114838010Y-118410511D01*
X114838015Y-118410509D01*
X114940509Y-118308015D01*
X114989896Y-118222475D01*
X115012982Y-118182489D01*
X115012982Y-118182487D01*
X115012984Y-118182485D01*
X115050500Y-118042475D01*
X115050500Y-117897525D01*
X115012984Y-117757515D01*
X115012982Y-117757512D01*
X115012982Y-117757510D01*
X114940512Y-117631989D01*
X114940510Y-117631987D01*
X114940509Y-117631985D01*
X114838015Y-117529491D01*
X114838012Y-117529489D01*
X114838010Y-117529487D01*
X114712488Y-117457017D01*
X114712489Y-117457017D01*
X114682896Y-117449087D01*
X114572475Y-117419500D01*
X114427525Y-117419500D01*
X114365790Y-117436041D01*
X114287510Y-117457017D01*
X114161989Y-117529487D01*
X114059487Y-117631989D01*
X113987017Y-117757510D01*
X113949500Y-117897525D01*
X107139897Y-117897525D01*
X107090512Y-117811989D01*
X107090510Y-117811987D01*
X107090509Y-117811985D01*
X106988015Y-117709491D01*
X106988012Y-117709489D01*
X106988010Y-117709487D01*
X106862488Y-117637017D01*
X106862484Y-117637015D01*
X106794991Y-117618930D01*
X106743677Y-117585606D01*
X106721751Y-117528484D01*
X106724988Y-117497683D01*
X106750500Y-117402475D01*
X106750500Y-117257525D01*
X106720793Y-117146658D01*
X106720793Y-117146656D01*
X106715666Y-117127525D01*
X121449500Y-117127525D01*
X121449500Y-117272474D01*
X121487017Y-117412489D01*
X121559487Y-117538010D01*
X121559489Y-117538012D01*
X121559491Y-117538015D01*
X121661985Y-117640509D01*
X121661987Y-117640510D01*
X121661989Y-117640512D01*
X121787509Y-117712981D01*
X121787510Y-117712981D01*
X121787515Y-117712984D01*
X121923115Y-117749318D01*
X121974429Y-117782643D01*
X121996355Y-117839764D01*
X121988959Y-117882821D01*
X121987018Y-117887506D01*
X121973484Y-117938015D01*
X121949500Y-118027525D01*
X121949500Y-118172475D01*
X121962897Y-118222474D01*
X121987017Y-118312489D01*
X122059487Y-118438010D01*
X122059489Y-118438012D01*
X122059491Y-118438015D01*
X122161985Y-118540509D01*
X122161987Y-118540510D01*
X122161989Y-118540512D01*
X122287511Y-118612982D01*
X122287512Y-118612982D01*
X122287515Y-118612984D01*
X122427525Y-118650500D01*
X122427526Y-118650500D01*
X122572474Y-118650500D01*
X122572475Y-118650500D01*
X122712485Y-118612984D01*
X122712487Y-118612982D01*
X122712489Y-118612982D01*
X122838010Y-118540512D01*
X122838010Y-118540511D01*
X122838015Y-118540509D01*
X122940509Y-118438015D01*
X122940512Y-118438010D01*
X123012982Y-118312489D01*
X123012982Y-118312487D01*
X123012984Y-118312485D01*
X123049147Y-118177525D01*
X137949500Y-118177525D01*
X137949500Y-118322475D01*
X137979087Y-118432896D01*
X137987017Y-118462489D01*
X138059487Y-118588010D01*
X138059489Y-118588012D01*
X138059491Y-118588015D01*
X138161985Y-118690509D01*
X138161987Y-118690510D01*
X138161989Y-118690512D01*
X138287511Y-118762982D01*
X138287512Y-118762982D01*
X138287515Y-118762984D01*
X138427525Y-118800500D01*
X138427526Y-118800500D01*
X138572474Y-118800500D01*
X138572475Y-118800500D01*
X138712485Y-118762984D01*
X138712487Y-118762982D01*
X138712489Y-118762982D01*
X138838010Y-118690512D01*
X138838010Y-118690511D01*
X138838015Y-118690509D01*
X138940509Y-118588015D01*
X138955535Y-118561989D01*
X139012982Y-118462489D01*
X139012982Y-118462487D01*
X139012984Y-118462485D01*
X139050500Y-118322475D01*
X139050500Y-118177525D01*
X139012984Y-118037515D01*
X139012982Y-118037512D01*
X139012982Y-118037510D01*
X138940512Y-117911989D01*
X138940510Y-117911987D01*
X138940509Y-117911985D01*
X138838015Y-117809491D01*
X138838012Y-117809489D01*
X138838010Y-117809487D01*
X138712488Y-117737017D01*
X138712489Y-117737017D01*
X138609761Y-117709491D01*
X138572475Y-117699500D01*
X138427525Y-117699500D01*
X138390239Y-117709491D01*
X138287510Y-117737017D01*
X138161989Y-117809487D01*
X138059487Y-117911989D01*
X137987017Y-118037510D01*
X137956741Y-118150500D01*
X137949500Y-118177525D01*
X123049147Y-118177525D01*
X123050500Y-118172475D01*
X123050500Y-118027525D01*
X123012984Y-117887515D01*
X123012982Y-117887512D01*
X123012982Y-117887510D01*
X122940512Y-117761989D01*
X122940510Y-117761987D01*
X122940509Y-117761985D01*
X122838015Y-117659491D01*
X122838012Y-117659489D01*
X122838010Y-117659487D01*
X122746708Y-117606773D01*
X122746705Y-117606773D01*
X122712483Y-117587015D01*
X122576884Y-117550680D01*
X122541229Y-117527525D01*
X141749500Y-117527525D01*
X141749500Y-117672475D01*
X141779020Y-117782643D01*
X141787017Y-117812489D01*
X141859487Y-117938010D01*
X141859489Y-117938012D01*
X141859491Y-117938015D01*
X141961985Y-118040509D01*
X141961987Y-118040510D01*
X141961989Y-118040512D01*
X142087511Y-118112982D01*
X142087512Y-118112982D01*
X142087515Y-118112984D01*
X142227525Y-118150500D01*
X142227526Y-118150500D01*
X142372474Y-118150500D01*
X142372475Y-118150500D01*
X142512485Y-118112984D01*
X142512487Y-118112982D01*
X142512489Y-118112982D01*
X142638010Y-118040512D01*
X142638010Y-118040511D01*
X142638015Y-118040509D01*
X142740509Y-117938015D01*
X142755535Y-117911989D01*
X142812982Y-117812489D01*
X142812982Y-117812487D01*
X142812984Y-117812485D01*
X142850500Y-117672475D01*
X142850500Y-117527525D01*
X142812984Y-117387515D01*
X142812982Y-117387512D01*
X142812982Y-117387510D01*
X142740512Y-117261989D01*
X142740510Y-117261987D01*
X142740509Y-117261985D01*
X142638015Y-117159491D01*
X142638012Y-117159489D01*
X142638010Y-117159487D01*
X142512488Y-117087017D01*
X142512489Y-117087017D01*
X142482896Y-117079087D01*
X142372475Y-117049500D01*
X142227525Y-117049500D01*
X142165790Y-117066041D01*
X142087510Y-117087017D01*
X141961989Y-117159487D01*
X141859487Y-117261989D01*
X141787017Y-117387510D01*
X141768393Y-117457016D01*
X141749500Y-117527525D01*
X122541229Y-117527525D01*
X122525570Y-117517356D01*
X122503644Y-117460234D01*
X122511044Y-117417168D01*
X122512983Y-117412486D01*
X122512984Y-117412485D01*
X122550500Y-117272475D01*
X122550500Y-117127525D01*
X122512984Y-116987515D01*
X122512982Y-116987512D01*
X122512982Y-116987510D01*
X122440512Y-116861989D01*
X122440510Y-116861987D01*
X122440509Y-116861985D01*
X122338015Y-116759491D01*
X122338012Y-116759489D01*
X122338010Y-116759487D01*
X122212488Y-116687017D01*
X122212489Y-116687017D01*
X122182896Y-116679087D01*
X122072475Y-116649500D01*
X121927525Y-116649500D01*
X121865790Y-116666041D01*
X121787510Y-116687017D01*
X121661989Y-116759487D01*
X121559487Y-116861989D01*
X121487017Y-116987510D01*
X121449500Y-117127525D01*
X106715666Y-117127525D01*
X106712984Y-117117515D01*
X106712982Y-117117511D01*
X106640512Y-116991989D01*
X106640510Y-116991987D01*
X106640509Y-116991985D01*
X106538015Y-116889491D01*
X106538012Y-116889489D01*
X106538010Y-116889487D01*
X106412488Y-116817017D01*
X106412489Y-116817017D01*
X106382896Y-116809087D01*
X106272475Y-116779500D01*
X106127525Y-116779500D01*
X106065790Y-116796041D01*
X105987510Y-116817017D01*
X105861989Y-116889487D01*
X105759487Y-116991989D01*
X105687017Y-117117510D01*
X105675768Y-117159491D01*
X105649500Y-117257525D01*
X105649500Y-117402475D01*
X105680283Y-117517356D01*
X105682298Y-117524877D01*
X105679096Y-117585978D01*
X105640590Y-117633528D01*
X105586671Y-117649500D01*
X105527525Y-117649500D01*
X105490239Y-117659491D01*
X105387510Y-117687017D01*
X105261989Y-117759487D01*
X105159487Y-117861989D01*
X105087017Y-117987510D01*
X105053397Y-118112982D01*
X105049500Y-118127525D01*
X100300500Y-118127525D01*
X100300500Y-115957525D01*
X102349500Y-115957525D01*
X102349500Y-116102474D01*
X102387017Y-116242489D01*
X102459487Y-116368010D01*
X102459489Y-116368012D01*
X102459491Y-116368015D01*
X102561985Y-116470509D01*
X102561987Y-116470510D01*
X102561989Y-116470512D01*
X102687511Y-116542982D01*
X102687512Y-116542982D01*
X102687515Y-116542984D01*
X102827525Y-116580500D01*
X102827526Y-116580500D01*
X102972474Y-116580500D01*
X102972475Y-116580500D01*
X103112485Y-116542984D01*
X103112487Y-116542982D01*
X103112489Y-116542982D01*
X103238010Y-116470512D01*
X103238010Y-116470511D01*
X103238015Y-116470509D01*
X103340509Y-116368015D01*
X103412984Y-116242485D01*
X103450500Y-116102475D01*
X103450500Y-115957525D01*
X103412984Y-115817515D01*
X103412982Y-115817512D01*
X103412982Y-115817510D01*
X103340512Y-115691989D01*
X103340510Y-115691987D01*
X103340509Y-115691985D01*
X103238015Y-115589491D01*
X103238012Y-115589489D01*
X103238010Y-115589487D01*
X103112488Y-115517017D01*
X103112489Y-115517017D01*
X103082896Y-115509087D01*
X102972475Y-115479500D01*
X102827525Y-115479500D01*
X102797632Y-115487510D01*
X102687510Y-115517017D01*
X102561989Y-115589487D01*
X102459487Y-115691989D01*
X102387017Y-115817510D01*
X102349500Y-115957525D01*
X100300500Y-115957525D01*
X100300500Y-115307525D01*
X105149500Y-115307525D01*
X105149500Y-115452475D01*
X105158888Y-115487510D01*
X105187017Y-115592489D01*
X105259487Y-115718010D01*
X105259489Y-115718012D01*
X105259491Y-115718015D01*
X105361985Y-115820509D01*
X105361987Y-115820510D01*
X105361989Y-115820512D01*
X105487511Y-115892982D01*
X105487512Y-115892982D01*
X105487515Y-115892984D01*
X105627525Y-115930500D01*
X105627526Y-115930500D01*
X105772474Y-115930500D01*
X105772475Y-115930500D01*
X105912485Y-115892984D01*
X105912487Y-115892982D01*
X105912489Y-115892982D01*
X106038010Y-115820512D01*
X106038010Y-115820511D01*
X106038015Y-115820509D01*
X106140509Y-115718015D01*
X106155535Y-115691989D01*
X106192754Y-115627525D01*
X119449500Y-115627525D01*
X119449500Y-115772474D01*
X119487017Y-115912489D01*
X119559487Y-116038010D01*
X119559489Y-116038012D01*
X119559491Y-116038015D01*
X119661985Y-116140509D01*
X119661987Y-116140510D01*
X119661989Y-116140512D01*
X119787511Y-116212982D01*
X119787512Y-116212982D01*
X119787515Y-116212984D01*
X119927525Y-116250500D01*
X119927526Y-116250500D01*
X120072474Y-116250500D01*
X120072475Y-116250500D01*
X120212485Y-116212984D01*
X120212487Y-116212982D01*
X120212489Y-116212982D01*
X120338010Y-116140512D01*
X120338010Y-116140511D01*
X120338015Y-116140509D01*
X120440509Y-116038015D01*
X120512984Y-115912485D01*
X120550500Y-115772475D01*
X120550500Y-115627525D01*
X120512984Y-115487515D01*
X120512982Y-115487512D01*
X120512982Y-115487510D01*
X120440512Y-115361989D01*
X120440510Y-115361987D01*
X120440509Y-115361985D01*
X120338015Y-115259491D01*
X120338012Y-115259489D01*
X120338010Y-115259487D01*
X120212488Y-115187017D01*
X120212489Y-115187017D01*
X120139688Y-115167510D01*
X120072475Y-115149500D01*
X119927525Y-115149500D01*
X119886428Y-115160512D01*
X119787510Y-115187017D01*
X119661989Y-115259487D01*
X119559487Y-115361989D01*
X119487017Y-115487510D01*
X119449500Y-115627525D01*
X106192754Y-115627525D01*
X106212982Y-115592489D01*
X106212982Y-115592487D01*
X106212984Y-115592485D01*
X106250500Y-115452475D01*
X106250500Y-115352085D01*
X106269407Y-115293894D01*
X106318907Y-115257930D01*
X106375124Y-115256459D01*
X106427522Y-115270499D01*
X106427524Y-115270500D01*
X106427525Y-115270500D01*
X106572474Y-115270500D01*
X106572475Y-115270500D01*
X106712485Y-115232984D01*
X106712487Y-115232982D01*
X106712489Y-115232982D01*
X106838010Y-115160512D01*
X106838010Y-115160511D01*
X106838015Y-115160509D01*
X106940509Y-115058015D01*
X106949764Y-115041985D01*
X107012982Y-114932489D01*
X107012982Y-114932487D01*
X107012984Y-114932485D01*
X107050500Y-114792475D01*
X107050500Y-114647525D01*
X107018346Y-114527525D01*
X118649500Y-114527525D01*
X118649500Y-114672475D01*
X118669714Y-114747914D01*
X118687017Y-114812489D01*
X118759487Y-114938010D01*
X118759489Y-114938012D01*
X118759491Y-114938015D01*
X118861985Y-115040509D01*
X118861987Y-115040510D01*
X118861989Y-115040512D01*
X118987511Y-115112982D01*
X118987512Y-115112982D01*
X118987515Y-115112984D01*
X119127525Y-115150500D01*
X119127526Y-115150500D01*
X119272474Y-115150500D01*
X119272475Y-115150500D01*
X119412485Y-115112984D01*
X119412487Y-115112982D01*
X119412489Y-115112982D01*
X119538010Y-115040512D01*
X119538010Y-115040511D01*
X119538015Y-115040509D01*
X119640509Y-114938015D01*
X119640512Y-114938010D01*
X119711975Y-114814234D01*
X147324500Y-114814234D01*
X147324500Y-114965766D01*
X147349218Y-115058015D01*
X147363720Y-115112139D01*
X147439481Y-115243360D01*
X147439483Y-115243362D01*
X147439485Y-115243365D01*
X147546635Y-115350515D01*
X147546637Y-115350516D01*
X147546639Y-115350518D01*
X147677861Y-115426279D01*
X147677859Y-115426279D01*
X147677863Y-115426280D01*
X147677865Y-115426281D01*
X147824234Y-115465500D01*
X147824236Y-115465500D01*
X147975764Y-115465500D01*
X147975766Y-115465500D01*
X148122135Y-115426281D01*
X148122137Y-115426279D01*
X148122139Y-115426279D01*
X148253360Y-115350518D01*
X148253360Y-115350517D01*
X148253365Y-115350515D01*
X148360515Y-115243365D01*
X148360518Y-115243360D01*
X148436279Y-115112139D01*
X148436279Y-115112137D01*
X148436281Y-115112135D01*
X148475500Y-114965766D01*
X148475500Y-114814234D01*
X148436281Y-114667865D01*
X148436279Y-114667862D01*
X148436279Y-114667860D01*
X148360518Y-114536639D01*
X148360516Y-114536637D01*
X148360515Y-114536635D01*
X148253365Y-114429485D01*
X148253362Y-114429483D01*
X148253360Y-114429481D01*
X148122138Y-114353720D01*
X148122140Y-114353720D01*
X148065347Y-114338503D01*
X147975766Y-114314500D01*
X147824234Y-114314500D01*
X147734652Y-114338503D01*
X147677860Y-114353720D01*
X147546639Y-114429481D01*
X147439481Y-114536639D01*
X147363720Y-114667860D01*
X147342270Y-114747914D01*
X147324500Y-114814234D01*
X119711975Y-114814234D01*
X119712982Y-114812489D01*
X119712982Y-114812487D01*
X119712984Y-114812485D01*
X119750500Y-114672475D01*
X119750500Y-114527525D01*
X119712984Y-114387515D01*
X119712982Y-114387512D01*
X119712982Y-114387510D01*
X119640512Y-114261989D01*
X119640510Y-114261987D01*
X119640509Y-114261985D01*
X119538015Y-114159491D01*
X119538012Y-114159489D01*
X119538010Y-114159487D01*
X119412488Y-114087017D01*
X119412489Y-114087017D01*
X119382896Y-114079087D01*
X119272475Y-114049500D01*
X119127525Y-114049500D01*
X119065790Y-114066041D01*
X118987510Y-114087017D01*
X118861989Y-114159487D01*
X118759487Y-114261989D01*
X118687017Y-114387510D01*
X118675771Y-114429481D01*
X118649500Y-114527525D01*
X107018346Y-114527525D01*
X107012984Y-114507515D01*
X107012982Y-114507512D01*
X107012982Y-114507510D01*
X106940512Y-114381989D01*
X106940510Y-114381987D01*
X106940509Y-114381985D01*
X106838015Y-114279491D01*
X106838012Y-114279489D01*
X106838010Y-114279487D01*
X106712488Y-114207017D01*
X106712489Y-114207017D01*
X106682896Y-114199087D01*
X106572475Y-114169500D01*
X106427525Y-114169500D01*
X106365790Y-114186041D01*
X106287510Y-114207017D01*
X106161989Y-114279487D01*
X106059487Y-114381989D01*
X105987017Y-114507510D01*
X105949500Y-114647525D01*
X105949500Y-114747914D01*
X105930593Y-114806105D01*
X105881093Y-114842069D01*
X105824877Y-114843541D01*
X105800344Y-114836967D01*
X105772475Y-114829500D01*
X105627525Y-114829500D01*
X105575124Y-114843541D01*
X105487510Y-114867017D01*
X105361989Y-114939487D01*
X105259487Y-115041989D01*
X105187017Y-115167510D01*
X105181790Y-115187017D01*
X105149500Y-115307525D01*
X100300500Y-115307525D01*
X100300500Y-113827525D01*
X124649500Y-113827525D01*
X124649500Y-113972474D01*
X124687017Y-114112489D01*
X124759487Y-114238010D01*
X124759489Y-114238012D01*
X124759491Y-114238015D01*
X124861985Y-114340509D01*
X124861987Y-114340510D01*
X124861989Y-114340512D01*
X124987511Y-114412982D01*
X124987512Y-114412982D01*
X124987515Y-114412984D01*
X125127525Y-114450500D01*
X125127526Y-114450500D01*
X125272474Y-114450500D01*
X125272475Y-114450500D01*
X125412485Y-114412984D01*
X125412487Y-114412982D01*
X125412489Y-114412982D01*
X125538010Y-114340512D01*
X125538010Y-114340511D01*
X125538015Y-114340509D01*
X125640509Y-114238015D01*
X125685845Y-114159491D01*
X125712982Y-114112489D01*
X125712982Y-114112487D01*
X125712984Y-114112485D01*
X125736435Y-114024964D01*
X125769757Y-113973654D01*
X125826878Y-113951727D01*
X125885979Y-113967562D01*
X125902058Y-113980582D01*
X125961985Y-114040509D01*
X125961987Y-114040510D01*
X125961989Y-114040512D01*
X126087511Y-114112982D01*
X126087512Y-114112982D01*
X126087515Y-114112984D01*
X126227525Y-114150500D01*
X126227526Y-114150500D01*
X126372474Y-114150500D01*
X126372475Y-114150500D01*
X126458218Y-114127525D01*
X136349500Y-114127525D01*
X136349500Y-114272474D01*
X136387017Y-114412489D01*
X136459487Y-114538010D01*
X136459489Y-114538012D01*
X136459491Y-114538015D01*
X136561985Y-114640509D01*
X136561987Y-114640510D01*
X136561989Y-114640512D01*
X136687511Y-114712982D01*
X136687512Y-114712982D01*
X136687515Y-114712984D01*
X136827525Y-114750500D01*
X136827526Y-114750500D01*
X136972473Y-114750500D01*
X136972475Y-114750500D01*
X137112485Y-114712984D01*
X137238015Y-114640509D01*
X137340509Y-114538015D01*
X137340512Y-114538010D01*
X137412982Y-114412489D01*
X137412982Y-114412487D01*
X137412984Y-114412485D01*
X137450500Y-114272475D01*
X137450500Y-114127525D01*
X137412984Y-113987515D01*
X137412982Y-113987512D01*
X137412982Y-113987510D01*
X137340512Y-113861989D01*
X137340510Y-113861987D01*
X137340509Y-113861985D01*
X137238015Y-113759491D01*
X137238012Y-113759489D01*
X137238010Y-113759487D01*
X137112488Y-113687017D01*
X137112489Y-113687017D01*
X137058214Y-113672474D01*
X136972475Y-113649500D01*
X136827525Y-113649500D01*
X136765790Y-113666041D01*
X136687510Y-113687017D01*
X136561989Y-113759487D01*
X136459487Y-113861989D01*
X136387017Y-113987510D01*
X136349500Y-114127525D01*
X126458218Y-114127525D01*
X126512485Y-114112984D01*
X126512487Y-114112982D01*
X126512489Y-114112982D01*
X126638008Y-114040513D01*
X126638007Y-114040513D01*
X126638015Y-114040509D01*
X126740509Y-113938015D01*
X126812984Y-113812485D01*
X126850500Y-113672475D01*
X126850500Y-113527525D01*
X126812984Y-113387515D01*
X126812982Y-113387511D01*
X126812982Y-113387510D01*
X126740512Y-113261989D01*
X126740510Y-113261987D01*
X126740509Y-113261985D01*
X126638015Y-113159491D01*
X126638012Y-113159489D01*
X126638010Y-113159487D01*
X126512488Y-113087017D01*
X126512489Y-113087017D01*
X126482896Y-113079087D01*
X126372475Y-113049500D01*
X126227525Y-113049500D01*
X126165790Y-113066041D01*
X126087510Y-113087017D01*
X125961989Y-113159487D01*
X125859487Y-113261989D01*
X125787017Y-113387511D01*
X125787015Y-113387515D01*
X125763565Y-113475032D01*
X125730241Y-113526346D01*
X125673120Y-113548272D01*
X125614019Y-113532436D01*
X125597940Y-113519416D01*
X125538015Y-113459491D01*
X125538012Y-113459489D01*
X125538010Y-113459487D01*
X125412488Y-113387017D01*
X125412489Y-113387017D01*
X125382896Y-113379087D01*
X125272475Y-113349500D01*
X125127525Y-113349500D01*
X125065790Y-113366041D01*
X124987510Y-113387017D01*
X124861989Y-113459487D01*
X124759487Y-113561989D01*
X124687017Y-113687510D01*
X124649500Y-113827525D01*
X100300500Y-113827525D01*
X100300500Y-112427525D01*
X124249500Y-112427525D01*
X124249500Y-112572475D01*
X124271886Y-112656021D01*
X124287017Y-112712489D01*
X124359487Y-112838010D01*
X124359489Y-112838012D01*
X124359491Y-112838015D01*
X124461985Y-112940509D01*
X124461987Y-112940510D01*
X124461989Y-112940512D01*
X124587511Y-113012982D01*
X124587512Y-113012982D01*
X124587515Y-113012984D01*
X124727525Y-113050500D01*
X124727526Y-113050500D01*
X124872474Y-113050500D01*
X124872475Y-113050500D01*
X125012485Y-113012984D01*
X125012487Y-113012982D01*
X125012489Y-113012982D01*
X125138010Y-112940512D01*
X125138010Y-112940511D01*
X125138015Y-112940509D01*
X125240509Y-112838015D01*
X125249482Y-112822474D01*
X125304301Y-112727525D01*
X134949500Y-112727525D01*
X134949500Y-112872475D01*
X134979087Y-112982896D01*
X134987017Y-113012489D01*
X135059487Y-113138010D01*
X135059489Y-113138012D01*
X135059491Y-113138015D01*
X135161985Y-113240509D01*
X135161987Y-113240510D01*
X135161989Y-113240512D01*
X135287511Y-113312982D01*
X135287512Y-113312982D01*
X135287515Y-113312984D01*
X135427525Y-113350500D01*
X135427526Y-113350500D01*
X135572474Y-113350500D01*
X135572475Y-113350500D01*
X135712485Y-113312984D01*
X135712487Y-113312982D01*
X135712489Y-113312982D01*
X135838010Y-113240512D01*
X135838010Y-113240511D01*
X135838015Y-113240509D01*
X135940509Y-113138015D01*
X135969379Y-113088011D01*
X136012982Y-113012489D01*
X136012982Y-113012487D01*
X136012984Y-113012485D01*
X136050500Y-112872475D01*
X136050500Y-112727525D01*
X136037102Y-112677525D01*
X144599500Y-112677525D01*
X144599500Y-112822475D01*
X144629087Y-112932896D01*
X144637017Y-112962489D01*
X144709487Y-113088010D01*
X144709489Y-113088012D01*
X144709491Y-113088015D01*
X144811985Y-113190509D01*
X144811987Y-113190510D01*
X144811989Y-113190512D01*
X144937511Y-113262982D01*
X144937512Y-113262982D01*
X144937515Y-113262984D01*
X145077525Y-113300500D01*
X145077526Y-113300500D01*
X145222474Y-113300500D01*
X145222475Y-113300500D01*
X145362485Y-113262984D01*
X145362487Y-113262982D01*
X145362489Y-113262982D01*
X145488010Y-113190512D01*
X145488010Y-113190511D01*
X145488015Y-113190509D01*
X145500999Y-113177525D01*
X147149500Y-113177525D01*
X147149500Y-113322475D01*
X147166794Y-113387016D01*
X147187017Y-113462489D01*
X147259487Y-113588010D01*
X147259489Y-113588012D01*
X147259491Y-113588015D01*
X147361985Y-113690509D01*
X147361987Y-113690510D01*
X147361989Y-113690512D01*
X147487511Y-113762982D01*
X147487512Y-113762982D01*
X147487515Y-113762984D01*
X147627525Y-113800500D01*
X147627526Y-113800500D01*
X147772474Y-113800500D01*
X147772475Y-113800500D01*
X147912485Y-113762984D01*
X147912487Y-113762982D01*
X147912489Y-113762982D01*
X148038010Y-113690512D01*
X148038010Y-113690511D01*
X148038015Y-113690509D01*
X148140509Y-113588015D01*
X148155535Y-113561989D01*
X148212982Y-113462489D01*
X148212982Y-113462487D01*
X148212984Y-113462485D01*
X148250500Y-113322475D01*
X148250500Y-113177525D01*
X148212984Y-113037515D01*
X148212982Y-113037512D01*
X148212982Y-113037510D01*
X148140512Y-112911989D01*
X148140510Y-112911987D01*
X148140509Y-112911985D01*
X148127016Y-112898492D01*
X148099241Y-112843978D01*
X148108812Y-112783546D01*
X148147521Y-112742755D01*
X148238015Y-112690509D01*
X148340509Y-112588015D01*
X148340511Y-112588010D01*
X148340514Y-112588008D01*
X148412982Y-112462489D01*
X148412982Y-112462487D01*
X148412984Y-112462485D01*
X148450500Y-112322475D01*
X148450500Y-112177525D01*
X148412984Y-112037515D01*
X148412982Y-112037512D01*
X148412982Y-112037510D01*
X148340512Y-111911989D01*
X148340510Y-111911987D01*
X148340509Y-111911985D01*
X148238015Y-111809491D01*
X148238012Y-111809489D01*
X148238010Y-111809487D01*
X148112488Y-111737017D01*
X148112489Y-111737017D01*
X148082896Y-111729087D01*
X147972475Y-111699500D01*
X147827525Y-111699500D01*
X147765790Y-111716041D01*
X147687510Y-111737017D01*
X147561989Y-111809487D01*
X147459487Y-111911989D01*
X147387017Y-112037510D01*
X147381127Y-112059491D01*
X147349500Y-112177525D01*
X147349500Y-112322475D01*
X147377648Y-112427525D01*
X147387017Y-112462489D01*
X147459486Y-112588008D01*
X147459488Y-112588011D01*
X147459489Y-112588012D01*
X147459491Y-112588015D01*
X147472982Y-112601506D01*
X147500758Y-112656021D01*
X147491187Y-112716453D01*
X147452477Y-112757244D01*
X147361989Y-112809487D01*
X147259487Y-112911989D01*
X147187017Y-113037510D01*
X147173752Y-113087016D01*
X147149500Y-113177525D01*
X145500999Y-113177525D01*
X145590509Y-113088015D01*
X145591086Y-113087016D01*
X145662982Y-112962489D01*
X145662982Y-112962487D01*
X145662984Y-112962485D01*
X145700500Y-112822475D01*
X145700500Y-112677525D01*
X145662984Y-112537515D01*
X145662982Y-112537512D01*
X145662982Y-112537510D01*
X145590512Y-112411989D01*
X145590510Y-112411987D01*
X145590509Y-112411985D01*
X145488015Y-112309491D01*
X145488012Y-112309489D01*
X145488010Y-112309487D01*
X145362488Y-112237017D01*
X145362489Y-112237017D01*
X145332896Y-112229087D01*
X145222475Y-112199500D01*
X145077525Y-112199500D01*
X145015790Y-112216041D01*
X144937510Y-112237017D01*
X144811989Y-112309487D01*
X144709487Y-112411989D01*
X144637017Y-112537510D01*
X144627648Y-112572475D01*
X144599500Y-112677525D01*
X136037102Y-112677525D01*
X136012984Y-112587515D01*
X136012982Y-112587512D01*
X136012982Y-112587510D01*
X135940512Y-112461989D01*
X135940510Y-112461987D01*
X135940509Y-112461985D01*
X135838015Y-112359491D01*
X135838012Y-112359489D01*
X135838010Y-112359487D01*
X135712488Y-112287017D01*
X135712489Y-112287017D01*
X135682896Y-112279087D01*
X135572475Y-112249500D01*
X135427525Y-112249500D01*
X135365790Y-112266041D01*
X135287510Y-112287017D01*
X135161989Y-112359487D01*
X135059487Y-112461989D01*
X134987017Y-112587510D01*
X134959418Y-112690510D01*
X134949500Y-112727525D01*
X125304301Y-112727525D01*
X125312982Y-112712489D01*
X125312982Y-112712487D01*
X125312984Y-112712485D01*
X125350500Y-112572475D01*
X125350500Y-112427525D01*
X125312984Y-112287515D01*
X125312982Y-112287512D01*
X125312982Y-112287510D01*
X125240512Y-112161989D01*
X125240510Y-112161987D01*
X125240509Y-112161985D01*
X125138015Y-112059491D01*
X125138012Y-112059489D01*
X125138010Y-112059487D01*
X125012488Y-111987017D01*
X125012489Y-111987017D01*
X124982896Y-111979087D01*
X124872475Y-111949500D01*
X124727525Y-111949500D01*
X124665790Y-111966041D01*
X124587510Y-111987017D01*
X124461989Y-112059487D01*
X124359487Y-112161989D01*
X124287017Y-112287510D01*
X124277648Y-112322475D01*
X124249500Y-112427525D01*
X100300500Y-112427525D01*
X100300500Y-110916230D01*
X103374500Y-110916230D01*
X103374500Y-111083769D01*
X103407183Y-111248079D01*
X103407185Y-111248085D01*
X103471296Y-111402862D01*
X103471297Y-111402863D01*
X103564374Y-111542162D01*
X103682838Y-111660626D01*
X103822137Y-111753703D01*
X103976918Y-111817816D01*
X104141233Y-111850500D01*
X104141234Y-111850500D01*
X104858766Y-111850500D01*
X104858767Y-111850500D01*
X105023082Y-111817816D01*
X105177863Y-111753703D01*
X105317162Y-111660626D01*
X105435626Y-111542162D01*
X105445406Y-111527525D01*
X132249500Y-111527525D01*
X132249500Y-111672475D01*
X132266794Y-111737016D01*
X132287017Y-111812489D01*
X132359487Y-111938010D01*
X132359489Y-111938012D01*
X132359491Y-111938015D01*
X132461985Y-112040509D01*
X132461987Y-112040510D01*
X132461989Y-112040512D01*
X132587511Y-112112982D01*
X132587512Y-112112982D01*
X132587515Y-112112984D01*
X132727525Y-112150500D01*
X132727526Y-112150500D01*
X132872474Y-112150500D01*
X132872475Y-112150500D01*
X133012485Y-112112984D01*
X133012487Y-112112982D01*
X133012489Y-112112982D01*
X133138010Y-112040512D01*
X133138010Y-112040511D01*
X133138015Y-112040509D01*
X133240509Y-111938015D01*
X133255535Y-111911989D01*
X133312982Y-111812489D01*
X133312982Y-111812487D01*
X133312984Y-111812485D01*
X133350500Y-111672475D01*
X133350500Y-111527525D01*
X133312984Y-111387515D01*
X133240509Y-111261985D01*
X133206049Y-111227525D01*
X142849500Y-111227525D01*
X142849500Y-111372475D01*
X142853530Y-111387515D01*
X142887017Y-111512489D01*
X142959487Y-111638010D01*
X142959489Y-111638012D01*
X142959491Y-111638015D01*
X143061985Y-111740509D01*
X143061987Y-111740510D01*
X143061989Y-111740512D01*
X143187511Y-111812982D01*
X143187512Y-111812982D01*
X143187515Y-111812984D01*
X143327525Y-111850500D01*
X143327526Y-111850500D01*
X143472474Y-111850500D01*
X143472475Y-111850500D01*
X143612485Y-111812984D01*
X143612487Y-111812982D01*
X143612489Y-111812982D01*
X143738010Y-111740512D01*
X143738010Y-111740511D01*
X143738015Y-111740509D01*
X143840509Y-111638015D01*
X143912984Y-111512485D01*
X143950500Y-111372475D01*
X143950500Y-111227525D01*
X143912984Y-111087515D01*
X143912982Y-111087512D01*
X143912982Y-111087510D01*
X143840512Y-110961989D01*
X143840510Y-110961987D01*
X143840509Y-110961985D01*
X143738015Y-110859491D01*
X143738012Y-110859489D01*
X143738010Y-110859487D01*
X143612488Y-110787017D01*
X143612489Y-110787017D01*
X143481506Y-110751920D01*
X143472475Y-110749500D01*
X143327525Y-110749500D01*
X143318494Y-110751920D01*
X143187510Y-110787017D01*
X143061989Y-110859487D01*
X142959487Y-110961989D01*
X142887017Y-111087510D01*
X142887016Y-111087515D01*
X142849500Y-111227525D01*
X133206049Y-111227525D01*
X133138015Y-111159491D01*
X133138012Y-111159489D01*
X133138010Y-111159487D01*
X133012488Y-111087017D01*
X133012489Y-111087017D01*
X132982896Y-111079087D01*
X132872475Y-111049500D01*
X132727525Y-111049500D01*
X132665790Y-111066041D01*
X132587510Y-111087017D01*
X132461989Y-111159487D01*
X132359487Y-111261989D01*
X132287017Y-111387510D01*
X132282903Y-111402863D01*
X132249500Y-111527525D01*
X105445406Y-111527525D01*
X105528703Y-111402863D01*
X105592816Y-111248082D01*
X105625500Y-111083767D01*
X105625500Y-110916233D01*
X105592816Y-110751918D01*
X105528703Y-110597137D01*
X105435626Y-110457838D01*
X105317162Y-110339374D01*
X105177863Y-110246297D01*
X105177864Y-110246297D01*
X105177862Y-110246296D01*
X105023085Y-110182185D01*
X105023079Y-110182183D01*
X104858769Y-110149500D01*
X104858767Y-110149500D01*
X104141233Y-110149500D01*
X104141230Y-110149500D01*
X103976920Y-110182183D01*
X103976914Y-110182185D01*
X103822137Y-110246296D01*
X103682838Y-110339374D01*
X103682834Y-110339377D01*
X103564377Y-110457834D01*
X103564374Y-110457838D01*
X103471296Y-110597137D01*
X103407185Y-110751914D01*
X103407183Y-110751920D01*
X103374500Y-110916230D01*
X100300500Y-110916230D01*
X100300500Y-108602129D01*
X103374500Y-108602129D01*
X103374500Y-109397866D01*
X103374501Y-109397870D01*
X103380908Y-109457480D01*
X103380909Y-109457485D01*
X103431202Y-109592329D01*
X103471589Y-109646279D01*
X103517454Y-109707546D01*
X103517457Y-109707548D01*
X103517458Y-109707549D01*
X103632670Y-109793797D01*
X103767511Y-109844089D01*
X103767512Y-109844089D01*
X103767517Y-109844091D01*
X103827127Y-109850500D01*
X105172872Y-109850499D01*
X105232483Y-109844091D01*
X105299907Y-109818943D01*
X105367329Y-109793797D01*
X105367329Y-109793796D01*
X105367331Y-109793796D01*
X105455858Y-109727525D01*
X136349500Y-109727525D01*
X136349500Y-109872475D01*
X136364251Y-109927525D01*
X136387017Y-110012489D01*
X136459487Y-110138010D01*
X136459489Y-110138012D01*
X136459491Y-110138015D01*
X136561985Y-110240509D01*
X136561987Y-110240510D01*
X136561989Y-110240512D01*
X136687511Y-110312982D01*
X136687512Y-110312982D01*
X136687515Y-110312984D01*
X136827525Y-110350500D01*
X136827526Y-110350500D01*
X136972474Y-110350500D01*
X136972475Y-110350500D01*
X137112485Y-110312984D01*
X137112487Y-110312982D01*
X137112489Y-110312982D01*
X137238010Y-110240512D01*
X137238010Y-110240511D01*
X137238015Y-110240509D01*
X137340509Y-110138015D01*
X137340512Y-110138010D01*
X137412982Y-110012489D01*
X137412982Y-110012487D01*
X137412984Y-110012485D01*
X137435749Y-109927525D01*
X139049500Y-109927525D01*
X139049500Y-110072475D01*
X139067060Y-110138010D01*
X139087017Y-110212489D01*
X139159487Y-110338010D01*
X139159489Y-110338012D01*
X139159491Y-110338015D01*
X139261985Y-110440509D01*
X139261987Y-110440510D01*
X139261989Y-110440512D01*
X139387511Y-110512982D01*
X139387512Y-110512982D01*
X139387515Y-110512984D01*
X139527525Y-110550500D01*
X139527526Y-110550500D01*
X139672474Y-110550500D01*
X139672475Y-110550500D01*
X139812485Y-110512984D01*
X139812487Y-110512982D01*
X139812489Y-110512982D01*
X139938010Y-110440512D01*
X139938010Y-110440511D01*
X139938015Y-110440509D01*
X140040509Y-110338015D01*
X140096803Y-110240512D01*
X140112982Y-110212489D01*
X140112982Y-110212487D01*
X140112984Y-110212485D01*
X140150500Y-110072475D01*
X140150500Y-109927525D01*
X140112984Y-109787515D01*
X140112982Y-109787512D01*
X140112982Y-109787510D01*
X140040512Y-109661989D01*
X140040510Y-109661987D01*
X140040509Y-109661985D01*
X139938015Y-109559491D01*
X139938012Y-109559489D01*
X139938010Y-109559487D01*
X139812488Y-109487017D01*
X139812489Y-109487017D01*
X139782896Y-109479087D01*
X139672475Y-109449500D01*
X139527525Y-109449500D01*
X139475781Y-109463365D01*
X139387510Y-109487017D01*
X139261989Y-109559487D01*
X139159487Y-109661989D01*
X139087017Y-109787510D01*
X139070139Y-109850499D01*
X139049500Y-109927525D01*
X137435749Y-109927525D01*
X137450500Y-109872475D01*
X137450500Y-109727525D01*
X137412984Y-109587515D01*
X137412982Y-109587512D01*
X137412982Y-109587510D01*
X137340512Y-109461989D01*
X137340510Y-109461987D01*
X137340509Y-109461985D01*
X137238015Y-109359491D01*
X137238012Y-109359489D01*
X137238010Y-109359487D01*
X137182650Y-109327525D01*
X143949500Y-109327525D01*
X143949500Y-109472475D01*
X143953397Y-109487017D01*
X143987017Y-109612489D01*
X144059487Y-109738010D01*
X144059489Y-109738012D01*
X144059491Y-109738015D01*
X144161985Y-109840509D01*
X144161987Y-109840510D01*
X144161989Y-109840512D01*
X144287511Y-109912982D01*
X144287512Y-109912982D01*
X144287515Y-109912984D01*
X144427525Y-109950500D01*
X144427526Y-109950500D01*
X144572474Y-109950500D01*
X144572475Y-109950500D01*
X144712485Y-109912984D01*
X144712487Y-109912982D01*
X144712489Y-109912982D01*
X144838010Y-109840512D01*
X144838010Y-109840511D01*
X144838015Y-109840509D01*
X144940509Y-109738015D01*
X144940512Y-109738010D01*
X145012982Y-109612489D01*
X145012982Y-109612487D01*
X145012984Y-109612485D01*
X145049147Y-109477525D01*
X145299500Y-109477525D01*
X145299500Y-109622475D01*
X145305879Y-109646281D01*
X145337017Y-109762489D01*
X145409487Y-109888010D01*
X145409489Y-109888012D01*
X145409491Y-109888015D01*
X145511985Y-109990509D01*
X145511987Y-109990510D01*
X145511989Y-109990512D01*
X145637511Y-110062982D01*
X145637512Y-110062982D01*
X145637515Y-110062984D01*
X145777525Y-110100500D01*
X145777526Y-110100500D01*
X145922474Y-110100500D01*
X145922475Y-110100500D01*
X146062485Y-110062984D01*
X146062487Y-110062982D01*
X146062489Y-110062982D01*
X146188010Y-109990512D01*
X146188010Y-109990511D01*
X146188015Y-109990509D01*
X146290509Y-109888015D01*
X146299482Y-109872474D01*
X146362982Y-109762489D01*
X146362982Y-109762487D01*
X146362984Y-109762485D01*
X146400500Y-109622475D01*
X146400500Y-109477525D01*
X146362984Y-109337515D01*
X146362982Y-109337512D01*
X146362982Y-109337510D01*
X146290512Y-109211989D01*
X146290510Y-109211987D01*
X146290509Y-109211985D01*
X146188015Y-109109491D01*
X146188012Y-109109489D01*
X146188010Y-109109487D01*
X146062488Y-109037017D01*
X146062489Y-109037017D01*
X146052103Y-109034234D01*
X147324500Y-109034234D01*
X147324500Y-109185766D01*
X147351630Y-109287016D01*
X147363720Y-109332139D01*
X147439481Y-109463360D01*
X147439483Y-109463362D01*
X147439485Y-109463365D01*
X147546635Y-109570515D01*
X147546637Y-109570516D01*
X147546639Y-109570518D01*
X147677861Y-109646279D01*
X147677859Y-109646279D01*
X147677863Y-109646280D01*
X147677865Y-109646281D01*
X147824234Y-109685500D01*
X147824236Y-109685500D01*
X147975764Y-109685500D01*
X147975766Y-109685500D01*
X148122135Y-109646281D01*
X148122137Y-109646279D01*
X148122139Y-109646279D01*
X148253360Y-109570518D01*
X148253360Y-109570517D01*
X148253365Y-109570515D01*
X148360515Y-109463365D01*
X148360518Y-109463360D01*
X148436279Y-109332139D01*
X148436279Y-109332137D01*
X148436281Y-109332135D01*
X148475500Y-109185766D01*
X148475500Y-109034234D01*
X148436281Y-108887865D01*
X148436279Y-108887862D01*
X148436279Y-108887860D01*
X148360518Y-108756639D01*
X148360516Y-108756637D01*
X148360515Y-108756635D01*
X148253365Y-108649485D01*
X148253362Y-108649483D01*
X148253360Y-108649481D01*
X148122138Y-108573720D01*
X148122140Y-108573720D01*
X148065347Y-108558503D01*
X147975766Y-108534500D01*
X147824234Y-108534500D01*
X147734652Y-108558503D01*
X147677860Y-108573720D01*
X147546639Y-108649481D01*
X147439481Y-108756639D01*
X147363720Y-108887860D01*
X147344528Y-108959487D01*
X147324500Y-109034234D01*
X146052103Y-109034234D01*
X146032896Y-109029087D01*
X145922475Y-108999500D01*
X145777525Y-108999500D01*
X145715790Y-109016041D01*
X145637510Y-109037017D01*
X145511989Y-109109487D01*
X145409487Y-109211989D01*
X145337017Y-109337510D01*
X145331127Y-109359491D01*
X145299500Y-109477525D01*
X145049147Y-109477525D01*
X145050500Y-109472475D01*
X145050500Y-109327525D01*
X145012984Y-109187515D01*
X145012982Y-109187512D01*
X145012982Y-109187510D01*
X144940512Y-109061989D01*
X144940510Y-109061987D01*
X144940509Y-109061985D01*
X144838015Y-108959491D01*
X144838012Y-108959489D01*
X144838010Y-108959487D01*
X144712488Y-108887017D01*
X144712489Y-108887017D01*
X144682896Y-108879087D01*
X144572475Y-108849500D01*
X144427525Y-108849500D01*
X144365790Y-108866041D01*
X144287510Y-108887017D01*
X144161989Y-108959487D01*
X144059487Y-109061989D01*
X143987017Y-109187510D01*
X143987016Y-109187515D01*
X143949500Y-109327525D01*
X137182650Y-109327525D01*
X137112488Y-109287017D01*
X137112489Y-109287017D01*
X137082896Y-109279087D01*
X136972475Y-109249500D01*
X136827525Y-109249500D01*
X136765790Y-109266041D01*
X136687510Y-109287017D01*
X136561989Y-109359487D01*
X136459487Y-109461989D01*
X136387017Y-109587510D01*
X136360761Y-109685500D01*
X136349500Y-109727525D01*
X105455858Y-109727525D01*
X105482546Y-109707546D01*
X105568796Y-109592331D01*
X105619091Y-109457483D01*
X105625500Y-109397873D01*
X105625499Y-108602128D01*
X105619091Y-108542517D01*
X105613499Y-108527525D01*
X115849500Y-108527525D01*
X115849500Y-108672474D01*
X115887017Y-108812489D01*
X115959487Y-108938010D01*
X115959489Y-108938012D01*
X115959491Y-108938015D01*
X116061985Y-109040509D01*
X116061987Y-109040510D01*
X116061989Y-109040512D01*
X116187511Y-109112982D01*
X116187512Y-109112982D01*
X116187515Y-109112984D01*
X116327525Y-109150500D01*
X116327526Y-109150500D01*
X116472474Y-109150500D01*
X116472475Y-109150500D01*
X116612485Y-109112984D01*
X116612487Y-109112982D01*
X116612489Y-109112982D01*
X116738010Y-109040512D01*
X116738010Y-109040511D01*
X116738015Y-109040509D01*
X116840509Y-108938015D01*
X116869953Y-108887017D01*
X116912982Y-108812489D01*
X116912982Y-108812487D01*
X116912984Y-108812485D01*
X116950500Y-108672475D01*
X116950500Y-108527525D01*
X116912984Y-108387515D01*
X116912982Y-108387512D01*
X116912982Y-108387510D01*
X116840512Y-108261989D01*
X116840510Y-108261987D01*
X116840509Y-108261985D01*
X116738015Y-108159491D01*
X116738012Y-108159489D01*
X116738010Y-108159487D01*
X116612488Y-108087017D01*
X116612489Y-108087017D01*
X116582896Y-108079087D01*
X116472475Y-108049500D01*
X116327525Y-108049500D01*
X116265790Y-108066041D01*
X116187510Y-108087017D01*
X116061989Y-108159487D01*
X115959487Y-108261989D01*
X115887017Y-108387510D01*
X115849500Y-108527525D01*
X105613499Y-108527525D01*
X105584771Y-108450500D01*
X105568797Y-108407670D01*
X105482549Y-108292458D01*
X105482548Y-108292457D01*
X105482546Y-108292454D01*
X105482541Y-108292450D01*
X105367329Y-108206202D01*
X105232488Y-108155910D01*
X105232483Y-108155909D01*
X105232481Y-108155908D01*
X105232477Y-108155908D01*
X105201249Y-108152550D01*
X105172873Y-108149500D01*
X105172870Y-108149500D01*
X103827133Y-108149500D01*
X103827129Y-108149500D01*
X103827128Y-108149501D01*
X103819949Y-108150272D01*
X103767519Y-108155908D01*
X103767514Y-108155909D01*
X103632670Y-108206202D01*
X103517458Y-108292450D01*
X103517450Y-108292458D01*
X103431202Y-108407670D01*
X103380910Y-108542511D01*
X103380908Y-108542522D01*
X103374500Y-108602129D01*
X100300500Y-108602129D01*
X100300500Y-107627525D01*
X130349500Y-107627525D01*
X130349500Y-107772474D01*
X130387017Y-107912489D01*
X130459487Y-108038010D01*
X130459489Y-108038012D01*
X130459491Y-108038015D01*
X130561985Y-108140509D01*
X130561987Y-108140510D01*
X130561989Y-108140512D01*
X130687511Y-108212982D01*
X130687512Y-108212982D01*
X130687515Y-108212984D01*
X130827525Y-108250500D01*
X130827526Y-108250500D01*
X130972474Y-108250500D01*
X130972475Y-108250500D01*
X131112485Y-108212984D01*
X131112487Y-108212982D01*
X131112489Y-108212982D01*
X131238010Y-108140512D01*
X131238010Y-108140511D01*
X131238015Y-108140509D01*
X131340509Y-108038015D01*
X131340512Y-108038010D01*
X131412982Y-107912489D01*
X131412982Y-107912487D01*
X131412984Y-107912485D01*
X131450500Y-107772475D01*
X131450500Y-107627525D01*
X131412984Y-107487515D01*
X131412982Y-107487512D01*
X131412982Y-107487510D01*
X131340512Y-107361989D01*
X131340510Y-107361987D01*
X131340509Y-107361985D01*
X131238015Y-107259491D01*
X131238012Y-107259489D01*
X131238010Y-107259487D01*
X131112488Y-107187017D01*
X131112489Y-107187017D01*
X131082896Y-107179087D01*
X130972475Y-107149500D01*
X130827525Y-107149500D01*
X130765790Y-107166041D01*
X130687510Y-107187017D01*
X130561989Y-107259487D01*
X130459487Y-107361989D01*
X130387017Y-107487510D01*
X130349500Y-107627525D01*
X100300500Y-107627525D01*
X100300500Y-106927525D01*
X111749500Y-106927525D01*
X111749500Y-107072474D01*
X111787017Y-107212489D01*
X111859487Y-107338010D01*
X111859489Y-107338012D01*
X111859491Y-107338015D01*
X111961985Y-107440509D01*
X111961987Y-107440510D01*
X111961989Y-107440512D01*
X112087511Y-107512982D01*
X112087512Y-107512982D01*
X112087515Y-107512984D01*
X112227525Y-107550500D01*
X112227526Y-107550500D01*
X112372474Y-107550500D01*
X112372475Y-107550500D01*
X112512485Y-107512984D01*
X112512487Y-107512982D01*
X112512489Y-107512982D01*
X112638010Y-107440512D01*
X112638010Y-107440511D01*
X112638015Y-107440509D01*
X112740509Y-107338015D01*
X112769953Y-107287017D01*
X112812982Y-107212489D01*
X112812982Y-107212487D01*
X112812984Y-107212485D01*
X112850500Y-107072475D01*
X112850500Y-106927525D01*
X113549500Y-106927525D01*
X113549500Y-107072474D01*
X113587017Y-107212489D01*
X113659487Y-107338010D01*
X113659489Y-107338012D01*
X113659491Y-107338015D01*
X113761985Y-107440509D01*
X113761987Y-107440510D01*
X113761989Y-107440512D01*
X113887511Y-107512982D01*
X113887512Y-107512982D01*
X113887515Y-107512984D01*
X114027525Y-107550500D01*
X114027526Y-107550500D01*
X114172474Y-107550500D01*
X114172475Y-107550500D01*
X114312485Y-107512984D01*
X114312487Y-107512982D01*
X114312489Y-107512982D01*
X114438010Y-107440512D01*
X114438010Y-107440511D01*
X114438015Y-107440509D01*
X114540509Y-107338015D01*
X114569953Y-107287017D01*
X114612982Y-107212489D01*
X114612982Y-107212487D01*
X114612984Y-107212485D01*
X114650500Y-107072475D01*
X114650500Y-106927525D01*
X118549500Y-106927525D01*
X118549500Y-107072474D01*
X118587017Y-107212489D01*
X118659487Y-107338010D01*
X118659489Y-107338012D01*
X118659491Y-107338015D01*
X118761985Y-107440509D01*
X118761987Y-107440510D01*
X118761989Y-107440512D01*
X118887511Y-107512982D01*
X118887512Y-107512982D01*
X118887515Y-107512984D01*
X119027525Y-107550500D01*
X119027526Y-107550500D01*
X119172473Y-107550500D01*
X119172475Y-107550500D01*
X119312485Y-107512984D01*
X119312488Y-107512982D01*
X119312489Y-107512982D01*
X119438010Y-107440512D01*
X119438010Y-107440511D01*
X119438015Y-107440509D01*
X119540509Y-107338015D01*
X119569953Y-107287017D01*
X119612982Y-107212489D01*
X119612982Y-107212487D01*
X119612984Y-107212485D01*
X119650500Y-107072475D01*
X119650500Y-106927525D01*
X119623705Y-106827525D01*
X131449500Y-106827525D01*
X131449500Y-106972474D01*
X131487017Y-107112489D01*
X131559487Y-107238010D01*
X131559489Y-107238012D01*
X131559491Y-107238015D01*
X131661985Y-107340509D01*
X131661987Y-107340510D01*
X131661989Y-107340512D01*
X131787511Y-107412982D01*
X131787512Y-107412982D01*
X131787515Y-107412984D01*
X131927525Y-107450500D01*
X131927526Y-107450500D01*
X132072476Y-107450500D01*
X132072476Y-107450499D01*
X132188999Y-107419277D01*
X132250100Y-107422478D01*
X132297650Y-107460983D01*
X132313486Y-107520083D01*
X132300360Y-107564401D01*
X132287017Y-107587512D01*
X132249500Y-107727525D01*
X132249500Y-107872474D01*
X132287017Y-108012489D01*
X132359487Y-108138010D01*
X132359489Y-108138012D01*
X132359491Y-108138015D01*
X132461985Y-108240509D01*
X132461987Y-108240510D01*
X132461989Y-108240512D01*
X132587511Y-108312982D01*
X132587512Y-108312982D01*
X132587515Y-108312984D01*
X132727525Y-108350500D01*
X132727526Y-108350500D01*
X132872474Y-108350500D01*
X132872475Y-108350500D01*
X133012485Y-108312984D01*
X133012487Y-108312982D01*
X133012489Y-108312982D01*
X133138010Y-108240512D01*
X133138010Y-108240511D01*
X133138015Y-108240509D01*
X133240509Y-108138015D01*
X133240512Y-108138010D01*
X133312982Y-108012489D01*
X133312982Y-108012487D01*
X133312984Y-108012485D01*
X133350500Y-107872475D01*
X133350500Y-107827525D01*
X144649500Y-107827525D01*
X144649500Y-107972474D01*
X144687017Y-108112489D01*
X144759487Y-108238010D01*
X144759489Y-108238012D01*
X144759491Y-108238015D01*
X144861985Y-108340509D01*
X144861987Y-108340510D01*
X144861989Y-108340512D01*
X144987511Y-108412982D01*
X144987512Y-108412982D01*
X144987515Y-108412984D01*
X145127525Y-108450500D01*
X145127526Y-108450500D01*
X145272474Y-108450500D01*
X145272475Y-108450500D01*
X145412485Y-108412984D01*
X145412487Y-108412982D01*
X145412489Y-108412982D01*
X145538010Y-108340512D01*
X145538010Y-108340511D01*
X145538015Y-108340509D01*
X145640509Y-108238015D01*
X145685845Y-108159491D01*
X145712982Y-108112489D01*
X145712982Y-108112487D01*
X145712984Y-108112485D01*
X145750500Y-107972475D01*
X145750500Y-107827525D01*
X145712984Y-107687515D01*
X145712982Y-107687512D01*
X145712982Y-107687510D01*
X145640512Y-107561989D01*
X145640510Y-107561987D01*
X145640509Y-107561985D01*
X145538015Y-107459491D01*
X145538012Y-107459489D01*
X145538010Y-107459487D01*
X145412488Y-107387017D01*
X145412489Y-107387017D01*
X145382896Y-107379087D01*
X145272475Y-107349500D01*
X145127525Y-107349500D01*
X145090239Y-107359491D01*
X144987510Y-107387017D01*
X144861989Y-107459487D01*
X144759487Y-107561989D01*
X144687017Y-107687510D01*
X144649500Y-107827525D01*
X133350500Y-107827525D01*
X133350500Y-107727525D01*
X133312984Y-107587515D01*
X133312982Y-107587512D01*
X133312982Y-107587510D01*
X133240512Y-107461989D01*
X133240510Y-107461987D01*
X133240509Y-107461985D01*
X133138015Y-107359491D01*
X133138012Y-107359489D01*
X133138010Y-107359487D01*
X133012488Y-107287017D01*
X133012489Y-107287017D01*
X132909761Y-107259491D01*
X132872475Y-107249500D01*
X132727525Y-107249500D01*
X132690239Y-107259491D01*
X132611000Y-107280723D01*
X132549899Y-107277520D01*
X132502349Y-107239015D01*
X132486513Y-107179915D01*
X132499639Y-107135597D01*
X132512984Y-107112485D01*
X132550500Y-106972475D01*
X132550500Y-106827525D01*
X132512984Y-106687515D01*
X132512982Y-106687512D01*
X132512982Y-106687510D01*
X132440512Y-106561989D01*
X132440510Y-106561987D01*
X132440509Y-106561985D01*
X132338015Y-106459491D01*
X132338012Y-106459489D01*
X132338010Y-106459487D01*
X132212488Y-106387017D01*
X132212489Y-106387017D01*
X132182896Y-106379087D01*
X132072475Y-106349500D01*
X131927525Y-106349500D01*
X131865790Y-106366041D01*
X131787510Y-106387017D01*
X131661989Y-106459487D01*
X131559487Y-106561989D01*
X131487017Y-106687510D01*
X131449500Y-106827525D01*
X119623705Y-106827525D01*
X119612984Y-106787515D01*
X119612982Y-106787512D01*
X119612982Y-106787510D01*
X119540512Y-106661989D01*
X119540510Y-106661987D01*
X119540509Y-106661985D01*
X119438015Y-106559491D01*
X119438012Y-106559489D01*
X119438010Y-106559487D01*
X119312488Y-106487017D01*
X119312489Y-106487017D01*
X119209761Y-106459491D01*
X119172475Y-106449500D01*
X119027525Y-106449500D01*
X118990239Y-106459491D01*
X118887510Y-106487017D01*
X118761989Y-106559487D01*
X118659487Y-106661989D01*
X118587017Y-106787510D01*
X118549500Y-106927525D01*
X114650500Y-106927525D01*
X114612984Y-106787515D01*
X114612982Y-106787512D01*
X114612982Y-106787510D01*
X114540512Y-106661989D01*
X114540510Y-106661987D01*
X114540509Y-106661985D01*
X114438015Y-106559491D01*
X114438012Y-106559489D01*
X114438010Y-106559487D01*
X114312488Y-106487017D01*
X114312489Y-106487017D01*
X114209761Y-106459491D01*
X114172475Y-106449500D01*
X114027525Y-106449500D01*
X113990239Y-106459491D01*
X113887510Y-106487017D01*
X113761989Y-106559487D01*
X113659487Y-106661989D01*
X113587017Y-106787510D01*
X113549500Y-106927525D01*
X112850500Y-106927525D01*
X112812984Y-106787515D01*
X112812982Y-106787512D01*
X112812982Y-106787510D01*
X112740512Y-106661989D01*
X112740510Y-106661987D01*
X112740509Y-106661985D01*
X112638015Y-106559491D01*
X112638012Y-106559489D01*
X112638010Y-106559487D01*
X112512488Y-106487017D01*
X112512489Y-106487017D01*
X112409761Y-106459491D01*
X112372475Y-106449500D01*
X112227525Y-106449500D01*
X112190239Y-106459491D01*
X112087510Y-106487017D01*
X111961989Y-106559487D01*
X111859487Y-106661989D01*
X111787017Y-106787510D01*
X111749500Y-106927525D01*
X100300500Y-106927525D01*
X100300500Y-104767395D01*
X100319407Y-104709204D01*
X100368907Y-104673240D01*
X100430093Y-104673240D01*
X100479593Y-104709204D01*
X100490963Y-104729508D01*
X100499244Y-104749500D01*
X100544803Y-104859491D01*
X100558039Y-104891444D01*
X100558043Y-104891452D01*
X100558048Y-104891462D01*
X100708590Y-105173106D01*
X100708592Y-105173110D01*
X100886022Y-105438653D01*
X101049631Y-105638010D01*
X101088634Y-105685535D01*
X101314465Y-105911366D01*
X101561344Y-106113975D01*
X101561347Y-106113977D01*
X101561346Y-106113977D01*
X101826889Y-106291407D01*
X101826893Y-106291409D01*
X101935574Y-106349500D01*
X102108556Y-106441961D01*
X102403619Y-106564180D01*
X102403621Y-106564180D01*
X102403627Y-106564183D01*
X102709235Y-106656888D01*
X102709239Y-106656888D01*
X102709240Y-106656889D01*
X103022477Y-106719196D01*
X103057792Y-106722674D01*
X103340305Y-106750500D01*
X103340313Y-106750500D01*
X103659695Y-106750500D01*
X103871577Y-106729630D01*
X103977523Y-106719196D01*
X104290760Y-106656889D01*
X104290761Y-106656888D01*
X104290764Y-106656888D01*
X104596372Y-106564183D01*
X104596374Y-106564181D01*
X104596381Y-106564180D01*
X104891444Y-106441961D01*
X105173106Y-106291409D01*
X105173110Y-106291407D01*
X105438653Y-106113977D01*
X105438652Y-106113977D01*
X105438656Y-106113975D01*
X105685535Y-105911366D01*
X105911366Y-105685535D01*
X106041042Y-105527525D01*
X114349500Y-105527525D01*
X114349500Y-105672475D01*
X114353397Y-105687017D01*
X114387017Y-105812489D01*
X114459487Y-105938010D01*
X114459489Y-105938012D01*
X114459491Y-105938015D01*
X114561985Y-106040509D01*
X114561987Y-106040510D01*
X114561989Y-106040512D01*
X114687511Y-106112982D01*
X114687512Y-106112982D01*
X114687515Y-106112984D01*
X114827525Y-106150500D01*
X114827526Y-106150500D01*
X114972474Y-106150500D01*
X114972475Y-106150500D01*
X115058218Y-106127525D01*
X128349500Y-106127525D01*
X128349500Y-106272475D01*
X128370139Y-106349500D01*
X128387017Y-106412489D01*
X128459487Y-106538010D01*
X128459489Y-106538012D01*
X128459491Y-106538015D01*
X128561985Y-106640509D01*
X128561987Y-106640510D01*
X128561989Y-106640512D01*
X128687511Y-106712982D01*
X128687512Y-106712982D01*
X128687515Y-106712984D01*
X128827525Y-106750500D01*
X128827526Y-106750500D01*
X128972474Y-106750500D01*
X128972475Y-106750500D01*
X129112485Y-106712984D01*
X129112487Y-106712982D01*
X129112489Y-106712982D01*
X129238010Y-106640512D01*
X129238010Y-106640511D01*
X129238015Y-106640509D01*
X129340509Y-106538015D01*
X129369953Y-106487017D01*
X129412982Y-106412489D01*
X129412982Y-106412487D01*
X129412984Y-106412485D01*
X129450500Y-106272475D01*
X129450500Y-106127525D01*
X130349500Y-106127525D01*
X130349500Y-106272475D01*
X130370139Y-106349500D01*
X130387017Y-106412489D01*
X130459487Y-106538010D01*
X130459489Y-106538012D01*
X130459491Y-106538015D01*
X130561985Y-106640509D01*
X130561987Y-106640510D01*
X130561989Y-106640512D01*
X130687511Y-106712982D01*
X130687512Y-106712982D01*
X130687515Y-106712984D01*
X130827525Y-106750500D01*
X130827526Y-106750500D01*
X130972473Y-106750500D01*
X130972475Y-106750500D01*
X131112485Y-106712984D01*
X131112488Y-106712982D01*
X131112489Y-106712982D01*
X131238010Y-106640512D01*
X131238010Y-106640511D01*
X131238015Y-106640509D01*
X131340509Y-106538015D01*
X131369953Y-106487017D01*
X131412982Y-106412489D01*
X131412982Y-106412487D01*
X131412984Y-106412485D01*
X131450500Y-106272475D01*
X131450500Y-106127525D01*
X131412984Y-105987515D01*
X131412982Y-105987512D01*
X131412982Y-105987510D01*
X131340512Y-105861989D01*
X131340510Y-105861987D01*
X131340509Y-105861985D01*
X131238015Y-105759491D01*
X131238012Y-105759489D01*
X131238010Y-105759487D01*
X131112488Y-105687017D01*
X131112489Y-105687017D01*
X131058214Y-105672474D01*
X130972475Y-105649500D01*
X130827525Y-105649500D01*
X130765790Y-105666041D01*
X130687510Y-105687017D01*
X130561989Y-105759487D01*
X130459487Y-105861989D01*
X130387017Y-105987510D01*
X130376862Y-106025408D01*
X130349500Y-106127525D01*
X129450500Y-106127525D01*
X129412984Y-105987515D01*
X129412982Y-105987512D01*
X129412982Y-105987510D01*
X129340512Y-105861989D01*
X129340510Y-105861987D01*
X129340509Y-105861985D01*
X129238015Y-105759491D01*
X129238012Y-105759489D01*
X129238010Y-105759487D01*
X129112488Y-105687017D01*
X129112489Y-105687017D01*
X129058214Y-105672474D01*
X128972475Y-105649500D01*
X128827525Y-105649500D01*
X128765790Y-105666041D01*
X128687510Y-105687017D01*
X128561989Y-105759487D01*
X128459487Y-105861989D01*
X128387017Y-105987510D01*
X128376862Y-106025408D01*
X128349500Y-106127525D01*
X115058218Y-106127525D01*
X115112485Y-106112984D01*
X115112487Y-106112982D01*
X115112489Y-106112982D01*
X115238010Y-106040512D01*
X115238010Y-106040511D01*
X115238015Y-106040509D01*
X115340509Y-105938015D01*
X115412984Y-105812485D01*
X115450500Y-105672475D01*
X115450500Y-105527525D01*
X115412984Y-105387515D01*
X115340509Y-105261985D01*
X115306049Y-105227525D01*
X116549500Y-105227525D01*
X116549500Y-105372475D01*
X116564251Y-105427525D01*
X116587017Y-105512489D01*
X116659487Y-105638010D01*
X116659489Y-105638012D01*
X116659491Y-105638015D01*
X116761985Y-105740509D01*
X116761987Y-105740510D01*
X116761989Y-105740512D01*
X116887511Y-105812982D01*
X116887512Y-105812982D01*
X116887515Y-105812984D01*
X117027525Y-105850500D01*
X117027526Y-105850500D01*
X117172474Y-105850500D01*
X117172475Y-105850500D01*
X117312485Y-105812984D01*
X117312487Y-105812982D01*
X117312489Y-105812982D01*
X117438010Y-105740512D01*
X117438010Y-105740511D01*
X117438015Y-105740509D01*
X117540509Y-105638015D01*
X117612984Y-105512485D01*
X117635749Y-105427525D01*
X126749500Y-105427525D01*
X126749500Y-105572474D01*
X126787017Y-105712489D01*
X126859487Y-105838010D01*
X126859489Y-105838012D01*
X126859491Y-105838015D01*
X126961985Y-105940509D01*
X126961987Y-105940510D01*
X126961989Y-105940512D01*
X127087511Y-106012982D01*
X127087512Y-106012982D01*
X127087515Y-106012984D01*
X127227525Y-106050500D01*
X127227526Y-106050500D01*
X127372473Y-106050500D01*
X127372475Y-106050500D01*
X127512485Y-106012984D01*
X127512488Y-106012982D01*
X127512489Y-106012982D01*
X127638010Y-105940512D01*
X127638010Y-105940511D01*
X127638015Y-105940509D01*
X127740509Y-105838015D01*
X127754962Y-105812982D01*
X127812982Y-105712489D01*
X127812982Y-105712487D01*
X127812984Y-105712485D01*
X127850500Y-105572475D01*
X127850500Y-105427525D01*
X127812984Y-105287515D01*
X127812982Y-105287512D01*
X127812982Y-105287510D01*
X127740512Y-105161989D01*
X127740510Y-105161987D01*
X127740509Y-105161985D01*
X127638015Y-105059491D01*
X127638012Y-105059489D01*
X127638010Y-105059487D01*
X127512488Y-104987017D01*
X127512489Y-104987017D01*
X127482896Y-104979087D01*
X127372475Y-104949500D01*
X127227525Y-104949500D01*
X127180931Y-104961985D01*
X127087510Y-104987017D01*
X126961989Y-105059487D01*
X126859487Y-105161989D01*
X126787017Y-105287510D01*
X126749500Y-105427525D01*
X117635749Y-105427525D01*
X117650500Y-105372475D01*
X117650500Y-105227525D01*
X117612984Y-105087515D01*
X117612982Y-105087512D01*
X117612982Y-105087510D01*
X117540512Y-104961989D01*
X117540510Y-104961987D01*
X117540509Y-104961985D01*
X117438015Y-104859491D01*
X117438012Y-104859489D01*
X117438010Y-104859487D01*
X117312488Y-104787017D01*
X117312489Y-104787017D01*
X117239259Y-104767395D01*
X117172475Y-104749500D01*
X117027525Y-104749500D01*
X116965790Y-104766041D01*
X116887510Y-104787017D01*
X116761989Y-104859487D01*
X116659487Y-104961989D01*
X116587017Y-105087510D01*
X116549500Y-105227525D01*
X115306049Y-105227525D01*
X115238015Y-105159491D01*
X115238012Y-105159489D01*
X115238010Y-105159487D01*
X115112488Y-105087017D01*
X115112489Y-105087017D01*
X115009761Y-105059491D01*
X114972475Y-105049500D01*
X114827525Y-105049500D01*
X114790239Y-105059491D01*
X114687510Y-105087017D01*
X114561989Y-105159487D01*
X114459487Y-105261989D01*
X114387017Y-105387510D01*
X114368067Y-105458231D01*
X114349500Y-105527525D01*
X106041042Y-105527525D01*
X106113975Y-105438656D01*
X106255048Y-105227525D01*
X106291407Y-105173110D01*
X106291409Y-105173106D01*
X106298689Y-105159487D01*
X106441961Y-104891444D01*
X106564180Y-104596381D01*
X106656889Y-104290760D01*
X106689359Y-104127525D01*
X114349500Y-104127525D01*
X114349500Y-104272474D01*
X114387017Y-104412489D01*
X114459487Y-104538010D01*
X114459489Y-104538012D01*
X114459491Y-104538015D01*
X114561985Y-104640509D01*
X114561987Y-104640510D01*
X114561989Y-104640512D01*
X114687511Y-104712982D01*
X114687512Y-104712982D01*
X114687515Y-104712984D01*
X114827525Y-104750500D01*
X114827526Y-104750500D01*
X114972474Y-104750500D01*
X114972475Y-104750500D01*
X115112485Y-104712984D01*
X115112487Y-104712982D01*
X115112489Y-104712982D01*
X115238010Y-104640512D01*
X115238010Y-104640511D01*
X115238015Y-104640509D01*
X115340509Y-104538015D01*
X115412984Y-104412485D01*
X115450500Y-104272475D01*
X115450500Y-104127525D01*
X115412984Y-103987515D01*
X115412982Y-103987512D01*
X115412982Y-103987510D01*
X115340512Y-103861989D01*
X115340510Y-103861987D01*
X115340509Y-103861985D01*
X115238015Y-103759491D01*
X115238012Y-103759489D01*
X115238010Y-103759487D01*
X115112488Y-103687017D01*
X115112489Y-103687017D01*
X115082896Y-103679087D01*
X114972475Y-103649500D01*
X114827525Y-103649500D01*
X114789507Y-103659687D01*
X114687510Y-103687017D01*
X114561989Y-103759487D01*
X114459487Y-103861989D01*
X114387017Y-103987510D01*
X114349500Y-104127525D01*
X106689359Y-104127525D01*
X106719196Y-103977523D01*
X106730579Y-103861946D01*
X106750500Y-103659694D01*
X106750500Y-103340305D01*
X106719196Y-103022480D01*
X106719196Y-103022477D01*
X106656889Y-102709240D01*
X106656888Y-102709239D01*
X106656888Y-102709235D01*
X106564183Y-102403627D01*
X106532344Y-102326759D01*
X106441961Y-102108556D01*
X106385828Y-102003538D01*
X106291409Y-101826893D01*
X106291407Y-101826889D01*
X106113977Y-101561346D01*
X105911370Y-101314470D01*
X105911366Y-101314465D01*
X105685535Y-101088634D01*
X105643478Y-101054119D01*
X105438652Y-100886022D01*
X105438653Y-100886022D01*
X105173110Y-100708592D01*
X105173106Y-100708590D01*
X104891462Y-100558048D01*
X104891450Y-100558042D01*
X104891444Y-100558039D01*
X104891439Y-100558036D01*
X104891435Y-100558035D01*
X104729510Y-100490964D01*
X104682985Y-100451227D01*
X104668701Y-100391733D01*
X104692116Y-100335205D01*
X104744285Y-100303235D01*
X104767396Y-100300500D01*
X117301000Y-100300500D01*
X117359191Y-100319407D01*
G37*
%TD.AperFunction*%
%TD*%
M02*
